<svg xmlns="http://www.w3.org/2000/svg" xmlns:xlink="http://www.w3.org/1999/xlink" width="66" height="66" viewBox="0 0 66 66"><defs><style>.a,.b{fill-rule:evenodd;}.a{fill:url(#a);}.b{fill:url(#b);}.c{fill:#fc762a;}.d{fill:#eb5500;}.e{fill:url(#c);}</style><linearGradient id="a" x1="0.5" x2="0.5" y2="1" gradientUnits="objectBoundingBox"><stop offset="0" stop-color="#fda962"/><stop offset="1" stop-color="#fc7327"/></linearGradient><linearGradient id="b" x1="0.5" x2="0.5" y2="1" gradientUnits="objectBoundingBox"><stop offset="0" stop-color="#fc7428"/><stop offset="1" stop-color="#fda962"/></linearGradient><linearGradient id="c" x1="0.603" y1="1.25" x2="0.259" y2="-0.366" gradientUnits="objectBoundingBox"><stop offset="0" stop-color="#fff"/><stop offset="1" stop-color="#fff"/></linearGradient></defs><g transform="translate(-644 -741)"><path class="a" d="M30.457,1h7.086c8.307,0,12.762,1.149,16.8,3.306a22.489,22.489,0,0,1,9.356,9.356C65.851,17.695,67,22.15,67,30.457v7.086c0,8.307-1.149,12.762-3.306,16.8a22.489,22.489,0,0,1-9.356,9.356C50.305,65.851,45.85,67,37.543,67H30.457c-8.307,0-12.762-1.149-16.8-3.306a22.489,22.489,0,0,1-9.356-9.356C2.149,50.305,1,45.85,1,37.543V30.457c0-8.307,1.149-12.762,3.306-16.8a22.489,22.489,0,0,1,9.356-9.356C17.695,2.149,22.15,1,30.457,1Z" transform="translate(643 740)"/><path class="b" d="M27.325,1h6.333c7.424,0,11.405,1.027,15.01,2.954a20.1,20.1,0,0,1,8.361,8.361c1.928,3.6,2.954,7.586,2.954,15.01v6.333c0,7.424-1.027,11.405-2.954,15.01a20.1,20.1,0,0,1-8.361,8.361c-3.6,1.928-7.586,2.954-15.01,2.954H27.325c-7.424,0-11.405-1.027-15.01-2.954a20.1,20.1,0,0,1-8.361-8.361C2.027,45.063,1,41.082,1,33.658V27.325C1,19.9,2.027,15.92,3.954,12.315a20.1,20.1,0,0,1,8.361-8.361C15.92,2.027,19.9,1,27.325,1Z" transform="translate(646.508 743.508)"/><path class="c" d="M11.89-16.529l.522.522v7.3a1.676,1.676,0,0,1-1.3,1.3l-.783-2.087v-5.478ZM10.585-7.4H2.759a1.676,1.676,0,0,1-1.3-1.3l2.087-.783H9.8ZM1.455-9.225v-6.783l.522-.522,1.565,1.565v4.957ZM9.8-24.095H3.568l-2.087-.783a1.676,1.676,0,0,1,1.3-1.3h7.8Zm-6.261.522v4.957L1.976-17.051l-.522-.522v-6.783Zm6.783,4.957v-5.478l.783-2.087a1.676,1.676,0,0,1,1.3,1.3v7.3l-.522.522Zm13.044.783,1.044,1.044-1.044,1.044H16.585L15.542-16.79l1.044-1.044Zm1.565,1.3.522.522v7.3a1.676,1.676,0,0,1-1.3,1.3l-.783-2.087v-5.478ZM23.629-7.4H15.8a1.676,1.676,0,0,1-1.3-1.3l2.087-.783h6.261Zm-.783-16.7H16.611l-2.087-.783a1.676,1.676,0,0,1,1.3-1.3h7.8Zm-6.261.522v4.957L15.02-17.051l-.522-.522v-6.783Zm6.783,4.957v-5.478l.783-2.087a1.676,1.676,0,0,1,1.3,1.3v7.3l-.522.522Zm13.044.783,1.044,1.044-1.044,1.044H29.629L28.586-16.79l1.044-1.044Zm1.565,1.3.522.522v7.3a1.676,1.676,0,0,1-1.3,1.3l-.783-2.087v-5.478ZM36.673-7.4H28.847a1.676,1.676,0,0,1-1.3-1.3l2.087-.783H35.89Zm-.783-16.7H29.655l-2.087-.783a1.676,1.676,0,0,1,1.3-1.3h7.8Zm-6.261.522v4.957l-1.565,1.565-.522-.522v-6.783Zm6.783,4.957v-5.478l.783-2.087a1.676,1.676,0,0,1,1.3,1.3v7.3l-.522.522Z" transform="translate(657.296 792.699)"/><path class="d" d="M11.89-16.529l.522.522v7.3a1.676,1.676,0,0,1-1.3,1.3l-.783-2.087v-5.478ZM10.585-7.4H2.759a1.676,1.676,0,0,1-1.3-1.3l2.087-.783H9.8ZM1.455-9.225v-6.783l.522-.522,1.565,1.565v4.957ZM9.8-24.095H3.568l-2.087-.783a1.676,1.676,0,0,1,1.3-1.3h7.8Zm-6.261.522v4.957L1.976-17.051l-.522-.522v-6.783Zm6.783,4.957v-5.478l.783-2.087a1.676,1.676,0,0,1,1.3,1.3v7.3l-.522.522Zm13.044.783,1.044,1.044-1.044,1.044H16.585L15.542-16.79l1.044-1.044Zm1.565,1.3.522.522v7.3a1.676,1.676,0,0,1-1.3,1.3l-.783-2.087v-5.478ZM23.629-7.4H15.8a1.676,1.676,0,0,1-1.3-1.3l2.087-.783h6.261Zm-.783-16.7H16.611l-2.087-.783a1.676,1.676,0,0,1,1.3-1.3h7.8Zm-6.261.522v4.957L15.02-17.051l-.522-.522v-6.783Zm6.783,4.957v-5.478l.783-2.087a1.676,1.676,0,0,1,1.3,1.3v7.3l-.522.522Zm13.044.783,1.044,1.044-1.044,1.044H29.629L28.586-16.79l1.044-1.044Zm1.565,1.3.522.522v7.3a1.676,1.676,0,0,1-1.3,1.3l-.783-2.087v-5.478ZM36.673-7.4H28.847a1.676,1.676,0,0,1-1.3-1.3l2.087-.783H35.89Zm-.783-16.7H29.655l-2.087-.783a1.676,1.676,0,0,1,1.3-1.3h7.8Zm-6.261.522v4.957l-1.565,1.565-.522-.522v-6.783Zm6.783,4.957v-5.478l.783-2.087a1.676,1.676,0,0,1,1.3,1.3v7.3l-.522.522Z" transform="translate(657.296 791.699)"/><path class="e" d="M11.89-16.529l.522.522v7.3a1.676,1.676,0,0,1-1.3,1.3l-.783-2.087v-5.478ZM10.585-7.4H2.759a1.676,1.676,0,0,1-1.3-1.3l2.087-.783H9.8ZM1.455-9.225v-6.783l.522-.522,1.565,1.565v4.957ZM9.8-24.095H3.568l-2.087-.783a1.676,1.676,0,0,1,1.3-1.3h7.8Zm-6.261.522v4.957L1.976-17.051l-.522-.522v-6.783Zm6.783,4.957v-5.478l.783-2.087a1.676,1.676,0,0,1,1.3,1.3v7.3l-.522.522Zm13.044.783,1.044,1.044-1.044,1.044H16.585L15.542-16.79l1.044-1.044Zm1.565,1.3.522.522v7.3a1.676,1.676,0,0,1-1.3,1.3l-.783-2.087v-5.478ZM23.629-7.4H15.8a1.676,1.676,0,0,1-1.3-1.3l2.087-.783h6.261Zm-.783-16.7H16.611l-2.087-.783a1.676,1.676,0,0,1,1.3-1.3h7.8Zm-6.261.522v4.957L15.02-17.051l-.522-.522v-6.783Zm6.783,4.957v-5.478l.783-2.087a1.676,1.676,0,0,1,1.3,1.3v7.3l-.522.522Zm13.044.783,1.044,1.044-1.044,1.044H29.629L28.586-16.79l1.044-1.044Zm1.565,1.3.522.522v7.3a1.676,1.676,0,0,1-1.3,1.3l-.783-2.087v-5.478ZM36.673-7.4H28.847a1.676,1.676,0,0,1-1.3-1.3l2.087-.783H35.89Zm-.783-16.7H29.655l-2.087-.783a1.676,1.676,0,0,1,1.3-1.3h7.8Zm-6.261.522v4.957l-1.565,1.565-.522-.522v-6.783Zm6.783,4.957v-5.478l.783-2.087a1.676,1.676,0,0,1,1.3,1.3v7.3l-.522.522Z" transform="translate(657.296 790.699)"/></g></svg>