<svg xmlns="http://www.w3.org/2000/svg" xmlns:xlink="http://www.w3.org/1999/xlink" width="66" height="66" viewBox="0 0 66 66"><defs><style>.a,.b{fill-rule:evenodd;}.a{fill:url(#a);}.b{fill:url(#b);}.c{fill:#f48000;}.d{fill:#fff;}</style><linearGradient id="a" x1="0.5" x2="0.5" y2="1" gradientUnits="objectBoundingBox"><stop offset="0" stop-color="#ffba48"/><stop offset="1" stop-color="#f48000"/></linearGradient><linearGradient id="b" x1="0.5" x2="0.5" y2="1" gradientUnits="objectBoundingBox"><stop offset="0" stop-color="#ff9f00"/><stop offset="1" stop-color="#ff9f00"/></linearGradient></defs><g transform="translate(0.903 0.903)"><path class="a" d="M30.457,1h7.086c8.307,0,12.762,1.149,16.8,3.306a22.489,22.489,0,0,1,9.356,9.356C65.851,17.695,67,22.15,67,30.457v7.086c0,8.307-1.149,12.762-3.306,16.8a22.489,22.489,0,0,1-9.356,9.356C50.305,65.851,45.85,67,37.543,67H30.457c-8.307,0-12.762-1.149-16.8-3.306a22.489,22.489,0,0,1-9.356-9.356C2.149,50.305,1,45.85,1,37.543V30.457c0-8.307,1.149-12.762,3.306-16.8a22.489,22.489,0,0,1,9.356-9.356C17.695,2.149,22.15,1,30.457,1Z" transform="translate(-1.903 -1.903)"/><path class="b" d="M27.325,1h6.333c7.424,0,11.405,1.027,15.01,2.954a20.1,20.1,0,0,1,8.361,8.361c1.928,3.6,2.954,7.586,2.954,15.01v6.333c0,7.424-1.027,11.405-2.954,15.01a20.1,20.1,0,0,1-8.361,8.361c-3.6,1.928-7.586,2.954-15.01,2.954H27.325c-7.424,0-11.405-1.027-15.01-2.954a20.1,20.1,0,0,1-8.361-8.361C2.027,45.063,1,41.082,1,33.658V27.325C1,19.9,2.027,15.92,3.954,12.315a20.1,20.1,0,0,1,8.361-8.361C15.92,2.027,19.9,1,27.325,1Z" transform="translate(1.605 1.605)"/><path class="c" d="M-8.9.25a9.574,9.574,0,0,1-3.6-.662,6.2,6.2,0,0,1-2.663-1.975A5.1,5.1,0,0,1-16.2-5.525a.552.552,0,0,1,.15-.387.489.489,0,0,1,.375-.162H-12.1a.848.848,0,0,1,.55.162,1.14,1.14,0,0,1,.325.537A2.22,2.22,0,0,0-8.775-3.5a2.227,2.227,0,0,0,1.837-.787A3.563,3.563,0,0,0-6.3-6.575v-7.05h-8.025a.6.6,0,0,1-.437-.187.6.6,0,0,1-.187-.437v-2.625a.588.588,0,0,1,.188-.45.621.621,0,0,1,.438-.175H-2.1a.628.628,0,0,1,.462.188.628.628,0,0,1,.187.462V-6.425a6.769,6.769,0,0,1-.937,3.638A5.834,5.834,0,0,1-5.012-.512,9.353,9.353,0,0,1-8.9.25ZM8.425.25A10.834,10.834,0,0,1,4.3-.45,6.018,6.018,0,0,1,1.725-2.3,4.318,4.318,0,0,1,.8-4.8a.489.489,0,0,1,.162-.375.552.552,0,0,1,.388-.15H4.675a1.034,1.034,0,0,1,.488.1,1.613,1.613,0,0,1,.412.35,2.515,2.515,0,0,0,1.012.988A3.739,3.739,0,0,0,8.425-3.5,4.251,4.251,0,0,0,10.5-3.912a1.263,1.263,0,0,0,.725-1.138,1.109,1.109,0,0,0-.375-.862,3.326,3.326,0,0,0-1.2-.6Q8.825-6.775,7.275-7.1A10.347,10.347,0,0,1,2.75-8.925a4.26,4.26,0,0,1-1.5-3.5,4.648,4.648,0,0,1,.863-2.762,5.608,5.608,0,0,1,2.45-1.888A9.362,9.362,0,0,1,8.25-17.75a8.841,8.841,0,0,1,3.813.763,6.527,6.527,0,0,1,2.475,1.9,4.028,4.028,0,0,1,.913,2.238.552.552,0,0,1-.15.388.489.489,0,0,1-.375.162h-3.5a.963.963,0,0,1-.85-.45,1.543,1.543,0,0,0-.775-.887A3.047,3.047,0,0,0,8.25-14a2.968,2.968,0,0,0-1.625.375,1.23,1.23,0,0,0-.575,1.1,1.26,1.26,0,0,0,.75,1.137,11.353,11.353,0,0,0,2.8.837,16,16,0,0,1,3.738,1.062,4.713,4.713,0,0,1,2.05,1.65,4.592,4.592,0,0,1,.663,2.562,4.655,4.655,0,0,1-.975,2.95,6.1,6.1,0,0,1-2.7,1.913A10.964,10.964,0,0,1,8.425.25Z" transform="translate(32.097 43.097)"/><path class="d" d="M-8.9.25a9.574,9.574,0,0,1-3.6-.662,6.2,6.2,0,0,1-2.663-1.975A5.1,5.1,0,0,1-16.2-5.525a.552.552,0,0,1,.15-.387.489.489,0,0,1,.375-.162H-12.1a.848.848,0,0,1,.55.162,1.14,1.14,0,0,1,.325.537A2.22,2.22,0,0,0-8.775-3.5a2.227,2.227,0,0,0,1.837-.787A3.563,3.563,0,0,0-6.3-6.575v-7.05h-8.025a.6.6,0,0,1-.437-.187.6.6,0,0,1-.187-.437v-2.625a.588.588,0,0,1,.188-.45.621.621,0,0,1,.438-.175H-2.1a.628.628,0,0,1,.462.188.628.628,0,0,1,.187.462V-6.425a6.769,6.769,0,0,1-.937,3.638A5.834,5.834,0,0,1-5.012-.512,9.353,9.353,0,0,1-8.9.25ZM8.425.25A10.834,10.834,0,0,1,4.3-.45,6.018,6.018,0,0,1,1.725-2.3,4.318,4.318,0,0,1,.8-4.8a.489.489,0,0,1,.162-.375.552.552,0,0,1,.388-.15H4.675a1.034,1.034,0,0,1,.488.1,1.613,1.613,0,0,1,.412.35,2.515,2.515,0,0,0,1.012.988A3.739,3.739,0,0,0,8.425-3.5,4.251,4.251,0,0,0,10.5-3.912a1.263,1.263,0,0,0,.725-1.138,1.109,1.109,0,0,0-.375-.862,3.326,3.326,0,0,0-1.2-.6Q8.825-6.775,7.275-7.1A10.347,10.347,0,0,1,2.75-8.925a4.26,4.26,0,0,1-1.5-3.5,4.648,4.648,0,0,1,.863-2.762,5.608,5.608,0,0,1,2.45-1.888A9.362,9.362,0,0,1,8.25-17.75a8.841,8.841,0,0,1,3.813.763,6.527,6.527,0,0,1,2.475,1.9,4.028,4.028,0,0,1,.913,2.238.552.552,0,0,1-.15.388.489.489,0,0,1-.375.162h-3.5a.963.963,0,0,1-.85-.45,1.543,1.543,0,0,0-.775-.887A3.047,3.047,0,0,0,8.25-14a2.968,2.968,0,0,0-1.625.375,1.23,1.23,0,0,0-.575,1.1,1.26,1.26,0,0,0,.75,1.137,11.353,11.353,0,0,0,2.8.837,16,16,0,0,1,3.738,1.062,4.713,4.713,0,0,1,2.05,1.65,4.592,4.592,0,0,1,.663,2.562,4.655,4.655,0,0,1-.975,2.95,6.1,6.1,0,0,1-2.7,1.913A10.964,10.964,0,0,1,8.425.25Z" transform="translate(32.097 41.097)"/></g></svg>