<svg xmlns="http://www.w3.org/2000/svg" xmlns:xlink="http://www.w3.org/1999/xlink" width="202" height="89" viewBox="0 0 202 89"><defs><style>.a,.c,.d{fill:none;}.a,.d{stroke:#191919;}.b{fill:#fff;}.d{stroke-width:3px;}.e{clip-path:url(#a);}.f{fill:#62e6ac;}.g{font-size:10px;font-family:FuturaPT-Medium, Futura PT;font-weight:500;letter-spacing:0.036em;}.h{clip-path:url(#b);}.i{stroke:none;}</style><clipPath id="a"><rect class="a" width="202" height="89" transform="translate(596 382)"/></clipPath><clipPath id="b"><rect class="b" width="30" height="27" transform="translate(1292 442)"/></clipPath></defs><g transform="translate(-1122 -382)"><rect class="c" width="30" height="27" transform="translate(1292 442)"/><g transform="translate(417 -3272)"><g class="d" transform="translate(705 3654)"><rect class="i" width="202" height="89"/><rect class="c" x="1.5" y="1.5" width="199" height="86"/></g><g class="e" transform="translate(109 3272)"><g class="a" transform="translate(798.086 441.578) rotate(90)"><rect class="i" width="29" height="202"/><rect class="c" x="0.5" y="0.5" width="28" height="201"/></g><g class="a" transform="translate(766.086 441.578) rotate(90)"><rect class="i" width="29" height="170"/><rect class="c" x="0.5" y="0.5" width="28" height="169"/></g></g></g><path d="M8.208,0V-3.44H4.944v-7.232H1.072V0ZM24,0V-2.928H20.576V-3.952H23.6v-2.8H20.576v-.992H23.9v-2.928H16.7V0ZM39.12-1.328,39.472,0h4.112L39.776-10.672H35.488L31.792,0h4.1l.288-1.328ZM37.952-5.9l.5,2.048H36.9L37.424-5.9A5.555,5.555,0,0,0,37.6-7.1h.144A11.821,11.821,0,0,0,37.952-5.9ZM55.632,0V-3.424l.064-.032a1.746,1.746,0,0,0,.144.336L57.376,0H61.84l-2.4-3.6a1.5,1.5,0,0,0-.56-.5v-.1a2.548,2.548,0,0,0,1.472-.848,2.879,2.879,0,0,0,.592-1.9,3.531,3.531,0,0,0-1.008-2.624,4.254,4.254,0,0,0-3.264-1.1H51.856V0Zm0-7.744H56.3a.846.846,0,0,1,.656.288.963.963,0,0,1,.208.64.841.841,0,0,1-.272.656,1.268,1.268,0,0,1-.816.24h-.448ZM74.128,0V-3.632a13.157,13.157,0,0,0-.24-1.968H74a14.205,14.205,0,0,0,.736,1.392L77.392,0H81.1V-10.672H77.392V-7.28a12.529,12.529,0,0,0,.336,2.528h-.112A11.494,11.494,0,0,0,76.608-6.64l-2.48-4.032h-3.7V0Z" transform="translate(1189 409)"/><path d="M6.1,0V-7.3l2.176.1v-3.472H.112V-7.2l2.176-.1V0Z" transform="translate(1298 409)"/><path d="M12.432-5.344A5.429,5.429,0,0,0,10.944-9.2a6.1,6.1,0,0,0-4.432-1.712A6.1,6.1,0,0,0,2.08-9.2,5.429,5.429,0,0,0,.592-5.344,5.441,5.441,0,0,0,2.08-1.472,6.1,6.1,0,0,0,6.512.24a6.1,6.1,0,0,0,4.432-1.712A5.441,5.441,0,0,0,12.432-5.344ZM6.512-7.472A1.931,1.931,0,0,1,7.9-6.928a2.171,2.171,0,0,1,.608,1.6A2.236,2.236,0,0,1,7.9-3.744,1.941,1.941,0,0,1,6.512-3.2,1.941,1.941,0,0,1,5.12-3.744a2.267,2.267,0,0,1-.608-1.584,2.4,2.4,0,0,1,.608-1.6A1.852,1.852,0,0,1,6.512-7.472ZM21.3,0H26.72a4.277,4.277,0,0,0,2.736-.816,2.607,2.607,0,0,0,1.008-2.16,2.419,2.419,0,0,0-.784-1.856,2.473,2.473,0,0,0-1.12-.64l.016-.1a2.26,2.26,0,0,0,.928-.656A2.27,2.27,0,0,0,29.952-7.7a2.749,2.749,0,0,0-.816-2.08,4.774,4.774,0,0,0-3.184-.9H21.3ZM24.88-8.112h.608a1.27,1.27,0,0,1,.7.176.707.707,0,0,1,.24.56.764.764,0,0,1-.208.56,1.13,1.13,0,0,1-.736.24H24.88Zm0,3.776h.832a1.384,1.384,0,0,1,.848.224.809.809,0,0,1,.288.64.842.842,0,0,1-.368.72,1.575,1.575,0,0,1-.816.176H24.88Zm14.448.48A3.769,3.769,0,0,0,40.3-1.168,5.262,5.262,0,0,0,44.272.24,5.17,5.17,0,0,0,48.08-1.088a4.249,4.249,0,0,0,1.12-3.04v-6.544H45.344V-4.48a1.668,1.668,0,0,1-.288,1.12,1.057,1.057,0,0,1-.784.256.967.967,0,0,1-.768-.288,1.538,1.538,0,0,1-.336-1.088v-6.192h-3.84ZM62.416,0V-10.672H58.544V0ZM78.9,0V-3.44H75.632v-7.232H71.76V0ZM92.464,0a5.243,5.243,0,0,0,3.824-1.5,5,5,0,0,0,1.376-3.7,5.23,5.23,0,0,0-1.44-3.856,6.744,6.744,0,0,0-4.72-1.616H87.392V0ZM91.232-7.408h.416a2.187,2.187,0,0,1,1.52.512,2.227,2.227,0,0,1,.624,1.6,2.011,2.011,0,0,1-.624,1.536,2.345,2.345,0,0,1-1.648.5h-.288Z" transform="translate(1189 427)"/><path class="f" d="M3.728-5.68,0,0H4.416L5.68-2.336A3.243,3.243,0,0,0,5.9-2.928h.112a2.509,2.509,0,0,0,.144.512L7.456,0h4.416L8.064-5.68l3.344-4.992H7.024l-.816,1.68a3.184,3.184,0,0,0-.256.72h-.08a4.224,4.224,0,0,0-.24-.72l-.88-1.68H.368Z" transform="translate(1279 409)"/><path class="f" d="M3.6-4.592V0H7.424V-4.592l3.648-6.08H6.7L5.872-8.72a3.191,3.191,0,0,0-.288.848H5.472a4.919,4.919,0,0,0-.288-.848l-.912-1.952H-.112Z" transform="translate(1296 427)"/><path d="M7.247-15.723a7.292,7.292,0,0,0-3.222.736,6.249,6.249,0,0,0-2.44,2.048,5.243,5.243,0,0,0-.967,2.923l-.092-.322a6.96,6.96,0,0,1-.046-.921,4.713,4.713,0,0,1,.967-2.9,6.626,6.626,0,0,1,2.532-2.025,7.391,7.391,0,0,1,3.176-.736,5.125,5.125,0,0,1,3.89,1.519,5.311,5.311,0,0,1,1.5,3.682A5.564,5.564,0,0,0,10.7-14.711,5.437,5.437,0,0,0,7.247-15.723Zm14.362,2.486a7.054,7.054,0,0,1-2.785-.967q-1.174-.736-1.174-1.427,0-.506.621-.76a4.554,4.554,0,0,1,1.68-.253,13.045,13.045,0,0,1,2.256.23,8.94,8.94,0,0,1,3.015.99q1.266.713,1.082,1.312-.23,1.059-2.532,1.059A11.611,11.611,0,0,1,21.608-13.238Zm5.478-.552a1.408,1.408,0,0,1,.46,1.013,2.092,2.092,0,0,1-.184.69,2.292,2.292,0,0,1-1.5,1.2,8.214,8.214,0,0,1-2.555.368,11.564,11.564,0,0,1-2.44-.23,10.283,10.283,0,0,1-3.659-1.473,2.887,2.887,0,0,1-1.5-2.394,1.514,1.514,0,0,1,.967-1.519.872.872,0,0,0-.322.69,2.657,2.657,0,0,0,1.45,2.117,9.113,9.113,0,0,0,3.429,1.335,13.244,13.244,0,0,0,2.3.23q2.578,0,3.544-1.151a.825.825,0,0,0,.138-.414A.746.746,0,0,0,27.086-13.79Zm-7.687-1.7q0,.322.736.644a7.978,7.978,0,0,0,1.7.506,11.3,11.3,0,0,0,1.473.184,2.451,2.451,0,0,0,.9-.138q.345-.138.345-.368,0-.322-.713-.621a8.372,8.372,0,0,0-1.726-.483,10.818,10.818,0,0,0-1.565-.138Q19.4-15.907,19.4-15.493ZM7.891-12.823A7.377,7.377,0,0,0,3.4-11.488,5.074,5.074,0,0,0,1.355-7.668q-.092-.23-.161-.414T1.078-8.4a4.7,4.7,0,0,1,.9-2.992,6.079,6.079,0,0,1,2.509-1.979,8.12,8.12,0,0,1,3.314-.69,5.414,5.414,0,0,1,2.762.667,4.876,4.876,0,0,1,1.749,1.634,3.967,3.967,0,0,1,.644,1.887A5.143,5.143,0,0,0,7.891-12.823Zm7.641-.184a5.115,5.115,0,0,0,2.808,2.67A10.622,10.622,0,0,0,22.9-9.325a8.113,8.113,0,0,0,2.486-.368,4.8,4.8,0,0,0,1.841-1.013,3.288,3.288,0,0,1-.46,1.243,3.339,3.339,0,0,1-1.611.967,8.214,8.214,0,0,1-2.394.322,11.586,11.586,0,0,1-4.7-.967q-2.209-.967-2.532-2.486l-.046-.69ZM8.489-10.015A7.507,7.507,0,0,0,4.37-8.888,4.5,4.5,0,0,0,2.275-5.6a3.254,3.254,0,0,1-.322-.783,4.059,4.059,0,0,1,1.979-3.59A8,8,0,0,1,8.4-11.258a7.1,7.1,0,0,1,2.946.621,3.158,3.158,0,0,1,1.8,1.726l.23,1.059A5.543,5.543,0,0,0,8.489-10.015Zm6.951-.138a5.278,5.278,0,0,0,2.831,2.232,11.443,11.443,0,0,0,4.35.852,5.389,5.389,0,0,0,3.682-1.1,5.412,5.412,0,0,1-.552,1.2,5.585,5.585,0,0,1-3.729,1.013,10.936,10.936,0,0,1-4.143-.783,3.66,3.66,0,0,1-2.348-2.071A6.838,6.838,0,0,1,15.44-10.153ZM9.916-7.069a10.713,10.713,0,0,0-3.544.644A4.752,4.752,0,0,0,3.748-4.492,2.506,2.506,0,0,0,3.38-3.249l-.368-.644v-.276A2.121,2.121,0,0,1,3.15-5a4.225,4.225,0,0,1,2.44-2.463,9.518,9.518,0,0,1,3.959-.852,8.019,8.019,0,0,1,2.463.391,2.716,2.716,0,0,1,1.634,1.128l.276,1.013A6.706,6.706,0,0,0,9.916-7.069Zm5.616-.414q.276,1.1,2.3,1.864a10.693,10.693,0,0,0,3.729.76A5.577,5.577,0,0,0,25.429-6.1a4.1,4.1,0,0,1-.69,1.151,5.654,5.654,0,0,1-3.775,1.1,8.376,8.376,0,0,1-3.245-.621A4.177,4.177,0,0,1,15.624-6.1,7.176,7.176,0,0,1,15.532-7.484ZM10.653-5.5a13.069,13.069,0,0,1,2.256.437q1.013.3,2.44.852,1.749.644,2.9.967a9.557,9.557,0,0,0,2.578.322,6.931,6.931,0,0,0,3.406-.921l-.644,1.059a5.642,5.642,0,0,1-3.038.829,11.519,11.519,0,0,1-2.739-.3q-1.22-.3-2.877-.852-1.611-.506-2.647-.76a9.594,9.594,0,0,0-2.279-.253,8.964,8.964,0,0,0-3.314.6A3.739,3.739,0,0,0,4.577-1.684a.725.725,0,0,0-.184.276l-.46-.829a1.614,1.614,0,0,1,.23-.6A5.042,5.042,0,0,1,6.556-4.814,8.306,8.306,0,0,1,9.962-5.55ZM10.469-2.65a13.274,13.274,0,0,1,2.44.207,24.423,24.423,0,0,1,2.486.621q1.243.368,2.209.575a9.875,9.875,0,0,0,2.071.207,8.306,8.306,0,0,0,3.406-.736L22.437-.625a7.037,7.037,0,0,1-2.992.6A14.661,14.661,0,0,1,16.522-.3L14.934-.625a18.334,18.334,0,0,0-4.143-.6A11.17,11.17,0,0,0,7.477-.74,3.913,3.913,0,0,0,5.313.618L4.853-.395q.23-.921,2.048-1.588A10.31,10.31,0,0,1,10.469-2.65ZM11.3.2a15.675,15.675,0,0,1,2.025.138L14.75.526A24.26,24.26,0,0,0,19.03.94a5.919,5.919,0,0,0,3.13-.69l-.552,1.289q-.322.644-3.084.644a26.8,26.8,0,0,1-3.913-.368,26.937,26.937,0,0,0-3.176-.276,18.242,18.242,0,0,0-2.9.253,8.443,8.443,0,0,0-2.209.575l-.46-.875A4.663,4.663,0,0,1,7.983.618,14,14,0,0,1,11.3.2Zm.092,2.808q1.381,0,4.143.184,1.657.138,2.946.138a4.457,4.457,0,0,0,2.854-.783l-.23,1.2q-.414.875-2.67.875-1.2,0-3.59-.092-1.473-.092-2.117-.092Q9.87,4.346,8.305,4.346a9.313,9.313,0,0,0-1.243.046l-.184-1.1a17.2,17.2,0,0,1,1.8-.184Q10.008,3.011,11.389,3.011Zm-4.235,1.8a.188.188,0,0,1-.046-.138Zm13.809-.138a.188.188,0,0,1-.046.138ZM14.059,6a42.407,42.407,0,0,0,4.442-.23q2.186-.23,2.417-.967l-.138.829q-.276.921-2.071,1.22a29.283,29.283,0,0,1-4.649.3,29.737,29.737,0,0,1-4.672-.3q-1.818-.3-2.094-1.22l-.138-.829q.23.736,2.44.967A43.068,43.068,0,0,0,14.059,6ZM7.569,7.016a.188.188,0,0,1-.046-.138Zm12.981-.138a.188.188,0,0,1-.046.138Zm-6.49,1.979a19.969,19.969,0,0,0,3.982-.437q2.14-.437,2.463-1.4l-.184.829a2.611,2.611,0,0,1-2.094,1.68,15.937,15.937,0,0,1-4.166.483A16.2,16.2,0,0,1,9.87,9.525q-1.8-.483-2.117-1.68l-.184-.829q.322.967,2.486,1.4A20.307,20.307,0,0,0,14.059,8.857Zm0,2.9a11.1,11.1,0,0,0,4.028-.736q1.91-.736,2.048-1.887l-.046.414a3.25,3.25,0,0,1-1.91,2.578,9.531,9.531,0,0,1-4.12.783,9.656,9.656,0,0,1-4.166-.783,3.25,3.25,0,0,1-1.91-2.578l-.046-.414q.138,1.151,2.048,1.887A11.225,11.225,0,0,0,14.059,11.757Zm0,2.808a8.56,8.56,0,0,0,3.659-.783Q19.4,13,19.583,11.8l-.046.276a3.836,3.836,0,0,1-1.8,2.785,6.966,6.966,0,0,1-3.682.9,7.062,7.062,0,0,1-3.729-.9,3.836,3.836,0,0,1-1.8-2.785L8.489,11.8q.184,1.2,1.864,1.979A8.668,8.668,0,0,0,14.059,14.565Z" transform="translate(1136.523 413.179)"/><text class="g" transform="translate(1141 459)"><tspan x="0" y="0">PROGRAMMING CHALLENGE</tspan></text><g class="h"><line class="c" y1="34" x2="34" transform="translate(1281.5 428.5)"/><line class="c" y1="34" x2="34" transform="translate(1278.5 425.5)"/><line class="c" y1="34" x2="34" transform="translate(1285.5 431.5)"/><line class="c" y1="34" x2="34" transform="translate(1288.5 435.5)"/><line class="c" y1="34" x2="34" transform="translate(1293.5 437.5)"/><line class="c" y1="34" x2="34" transform="translate(1297.5 440.5)"/><line class="c" y1="34" x2="34" transform="translate(1300.5 444.5)"/><line class="c" y1="34" x2="34" transform="translate(1302.5 448.5)"/></g><line class="a" y2="58" transform="translate(1175.5 384.5)"/><path d="M17.3-15.829V-1.137L14.637.194,7.125-6.7v5.563L4.463.194,1.8-1.137V-15.829L4.463-17.16l7.512,6.918v-5.587l2.663-1.331Zm-14.834.4.452.4,1.854-.927-.428-.4ZM12.641-9.648,14.3-8.1v-8.154l-1.664.832Zm2.33-6.609v.666l.689-.333Zm1.664.832-.475-.238-1.189.594v.856l1.664-.832ZM3.868-14.141l1.878-.927-.594-.547-1.878.927Zm.38.357.594.547,1.878-.927-.594-.547ZM16.634-1.541,2.466-14.521v12.98L4.13-.709v-9.652L14.756-.614Zm0-12.124v-.856l-1.664.832v.856ZM5.223-12.9l.594.547L7.7-13.285,7.1-13.832Zm11.411.618v-.856l-1.664.832v.856ZM6.2-12l.594.547,1.854-.951-.594-.547Zm.975.88.594.547L9.621-11.5l-.594-.547Zm9.462.214v-.856l-1.664.832v.856Zm-8.511.666.618.571L10.6-10.6l-.618-.571Zm8.511.713v-.856l-1.664.832V-8.7ZM9.1-9.339l.618.547,1.831-.927-.594-.547Zm.975.88.594.547,1.854-.927-.594-.547Zm6.561.309v-.856l-1.664.832v.856ZM5.675-8.031,4.8-8.839V-7.6Zm5.373.475.618.547L13.5-7.936,12.9-8.483ZM4.8-6.224,6.46-7.056v-.238l-.428-.4L4.8-7.08Zm11.839-.547v-.856L12.973-5.8l.594.547Zm-4.612.1.594.547,1.854-.927L13.877-7.6ZM4.8-4.846,6.46-5.678v-.856L4.8-5.678Zm11.839-.571v-.856L13.948-4.917l.594.547ZM4.8-3.467,6.46-4.3v-.856L4.8-4.323Zm10.7-.024,1.141-.571v-.856l-1.735.88ZM4.8-2.088,6.46-2.92v-.832L4.8-2.944Zm11.839-.357V-3.538l-.761.38Zm-10.175.9V-2.4L4.8-1.565v.856Z" transform="translate(1297.7 463.655)"/></g></svg>