<svg xmlns="http://www.w3.org/2000/svg" width="202" height="89" viewBox="0 0 202 89"><defs><style>.a,.b,.f{fill:none;}.a,.b,.c{stroke:#191919;}.a{stroke-width:3px;}.c{fill:#191919;stroke-width:2px;}.d{fill:#62e6ac;}.e{stroke:none;}</style></defs><g transform="translate(-1122 -641)"><g class="a" transform="translate(1122 641)"><rect class="e" width="202" height="89"/><rect class="f" x="1.5" y="1.5" width="199" height="86"/></g><g class="b" transform="translate(1214 663)"><circle class="e" cx="23" cy="23" r="23"/><circle class="f" cx="23" cy="23" r="22.5"/></g><g class="b" transform="translate(1223 663)"><circle class="e" cx="23" cy="23" r="23"/><circle class="f" cx="23" cy="23" r="22.5"/></g><g class="b" transform="translate(1177 663)"><circle class="e" cx="23" cy="23" r="23"/><circle class="f" cx="23" cy="23" r="22.5"/></g><g class="b" transform="translate(1187 663)"><circle class="e" cx="23" cy="23" r="23"/><circle class="f" cx="23" cy="23" r="22.5"/></g><path d="M3.6-10.672v7.28A1.648,1.648,0,0,1,3.312-2.32a.8.8,0,0,1-.48.176A.97.97,0,0,1,2.3-2.336a1.49,1.49,0,0,1-.384-.848L.112-1.328A3.818,3.818,0,0,0,1.168-.24a2.82,2.82,0,0,0,1.68.48A3.448,3.448,0,0,0,5.456-.768a3.093,3.093,0,0,0,.912-2.56v-7.344ZM8.128-.96a7.451,7.451,0,0,0,1.616.848,5.7,5.7,0,0,0,2.1.352A4.137,4.137,0,0,0,14.992-.848,3.615,3.615,0,0,0,16-3.536a2.52,2.52,0,0,0-.688-1.9A4.077,4.077,0,0,0,13.376-6.5l-.848-.256a1.752,1.752,0,0,1-.928-.48.714.714,0,0,1-.144-.48.79.79,0,0,1,.272-.576,1.329,1.329,0,0,1,.912-.32,2.815,2.815,0,0,1,1.824.72l1.1-2.16a7.5,7.5,0,0,0-3.3-.864A3.763,3.763,0,0,0,9.536-9.9,3.489,3.489,0,0,0,8.56-7.328,2.685,2.685,0,0,0,9.168-5.44a3.486,3.486,0,0,0,1.536.864l.72.224a3.843,3.843,0,0,1,1.376.56.834.834,0,0,1,.3.64.954.954,0,0,1-.272.672,1.4,1.4,0,0,1-1.072.368A3.739,3.739,0,0,1,9.312-3.2Z" transform="translate(1132.888 663.912)"/><path d="M3.6-10.672v7.28A1.648,1.648,0,0,1,3.312-2.32a.8.8,0,0,1-.48.176A.97.97,0,0,1,2.3-2.336a1.49,1.49,0,0,1-.384-.848L.112-1.328A3.818,3.818,0,0,0,1.168-.24a2.82,2.82,0,0,0,1.68.48A3.448,3.448,0,0,0,5.456-.768a3.093,3.093,0,0,0,.912-2.56v-7.344Zm7.776,0H8.608V0h2.768V-4.32h4V0H18.16V-10.672H15.376v3.984h-4Z" transform="translate(1294 719.672)"/><path d="M2.892-.564H1.4L2.022-1.3a8.134,8.134,0,0,0,.57-.72,1.474,1.474,0,0,0,.288-.84A1.192,1.192,0,0,0,1.59-4.068a1.2,1.2,0,0,0-.936.39A1.442,1.442,0,0,0,.318-2.8H.906a.709.709,0,0,1,.708-.726.624.624,0,0,1,.666.648.99.99,0,0,1-.21.576c-.132.192-.342.456-.48.624L.2,0H2.892Zm2.22.63a1.153,1.153,0,0,0,.906-.432A2.432,2.432,0,0,0,6.528-2a2.457,2.457,0,0,0-.51-1.638,1.162,1.162,0,0,0-.906-.432,1.162,1.162,0,0,0-.906.432A2.457,2.457,0,0,0,3.7-2a2.432,2.432,0,0,0,.51,1.632A1.153,1.153,0,0,0,5.112.066Zm0-3.594a.641.641,0,0,1,.54.33A2.312,2.312,0,0,1,5.928-2,2.334,2.334,0,0,1,5.652-.8a.641.641,0,0,1-.54.33.641.641,0,0,1-.54-.33A2.334,2.334,0,0,1,4.3-2,2.312,2.312,0,0,1,4.572-3.2.641.641,0,0,1,5.112-3.528ZM7.794,0h.612V-4H7.434L7.1-3.438h.7Zm2.4.138L11.3-1.29A4.022,4.022,0,0,0,11.79-2a1.579,1.579,0,0,0,.192-.762,1.26,1.26,0,0,0-.348-.906,1.374,1.374,0,0,0-1.032-.4A1.376,1.376,0,0,0,9.57-3.66a1.43,1.43,0,0,0-.4,1,1.244,1.244,0,0,0,.366.912,1.288,1.288,0,0,0,.936.372.916.916,0,0,0,.216-.024L9.75-.192ZM10.572-1.9a.842.842,0,0,1-.564-.222.85.85,0,0,1-.234-.594.838.838,0,0,1,.234-.588.862.862,0,0,1,.57-.228.846.846,0,0,1,.57.228.793.793,0,0,1,.234.57.882.882,0,0,1-.234.594A.8.8,0,0,1,10.572-1.9Z" transform="translate(1299 658.068)"/><path d="M1.5,0h.612V-4H1.14L.8-3.438h.7ZM3.456-.288a.361.361,0,0,0,.36.36.361.361,0,0,0,.36-.36.361.361,0,0,0-.36-.36A.361.361,0,0,0,3.456-.288Zm2.82.354a1.153,1.153,0,0,0,.906-.432A2.432,2.432,0,0,0,7.692-2a2.457,2.457,0,0,0-.51-1.638,1.162,1.162,0,0,0-.906-.432,1.162,1.162,0,0,0-.906.432A2.457,2.457,0,0,0,4.86-2,2.432,2.432,0,0,0,5.37-.366,1.153,1.153,0,0,0,6.276.066Zm0-3.594a.641.641,0,0,1,.54.33A2.312,2.312,0,0,1,7.092-2,2.334,2.334,0,0,1,6.816-.8a.641.641,0,0,1-.54.33.641.641,0,0,1-.54-.33A2.334,2.334,0,0,1,5.46-2,2.312,2.312,0,0,1,5.736-3.2.641.641,0,0,1,6.276-3.528Zm2.1,3.24a.361.361,0,0,0,.36.36.361.361,0,0,0,.36-.36.361.361,0,0,0-.36-.36A.361.361,0,0,0,8.376-.288ZM11.2.066A1.153,1.153,0,0,0,12.1-.366,2.432,2.432,0,0,0,12.612-2a2.457,2.457,0,0,0-.51-1.638,1.162,1.162,0,0,0-.906-.432,1.162,1.162,0,0,0-.906.432A2.457,2.457,0,0,0,9.78-2a2.432,2.432,0,0,0,.51,1.632A1.153,1.153,0,0,0,11.2.066Zm0-3.594a.641.641,0,0,1,.54.33A2.312,2.312,0,0,1,12.012-2a2.334,2.334,0,0,1-.276,1.2.641.641,0,0,1-.54.33.641.641,0,0,1-.54-.33A2.334,2.334,0,0,1,10.38-2,2.312,2.312,0,0,1,10.656-3.2.641.641,0,0,1,11.2-3.528Z" transform="translate(1134.196 720.068)"/><line class="b" x2="151" transform="translate(1147.5 686.5)"/><g transform="translate(6 6)"><g class="c" transform="translate(1200 663)"><circle class="e" cx="17" cy="17" r="17"/><circle class="f" cx="17" cy="17" r="16"/></g><path class="d" d="M10.163,1.552A8.656,8.656,0,0,1,5.652.348,8.546,8.546,0,0,1,2.473-2.972a9.66,9.66,0,0,1-1.153-4.7v-8.407a.634.634,0,0,1,.718-.718H7.523a.634.634,0,0,1,.718.718v7.177A4.808,4.808,0,0,0,9.2-5.522a4.453,4.453,0,0,0,3.294,1,9.174,9.174,0,0,0,3.153-.513,6.722,6.722,0,0,0,2.358-1.41.566.566,0,0,1,.256-.128q.077,0,.1.115a.844.844,0,0,1,0,.295A10.281,10.281,0,0,1,15.507-.524,7.426,7.426,0,0,1,10.163,1.552Zm2.819-7.408a5.706,5.706,0,0,1-2.563-.513q-.128-.077-.128-.154a.285.285,0,0,1,.154-.231A2.728,2.728,0,0,0,11.38-8.06a5.592,5.592,0,0,0,.346-2.025v-6a.634.634,0,0,1,.718-.718h5.485a.634.634,0,0,1,.718.718v5.049a4.911,4.911,0,0,1-.731,2.64,5.132,5.132,0,0,1-2.025,1.858A6.165,6.165,0,0,1,12.982-5.855ZM10.112.219q3.793,0,6.1-3.819a.393.393,0,0,0,.051-.154.1.1,0,0,0-.077-.1.319.319,0,0,0-.179,0,10.945,10.945,0,0,1-3.793.666A5.44,5.44,0,0,1,8.138-4.522a5.893,5.893,0,0,1-1.282-4.2v-6.382a.317.317,0,0,0-.359-.359H5.831a.317.317,0,0,0-.359.359v6.485A7.072,7.072,0,0,0,7.049-3.689a5.81,5.81,0,0,0,4.524,1.73,11.019,11.019,0,0,0,1.717-.179q.1-.026.115.026t-.064.1a6.093,6.093,0,0,1-3.2.9,5.593,5.593,0,0,1-3.166-.91,5.979,5.979,0,0,1-2.127-2.55,8.975,8.975,0,0,1-.756-3.793v-6.741a.317.317,0,0,0-.359-.359H3.063a.317.317,0,0,0-.359.359v7.151A9.306,9.306,0,0,0,3.64-3.715a7.048,7.048,0,0,0,2.614,2.9A7.184,7.184,0,0,0,10.112.219Zm3.409-7.408A3.541,3.541,0,0,0,15.4-7.714a3.786,3.786,0,0,0,1.358-1.435,4.059,4.059,0,0,0,.5-1.986v-3.973a.317.317,0,0,0-.359-.359h-.666a.317.317,0,0,0-.359.359v3.922a2.829,2.829,0,0,1-.4,1.5,2.342,2.342,0,0,1-1.141.961.106.106,0,0,1-.115-.013.106.106,0,0,1-.013-.115,6.831,6.831,0,0,0,.282-2.307v-3.947a.317.317,0,0,0-.359-.359h-.666a.317.317,0,0,0-.359.359v4.357A9.3,9.3,0,0,1,12.918-8.8,3.8,3.8,0,0,1,12.444-7.5q-.128.231.051.256A7.072,7.072,0,0,0,13.521-7.188Z" transform="translate(1207.336 688.948)"/></g></g></svg>