<?xml version="1.0" encoding="UTF-8"?>
<svg width="185px" height="41px" viewBox="0 0 185 41" version="1.1" xmlns="http://www.w3.org/2000/svg" xmlns:xlink="http://www.w3.org/1999/xlink">
    <!-- Generator: Sketch 47 (45396) - http://www.bohemiancoding.com/sketch -->
    <title>logo</title>
    <desc>Created with Sketch.</desc>
    <defs>
        <path d="M28.5,29 C33.6936163,29 38.5627633,27.6107812 42.7561155,25.1836688 C51.2714124,20.2550147 57,11.046499 57,0.5 L0,0.5 C0,11.0520633 5.73463397,20.2647311 14.2573648,25.1914663 C18.4476705,27.6137563 23.311948,29 28.5,29 Z" id="path-1"></path>
    </defs>
    <g id="Page-1" stroke="none" stroke-width="1" fill="none" fill-rule="evenodd">
        <g id="02" transform="translate(-868.000000, -52.000000)">
            <g id="logo" transform="translate(868.000000, 51.000000)">
                <g transform="translate(0.000000, 1.000000)">
                    <g id="Triangle" transform="translate(60.599976, 11.599998)">
                        <mask id="mask-2" fill="white">
                            <use xlink:href="#path-1"></use>
                        </mask>
                        <g id="Mask"></g>
                        <path d="M35.6381119,20.7230479 L41,31 L17,31 L22.2087444,21.0165733 C24.1911156,21.6551107 26.3052812,22 28.5,22 C31.0103154,22 33.4152452,21.5487902 35.6381119,20.7230479 Z" fill="#D0021B" mask="url(#mask-2)"></path>
                    </g>
                    <polygon id="Path" fill="#000000" points="89 9.34999847 101.599976 9.34999847 101.599976 13.5 99.5 15.3499985 89 15.3499985"></polygon>
                    <path d="M0.338181447,19.46 C0.338181447,18.2359939 0.524179587,17.0360059 0.896181447,15.86 C1.26818331,14.6839941 1.81417785,13.6280047 2.53418145,12.692 C3.25418505,11.7559953 4.15417605,11.0000029 5.23418145,10.424 C6.31418685,9.84799712 7.56217437,9.56 8.97818145,9.56 C9.89018601,9.56 10.8021769,9.73399826 11.7141814,10.082 C12.626186,10.4300017 13.3581787,10.9279968 13.9101814,11.576 L13.9821814,11.576 L13.9821814,4 L22.2621814,1.784 L22.2621814,29 L16,29 L14.8101814,27.02 L14.7381814,27.02 C14.1861787,27.7880038 13.3821867,28.3939978 12.3261814,28.838 C11.2701762,29.2820022 10.1541873,29.504 8.97818145,29.504 C7.56217437,29.504 6.31418685,29.2160029 5.23418145,28.64 C4.15417605,28.0639971 3.25418505,27.3020047 2.53418145,26.354 C1.81417785,25.4059953 1.26818331,24.332006 0.896181447,23.132 C0.524179587,21.931994 0.338181447,20.7080062 0.338181447,19.46 Z M8.04218145,19.46 C8.04218145,20.3720046 8.30617881,21.1339969 8.83418145,21.746 C9.36218409,22.3580031 10.1301764,22.664 11.1381814,22.664 C12.1221864,22.664 12.9081785,22.3520031 13.4961814,21.728 C14.0841844,21.1039969 14.3781814,20.3480044 14.3781814,19.46 C14.3781814,18.6199958 14.0841844,17.8880031 13.4961814,17.264 C12.9081785,16.6399969 12.1221864,16.328 11.1381814,16.328 C10.1301764,16.328 9.36218409,16.6399969 8.83418145,17.264 C8.30617881,17.8880031 8.04218145,18.6199958 8.04218145,19.46 Z M38.6781814,17.012 C38.6781814,16.3399966 38.4321839,15.7880022 37.9401814,15.356 C37.448179,14.9239978 36.7821856,14.708 35.9421814,14.708 C35.0301769,14.708 34.322184,14.9599975 33.8181814,15.464 C33.3141789,15.9680025 33.0261818,16.4839974 32.9541814,17.012 L38.6781814,17.012 Z M45.8421814,19.712 C45.8421814,20.0240016 45.8361815,20.3419984 45.8241814,20.666 C45.8121814,20.9900016 45.7941816,21.2599989 45.7701814,21.476 L33.0261814,21.476 C33.0501816,21.8120017 33.1641804,22.1119987 33.3681814,22.376 C33.5721825,22.6400013 33.8241799,22.867999 34.1241814,23.06 C34.4241829,23.252001 34.7601796,23.3959995 35.1321814,23.492 C35.5041833,23.5880005 35.8821795,23.636 36.2661814,23.636 C37.0341853,23.636 37.6761789,23.4980014 38.1921814,23.222 C38.708184,22.9459986 39.0981801,22.6400017 39.3621814,22.304 L45.2661814,25.292 C44.4261772,26.6600068 43.2081894,27.739996 41.6121814,28.532 C40.0161735,29.324004 38.162192,29.72 36.0501814,29.72 C34.6821746,29.72 33.3501879,29.5040022 32.0541814,29.072 C30.758175,28.6399978 29.6121864,27.9980043 28.6161814,27.146 C27.6201765,26.2939957 26.8221844,25.2320064 26.2221814,23.96 C25.6221784,22.6879936 25.3221814,21.2120084 25.3221814,19.532 C25.3221814,17.9719922 25.5981787,16.5620063 26.1501814,15.302 C26.7021842,14.0419937 27.4521767,12.9740044 28.4001814,12.098 C29.3481862,11.2219956 30.464175,10.5440024 31.7481814,10.064 C33.0321879,9.5839976 34.4061741,9.344 35.8701814,9.344 C37.3581889,9.344 38.7141753,9.60199742 39.9381814,10.118 C41.1621876,10.6340026 42.2121771,11.3539954 43.0881814,12.278 C43.9641858,13.2020046 44.642179,14.2999936 45.1221814,15.572 C45.6021838,16.8440064 45.8421814,18.2239926 45.8421814,19.712 Z M64.2741814,22.988 C64.2741814,24.2600064 64.0041841,25.3279957 63.4641814,26.192 C62.9241787,27.0560043 62.2401856,27.7459974 61.4121814,28.262 C60.5841773,28.7780026 59.6781864,29.1499989 58.6941814,29.378 C57.7101765,29.6060011 56.7741859,29.72 55.8861814,29.72 C54.2541733,29.72 52.6521893,29.4860023 51.0801814,29.018 C49.5081736,28.5499977 48.1461872,27.8840043 46.9941814,27.02 L51.0621814,22.304 C51.6381843,22.8320026 52.3161775,23.2579984 53.0961814,23.582 C53.8761853,23.9060016 54.6261778,24.068 55.3461814,24.068 C55.6341829,24.068 55.9041802,24.0140005 56.1561814,23.906 C56.4081827,23.7979995 56.5341814,23.6000014 56.5341814,23.312 C56.5341814,22.9999984 56.3121837,22.7540009 55.8681814,22.574 C55.4241792,22.3939991 54.650187,22.1720013 53.5461814,21.908 C52.9461784,21.7639993 52.3341846,21.5540014 51.7101814,21.278 C51.0861783,21.0019986 50.516184,20.6360023 50.0001814,20.18 C49.4841789,19.7239977 49.0581831,19.1660033 48.7221814,18.506 C48.3861798,17.8459967 48.2181814,17.0600046 48.2181814,16.148 C48.2181814,14.9239939 48.4881787,13.8800043 49.0281814,13.016 C49.5681841,12.1519957 50.2521773,11.4500027 51.0801814,10.91 C51.9081856,10.3699973 52.8081766,9.97400126 53.7801814,9.722 C54.7521863,9.46999874 55.6701771,9.344 56.5341814,9.344 C57.9981888,9.344 59.4501742,9.55999784 60.8901814,9.992 C62.3301886,10.4240022 63.6261757,11.0239962 64.7781814,11.792 L60.8901814,16.436 C60.2901784,16.0519981 59.6781846,15.7520011 59.0541814,15.536 C58.4301783,15.3199989 57.8181844,15.212 57.2181814,15.212 C56.8101794,15.212 56.4741828,15.2659995 56.2101814,15.374 C55.9461801,15.4820005 55.8141814,15.6919984 55.8141814,16.004 C55.8141814,16.2440012 55.9641799,16.4299993 56.2641814,16.562 C56.5641829,16.6940007 57.254176,16.8679989 58.3341814,17.084 C59.0781852,17.2280007 59.8041779,17.4499985 60.5121814,17.75 C61.220185,18.0500015 61.8561786,18.4339977 62.4201814,18.902 C62.9841843,19.3700023 63.4341798,19.9399966 63.7701814,20.612 C64.1061831,21.2840034 64.2741814,22.0759954 64.2741814,22.988 Z M67.2621814,10.064 L75.5781814,10.064 L75.5781814,29 L67.2621814,29 L67.2621814,10.064 Z M67.1181814,4.592 C67.1181814,4.01599712 67.2321803,3.47000258 67.4601814,2.954 C67.6881826,2.43799742 68.0001795,1.98800192 68.3961814,1.604 C68.7921834,1.21999808 69.2541788,0.91400114 69.7821814,0.686 C70.3101841,0.45799886 70.8741784,0.344 71.4741814,0.344 C72.0501843,0.344 72.5901789,0.45799886 73.0941814,0.686 C73.598184,0.91400114 74.0481795,1.21999808 74.4441814,1.604 C74.8401834,1.98800192 75.1521803,2.43799742 75.3801814,2.954 C75.6081826,3.47000258 75.7221814,4.01599712 75.7221814,4.592 C75.7221814,5.192003 75.6081826,5.74999742 75.3801814,6.266 C75.1521803,6.78200258 74.8401834,7.22599814 74.4441814,7.598 C74.0481795,7.97000186 73.598184,8.26399892 73.0941814,8.48 C72.5901789,8.69600108 72.0501843,8.804 71.4741814,8.804 C70.8741784,8.804 70.3101841,8.69600108 69.7821814,8.48 C69.2541788,8.26399892 68.7921834,7.97000186 68.3961814,7.598 C68.0001795,7.22599814 67.6881826,6.78200258 67.4601814,6.266 C67.2321803,5.74999742 67.1181814,5.192003 67.1181814,4.592 Z M104.522181,10.064 L110.5,10 L112.622181,12.152 L112.694181,12.152 C113.174184,11.4559965 113.888177,10.8500026 114.836181,10.334 C115.784186,9.81799742 116.870175,9.56 118.094181,9.56 C119.414188,9.56 120.512177,9.7999976 121.388181,10.28 C122.264186,10.7600024 122.960179,11.3779962 123.476181,12.134 C123.992184,12.8900038 124.35218,13.7359953 124.556181,14.672 C124.760182,15.6080047 124.862181,16.5439953 124.862181,17.48 L124.862181,29 L116.510181,29 L116.510181,18.92 C116.510181,17.9599952 116.360183,17.2880019 116.060181,16.904 C115.76018,16.5199981 115.310184,16.328 114.710181,16.328 C114.158179,16.328 113.708183,16.5499978 113.360181,16.994 C113.01218,17.4380022 112.838181,18.0799958 112.838181,18.92 L112.838181,29 L104.522181,29 L104.522181,10.064 Z M128.498181,1.784 L136.994181,1.784 L136.994181,29 L128.498181,29 L128.498181,1.784 Z M153.410181,17.012 C153.410181,16.3399966 153.164184,15.7880022 152.672181,15.356 C152.180179,14.9239978 151.514186,14.708 150.674181,14.708 C149.762177,14.708 149.054184,14.9599975 148.550181,15.464 C148.046179,15.9680025 147.758182,16.4839974 147.686181,17.012 L153.410181,17.012 Z M160.574181,19.712 C160.574181,20.0240016 160.568182,20.3419984 160.556181,20.666 C160.544181,20.9900016 160.526182,21.2599989 160.502181,21.476 L147.758181,21.476 C147.782182,21.8120017 147.89618,22.1119987 148.100181,22.376 C148.304182,22.6400013 148.55618,22.867999 148.856181,23.06 C149.156183,23.252001 149.49218,23.3959995 149.864181,23.492 C150.236183,23.5880005 150.61418,23.636 150.998181,23.636 C151.766185,23.636 152.408179,23.4980014 152.924181,23.222 C153.440184,22.9459986 153.83018,22.6400017 154.094181,22.304 L159.998181,25.292 C159.158177,26.6600068 157.940189,27.739996 156.344181,28.532 C154.748173,29.324004 152.894192,29.72 150.782181,29.72 C149.414175,29.72 148.082188,29.5040022 146.786181,29.072 C145.490175,28.6399978 144.344186,27.9980043 143.348181,27.146 C142.352176,26.2939957 141.554184,25.2320064 140.954181,23.96 C140.354178,22.6879936 140.054181,21.2120084 140.054181,19.532 C140.054181,17.9719922 140.330179,16.5620063 140.882181,15.302 C141.434184,14.0419937 142.184177,12.9740044 143.132181,12.098 C144.080186,11.2219956 145.196175,10.5440024 146.480181,10.064 C147.764188,9.5839976 149.138174,9.344 150.602181,9.344 C152.090189,9.344 153.446175,9.60199742 154.670181,10.118 C155.894188,10.6340026 156.944177,11.3539954 157.820181,12.278 C158.696186,13.2020046 159.374179,14.2999936 159.854181,15.572 C160.334184,16.8440064 160.574181,18.2239926 160.574181,19.712 Z M184.334181,19.46 C184.334181,21.0920082 184.040184,22.5439936 183.452181,23.816 C182.864179,25.0880064 182.072186,26.1619956 181.076181,27.038 C180.080176,27.9140044 178.928188,28.5799977 177.620181,29.036 C176.312175,29.4920023 174.938189,29.72 173.498181,29.72 C172.082174,29.72 170.720188,29.4920023 169.412181,29.036 C168.104175,28.5799977 166.958186,27.9140044 165.974181,27.038 C164.990177,26.1619956 164.204184,25.0880064 163.616181,23.816 C163.028179,22.5439936 162.734181,21.0920082 162.734181,19.46 C162.734181,17.851992 163.028179,16.4180063 163.616181,15.158 C164.204184,13.8979937 164.990177,12.8360043 165.974181,11.972 C166.958186,11.1079957 168.104175,10.4540022 169.412181,10.01 C170.720188,9.56599778 172.082174,9.344 173.498181,9.344 C174.938189,9.344 176.312175,9.56599778 177.620181,10.01 C178.928188,10.4540022 180.080176,11.1079957 181.076181,11.972 C182.072186,12.8360043 182.864179,13.8979937 183.452181,15.158 C184.040184,16.4180063 184.334181,17.851992 184.334181,19.46 Z M173.498181,16.328 C172.586177,16.328 171.848184,16.6399969 171.284181,17.264 C170.720179,17.8880031 170.438181,18.6199958 170.438181,19.46 C170.438181,20.3480044 170.726179,21.1039969 171.302181,21.728 C171.878184,22.3520031 172.622177,22.664 173.534181,22.664 C174.446186,22.664 175.190179,22.3520031 175.766181,21.728 C176.342184,21.1039969 176.630181,20.3480044 176.630181,19.46 C176.630181,18.6199958 176.336184,17.8880031 175.748181,17.264 C175.160179,16.6399969 174.410186,16.328 173.498181,16.328 Z M100.334181,19.46 C100.334181,21.0920082 100.040184,22.5439936 99.4521814,23.816 C98.8641785,25.0880064 98.0721864,26.1619956 97.0761814,27.038 C96.0801765,27.9140044 94.928188,28.5799977 93.6201814,29.036 C92.3121749,29.4920023 90.9381886,29.72 89.4981814,29.72 C88.0821744,29.72 86.720188,29.4920023 85.4121814,29.036 C84.1041749,28.5799977 82.9581864,27.9140044 81.9741814,27.038 C80.9901765,26.1619956 80.2041844,25.0880064 79.6161814,23.816 C79.0281785,22.5439936 78.7341814,21.0920082 78.7341814,19.46 C78.7341814,17.851992 79.0281785,16.4180063 79.6161814,15.158 C80.2041844,13.8979937 80.9901765,12.8360043 81.9741814,11.972 C82.9581864,11.1079957 84.1041749,10.4540022 85.4121814,10.01 C86.720188,9.56599778 88.0821744,9.344 89.4981814,9.344 C90.9381886,9.344 92.3121749,9.56599778 93.6201814,10.01 C94.928188,10.4540022 96.0801765,11.1079957 97.0761814,11.972 C98.0721864,12.8360043 98.8641785,13.8979937 99.4521814,15.158 C100.040184,16.4180063 100.334181,17.851992 100.334181,19.46 Z M89.4981814,16.328 C88.5861769,16.328 87.8481843,16.6399969 87.2841814,17.264 C86.7201786,17.8880031 86.4381814,18.6199958 86.4381814,19.46 C86.4381814,20.3480044 86.7261786,21.1039969 87.3021814,21.728 C87.8781843,22.3520031 88.6221769,22.664 89.5341814,22.664 C90.446186,22.664 91.1901786,22.3520031 91.7661814,21.728 C92.3421843,21.1039969 92.6301814,20.3480044 92.6301814,19.46 C92.6301814,18.6199958 92.3361844,17.8880031 91.7481814,17.264 C91.1601785,16.6399969 90.410186,16.328 89.4981814,16.328 Z" id="designleo" fill="#000000"></path>
                </g>
            </g>
        </g>
    </g>
</svg>