<?xml version="1.0" encoding="UTF-8"?>
<svg width="47px" height="38px" viewBox="0 0 47 38" version="1.1" xmlns="http://www.w3.org/2000/svg" xmlns:xlink="http://www.w3.org/1999/xlink">
    <!-- Generator: Sketch 51.2 (57519) - http://www.bohemiancoding.com/sketch -->
    <title>Combined Shape</title>
    <desc>Created with Sketch.</desc>
    <defs></defs>
    <g id="Page-1" stroke="none" stroke-width="1" fill="none" fill-rule="evenodd">
        <g id="02" transform="translate(-937.000000, -36.000000)" fill="#222222" fill-rule="nonzero">
            <path d="M965,51 C965,56.0720497 965,59.0720497 965,60 C965,62.7614237 967.238576,65 970,65 C972.761424,65 975,62.7614237 975,60 C975,58.0280007 973.858386,56.3226396 972.199999,55.5087581 C971.536119,55.1829477 970.789424,55 970,55 L966.25,49.75 L970,46 C972.219978,46 974.319272,46.5167078 976.184178,47.4364185 C980.814574,49.7199788 984,54.4879914 984,60 C984,67.7319865 977.731986,74 970,74 C962.268014,74 956,67.7319865 956,60 L965,51 Z M956,45 L954.5,45 C952.014719,45 950,42.9852814 950,40.5 C950,38.0147186 952.014719,36 954.5,36 L960.5,36 C962.985281,36 965,38.0147186 965,40.5 L965,59.5 C965,59.5605613 964.998804,59.6208431 964.996433,59.6808232 C964.998807,59.7869284 965,59.8933249 965,60 C965,62.7614237 967.238576,65 970,65 C972.761424,65 975,62.7614237 975,60 L984,60 C984,67.7319865 977.731986,74 970,74 C966.333331,74 962.995888,72.5904154 960.5,70.2835746 C958.004112,72.5904154 954.666669,74 951,74 C943.268014,74 937,67.7319865 937,60 C937,52.2680135 943.268014,46 951,46 C952.761596,46 954.4472,46.3253571 956,46.9192576 L956,45 Z M946,60 C946,62.7614237 948.238576,65 951,65 C953.761424,65 956,62.7614237 956,60 C956,57.2385763 953.761424,55 951,55 C948.238576,55 946,57.2385763 946,60 Z M970,55 C967.514719,55 965.5,52.9852814 965.5,50.5 C965.5,48.0147186 967.514719,46 970,46 C972.485281,46 974.5,48.0147186 974.5,50.5 C974.5,52.9852814 972.485281,55 970,55 Z" id="Combined-Shape"></path>
        </g>
    </g>
</svg>