<svg xmlns="http://www.w3.org/2000/svg" width="64.909" height="64.974" viewBox="0 0 64.909 64.974"><path d="M80.417,1.772A29.241,29.241,0,0,1,87.929.031a7.631,7.631,0,0,1,1-.024,10.6,10.6,0,0,1-.183,2.829c-1.11,6.3-4.119,12.1-7.77,17.289l-.034.042c-.116-.347-.321-.659-.42-1.01.969-1.447,1.935-2.9,2.772-4.433a26.752,26.752,0,0,1-2.616-1.756c-.775.919-1.453,1.919-2.257,2.814a26.184,26.184,0,0,0-3.622-3.9c-.5-.448-1.043-.839-1.558-1.268l.051-.05c.868-.8,1.842-1.473,2.764-2.208-.608-.895-1.24-1.773-1.812-2.693-1.559.811-2.985,1.843-4.47,2.777l-.063.038a3.758,3.758,0,0,0-1.033-.388l.055-.042A50.446,50.446,0,0,1,80.417,1.772Z" transform="translate(-24.054 0)"/><g transform="translate(0 37.234)"><path d="M11.982,57.366l.055-.06a25.024,25.024,0,0,0,3.354,6.648c-.731,1.307-1.488,2.6-2.144,3.949a4.648,4.648,0,0,0,.638.6c.838-1.049,1.563-2.188,2.43-3.213l.041-.048a28.483,28.483,0,0,0,3.375,3.373l-.049.04c-1.033.865-2.179,1.589-3.232,2.43a3.781,3.781,0,0,0,.531.538,1.366,1.366,0,0,0,.537-.174c1.012-.485,1.993-1.03,2.984-1.555a1.592,1.592,0,0,0,.472-.353l.131.008a3.247,3.247,0,0,0,.89.689,24.387,24.387,0,0,0,5.769,2.7l-.057.043c-1.653,1.221-3.4,2.317-5.16,3.371a47.537,47.537,0,0,1-6.809,3.388,5.3,5.3,0,0,1-.941.293,5.175,5.175,0,0,1,.581-.99,34.9,34.9,0,0,0,2.793-4.7,10.034,10.034,0,0,0,.837-2.581c-.735.313-1.425.726-2.18.992a7.99,7.99,0,0,1-.665-.6c-1.34,1.406-2.71,2.787-4.143,4.1A82.752,82.752,0,0,1,.964,84.475a9.271,9.271,0,0,1-.964.57A3.717,3.717,0,0,1,.463,84.2,82.715,82.715,0,0,1,8.878,72.889c1.273-1.374,2.591-2.709,3.963-3.986-.1-.35-.6-.517-.713-.877.306-.683.734-1.311.982-2.02a19.264,19.264,0,0,0-6.218,2.962c-.678.4-1.266.939-1.968,1.3a8.262,8.262,0,0,1,.508-1.519,60.673,60.673,0,0,1,6.23-11A2.547,2.547,0,0,1,11.982,57.366Zm1.149,11.808A21.917,21.917,0,0,0,9.638,73.3a26.76,26.76,0,0,0-2.331,4.25,8.772,8.772,0,0,0,1.4-.639,23.993,23.993,0,0,0,6.966-5.171c-.066-.274-.4-.439-.569-.67a3.253,3.253,0,0,0-.6.419c-1.383,1.072-2.8,2.1-4.165,3.2a3.032,3.032,0,0,1-.641.476c-.055-.278.213-.447.347-.654,1.229-1.6,2.52-3.151,3.724-4.766A3.446,3.446,0,0,0,13.131,69.174Z" transform="translate(0 -57.306)"/></g><g transform="translate(10.926 5.989)"><path d="M32.813,10.594a24.224,24.224,0,0,1,16.765.246,5.68,5.68,0,0,1,.987.44l-.055.042a71.127,71.127,0,0,0-7.884,6.7A132.272,132.272,0,0,0,28.559,34.336c-.329.431-.608.9-.962,1.309a1.222,1.222,0,0,1-.724.275c-1.946.257-3.894.49-5.841.737-.332.02-.505.342-.7.566-.817,1.066-1.678,2.105-2.4,3.238l-.055.06a1.388,1.388,0,0,0-.049-.415A24.012,24.012,0,0,1,32.813,10.594Z" transform="translate(-16.816 -9.217)"/><path d="M65.226,13.033,65.289,13a4.415,4.415,0,0,0,.9.537,22.084,22.084,0,0,1,2.095,1.309,2.19,2.19,0,0,0,.524.278l-.051.05c-1.654,1.263-3.214,2.648-4.8,3.993-1.884,1.624-3.694,3.336-5.525,5.019a5.338,5.338,0,0,1-.786.678,11.728,11.728,0,0,1-1.678-3.243c-.049-.219-.168-.484.019-.671a15.8,15.8,0,0,1,1.7-1.7A68.792,68.792,0,0,1,65.226,13.033Z" transform="translate(-30.499 -10.541)"/><path d="M77.98,24.877c.143-.157.244-.368.437-.47.133.047.185.2.272.3a24.823,24.823,0,0,1,1.758,2.906c.114.144-.077.28-.138.4a72.839,72.839,0,0,1-7.571,8.862c-.151.136-.324.35-.555.273a10.916,10.916,0,0,1-3.511-1.756c.838-.964,1.758-1.856,2.608-2.809C73.591,30.083,75.834,27.521,77.98,24.877Z" transform="translate(-34.979 -14.538)"/><path d="M71.823,31.017l.034-.042a24.18,24.18,0,0,1,1.713,14.179A24.015,24.015,0,0,1,50.025,64.812a23.635,23.635,0,0,1-6.976-.98,2.382,2.382,0,0,0-.4-.073l.057-.043c1.091-.746,2.143-1.55,3.179-2.37.237-.207.53-.414.591-.744.285-1.989.5-3.985.771-5.974.065-.647.778-.878,1.21-1.253A139.376,139.376,0,0,0,63.8,40.257,78.637,78.637,0,0,0,71.823,31.017Z" transform="translate(-25.864 -16.838)"/><path d="M51.64,34.065a4.443,4.443,0,0,1,.648-.593c.765.94,1.554,1.864,2.4,2.73.793.8,1.661,1.511,2.5,2.253.072.087.274.177.179.318-1.414,1.574-3,2.982-4.5,4.468-2.413,2.316-4.913,4.539-7.417,6.757-.095.077-.231.232-.354.1a19.406,19.406,0,0,1-2.164-1.921,21.384,21.384,0,0,1-2.167-2.372c-.1-.138.081-.253.149-.353,1.694-1.9,3.365-3.81,5.109-5.659C47.85,37.836,49.739,35.944,51.64,34.065Z" transform="translate(-25.197 -17.713)"/><path d="M31.19,49.316a4.643,4.643,0,0,1,.732-.879c.476.867,1.112,1.645,1.57,2.516a6.193,6.193,0,0,1-.731.949c-2.809,3.321-5.523,6.726-8.1,10.229l-.041.048c-.231-.5-.685-.847-.907-1.344.814-1.516,1.747-2.968,2.659-4.429C27.907,53.994,29.523,51.636,31.19,49.316Z" transform="translate(-19.233 -22.955)"/><path d="M41.265,61.282c.12-.068.262-.278.413-.159a28.226,28.226,0,0,0,2.544,1.565c-.458.411-.98.743-1.469,1.114q-3.093,2.261-6.336,4.311c-1.546.952-3.086,1.926-4.7,2.757l-.131-.008c-.46-.254-.82-.658-1.292-.887l.049-.04C34.089,67.189,37.709,64.272,41.265,61.282Z" transform="translate(-21.537 -27.385)"/></g></svg>