<svg xmlns="http://www.w3.org/2000/svg" width="105.399" height="89" viewBox="0 0 105.399 89"><defs><style>.a,.g{fill:none;}.a{stroke:#191919;stroke-width:3px;}.b,.c{fill:#62e6ac;}.c{opacity:0.495;}.d,.e{fill:#191919;font-size:18px;}.d{font-family:FuturaPT-Light, Futura PT;font-weight:300;}.e{font-family:FuturaPT-Bold, Futura PT;font-weight:700;}.f{stroke:none;}</style></defs><g transform="translate(-1209.601 -502)"><g class="a" transform="translate(1226 502)"><circle class="f" cx="44.5" cy="44.5" r="44.5"/><circle class="g" cx="44.5" cy="44.5" r="43"/></g><g transform="translate(63.601 79)"><path class="b" d="M1445,121.9h49.815a4.331,4.331,0,0,1,4.331,4.332v40.74a4.331,4.331,0,0,1-4.331,4.332h-45.483A4.331,4.331,0,0,1,1445,166.97Z" transform="translate(-299 321.845)"/><path class="c" d="M1445,102.6a2.6,2.6,0,0,1,2.6-2.6h16.244a2.6,2.6,0,0,1,2.6,2.6v2.144H1445Z" transform="translate(-299 339)"/></g><text class="d" transform="translate(1300 544)"><tspan x="-47.304" y="0">MORE</tspan></text><text class="e" transform="translate(1300 563)"><tspan x="-83.106" y="0">PROJECTS</tspan></text></g></svg>