<svg xmlns="http://www.w3.org/2000/svg" width="96.35" height="32" viewBox="0 0 96.35 32"><defs><style>.a,.b,.e{fill:none;}.a,.b{stroke:#191919;}.a{stroke-width:3px;}.c{fill:#191919;}.d{stroke:none;}</style></defs><g transform="translate(-3643.65 -5086)"><g transform="translate(2435 4479)"><g class="a" transform="translate(1273 607)"><circle class="d" cx="16" cy="16" r="16"/><circle class="e" cx="16" cy="16" r="14.5"/></g><line class="b" x2="38" transform="translate(1251.5 623.5)"/></g><path class="c" d="M5.59-3.445H8.164A2.742,2.742,0,0,1,7.813-2.21,3.017,3.017,0,0,1,5.161-.754,3.475,3.475,0,0,1,1.638-4.316,3.467,3.467,0,0,1,5.187-7.9a3.184,3.184,0,0,1,2.106.728,4.581,4.581,0,0,1,.819.9l.715-.65a5.306,5.306,0,0,0-1-1.027,4.317,4.317,0,0,0-2.652-.858A4.422,4.422,0,0,0,.65-4.329,4.408,4.408,0,0,0,5.148.156,3.891,3.891,0,0,0,8.372-1.4,4.778,4.778,0,0,0,9.2-4.147v-.208H5.59Zm9.425,3.6a4.426,4.426,0,0,0,4.511-4.485,4.426,4.426,0,0,0-4.511-4.485A4.426,4.426,0,0,0,10.5-4.329,4.426,4.426,0,0,0,15.015.156Zm0-8.06a3.537,3.537,0,0,1,3.523,3.575A3.537,3.537,0,0,1,15.015-.754a3.537,3.537,0,0,1-3.523-3.575A3.537,3.537,0,0,1,15.015-7.9Zm10.062.143v-.91H19.9v.91h2.106V0h.962V-7.761ZM29.965.156a4.426,4.426,0,0,0,4.511-4.485,4.426,4.426,0,0,0-4.511-4.485,4.426,4.426,0,0,0-4.511,4.485A4.426,4.426,0,0,0,29.965.156Zm0-8.06a3.537,3.537,0,0,1,3.523,3.575A3.537,3.537,0,0,1,29.965-.754a3.537,3.537,0,0,1-3.523-3.575A3.537,3.537,0,0,1,29.965-7.9Z" transform="translate(3643 5107)"/></g></svg>