<svg xmlns="http://www.w3.org/2000/svg" width="202" height="89" viewBox="0 0 202 89"><defs><style>.a{fill:#fff;stroke-width:3px;}.a,.b,.d,.e{stroke:#191919;}.b,.g{fill:none;}.c,.e{fill:#191919;}.d{fill:#62e6ac;}.f{stroke:none;}</style></defs><g transform="translate(-596 -641)"><g class="a" transform="translate(596 641)"><rect class="f" width="202" height="89"/><rect class="g" x="1.5" y="1.5" width="199" height="86"/></g><line class="b" y2="85" transform="translate(598.5 643.5)"/><line class="b" y2="85" transform="translate(609.5 643.5)"/><line class="b" y2="85" transform="translate(620.5 643.5)"/><line class="b" y2="85" transform="translate(631.5 643.5)"/><line class="b" y2="85" transform="translate(642.5 643.5)"/><line class="b" y2="85" transform="translate(653.5 643.5)"/><line class="b" y2="85" transform="translate(664.5 643.5)"/><line class="b" y2="85" transform="translate(675.5 643.5)"/><line class="b" y2="85" transform="translate(686.5 643.5)"/><line class="b" y2="85" transform="translate(697.5 643.5)"/><line class="b" y2="85" transform="translate(708.5 643.5)"/><line class="b" y2="85" transform="translate(719.5 643.5)"/><line class="b" y2="85" transform="translate(730.5 643.5)"/><line class="b" y2="85" transform="translate(741.5 643.5)"/><line class="b" y2="85" transform="translate(752.5 643.5)"/><line class="b" y2="85" transform="translate(763.5 643.5)"/><line class="b" y2="85" transform="translate(774.5 643.5)"/><line class="b" y2="85" transform="translate(785.5 643.5)"/><line class="b" x2="198" transform="translate(598.5 642.5)"/><line class="b" x2="198" transform="translate(598.5 653.5)"/><line class="b" x2="198" transform="translate(598.5 664.5)"/><line class="b" x2="198" transform="translate(598.5 675.5)"/><line class="b" x2="198" transform="translate(598.5 686.5)"/><line class="b" x2="198" transform="translate(598.5 697.5)"/><line class="b" x2="198" transform="translate(598.5 708.5)"/><line class="b" x2="198" transform="translate(598.5 719.5)"/><g transform="translate(-11)"><g transform="translate(44)"><rect class="c" width="12" height="12" transform="translate(664 686)"/><rect class="c" width="12" height="12" transform="translate(664 676)"/><rect class="c" width="12" height="12" transform="translate(675 664)"/><rect class="c" width="12" height="12" transform="translate(686 664)"/><rect class="c" width="12" height="12" transform="translate(697 675)"/><rect class="c" width="12" height="12" transform="translate(686 686)"/><rect class="c" width="12" height="12" transform="translate(675 686)"/><rect class="c" width="12" height="12" transform="translate(664 697)"/><rect class="c" width="12" height="12" transform="translate(675 708)"/><rect class="c" width="12" height="12" transform="translate(686 708)"/></g><g transform="translate(47 -3)"><g class="d" transform="translate(664 686)"><rect class="f" width="12" height="12"/><rect class="g" x="0.5" y="0.5" width="11" height="11"/></g><g class="d" transform="translate(664 676)"><rect class="f" width="12" height="12"/><rect class="g" x="0.5" y="0.5" width="11" height="11"/></g><g class="d" transform="translate(675 664)"><rect class="f" width="12" height="12"/><rect class="g" x="0.5" y="0.5" width="11" height="11"/></g><g class="d" transform="translate(686 664)"><rect class="f" width="12" height="12"/><rect class="g" x="0.5" y="0.5" width="11" height="11"/></g><g class="d" transform="translate(697 675)"><rect class="f" width="12" height="12"/><rect class="g" x="0.5" y="0.5" width="11" height="11"/></g><g class="d" transform="translate(686 686)"><rect class="f" width="12" height="12"/><rect class="g" x="0.5" y="0.5" width="11" height="11"/></g><g class="d" transform="translate(675 686)"><rect class="f" width="12" height="12"/><rect class="g" x="0.5" y="0.5" width="11" height="11"/></g><g class="d" transform="translate(664 697)"><rect class="f" width="12" height="12"/><rect class="g" x="0.5" y="0.5" width="11" height="11"/></g><g class="d" transform="translate(675 708)"><rect class="f" width="12" height="12"/><rect class="g" x="0.5" y="0.5" width="11" height="11"/></g><g class="d" transform="translate(686 708)"><rect class="f" width="12" height="12"/><rect class="g" x="0.5" y="0.5" width="11" height="11"/></g></g></g><g transform="translate(-11)"><g transform="translate(33 11)"><rect class="c" width="12" height="12" transform="translate(620 653)"/><rect class="c" width="12" height="12" transform="translate(620 642)"/><rect class="c" width="12" height="12" transform="translate(631 642)"/><rect class="c" width="12" height="12" transform="translate(642 642)"/><rect class="c" width="12" height="12" transform="translate(652 653)"/><rect class="c" width="12" height="12" transform="translate(653 664)"/><rect class="c" width="12" height="12" transform="translate(653 675)"/><rect class="c" width="12" height="12" transform="translate(653 686)"/><rect class="c" width="12" height="12" transform="translate(631 697)"/><rect class="c" width="12" height="12" transform="translate(642 697)"/><rect class="c" width="12" height="12" transform="translate(620 675)"/><rect class="c" width="12" height="12" transform="translate(620 696)"/><rect class="c" width="12" height="12" transform="translate(620 664)"/><rect class="c" width="12" height="12" transform="translate(620 686)"/></g><g transform="translate(36 8)"><g class="d" transform="translate(620 653)"><rect class="f" width="12" height="12"/><rect class="g" x="0.5" y="0.5" width="11" height="11"/></g><g class="d" transform="translate(620 642)"><rect class="f" width="12" height="12"/><rect class="g" x="0.5" y="0.5" width="11" height="11"/></g><g class="d" transform="translate(653 653)"><rect class="f" width="12" height="12"/><rect class="g" x="0.5" y="0.5" width="11" height="11"/></g><g class="d" transform="translate(631 642)"><rect class="f" width="12" height="12"/><rect class="g" x="0.5" y="0.5" width="11" height="11"/></g><g class="d" transform="translate(653 664)"><rect class="f" width="12" height="12"/><rect class="g" x="0.5" y="0.5" width="11" height="11"/></g><g class="d" transform="translate(642 642)"><rect class="f" width="12" height="12"/><rect class="g" x="0.5" y="0.5" width="11" height="11"/></g><g class="d" transform="translate(653 675)"><rect class="f" width="12" height="12"/><rect class="g" x="0.5" y="0.5" width="11" height="11"/></g><g class="d" transform="translate(653 686)"><rect class="f" width="12" height="12"/><rect class="g" x="0.5" y="0.5" width="11" height="11"/></g><g class="d" transform="translate(631 697)"><rect class="f" width="12" height="12"/><rect class="g" x="0.5" y="0.5" width="11" height="11"/></g><g class="d" transform="translate(642 697)"><rect class="f" width="12" height="12"/><rect class="g" x="0.5" y="0.5" width="11" height="11"/></g><g class="d" transform="translate(620 675)"><rect class="f" width="12" height="12"/><rect class="g" x="0.5" y="0.5" width="11" height="11"/></g><g class="d" transform="translate(620 697)"><rect class="f" width="12" height="12"/><rect class="g" x="0.5" y="0.5" width="11" height="11"/></g><g class="d" transform="translate(620 664)"><rect class="f" width="12" height="12"/><rect class="g" x="0.5" y="0.5" width="11" height="11"/></g><g class="d" transform="translate(620 686)"><rect class="f" width="12" height="12"/><rect class="g" x="0.5" y="0.5" width="11" height="11"/></g></g></g><g class="e" transform="translate(609 686)"><rect class="f" width="12" height="12"/><rect class="g" x="0.5" y="0.5" width="11" height="11"/></g><g class="e" transform="translate(620 675)"><rect class="f" width="12" height="12"/><rect class="g" x="0.5" y="0.5" width="11" height="11"/></g><g class="e" transform="translate(609 664)"><rect class="f" width="12" height="12"/><rect class="g" x="0.5" y="0.5" width="11" height="11"/></g><g transform="translate(3 -3)"><g class="d" transform="translate(609 686)"><rect class="f" width="12" height="12"/><rect class="g" x="0.5" y="0.5" width="11" height="11"/></g><g class="d" transform="translate(620 675)"><rect class="f" width="12" height="12"/><rect class="g" x="0.5" y="0.5" width="11" height="11"/></g><g class="d" transform="translate(609 664)"><rect class="f" width="12" height="12"/><rect class="g" x="0.5" y="0.5" width="11" height="11"/></g></g><g transform="translate(0 11)"><g class="e" transform="translate(752 697)"><rect class="f" width="12" height="12"/><rect class="g" x="0.5" y="0.5" width="11" height="11"/></g><g class="e" transform="translate(763 697)"><rect class="f" width="12" height="12"/><rect class="g" x="0.5" y="0.5" width="11" height="11"/></g><g class="d" transform="translate(755 694)"><rect class="f" width="12" height="12"/><rect class="g" x="0.5" y="0.5" width="11" height="11"/></g><g class="e" transform="translate(774 697)"><rect class="f" width="12" height="12"/><rect class="g" x="0.5" y="0.5" width="11" height="11"/></g><g class="d" transform="translate(777 694)"><rect class="f" width="12" height="12"/><rect class="g" x="0.5" y="0.5" width="11" height="11"/></g><g class="d" transform="translate(766 694)"><rect class="f" width="12" height="12"/><rect class="g" x="0.5" y="0.5" width="11" height="11"/></g></g></g></svg>