<svg xmlns="http://www.w3.org/2000/svg" width="21" height="21" viewBox="0 0 21 21"><defs><style>.a{fill:none;}.b{fill:#a3a3a3;}</style></defs><path class="a" d="M0,0H21V21H0Z"/><path class="b" d="M10.75,2A8.751,8.751,0,0,0,7.983,19.052c.438.076.6-.186.6-.416,0-.207-.011-.9-.011-1.629-2.2.405-2.767-.535-2.942-1.028a3.187,3.187,0,0,0-.9-1.236c-.306-.164-.744-.569-.011-.579a1.751,1.751,0,0,1,1.346.9,1.871,1.871,0,0,0,2.548.722,1.839,1.839,0,0,1,.558-1.17c-1.947-.219-3.981-.974-3.981-4.321a3.405,3.405,0,0,1,.9-2.352A3.144,3.144,0,0,1,6.178,5.62s.732-.229,2.406.9a8.25,8.25,0,0,1,4.375,0c1.673-1.138,2.406-.9,2.406-.9a3.144,3.144,0,0,1,.088,2.319,3.386,3.386,0,0,1,.9,2.351c0,3.358-2.045,4.1-3.992,4.321a2.072,2.072,0,0,1,.591,1.619c0,1.17-.011,2.111-.011,2.406,0,.229.164.5.6.415A8.754,8.754,0,0,0,10.75,2Z" transform="translate(-0.25 -0.25)"/></svg>