<svg xmlns="http://www.w3.org/2000/svg" xmlns:xlink="http://www.w3.org/1999/xlink" width="202" height="89" viewBox="0 0 202 89"><defs><style>.a,.d{fill:#62e6ac;}.b{fill:#fff;}.b,.d,.e{stroke:#191919;}.b,.d{stroke-width:3px;}.c{clip-path:url(#a);}.e,.g{fill:none;}.e{stroke-width:2px;}.f{stroke:none;}</style><clipPath id="a"><path class="a" d="M37.046,55.852q-1.212,0-3.836-.2V40.405a181.1,181.1,0,0,0,1.312-21,179.311,179.311,0,0,0-1.312-21V-16.838q2.625-.2,3.836-.2,1.312,0,3.735.2V-1.593a179.6,179.6,0,0,0-1.212,21,179.6,179.6,0,0,0,1.212,21V55.65Q38.358,55.852,37.046,55.852Zm-5.25-.4a29.738,29.738,0,0,1-5.048-1.111V37.982a92.621,92.621,0,0,0,1.918-18.576A91.627,91.627,0,0,0,26.748.83V-15.526A29.739,29.739,0,0,1,31.8-16.636V-1.19a104.76,104.76,0,0,1,2.019,20.6A106.8,106.8,0,0,1,31.8,40ZM42.195,40a106.8,106.8,0,0,1-2.019-20.6,104.76,104.76,0,0,1,2.019-20.6V-16.636a25.509,25.509,0,0,1,5.149,1.111V.83a84.474,84.474,0,0,0-2.019,18.576,86.288,86.288,0,0,0,2.019,18.576V54.338a25.508,25.508,0,0,1-5.149,1.111ZM25.133,53.934a37.171,37.171,0,0,1-4.745-2.019V32.733a45.074,45.074,0,0,0,2.019-13.327A45.074,45.074,0,0,0,20.388,6.079V-13.1a37.173,37.173,0,0,1,4.745-2.019V1.738a64,64,0,0,1,2.423,17.668,64,64,0,0,1-2.423,17.668Zm23.725-16.86a68.443,68.443,0,0,1-2.423-17.668A68.443,68.443,0,0,1,48.858,1.738v-16.86A37.173,37.173,0,0,1,53.6-13.1V6.079a44.987,44.987,0,0,0,0,26.653V51.915a37.171,37.171,0,0,1-4.745,2.019ZM19.075,51.208a28.453,28.453,0,0,1-3.433-2.12V-10.276q2.019-1.312,3.433-2.12V8a37.766,37.766,0,0,1,1.716,11.408,37.766,37.766,0,0,1-1.716,11.408Zm35.84-20.394A37.766,37.766,0,0,1,53.2,19.406,37.766,37.766,0,0,1,54.916,8V-12.4q1.413.808,3.433,2.12V49.088q-2.019,1.312-3.433,2.12ZM14.128,47.775A23.984,23.984,0,0,1,11.3,45.251V-6.439a23.984,23.984,0,0,1,2.827-2.524ZM59.863-8.963a23.984,23.984,0,0,1,2.827,2.524V45.251a23.984,23.984,0,0,1-2.827,2.524ZM7.263,40.607V-1.8L9.383-4.42V43.232ZM64.608-4.42,66.728-1.8v42.4l-2.12,2.625ZM4.941,36.771a23.257,23.257,0,0,1-1.111-2.12V4.161a23.258,23.258,0,0,1,1.111-2.12ZM69.05,2.041a23.257,23.257,0,0,1,1.111,2.12V34.651a23.256,23.256,0,0,1-1.111,2.12ZM1.307,26.776A34.673,34.673,0,0,1,.6,19.406a34.673,34.673,0,0,1,.707-7.37Zm71.378-14.74a34.03,34.03,0,0,1,0,14.74Z" transform="translate(923.068 666.368)"/></clipPath></defs><g transform="translate(-859 -641)"><g transform="translate(154 -3013)"><g class="b" transform="translate(705 3654)"><rect class="f" width="202" height="89"/><rect class="g" x="1.5" y="1.5" width="199" height="86"/></g></g><g class="c"><g transform="translate(859 641)"><g class="d"><rect class="f" width="202" height="89"/><rect class="g" x="1.5" y="1.5" width="199" height="86"/></g></g></g><path d="M4.5-5.67a2.272,2.272,0,0,0-.51-.67,1.967,1.967,0,0,0-1.34-.45A1.8,1.8,0,0,0,.7-5.03,1.881,1.881,0,0,0,2.06-3.34l.64.27c.44.18.96.46.96,1.14A1.072,1.072,0,0,1,2.56-.81a1.052,1.052,0,0,1-.87-.4,1.44,1.44,0,0,1-.28-.85L.4-1.84A2.159,2.159,0,0,0,.96-.54,1.951,1.951,0,0,0,2.53.13,2.055,2.055,0,0,0,4.68-2.01c0-.76-.34-1.46-1.57-1.96l-.67-.27c-.65-.26-.72-.61-.72-.81a.827.827,0,0,1,.94-.8,1.064,1.064,0,0,1,.72.24,1.06,1.06,0,0,1,.3.42ZM5.78-4.21V0h.98V-4.21ZM5.64-5.95a.615.615,0,0,0,.63.63.615.615,0,0,0,.63-.63.615.615,0,0,0-.63-.63A.615.615,0,0,0,5.64-5.95ZM8,0h.98V-2.17a1.708,1.708,0,0,1,.19-.96.724.724,0,0,1,.58-.31.555.555,0,0,1,.56.37,1.953,1.953,0,0,1,.09.75V0h.98V-2.17a1.708,1.708,0,0,1,.19-.96.724.724,0,0,1,.58-.31.555.555,0,0,1,.56.37,1.953,1.953,0,0,1,.09.75V0h.98V-2.6a2.074,2.074,0,0,0-.22-1.06,1.348,1.348,0,0,0-1.2-.66,1.491,1.491,0,0,0-1.25.62,1.236,1.236,0,0,0-1.09-.62,1.3,1.3,0,0,0-1.04.5v-.39H8Zm8-.49a1.672,1.672,0,0,0,1.26.62A2.13,2.13,0,0,0,19.3-2.13a2.058,2.058,0,0,0-2.05-2.19A1.584,1.584,0,0,0,16-3.75v-.46h-.98v6.5H16Zm1.13-2.95A1.226,1.226,0,0,1,18.3-2.09,1.229,1.229,0,0,1,17.13-.75a1.2,1.2,0,0,1-1.19-1.33A1.207,1.207,0,0,1,17.13-3.44Zm3.19-3.85V0h.98V-7.29Zm5.17,5.87a1.521,1.521,0,0,1-.39.46,1.032,1.032,0,0,1-.67.21,1,1,0,0,1-.75-.27,1.392,1.392,0,0,1-.36-.85h3.02v-.12a2.528,2.528,0,0,0-.59-1.78,1.813,1.813,0,0,0-1.35-.55,1.918,1.918,0,0,0-1.41.57,2.468,2.468,0,0,0-.67,1.73,2.26,2.26,0,0,0,.62,1.61,1.867,1.867,0,0,0,1.42.54A2.316,2.316,0,0,0,25.6-.19a2.207,2.207,0,0,0,.71-.77Zm-2.1-1.25a1.1,1.1,0,0,1,.3-.54.944.944,0,0,1,.69-.27.94.94,0,0,1,.66.24,1.018,1.018,0,0,1,.3.57Zm5.68,4.44.8.36,5.26-9.42-.8-.36ZM39.84-7.29h-.98V0h.98V-.44A1.617,1.617,0,0,0,41.1.13a2.083,2.083,0,0,0,2.04-2.24,2.058,2.058,0,0,0-2.05-2.21,1.535,1.535,0,0,0-1.25.6Zm1.13,3.85a1.226,1.226,0,0,1,1.17,1.35A1.229,1.229,0,0,1,40.97-.75a1.2,1.2,0,0,1-1.19-1.33A1.207,1.207,0,0,1,40.97-3.44Zm6.14,2.02a1.521,1.521,0,0,1-.39.46,1.032,1.032,0,0,1-.67.21,1,1,0,0,1-.75-.27,1.391,1.391,0,0,1-.36-.85h3.02v-.12a2.528,2.528,0,0,0-.59-1.78,1.813,1.813,0,0,0-1.35-.55,1.918,1.918,0,0,0-1.41.57,2.468,2.468,0,0,0-.67,1.73,2.26,2.26,0,0,0,.62,1.61,1.867,1.867,0,0,0,1.42.54,2.316,2.316,0,0,0,1.24-.32,2.207,2.207,0,0,0,.71-.77Zm-2.1-1.25a1.1,1.1,0,0,1,.3-.54A.944.944,0,0,1,46-3.48a.94.94,0,0,1,.66.24,1.018,1.018,0,0,1,.3.57Zm5.73-.64v-.9h-.75V-5.75h-.98v1.54H48.6v.9h.41V0h.98V-3.31Zm2.62,0v-.9h-.75V-5.75h-.98v1.54h-.41v.9h.41V0h.98V-3.31Zm3.61,1.89a1.521,1.521,0,0,1-.39.46,1.032,1.032,0,0,1-.67.21,1,1,0,0,1-.75-.27,1.391,1.391,0,0,1-.36-.85h3.02v-.12a2.528,2.528,0,0,0-.59-1.78,1.813,1.813,0,0,0-1.35-.55,1.918,1.918,0,0,0-1.41.57,2.468,2.468,0,0,0-.67,1.73,2.26,2.26,0,0,0,.62,1.61,1.867,1.867,0,0,0,1.42.54,2.316,2.316,0,0,0,1.24-.32,2.207,2.207,0,0,0,.71-.77Zm-2.1-1.25a1.1,1.1,0,0,1,.3-.54.944.944,0,0,1,.69-.27.94.94,0,0,1,.66.24,1.018,1.018,0,0,1,.3.57ZM58.84,0h.98V-2.18a1.356,1.356,0,0,1,.27-.97.764.764,0,0,1,.61-.23.887.887,0,0,1,.5.15l.4-.89a1.454,1.454,0,0,0-.77-.2,1.132,1.132,0,0,0-.6.14,1.7,1.7,0,0,0-.41.35v-.38h-.98Z" transform="translate(968 686)"/><path d="M7.488,0a8.694,8.694,0,0,0,6.144-2.424A7.381,7.381,0,0,0,15.72-7.968,7.814,7.814,0,0,0,13.488-13.8a8.929,8.929,0,0,0-6.36-2.208H1.68V0ZM5.832-12.48H6.84a4.664,4.664,0,0,1,3.312,1.008,4.786,4.786,0,0,1,1.248,3.5A4.361,4.361,0,0,1,10.176-4.68a4.78,4.78,0,0,1-3.5,1.152h-.84Zm21.624-3.528h-9.1V0h9.1V-3.528H22.512v-2.76h4.68V-9.816h-4.68V-12.48h4.944ZM41.592-5.352a4.7,4.7,0,0,1-3.624,1.68,4.47,4.47,0,0,1-2.976-1.1A4.417,4.417,0,0,1,33.7-7.9a4.471,4.471,0,0,1,1.392-3.288,4.054,4.054,0,0,1,2.88-1.056,4.458,4.458,0,0,1,3.624,1.752v-4.968a9.923,9.923,0,0,0-3.744-.816,8.493,8.493,0,0,0-6.048,2.5,8.572,8.572,0,0,0-2.424,5.9A8.4,8.4,0,0,0,31.8-2.04,8.706,8.706,0,0,0,37.992.36a9.884,9.884,0,0,0,3.6-.792Zm19.584-2.64a8.281,8.281,0,0,0-2.52-6,9.125,9.125,0,0,0-6.312-2.376,9.125,9.125,0,0,0-6.312,2.376,8.281,8.281,0,0,0-2.52,6,8.306,8.306,0,0,0,2.52,5.976A9.125,9.125,0,0,0,52.344.36a9.125,9.125,0,0,0,6.312-2.376A8.306,8.306,0,0,0,61.176-7.992Zm-8.832-4.344a4.792,4.792,0,0,1,3.216,1.272,4.32,4.32,0,0,1,1.3,3.072,4.408,4.408,0,0,1-1.3,3.072,4.387,4.387,0,0,1-3.216,1.248A4.542,4.542,0,0,1,49.1-4.944,4.068,4.068,0,0,1,47.832-7.92,4.388,4.388,0,0,1,49.1-11.064,4.611,4.611,0,0,1,52.344-12.336ZM67.968,0V-9.792L75.624,0h4.152V-16.008H75.624v9.792l-7.656-9.792H63.816V0Z" transform="translate(881 694)"/><line class="e" x2="62" transform="translate(968.5 691.5)"/></g></svg>