<svg xmlns="http://www.w3.org/2000/svg" width="24" height="24" viewBox="0 0 24 24"><defs><style>.a{fill:none;}.b{fill:#fff;}</style></defs><path class="a" d="M0,0H24V24H0Z"/><path class="b" d="M7.443,5.35a6.71,6.71,0,0,1,1.77.2,3.83,3.83,0,0,1,1.377.544,2.277,2.277,0,0,1,.885,1.039,3.946,3.946,0,0,1,.3,1.583,2.773,2.773,0,0,1-.491,1.731A3.559,3.559,0,0,1,9.9,11.583a3.293,3.293,0,0,1,1.868,1.286,3.911,3.911,0,0,1,.64,2.177,3.96,3.96,0,0,1-.394,1.781,3.283,3.283,0,0,1-1.082,1.237,5.078,5.078,0,0,1-1.573.692A7.243,7.243,0,0,1,7.591,19H1V5.35Zm-.394,5.54a2.231,2.231,0,0,0,1.328-.4,1.448,1.448,0,0,0,.492-1.237,1.893,1.893,0,0,0-.148-.791,1.4,1.4,0,0,0-.442-.495,2.45,2.45,0,0,0-.64-.247,3.908,3.908,0,0,0-.787-.05H4v3.216H7.05ZM7.2,16.728a4.344,4.344,0,0,0,.836-.1,1.72,1.72,0,0,0,.688-.3,1.76,1.76,0,0,0,.492-.544,2.379,2.379,0,0,0,.2-.89,1.913,1.913,0,0,0-.59-1.534,2.584,2.584,0,0,0-1.574-.445H4v3.81H7.2Zm9.492-.05a2.393,2.393,0,0,0,1.77.594,2.678,2.678,0,0,0,1.426-.4,1.972,1.972,0,0,0,.738-.891h2.41a4.831,4.831,0,0,1-1.77,2.572,5.233,5.233,0,0,1-2.853.792,5.753,5.753,0,0,1-2.115-.4,3.93,3.93,0,0,1-1.574-1.088,3.93,3.93,0,0,1-.983-1.633,5.846,5.846,0,0,1-.345-2.127,5.763,5.763,0,0,1,.345-2.078,5.34,5.34,0,0,1,1.032-1.682,5.014,5.014,0,0,1,1.574-1.088,5.49,5.49,0,0,1,2.066-.4,4.568,4.568,0,0,1,2.213.5,4,4,0,0,1,1.525,1.336,6.01,6.01,0,0,1,.885,1.88,10.47,10.47,0,0,1,.1,2.176H16a2.851,2.851,0,0,0,.689,1.93Zm3.1-5.194a2.123,2.123,0,0,0-1.525-.544,2.34,2.34,0,0,0-1.082.247,2.6,2.6,0,0,0-.688.545,1.322,1.322,0,0,0-.344.692,3.368,3.368,0,0,0-.1.643h4.426A2.632,2.632,0,0,0,19.787,11.484ZM15.459,6.29h5.508V7.626H15.46V6.29Z"/></svg>