<svg xmlns="http://www.w3.org/2000/svg" xmlns:xlink="http://www.w3.org/1999/xlink" width="47" height="47" viewBox="0 0 47 47"><defs><style>.a{fill:url(#a);}</style><linearGradient id="a" x1="0.663" y1="0.108" x2="0.266" y2="0.886" gradientUnits="objectBoundingBox"><stop offset="0" stop-color="#09f"/><stop offset="1" stop-color="#0ec7fd"/></linearGradient></defs><path class="a" d="M-1652.5-10569a23.347,23.347,0,0,1-9.147-1.847,23.446,23.446,0,0,1-7.47-5.035,23.427,23.427,0,0,1-5.037-7.47,23.349,23.349,0,0,1-1.847-9.146,23.344,23.344,0,0,1,1.847-9.147,23.422,23.422,0,0,1,5.037-7.472,23.421,23.421,0,0,1,7.47-5.036,23.347,23.347,0,0,1,9.147-1.847,23.343,23.343,0,0,1,9.147,1.847,23.417,23.417,0,0,1,7.469,5.036,23.417,23.417,0,0,1,5.036,7.472,23.348,23.348,0,0,1,1.847,9.147,23.353,23.353,0,0,1-1.847,9.146,23.433,23.433,0,0,1-5.036,7.47,23.444,23.444,0,0,1-7.469,5.035A23.343,23.343,0,0,1-1652.5-10569Zm0-39a15.4,15.4,0,0,0-10.96,4.541,15.4,15.4,0,0,0-4.54,10.96,15.4,15.4,0,0,0,4.54,10.96,15.4,15.4,0,0,0,10.96,4.54,15.4,15.4,0,0,0,10.96-4.54,15.4,15.4,0,0,0,4.54-10.96,15.4,15.4,0,0,0-4.54-10.96A15.394,15.394,0,0,0-1652.5-10608Z" transform="translate(1676.001 10616.001)"/></svg>