<svg xmlns="http://www.w3.org/2000/svg" width="24" height="24" viewBox="0 0 24 24"><defs><style>.a{fill:none;}.b{fill:#fff;}</style></defs><path class="a" d="M0,0H24V24H0Z"/><path class="b" d="M19.989,11.572a7.96,7.96,0,0,0-1.573-4.351,9.749,9.749,0,0,1-.92.87,13.157,13.157,0,0,1-3.313,2.01c.167.35.32.689.455,1.009v0q.057.134.11.27a19.194,19.194,0,0,1,4.657.1c.206.028.4.058.584.088ZM10.6,4.122A46.165,46.165,0,0,1,13.3,8.392a11.105,11.105,0,0,0,3.048-1.767,7.88,7.88,0,0,0,.8-.755A7.968,7.968,0,0,0,12,4a8.05,8.05,0,0,0-1.4.121ZM4.253,10q1.022-.026,2.04-.123a31.53,31.53,0,0,0,4.862-.822Q9.9,6.877,8.455,4.825A8.018,8.018,0,0,0,4.253,10Zm1.53,7.038a14.273,14.273,0,0,1,1.575-1.9,12.624,12.624,0,0,1,5.156-3.29l.062-.018c-.165-.364-.32-.689-.476-.995a30.087,30.087,0,0,1-5.7,1.042C5.463,11.96,4.62,12,4,12a7.967,7.967,0,0,0,1.784,5.032Zm9.222,2.38a35.947,35.947,0,0,0-1.632-5.709,12.679,12.679,0,0,0-4.83,3.058,9.77,9.77,0,0,0-1.317,1.655,8.012,8.012,0,0,0,7.779,1Zm1.873-1.075a8,8,0,0,0,2.987-4.87,12.207,12.207,0,0,0-1.245-.236,12.023,12.023,0,0,0-3.18-.033,39.367,39.367,0,0,1,1.438,5.14ZM12,22A10,10,0,1,1,22,12,10,10,0,0,1,12,22Z"/></svg>