<svg xmlns="http://www.w3.org/2000/svg" width="17.327" height="18.353" viewBox="0 0 17.327 18.353"><defs><style>.a{fill:#fff;}</style></defs><path class="a" d="M10.163,1.552A8.656,8.656,0,0,1,5.652.348,8.546,8.546,0,0,1,2.473-2.972a9.66,9.66,0,0,1-1.153-4.7v-8.407a.634.634,0,0,1,.718-.718H7.523a.634.634,0,0,1,.718.718v7.177A4.808,4.808,0,0,0,9.2-5.522a4.453,4.453,0,0,0,3.294,1,9.174,9.174,0,0,0,3.153-.513,6.722,6.722,0,0,0,2.358-1.41.566.566,0,0,1,.256-.128q.077,0,.1.115a.844.844,0,0,1,0,.295A10.281,10.281,0,0,1,15.507-.524,7.426,7.426,0,0,1,10.163,1.552Zm2.819-7.408a5.706,5.706,0,0,1-2.563-.513q-.128-.077-.128-.154a.285.285,0,0,1,.154-.231A2.728,2.728,0,0,0,11.38-8.06a5.592,5.592,0,0,0,.346-2.025v-6a.634.634,0,0,1,.718-.718h5.485a.634.634,0,0,1,.718.718v5.049a4.911,4.911,0,0,1-.731,2.64,5.132,5.132,0,0,1-2.025,1.858A6.165,6.165,0,0,1,12.982-5.855ZM10.112.219q3.793,0,6.1-3.819a.393.393,0,0,0,.051-.154.1.1,0,0,0-.077-.1.319.319,0,0,0-.179,0,10.945,10.945,0,0,1-3.793.666A5.44,5.44,0,0,1,8.138-4.522a5.893,5.893,0,0,1-1.282-4.2v-6.382a.317.317,0,0,0-.359-.359H5.831a.317.317,0,0,0-.359.359v6.485A7.072,7.072,0,0,0,7.049-3.689a5.81,5.81,0,0,0,4.524,1.73,11.019,11.019,0,0,0,1.717-.179q.1-.026.115.026t-.064.1a6.093,6.093,0,0,1-3.2.9,5.593,5.593,0,0,1-3.166-.91,5.979,5.979,0,0,1-2.127-2.55,8.975,8.975,0,0,1-.756-3.793v-6.741a.317.317,0,0,0-.359-.359H3.063a.317.317,0,0,0-.359.359v7.151A9.306,9.306,0,0,0,3.64-3.715a7.048,7.048,0,0,0,2.614,2.9A7.184,7.184,0,0,0,10.112.219Zm3.409-7.408A3.541,3.541,0,0,0,15.4-7.714a3.786,3.786,0,0,0,1.358-1.435,4.059,4.059,0,0,0,.5-1.986v-3.973a.317.317,0,0,0-.359-.359h-.666a.317.317,0,0,0-.359.359v3.922a2.829,2.829,0,0,1-.4,1.5,2.342,2.342,0,0,1-1.141.961.106.106,0,0,1-.115-.013.106.106,0,0,1-.013-.115,6.831,6.831,0,0,0,.282-2.307v-3.947a.317.317,0,0,0-.359-.359h-.666a.317.317,0,0,0-.359.359v4.357A9.3,9.3,0,0,1,12.918-8.8,3.8,3.8,0,0,1,12.444-7.5q-.128.231.051.256A7.072,7.072,0,0,0,13.521-7.188Z" transform="translate(-1.32 16.8)"/></svg>