<svg xmlns="http://www.w3.org/2000/svg" width="105.399" height="89" viewBox="0 0 105.399 89"><defs><style>.a,.f{fill:none;}.a{stroke:#a3a3a3;stroke-width:3px;opacity:0.396;}.b,.c{fill:#fd18fe;}.c{opacity:0.495;}.d{fill:#fff;}.e{stroke:none;}</style></defs><g transform="translate(-1209.601 -502)"><g class="a" transform="translate(1226 502)"><circle class="e" cx="44.5" cy="44.5" r="44.5"/><circle class="f" cx="44.5" cy="44.5" r="43"/></g><g transform="translate(63.601 79)"><path class="b" d="M1445,121.9h49.815a4.331,4.331,0,0,1,4.331,4.332v40.74a4.331,4.331,0,0,1-4.331,4.332h-45.483A4.331,4.331,0,0,1,1445,166.97Z" transform="translate(-299 321.845)"/><path class="c" d="M1445,102.6a2.6,2.6,0,0,1,2.6-2.6h16.244a2.6,2.6,0,0,1,2.6,2.6v2.144H1445Z" transform="translate(-299 339)"/></g><path class="d" d="M-45.018,0l1.062-9.648L-39.24.432c.018,0,4.716-10.08,4.716-10.08L-33.462,0h.792l-1.368-12.42-5.2,11.106-5.2-11.106L-45.81,0Zm21.042-12.168A6.143,6.143,0,0,0-30.2-5.976,6.117,6.117,0,0,0-23.976.2a6.128,6.128,0,0,0,6.228-6.174A6.143,6.143,0,0,0-23.976-12.168Zm0,11.646a5.327,5.327,0,0,1-5.4-5.454,5.331,5.331,0,0,1,5.4-5.472,5.331,5.331,0,0,1,5.4,5.472A5.327,5.327,0,0,1-23.976-.522ZM-9.216,0-13.14-5.67A4.593,4.593,0,0,0-11.664-5.9,2.885,2.885,0,0,0-9.648-8.82a2.99,2.99,0,0,0-1.242-2.574,4.2,4.2,0,0,0-2.538-.612h-1.728V0h.792V-5.67H-14L-10.116,0Zm-5.148-11.286h.99a4.279,4.279,0,0,1,1.836.36,2.235,2.235,0,0,1,1.062,2.088c0,1.548-1.026,2.448-2.736,2.448h-1.152Zm13.392-.72h-5.76V0h5.76V-.72H-5.94V-6.21h4.86v-.72H-5.94v-4.356H-.972Z" transform="translate(1300 544)"/><path class="d" d="M-76.77-3.978a4,4,0,0,0,2.988-1.044A3.9,3.9,0,0,0-72.72-8.01a3.721,3.721,0,0,0-1.116-2.916,4.135,4.135,0,0,0-3.042-1.08h-4.968V0h3.114V-3.978Zm-1.962-5.508h1.062a1.83,1.83,0,0,1,1.332.432,1.457,1.457,0,0,1,.36,1.08,1.374,1.374,0,0,1-.4,1.1,2.033,2.033,0,0,1-1.314.378h-1.044Zm7.668-2.52V0h3.114V-4.608L-64.962,0h3.87l-3.762-4.914A3.363,3.363,0,0,0-63.2-5.742a3.465,3.465,0,0,0,.954-2.5,3.952,3.952,0,0,0-1.026-2.7A3.879,3.879,0,0,0-66.2-12.006Zm3.114,2.412h.594a2.114,2.114,0,0,1,1.494.468,1.416,1.416,0,0,1,.414,1.008,1.5,1.5,0,0,1-.4,1.008,2.34,2.34,0,0,1-1.512.486h-.594Zm20.88,3.6a6.211,6.211,0,0,0-1.89-4.5,6.844,6.844,0,0,0-4.734-1.782,6.844,6.844,0,0,0-4.734,1.782,6.211,6.211,0,0,0-1.89,4.5,6.23,6.23,0,0,0,1.89,4.482A6.844,6.844,0,0,0-53.694.27,6.844,6.844,0,0,0-48.96-1.512,6.23,6.23,0,0,0-47.07-5.994Zm-6.624-3.258a3.594,3.594,0,0,1,2.412.954,3.24,3.24,0,0,1,.972,2.3,3.306,3.306,0,0,1-.972,2.3,3.29,3.29,0,0,1-2.412.936,3.406,3.406,0,0,1-2.43-.954,3.051,3.051,0,0,1-.954-2.232A3.291,3.291,0,0,1-56.124-8.3,3.458,3.458,0,0,1-53.694-9.252Zm10.71-2.754v8.19a1.853,1.853,0,0,1-.324,1.206.9.9,0,0,1-.54.2,1.091,1.091,0,0,1-.594-.216,1.676,1.676,0,0,1-.432-.954l-2.034,2.088A4.3,4.3,0,0,0-45.72-.27a3.172,3.172,0,0,0,1.89.54A3.879,3.879,0,0,0-40.9-.864a3.48,3.48,0,0,0,1.026-2.88v-8.262Zm12.456,0H-37.35V0h6.822V-2.646h-3.708v-2.07h3.51V-7.362h-3.51v-2h3.708Zm10.6,7.992a3.524,3.524,0,0,1-2.718,1.26,3.353,3.353,0,0,1-2.232-.828,3.313,3.313,0,0,1-.972-2.34A3.353,3.353,0,0,1-24.8-8.388a3.041,3.041,0,0,1,2.16-.792,3.343,3.343,0,0,1,2.718,1.314v-3.726a7.443,7.443,0,0,0-2.808-.612,6.37,6.37,0,0,0-4.536,1.872A6.429,6.429,0,0,0-29.088-5.9,6.3,6.3,0,0,0-27.27-1.53,6.53,6.53,0,0,0-22.626.27a7.413,7.413,0,0,0,2.7-.594ZM-10.4-9.36v-2.646H-18.63V-9.36h2.556V0h3.114V-9.36Zm.846,8.28A8.382,8.382,0,0,0-7.74-.126a6.417,6.417,0,0,0,2.358.4A4.654,4.654,0,0,0-1.836-.954,4.067,4.067,0,0,0-.7-3.978,2.834,2.834,0,0,0-1.476-6.12,4.586,4.586,0,0,0-3.654-7.308L-4.608-7.6a1.971,1.971,0,0,1-1.044-.54.8.8,0,0,1-.162-.54.889.889,0,0,1,.306-.648,1.5,1.5,0,0,1,1.026-.36,3.167,3.167,0,0,1,2.052.81l1.242-2.43A8.433,8.433,0,0,0-4.9-12.276a4.233,4.233,0,0,0-3.078,1.134,3.925,3.925,0,0,0-1.1,2.9A3.021,3.021,0,0,0-8.388-6.12a3.921,3.921,0,0,0,1.728.972l.81.252a4.323,4.323,0,0,1,1.548.63.938.938,0,0,1,.342.72,1.074,1.074,0,0,1-.306.756,1.58,1.58,0,0,1-1.206.414A4.206,4.206,0,0,1-8.226-3.6Z" transform="translate(1300 563)"/></g></svg>