<svg xmlns="http://www.w3.org/2000/svg" width="24" height="24" viewBox="0 0 24 24"><defs><style>.a{fill:none;}.b{fill:#fff;}</style></defs><path class="a" d="M0,0H24V24H0Z"/><path class="b" d="M18.574,13.711a.91.91,0,0,0,.9-.9.9.9,0,1,0-.9.9Zm-4.425,0a.91.91,0,0,0,.9-.9.9.9,0,1,0-.9.9Zm6.567,5.04a.347.347,0,0,0-.172.37.309.309,0,0,0,.025.147c.1.417.294,1.081.294,1.106,0,.073.025.122.025.172a.22.22,0,0,1-.221.22c-.05,0-.074-.024-.123-.048l-1.449-.836a.8.8,0,0,0-.344-.1.488.488,0,0,0-.2.024,7.769,7.769,0,0,1-2.161.3c-3.66,0-6.607-2.457-6.607-5.505s2.947-5.505,6.607-5.505S23,11.551,23,14.6a5.167,5.167,0,0,1-2.284,4.154ZM16.673,8.1q-.14,0-.28,0c-4.174,0-7.606,2.86-7.606,6.5a5.729,5.729,0,0,0,.228,1.6H8.926a9.963,9.963,0,0,1-2.584-.368.674.674,0,0,0-.222-.025.832.832,0,0,0-.418.123L3.954,16.934a.352.352,0,0,1-.148.05.273.273,0,0,1-.27-.27.57.57,0,0,1,.049-.2c.024-.024.246-.834.369-1.324,0-.05.024-.123.024-.172a.556.556,0,0,0-.221-.442A6.136,6.136,0,0,1,1,9.6C1,5.945,4.57,3,8.95,3c3.765,0,6.93,2.169,7.723,5.1Zm-5.154.418a1.033,1.033,0,0,0,1.026-1.026,1.026,1.026,0,1,0-1.026,1.026Zm-5.26,0A1.034,1.034,0,0,0,7.286,7.491,1.027,1.027,0,1,0,6.259,8.517Z"/></svg>