<svg xmlns="http://www.w3.org/2000/svg" width="21" height="21" viewBox="0 0 21 21"><defs><style>.a{fill:none;}.b{fill:#a3a3a3;}</style></defs><path class="a" d="M0,0H21V21H0Z"/><path class="b" d="M17.74,10.375a6.965,6.965,0,0,0-1.376-3.807,8.53,8.53,0,0,1-.805.761,11.512,11.512,0,0,1-2.9,1.759c.146.306.28.6.4.883v0q.05.117.1.236a16.8,16.8,0,0,1,4.075.088c.18.024.35.051.511.077ZM9.528,3.857a40.4,40.4,0,0,1,2.355,3.736,9.717,9.717,0,0,0,2.667-1.546,6.9,6.9,0,0,0,.7-.661,6.972,6.972,0,0,0-4.5-1.636,7.044,7.044,0,0,0-1.222.106ZM3.971,9q.894-.023,1.785-.108a27.589,27.589,0,0,0,4.254-.719q-1.1-1.9-2.362-3.7A7.016,7.016,0,0,0,3.971,9ZM5.31,15.156a12.489,12.489,0,0,1,1.378-1.662A11.046,11.046,0,0,1,11.2,10.615l.054-.016c-.144-.318-.28-.6-.416-.871a26.326,26.326,0,0,1-4.985.912c-.823.074-1.56.107-2.1.112a6.971,6.971,0,0,0,1.561,4.4Zm8.069,2.083a31.454,31.454,0,0,0-1.428-5,11.094,11.094,0,0,0-4.226,2.676,8.549,8.549,0,0,0-1.152,1.448,7.011,7.011,0,0,0,6.807.873Zm1.639-.941a7,7,0,0,0,2.614-4.261,10.681,10.681,0,0,0-1.089-.207A10.52,10.52,0,0,0,13.76,11.8a34.446,34.446,0,0,1,1.258,4.5ZM10.75,19.5a8.75,8.75,0,1,1,8.75-8.75A8.75,8.75,0,0,1,10.75,19.5Z" transform="translate(-0.25 -0.25)"/></svg>