<svg xmlns="http://www.w3.org/2000/svg" xmlns:xlink="http://www.w3.org/1999/xlink" width="48" height="48" viewBox="0 0 48 48"><defs><style>.a,.b{fill-rule:evenodd;}.a{fill:url(#a);}.b{fill:url(#b);}.c{fill:#0599ff;}.d{fill:#008beb;}.e{fill:#fff;}</style><linearGradient id="a" x1="0.5" x2="0.5" y2="1" gradientUnits="objectBoundingBox"><stop offset="0" stop-color="#77c8ff"/><stop offset="1" stop-color="#0599ff"/></linearGradient><linearGradient id="b" x1="0.5" x2="0.5" y2="1" gradientUnits="objectBoundingBox"><stop offset="0" stop-color="#41b2ff"/><stop offset="1" stop-color="#4ab5ff"/></linearGradient></defs><g transform="translate(0.903 0.903)"><path class="a" d="M22.423,1h5.153c6.042,0,9.282.835,12.215,2.4a16.356,16.356,0,0,1,6.8,6.8c1.569,2.933,2.4,6.173,2.4,12.215v5.153c0,6.042-.835,9.282-2.4,12.215a16.356,16.356,0,0,1-6.8,6.8C36.858,48.165,33.618,49,27.577,49H22.423c-6.042,0-9.282-.835-12.215-2.4a16.356,16.356,0,0,1-6.8-6.8C1.835,36.858,1,33.618,1,27.577V22.423c0-6.042.835-9.282,2.4-12.215a16.356,16.356,0,0,1,6.8-6.8C13.142,1.835,16.382,1,22.423,1Z" transform="translate(-1.903 -1.903)"/><path class="b" d="M20.241,1h4.628c5.426,0,8.336.75,10.97,2.159A14.689,14.689,0,0,1,41.95,9.27c1.409,2.634,2.159,5.544,2.159,10.97v4.628c0,5.426-.75,8.336-2.159,10.97a14.689,14.689,0,0,1-6.111,6.111C33.2,43.359,30.3,44.11,24.869,44.11H20.241c-5.426,0-8.336-.75-10.97-2.159a14.689,14.689,0,0,1-6.111-6.111C1.75,33.2,1,30.3,1,24.869V20.241c0-5.426.75-8.336,2.159-10.97A14.689,14.689,0,0,1,9.27,3.159C11.9,1.75,14.815,1,20.241,1Z" transform="translate(0.542 0.542)"/><g transform="translate(12.27 15.537)"><path class="c" d="M3.071,3.071,6.143,0H0Z" transform="matrix(0.966, 0.259, -0.259, 0.966, 8.517, 4.802)"/><path class="c" d="M0,0,3.094,3.094H9.818L6.725,0Z" transform="translate(2.937 0) rotate(7)"/><rect class="c" width="4.733" height="4.755" transform="translate(15.8 6.973) rotate(39)"/><path class="c" d="M6.318,6.318V0H0Z" transform="matrix(0.985, -0.174, 0.174, 0.985, 13.561, 1.621)"/><path class="c" d="M6.716,6.716,0,0V13.433Z" transform="translate(0 3.772) rotate(-9)"/><path class="c" d="M0,2.979,2.979,5.959V0Z" transform="matrix(0.978, 0.208, -0.208, 0.978, 18.574, 11.529)"/><path class="c" d="M15.585,170.517l-6.716,6.716H22.3Z" transform="translate(-4.499 -158.934)"/></g><g transform="translate(12.27 14.79)"><path class="d" d="M3.071,3.071,6.143,0H0Z" transform="matrix(0.966, 0.259, -0.259, 0.966, 8.517, 4.802)"/><path class="d" d="M0,0,3.094,3.094H9.818L6.725,0Z" transform="translate(2.937 0) rotate(7)"/><rect class="d" width="4.733" height="4.755" transform="translate(15.8 6.973) rotate(39)"/><path class="d" d="M6.318,6.318V0H0Z" transform="matrix(0.985, -0.174, 0.174, 0.985, 13.561, 1.621)"/><path class="d" d="M6.716,6.716,0,0V13.433Z" transform="translate(0 3.772) rotate(-9)"/><path class="d" d="M0,2.979,2.979,5.959V0Z" transform="matrix(0.978, 0.208, -0.208, 0.978, 18.574, 11.529)"/><path class="d" d="M15.585,170.517l-6.716,6.716H22.3Z" transform="translate(-4.499 -158.934)"/></g><g transform="translate(12.27 14.042)"><path class="e" d="M3.071,3.071,6.143,0H0Z" transform="matrix(0.966, 0.259, -0.259, 0.966, 8.517, 4.802)"/><path class="e" d="M0,0,3.094,3.094H9.818L6.725,0Z" transform="translate(2.937 0) rotate(7)"/><rect class="e" width="4.733" height="4.755" transform="translate(15.8 6.973) rotate(39)"/><path class="e" d="M6.318,6.318V0H0Z" transform="matrix(0.985, -0.174, 0.174, 0.985, 13.561, 1.621)"/><path class="e" d="M6.716,6.716,0,0V13.433Z" transform="translate(0 3.772) rotate(-9)"/><path class="e" d="M0,2.979,2.979,5.959V0Z" transform="matrix(0.978, 0.208, -0.208, 0.978, 18.574, 11.529)"/><path class="e" d="M15.585,170.517l-6.716,6.716H22.3Z" transform="translate(-4.499 -158.934)"/></g></g></svg>