<svg xmlns="http://www.w3.org/2000/svg" xmlns:xlink="http://www.w3.org/1999/xlink" width="48" height="48" viewBox="0 0 48 48"><defs><style>.a,.b{fill-rule:evenodd;}.a{fill:url(#a);}.b{fill:url(#b);}.c{fill:#09f;}.d{fill:#0188e2;}.e{fill:#fff;}</style><linearGradient id="a" x1="0.5" x2="0.5" y2="1" gradientUnits="objectBoundingBox"><stop offset="0" stop-color="#77c8ff"/><stop offset="1" stop-color="#0599ff"/></linearGradient><linearGradient id="b" x1="0.5" x2="0.5" y2="1" gradientUnits="objectBoundingBox"><stop offset="0" stop-color="#41b2ff"/><stop offset="1" stop-color="#4ab5ff"/></linearGradient></defs><g transform="translate(0.903 0.903)"><path class="a" d="M22.423,1h5.153c6.042,0,9.282.835,12.215,2.4a16.356,16.356,0,0,1,6.8,6.8c1.569,2.933,2.4,6.173,2.4,12.215v5.153c0,6.042-.835,9.282-2.4,12.215a16.356,16.356,0,0,1-6.8,6.8C36.858,48.165,33.618,49,27.577,49H22.423c-6.042,0-9.282-.835-12.215-2.4a16.356,16.356,0,0,1-6.8-6.8C1.835,36.858,1,33.618,1,27.577V22.423c0-6.042.835-9.282,2.4-12.215a16.356,16.356,0,0,1,6.8-6.8C13.142,1.835,16.382,1,22.423,1Z" transform="translate(-1.903 -1.903)"/><path class="b" d="M19.292,1h4.4c5.159,0,7.925.713,10.429,2.053a13.965,13.965,0,0,1,5.81,5.81c1.339,2.5,2.053,5.271,2.053,10.429v4.4c0,5.159-.713,7.925-2.053,10.429a13.965,13.965,0,0,1-5.81,5.81c-2.5,1.339-5.271,2.053-10.429,2.053h-4.4c-5.159,0-7.925-.713-10.429-2.053a13.965,13.965,0,0,1-5.81-5.81C1.713,31.617,1,28.85,1,23.692v-4.4c0-5.159.713-7.925,2.053-10.429a13.965,13.965,0,0,1,5.81-5.81C11.367,1.713,14.133,1,19.292,1Z" transform="translate(1.605 1.605)"/><g transform="translate(3.193 3.31)"><path class="c" d="M11.641,5.043q-.367,0-1.162-.061V.363A54.864,54.864,0,0,0,10.877-6a54.322,54.322,0,0,0-.4-6.362v-4.618q.8-.061,1.162-.061.4,0,1.132.061v4.618A54.409,54.409,0,0,0,12.406-6,54.409,54.409,0,0,0,12.773.363V4.982Q12.039,5.043,11.641,5.043Zm-1.59-.122a9.009,9.009,0,0,1-1.529-.336V-.371A28.059,28.059,0,0,0,9.1-6a27.758,27.758,0,0,0-.581-5.628v-4.955a9.009,9.009,0,0,1,1.529-.336v4.68A31.737,31.737,0,0,1,10.663-6,32.356,32.356,0,0,1,10.051.241ZM13.2.241A32.356,32.356,0,0,1,12.589-6a31.737,31.737,0,0,1,.612-6.239v-4.68a7.728,7.728,0,0,1,1.56.336v4.955A25.591,25.591,0,0,0,14.149-6a26.141,26.141,0,0,0,.612,5.628V4.584a7.728,7.728,0,0,1-1.56.336ZM8.032,4.462A11.261,11.261,0,0,1,6.595,3.85V-1.961A13.655,13.655,0,0,0,7.206-6a13.655,13.655,0,0,0-.612-4.037v-5.811a11.261,11.261,0,0,1,1.438-.612v5.108A19.388,19.388,0,0,1,8.766-6,19.388,19.388,0,0,1,8.032-.646ZM15.22-.646A20.735,20.735,0,0,1,14.486-6a20.735,20.735,0,0,1,.734-5.352v-5.108a11.261,11.261,0,0,1,1.438.612v5.811A13.655,13.655,0,0,0,16.046-6a13.655,13.655,0,0,0,.612,4.037V3.85a11.261,11.261,0,0,1-1.438.612ZM6.2,3.636a8.62,8.62,0,0,1-1.04-.642V-14.991q.612-.4,1.04-.642v6.178A11.441,11.441,0,0,1,6.717-6,11.441,11.441,0,0,1,6.2-2.543ZM17.055-2.543A11.441,11.441,0,0,1,16.535-6a11.441,11.441,0,0,1,.52-3.456v-6.178q.428.245,1.04.642V2.993q-.612.4-1.04.642ZM4.7,2.6a7.266,7.266,0,0,1-.856-.765v-15.66a7.266,7.266,0,0,1,.856-.765ZM18.554-14.593a7.266,7.266,0,0,1,.856.765V1.831a7.266,7.266,0,0,1-.856.765ZM2.619.424V-12.422l.642-.8V1.22ZM19.991-13.217l.642.8V.424l-.642.8ZM1.915-.738a7.046,7.046,0,0,1-.336-.642v-9.237a7.046,7.046,0,0,1,.336-.642ZM21.337-11.259a7.046,7.046,0,0,1,.336.642V-1.38a7.046,7.046,0,0,1-.336.642ZM.814-3.766A10.5,10.5,0,0,1,.6-6,10.5,10.5,0,0,1,.814-8.231ZM22.438-8.231A10.543,10.543,0,0,1,22.683-6a10.543,10.543,0,0,1-.245,2.233Z" transform="translate(8.147 26.766)"/><path class="d" d="M11.641,5.043q-.367,0-1.162-.061V.363A54.864,54.864,0,0,0,10.877-6a54.322,54.322,0,0,0-.4-6.362v-4.618q.8-.061,1.162-.061.4,0,1.132.061v4.618A54.409,54.409,0,0,0,12.406-6,54.409,54.409,0,0,0,12.773.363V4.982Q12.039,5.043,11.641,5.043Zm-1.59-.122a9.009,9.009,0,0,1-1.529-.336V-.371A28.059,28.059,0,0,0,9.1-6a27.758,27.758,0,0,0-.581-5.628v-4.955a9.009,9.009,0,0,1,1.529-.336v4.68A31.737,31.737,0,0,1,10.663-6,32.356,32.356,0,0,1,10.051.241ZM13.2.241A32.356,32.356,0,0,1,12.589-6a31.737,31.737,0,0,1,.612-6.239v-4.68a7.728,7.728,0,0,1,1.56.336v4.955A25.591,25.591,0,0,0,14.149-6a26.141,26.141,0,0,0,.612,5.628V4.584a7.728,7.728,0,0,1-1.56.336ZM8.032,4.462A11.261,11.261,0,0,1,6.595,3.85V-1.961A13.655,13.655,0,0,0,7.206-6a13.655,13.655,0,0,0-.612-4.037v-5.811a11.261,11.261,0,0,1,1.438-.612v5.108A19.388,19.388,0,0,1,8.766-6,19.388,19.388,0,0,1,8.032-.646ZM15.22-.646A20.735,20.735,0,0,1,14.486-6a20.735,20.735,0,0,1,.734-5.352v-5.108a11.261,11.261,0,0,1,1.438.612v5.811A13.655,13.655,0,0,0,16.046-6a13.655,13.655,0,0,0,.612,4.037V3.85a11.261,11.261,0,0,1-1.438.612ZM6.2,3.636a8.62,8.62,0,0,1-1.04-.642V-14.991q.612-.4,1.04-.642v6.178A11.441,11.441,0,0,1,6.717-6,11.441,11.441,0,0,1,6.2-2.543ZM17.055-2.543A11.441,11.441,0,0,1,16.535-6a11.441,11.441,0,0,1,.52-3.456v-6.178q.428.245,1.04.642V2.993q-.612.4-1.04.642ZM4.7,2.6a7.266,7.266,0,0,1-.856-.765v-15.66a7.266,7.266,0,0,1,.856-.765ZM18.554-14.593a7.266,7.266,0,0,1,.856.765V1.831a7.266,7.266,0,0,1-.856.765ZM2.619.424V-12.422l.642-.8V1.22ZM19.991-13.217l.642.8V.424l-.642.8ZM1.915-.738a7.046,7.046,0,0,1-.336-.642v-9.237a7.046,7.046,0,0,1,.336-.642ZM21.337-11.259a7.046,7.046,0,0,1,.336.642V-1.38a7.046,7.046,0,0,1-.336.642ZM.814-3.766A10.5,10.5,0,0,1,.6-6,10.5,10.5,0,0,1,.814-8.231ZM22.438-8.231A10.543,10.543,0,0,1,22.683-6a10.543,10.543,0,0,1-.245,2.233Z" transform="translate(8.147 26.363)"/><path class="e" d="M11.641,5.043q-.367,0-1.162-.061V.363A54.864,54.864,0,0,0,10.877-6a54.322,54.322,0,0,0-.4-6.362v-4.618q.8-.061,1.162-.061.4,0,1.132.061v4.618A54.409,54.409,0,0,0,12.406-6,54.409,54.409,0,0,0,12.773.363V4.982Q12.039,5.043,11.641,5.043Zm-1.59-.122a9.009,9.009,0,0,1-1.529-.336V-.371A28.059,28.059,0,0,0,9.1-6a27.758,27.758,0,0,0-.581-5.628v-4.955a9.009,9.009,0,0,1,1.529-.336v4.68A31.737,31.737,0,0,1,10.663-6,32.356,32.356,0,0,1,10.051.241ZM13.2.241A32.356,32.356,0,0,1,12.589-6a31.737,31.737,0,0,1,.612-6.239v-4.68a7.728,7.728,0,0,1,1.56.336v4.955A25.591,25.591,0,0,0,14.149-6a26.141,26.141,0,0,0,.612,5.628V4.584a7.728,7.728,0,0,1-1.56.336ZM8.032,4.462A11.261,11.261,0,0,1,6.595,3.85V-1.961A13.655,13.655,0,0,0,7.206-6a13.655,13.655,0,0,0-.612-4.037v-5.811a11.261,11.261,0,0,1,1.438-.612v5.108A19.388,19.388,0,0,1,8.766-6,19.388,19.388,0,0,1,8.032-.646ZM15.22-.646A20.735,20.735,0,0,1,14.486-6a20.735,20.735,0,0,1,.734-5.352v-5.108a11.261,11.261,0,0,1,1.438.612v5.811A13.655,13.655,0,0,0,16.046-6a13.655,13.655,0,0,0,.612,4.037V3.85a11.261,11.261,0,0,1-1.438.612ZM6.2,3.636a8.62,8.62,0,0,1-1.04-.642V-14.991q.612-.4,1.04-.642v6.178A11.441,11.441,0,0,1,6.717-6,11.441,11.441,0,0,1,6.2-2.543ZM17.055-2.543A11.441,11.441,0,0,1,16.535-6a11.441,11.441,0,0,1,.52-3.456v-6.178q.428.245,1.04.642V2.993q-.612.4-1.04.642ZM4.7,2.6a7.266,7.266,0,0,1-.856-.765v-15.66a7.266,7.266,0,0,1,.856-.765ZM18.554-14.593a7.266,7.266,0,0,1,.856.765V1.831a7.266,7.266,0,0,1-.856.765ZM2.619.424V-12.422l.642-.8V1.22ZM19.991-13.217l.642.8V.424l-.642.8ZM1.915-.738a7.046,7.046,0,0,1-.336-.642v-9.237a7.046,7.046,0,0,1,.336-.642ZM21.337-11.259a7.046,7.046,0,0,1,.336.642V-1.38a7.046,7.046,0,0,1-.336.642ZM.814-3.766A10.5,10.5,0,0,1,.6-6,10.5,10.5,0,0,1,.814-8.231ZM22.438-8.231A10.543,10.543,0,0,1,22.683-6a10.543,10.543,0,0,1-.245,2.233Z" transform="translate(8.147 25.959)"/></g></g></svg>