<svg xmlns="http://www.w3.org/2000/svg" xmlns:xlink="http://www.w3.org/1999/xlink" width="48" height="48" viewBox="0 0 48 48"><defs><style>.a,.b{fill-rule:evenodd;}.a{fill:url(#a);}.b{fill:url(#b);}.c{fill:#09f;}.d{fill:#0082d9;}.e{fill:#fff;}</style><linearGradient id="a" x1="0.5" x2="0.5" y2="1" gradientUnits="objectBoundingBox"><stop offset="0" stop-color="#77c8ff"/><stop offset="1" stop-color="#0599ff"/></linearGradient><linearGradient id="b" x1="0.5" x2="0.5" y2="1" gradientUnits="objectBoundingBox"><stop offset="0" stop-color="#41b2ff"/><stop offset="1" stop-color="#4ab5ff"/></linearGradient></defs><g transform="translate(0.903 0.903)"><path class="a" d="M22.423,1h5.153c6.042,0,9.282.835,12.215,2.4a16.356,16.356,0,0,1,6.8,6.8c1.569,2.933,2.4,6.173,2.4,12.215v5.153c0,6.042-.835,9.282-2.4,12.215a16.356,16.356,0,0,1-6.8,6.8C36.858,48.165,33.618,49,27.577,49H22.423c-6.042,0-9.282-.835-12.215-2.4a16.356,16.356,0,0,1-6.8-6.8C1.835,36.858,1,33.618,1,27.577V22.423c0-6.042.835-9.282,2.4-12.215a16.356,16.356,0,0,1,6.8-6.8C13.142,1.835,16.382,1,22.423,1Z" transform="translate(-1.903 -1.903)"/><path class="b" d="M19.292,1h4.4c5.159,0,7.925.713,10.429,2.053a13.965,13.965,0,0,1,5.81,5.81c1.339,2.5,2.053,5.271,2.053,10.429v4.4c0,5.159-.713,7.925-2.053,10.429a13.965,13.965,0,0,1-5.81,5.81c-2.5,1.339-5.271,2.053-10.429,2.053h-4.4c-5.159,0-7.925-.713-10.429-2.053a13.965,13.965,0,0,1-5.81-5.81C1.713,31.617,1,28.85,1,23.692v-4.4c0-5.159.713-7.925,2.053-10.429a13.965,13.965,0,0,1,5.81-5.81C11.367,1.713,14.133,1,19.292,1Z" transform="translate(1.605 1.605)"/><g transform="translate(2.888 3.189)"><path class="c" d="M10.85,2.978a9.328,9.328,0,0,1-4.862-1.3A9.21,9.21,0,0,1,2.563-1.9,10.41,10.41,0,0,1,1.32-6.966v-9.06a.684.684,0,0,1,.773-.773H8a.684.684,0,0,1,.773.773v7.734A5.182,5.182,0,0,0,9.814-4.646a4.8,4.8,0,0,0,3.55,1.077,9.887,9.887,0,0,0,3.4-.552A7.244,7.244,0,0,0,19.3-5.64a.61.61,0,0,1,.276-.138q.083,0,.11.124a.91.91,0,0,1,0,.318A11.079,11.079,0,0,1,16.609.741,8,8,0,0,1,10.85,2.978Zm3.039-7.983a6.15,6.15,0,0,1-2.762-.552q-.138-.083-.138-.166a.307.307,0,0,1,.166-.249,2.94,2.94,0,0,0,1.008-1.409,6.026,6.026,0,0,0,.373-2.182v-6.464a.684.684,0,0,1,.773-.773H19.22a.684.684,0,0,1,.773.773v5.442a5.293,5.293,0,0,1-.787,2.845,5.53,5.53,0,0,1-2.182,2A6.644,6.644,0,0,1,13.888-5.005ZM10.795,1.542q4.088,0,6.574-4.116a.424.424,0,0,0,.055-.166.108.108,0,0,0-.083-.11.344.344,0,0,0-.193,0,11.8,11.8,0,0,1-4.088.718A5.863,5.863,0,0,1,8.668-3.569,6.351,6.351,0,0,1,7.287-8.1v-6.878a.342.342,0,0,0-.387-.387H6.182a.342.342,0,0,0-.387.387v6.989a7.621,7.621,0,0,0,1.7,5.317A6.261,6.261,0,0,0,12.369-.806,11.875,11.875,0,0,0,14.22-1q.11-.028.124.028t-.069.11a6.566,6.566,0,0,1-3.453.967A6.027,6.027,0,0,1,7.411-.875,6.444,6.444,0,0,1,5.118-3.624,9.672,9.672,0,0,1,4.3-7.712v-7.265a.342.342,0,0,0-.387-.387H3.2a.342.342,0,0,0-.387.387V-7.27A10.029,10.029,0,0,0,3.82-2.7,7.6,7.6,0,0,0,6.637.423,7.742,7.742,0,0,0,10.795,1.542Zm3.674-7.983a3.816,3.816,0,0,0,2.03-.566,4.08,4.08,0,0,0,1.464-1.547A4.374,4.374,0,0,0,18.5-10.7v-4.282a.342.342,0,0,0-.387-.387H17.4a.342.342,0,0,0-.387.387v4.226a3.049,3.049,0,0,1-.428,1.616A2.524,2.524,0,0,1,15.352-8.1a.114.114,0,0,1-.124-.014.114.114,0,0,1-.014-.124,7.362,7.362,0,0,0,.3-2.486v-4.254a.342.342,0,0,0-.387-.387h-.718a.342.342,0,0,0-.387.387v4.7a10.019,10.019,0,0,1-.207,2.1,4.1,4.1,0,0,1-.511,1.409q-.138.249.055.276A7.621,7.621,0,0,0,14.468-6.441Z" transform="translate(9.647 29.031)"/><path class="d" d="M10.85,2.978a9.328,9.328,0,0,1-4.862-1.3A9.21,9.21,0,0,1,2.563-1.9,10.41,10.41,0,0,1,1.32-6.966v-9.06a.684.684,0,0,1,.773-.773H8a.684.684,0,0,1,.773.773v7.734A5.182,5.182,0,0,0,9.814-4.646a4.8,4.8,0,0,0,3.55,1.077,9.887,9.887,0,0,0,3.4-.552A7.244,7.244,0,0,0,19.3-5.64a.61.61,0,0,1,.276-.138q.083,0,.11.124a.91.91,0,0,1,0,.318A11.079,11.079,0,0,1,16.609.741,8,8,0,0,1,10.85,2.978Zm3.039-7.983a6.15,6.15,0,0,1-2.762-.552q-.138-.083-.138-.166a.307.307,0,0,1,.166-.249,2.94,2.94,0,0,0,1.008-1.409,6.026,6.026,0,0,0,.373-2.182v-6.464a.684.684,0,0,1,.773-.773H19.22a.684.684,0,0,1,.773.773v5.442a5.293,5.293,0,0,1-.787,2.845,5.53,5.53,0,0,1-2.182,2A6.644,6.644,0,0,1,13.888-5.005ZM10.795,1.542q4.088,0,6.574-4.116a.424.424,0,0,0,.055-.166.108.108,0,0,0-.083-.11.344.344,0,0,0-.193,0,11.8,11.8,0,0,1-4.088.718A5.863,5.863,0,0,1,8.668-3.569,6.351,6.351,0,0,1,7.287-8.1v-6.878a.342.342,0,0,0-.387-.387H6.182a.342.342,0,0,0-.387.387v6.989a7.621,7.621,0,0,0,1.7,5.317A6.261,6.261,0,0,0,12.369-.806,11.875,11.875,0,0,0,14.22-1q.11-.028.124.028t-.069.11a6.566,6.566,0,0,1-3.453.967A6.027,6.027,0,0,1,7.411-.875,6.444,6.444,0,0,1,5.118-3.624,9.672,9.672,0,0,1,4.3-7.712v-7.265a.342.342,0,0,0-.387-.387H3.2a.342.342,0,0,0-.387.387V-7.27A10.029,10.029,0,0,0,3.82-2.7,7.6,7.6,0,0,0,6.637.423,7.742,7.742,0,0,0,10.795,1.542Zm3.674-7.983a3.816,3.816,0,0,0,2.03-.566,4.08,4.08,0,0,0,1.464-1.547A4.374,4.374,0,0,0,18.5-10.7v-4.282a.342.342,0,0,0-.387-.387H17.4a.342.342,0,0,0-.387.387v4.226a3.049,3.049,0,0,1-.428,1.616A2.524,2.524,0,0,1,15.352-8.1a.114.114,0,0,1-.124-.014.114.114,0,0,1-.014-.124,7.362,7.362,0,0,0,.3-2.486v-4.254a.342.342,0,0,0-.387-.387h-.718a.342.342,0,0,0-.387.387v4.7a10.019,10.019,0,0,1-.207,2.1,4.1,4.1,0,0,1-.511,1.409q-.138.249.055.276A7.621,7.621,0,0,0,14.468-6.441Z" transform="translate(9.647 28.611)"/><path class="e" d="M10.85,2.978a9.328,9.328,0,0,1-4.862-1.3A9.21,9.21,0,0,1,2.563-1.9,10.41,10.41,0,0,1,1.32-6.966v-9.06a.684.684,0,0,1,.773-.773H8a.684.684,0,0,1,.773.773v7.734A5.182,5.182,0,0,0,9.814-4.646a4.8,4.8,0,0,0,3.55,1.077,9.887,9.887,0,0,0,3.4-.552A7.244,7.244,0,0,0,19.3-5.64a.61.61,0,0,1,.276-.138q.083,0,.11.124a.91.91,0,0,1,0,.318A11.079,11.079,0,0,1,16.609.741,8,8,0,0,1,10.85,2.978Zm3.039-7.983a6.15,6.15,0,0,1-2.762-.552q-.138-.083-.138-.166a.307.307,0,0,1,.166-.249,2.94,2.94,0,0,0,1.008-1.409,6.026,6.026,0,0,0,.373-2.182v-6.464a.684.684,0,0,1,.773-.773H19.22a.684.684,0,0,1,.773.773v5.442a5.293,5.293,0,0,1-.787,2.845,5.53,5.53,0,0,1-2.182,2A6.644,6.644,0,0,1,13.888-5.005ZM10.795,1.542q4.088,0,6.574-4.116a.424.424,0,0,0,.055-.166.108.108,0,0,0-.083-.11.344.344,0,0,0-.193,0,11.8,11.8,0,0,1-4.088.718A5.863,5.863,0,0,1,8.668-3.569,6.351,6.351,0,0,1,7.287-8.1v-6.878a.342.342,0,0,0-.387-.387H6.182a.342.342,0,0,0-.387.387v6.989a7.621,7.621,0,0,0,1.7,5.317A6.261,6.261,0,0,0,12.369-.806,11.875,11.875,0,0,0,14.22-1q.11-.028.124.028t-.069.11a6.566,6.566,0,0,1-3.453.967A6.027,6.027,0,0,1,7.411-.875,6.444,6.444,0,0,1,5.118-3.624,9.672,9.672,0,0,1,4.3-7.712v-7.265a.342.342,0,0,0-.387-.387H3.2a.342.342,0,0,0-.387.387V-7.27A10.029,10.029,0,0,0,3.82-2.7,7.6,7.6,0,0,0,6.637.423,7.742,7.742,0,0,0,10.795,1.542Zm3.674-7.983a3.816,3.816,0,0,0,2.03-.566,4.08,4.08,0,0,0,1.464-1.547A4.374,4.374,0,0,0,18.5-10.7v-4.282a.342.342,0,0,0-.387-.387H17.4a.342.342,0,0,0-.387.387v4.226a3.049,3.049,0,0,1-.428,1.616A2.524,2.524,0,0,1,15.352-8.1a.114.114,0,0,1-.124-.014.114.114,0,0,1-.014-.124,7.362,7.362,0,0,0,.3-2.486v-4.254a.342.342,0,0,0-.387-.387h-.718a.342.342,0,0,0-.387.387v4.7a10.019,10.019,0,0,1-.207,2.1,4.1,4.1,0,0,1-.511,1.409q-.138.249.055.276A7.621,7.621,0,0,0,14.468-6.441Z" transform="translate(9.647 28.19)"/></g></g></svg>