<svg xmlns="http://www.w3.org/2000/svg" width="21" height="21" viewBox="0 0 21 21"><defs><style>.a{fill:none;}.b{fill:#a3a3a3;}</style></defs><path class="a" d="M0,0H21V21H0Z"/><path class="b" d="M19.614,5.41a7.336,7.336,0,0,1-2.1.576,3.672,3.672,0,0,0,1.61-2.025,7.313,7.313,0,0,1-2.324.888,3.659,3.659,0,0,0-6.235,3.337A10.39,10.39,0,0,1,3.021,4.363,3.665,3.665,0,0,0,4.153,9.249,3.647,3.647,0,0,1,2.5,8.791v.045a3.662,3.662,0,0,0,2.935,3.588,3.684,3.684,0,0,1-1.653.063A3.662,3.662,0,0,0,7.2,15.03a7.345,7.345,0,0,1-5.417,1.516A10.351,10.351,0,0,0,7.388,18.19,10.341,10.341,0,0,0,17.8,7.778c0-.158,0-.317-.011-.472a7.434,7.434,0,0,0,1.826-1.894Z" transform="translate(-0.222 -0.461)"/></svg>