<svg xmlns="http://www.w3.org/2000/svg" xmlns:xlink="http://www.w3.org/1999/xlink" width="48" height="48" viewBox="0 0 48 48"><defs><style>.a,.b{fill-rule:evenodd;}.a{fill:url(#a);}.b{fill:url(#b);}.c{fill:#09f;}.d{fill:#0083db;}.e{fill:#fff;}</style><linearGradient id="a" x1="0.5" x2="0.5" y2="1" gradientUnits="objectBoundingBox"><stop offset="0" stop-color="#77c8ff"/><stop offset="1" stop-color="#0599ff"/></linearGradient><linearGradient id="b" x1="0.5" x2="0.5" y2="1" gradientUnits="objectBoundingBox"><stop offset="0" stop-color="#41b2ff"/><stop offset="1" stop-color="#4ab5ff"/></linearGradient></defs><g transform="translate(0.903 0.903)"><path class="a" d="M22.423,1h5.153c6.042,0,9.282.835,12.215,2.4a16.356,16.356,0,0,1,6.8,6.8c1.569,2.933,2.4,6.173,2.4,12.215v5.153c0,6.042-.835,9.282-2.4,12.215a16.356,16.356,0,0,1-6.8,6.8C36.858,48.165,33.618,49,27.577,49H22.423c-6.042,0-9.282-.835-12.215-2.4a16.356,16.356,0,0,1-6.8-6.8C1.835,36.858,1,33.618,1,27.577V22.423c0-6.042.835-9.282,2.4-12.215a16.356,16.356,0,0,1,6.8-6.8C13.142,1.835,16.382,1,22.423,1Z" transform="translate(-1.903 -1.903)"/><path class="b" d="M19.292,1h4.4c5.159,0,7.925.713,10.429,2.053a13.965,13.965,0,0,1,5.81,5.81c1.339,2.5,2.053,5.271,2.053,10.429v4.4c0,5.159-.713,7.925-2.053,10.429a13.965,13.965,0,0,1-5.81,5.81c-2.5,1.339-5.271,2.053-10.429,2.053h-4.4c-5.159,0-7.925-.713-10.429-2.053a13.965,13.965,0,0,1-5.81-5.81C1.713,31.617,1,28.85,1,23.692v-4.4c0-5.159.713-7.925,2.053-10.429a13.965,13.965,0,0,1,5.81-5.81C11.367,1.713,14.133,1,19.292,1Z" transform="translate(1.605 1.605)"/><g transform="translate(4.221 4.344)"><g transform="translate(7.628 8.545)"><path class="c" d="M24.262,9.858a11.275,11.275,0,0,1,7.8.114,2.644,2.644,0,0,1,.459.2L32.5,10.2a33.1,33.1,0,0,0-3.67,3.119,61.566,61.566,0,0,0-6.548,7.594c-.153.2-.283.418-.448.609a.569.569,0,0,1-.337.128c-.906.119-1.812.228-2.718.343-.155.009-.235.159-.327.263-.38.5-.781.98-1.117,1.507l-.026.028a.646.646,0,0,0-.023-.193A11.177,11.177,0,0,1,24.262,9.858Z" transform="translate(-16.816 -9.217)"/><path class="c" d="M60.231,13.013,60.26,13a2.055,2.055,0,0,0,.419.25,10.278,10.278,0,0,1,.975.609,1.019,1.019,0,0,0,.244.129l-.024.023c-.77.588-1.5,1.232-2.236,1.859-.877.756-1.719,1.553-2.572,2.336a2.485,2.485,0,0,1-.366.315,5.459,5.459,0,0,1-.781-1.509c-.023-.1-.078-.225.009-.312a7.357,7.357,0,0,1,.793-.791A32.02,32.02,0,0,1,60.231,13.013Z" transform="translate(-44.067 -11.853)"/><path class="c" d="M73,24.626c.067-.073.113-.171.2-.219.062.022.086.092.127.139a11.556,11.556,0,0,1,.818,1.353c.053.067-.036.13-.064.186a33.9,33.9,0,0,1-3.524,4.125c-.07.063-.151.163-.258.127a5.081,5.081,0,0,1-1.634-.817c.39-.448.818-.864,1.214-1.308C70.961,27.049,72.005,25.856,73,24.626Z" transform="translate(-52.989 -19.813)"/><path class="c" d="M56.227,30.995l.016-.02a11.255,11.255,0,0,1,.8,6.6,11.178,11.178,0,0,1-10.959,9.15,11,11,0,0,1-3.247-.456,1.109,1.109,0,0,0-.187-.034l.026-.02c.508-.347,1-.721,1.48-1.1.11-.1.246-.193.275-.346.132-.926.234-1.855.359-2.781.03-.3.362-.409.563-.583a64.872,64.872,0,0,0,7.14-6.106A36.6,36.6,0,0,0,56.227,30.995Z" transform="translate(-34.835 -24.395)"/><path class="c" d="M45.815,33.748a2.068,2.068,0,0,1,.3-.276c.356.438.723.868,1.118,1.27.369.371.773.7,1.166,1.048.034.041.128.082.083.148-.658.732-1.394,1.388-2.094,2.079-1.123,1.078-2.287,2.113-3.452,3.145-.044.036-.108.108-.165.048a9.032,9.032,0,0,1-1.007-.894,9.954,9.954,0,0,1-1.009-1.1c-.047-.064.038-.118.069-.165.788-.882,1.566-1.773,2.378-2.634C44.051,35.5,44.93,34.623,45.815,33.748Z" transform="translate(-33.507 -26.137)"/><path class="c" d="M27.195,48.846a2.161,2.161,0,0,1,.341-.409c.222.4.518.766.731,1.171a2.882,2.882,0,0,1-.34.442c-1.308,1.546-2.571,3.131-3.769,4.761l-.019.022c-.108-.231-.319-.394-.422-.625.379-.706.813-1.381,1.238-2.061C25.667,51.024,26.419,49.926,27.195,48.846Z" transform="translate(-21.629 -36.576)"/><path class="c" d="M35.4,61.178c.056-.032.122-.129.192-.074a13.138,13.138,0,0,0,1.184.728c-.213.191-.456.346-.684.519q-1.44,1.052-2.949,2.007c-.72.443-1.436.9-2.187,1.283l-.061,0c-.214-.118-.382-.306-.6-.413l.023-.019C32.061,63.928,33.746,62.569,35.4,61.178Z" transform="translate(-26.219 -45.401)"/></g><g transform="translate(7.628 8.189)"><path class="d" d="M24.262,9.858a11.275,11.275,0,0,1,7.8.114,2.644,2.644,0,0,1,.459.2L32.5,10.2a33.1,33.1,0,0,0-3.67,3.119,61.566,61.566,0,0,0-6.548,7.594c-.153.2-.283.418-.448.609a.569.569,0,0,1-.337.128c-.906.119-1.812.228-2.718.343-.155.009-.235.159-.327.263-.38.5-.781.98-1.117,1.507l-.026.028a.646.646,0,0,0-.023-.193A11.177,11.177,0,0,1,24.262,9.858Z" transform="translate(-16.816 -9.217)"/><path class="d" d="M60.231,13.013,60.26,13a2.055,2.055,0,0,0,.419.25,10.278,10.278,0,0,1,.975.609,1.019,1.019,0,0,0,.244.129l-.024.023c-.77.588-1.5,1.232-2.236,1.859-.877.756-1.719,1.553-2.572,2.336a2.485,2.485,0,0,1-.366.315,5.459,5.459,0,0,1-.781-1.509c-.023-.1-.078-.225.009-.312a7.357,7.357,0,0,1,.793-.791A32.02,32.02,0,0,1,60.231,13.013Z" transform="translate(-44.067 -11.853)"/><path class="d" d="M73,24.626c.067-.073.113-.171.2-.219.062.022.086.092.127.139a11.556,11.556,0,0,1,.818,1.353c.053.067-.036.13-.064.186a33.9,33.9,0,0,1-3.524,4.125c-.07.063-.151.163-.258.127a5.081,5.081,0,0,1-1.634-.817c.39-.448.818-.864,1.214-1.308C70.961,27.049,72.005,25.856,73,24.626Z" transform="translate(-52.989 -19.813)"/><path class="d" d="M56.227,30.995l.016-.02a11.255,11.255,0,0,1,.8,6.6,11.178,11.178,0,0,1-10.959,9.15,11,11,0,0,1-3.247-.456,1.109,1.109,0,0,0-.187-.034l.026-.02c.508-.347,1-.721,1.48-1.1.11-.1.246-.193.275-.346.132-.926.234-1.855.359-2.781.03-.3.362-.409.563-.583a64.872,64.872,0,0,0,7.14-6.106A36.6,36.6,0,0,0,56.227,30.995Z" transform="translate(-34.835 -24.395)"/><path class="d" d="M45.815,33.748a2.068,2.068,0,0,1,.3-.276c.356.438.723.868,1.118,1.27.369.371.773.7,1.166,1.048.034.041.128.082.083.148-.658.732-1.394,1.388-2.094,2.079-1.123,1.078-2.287,2.113-3.452,3.145-.044.036-.108.108-.165.048a9.032,9.032,0,0,1-1.007-.894,9.954,9.954,0,0,1-1.009-1.1c-.047-.064.038-.118.069-.165.788-.882,1.566-1.773,2.378-2.634C44.051,35.5,44.93,34.623,45.815,33.748Z" transform="translate(-33.507 -26.137)"/><path class="d" d="M27.195,48.846a2.161,2.161,0,0,1,.341-.409c.222.4.518.766.731,1.171a2.882,2.882,0,0,1-.34.442c-1.308,1.546-2.571,3.131-3.769,4.761l-.019.022c-.108-.231-.319-.394-.422-.625.379-.706.813-1.381,1.238-2.061C25.667,51.024,26.419,49.926,27.195,48.846Z" transform="translate(-21.629 -36.576)"/><path class="d" d="M35.4,61.178c.056-.032.122-.129.192-.074a13.138,13.138,0,0,0,1.184.728c-.213.191-.456.346-.684.519q-1.44,1.052-2.949,2.007c-.72.443-1.436.9-2.187,1.283l-.061,0c-.214-.118-.382-.306-.6-.413l.023-.019C32.061,63.928,33.746,62.569,35.4,61.178Z" transform="translate(-26.219 -45.401)"/></g><g transform="translate(7.628 7.834)"><g transform="translate(0 0)"><path class="e" d="M24.262,9.858a11.275,11.275,0,0,1,7.8.114,2.644,2.644,0,0,1,.459.2L32.5,10.2a33.1,33.1,0,0,0-3.67,3.119,61.566,61.566,0,0,0-6.548,7.594c-.153.2-.283.418-.448.609a.569.569,0,0,1-.337.128c-.906.119-1.812.228-2.718.343-.155.009-.235.159-.327.263-.38.5-.781.98-1.117,1.507l-.026.028a.646.646,0,0,0-.023-.193A11.177,11.177,0,0,1,24.262,9.858Z" transform="translate(-16.816 -9.217)"/><path class="e" d="M60.231,13.013,60.26,13a2.055,2.055,0,0,0,.419.25,10.278,10.278,0,0,1,.975.609,1.019,1.019,0,0,0,.244.129l-.024.023c-.77.588-1.5,1.232-2.236,1.859-.877.756-1.719,1.553-2.572,2.336a2.485,2.485,0,0,1-.366.315,5.459,5.459,0,0,1-.781-1.509c-.023-.1-.078-.225.009-.312a7.357,7.357,0,0,1,.793-.791A32.02,32.02,0,0,1,60.231,13.013Z" transform="translate(-44.067 -11.853)"/><path class="e" d="M73,24.626c.067-.073.113-.171.2-.219.062.022.086.092.127.139a11.556,11.556,0,0,1,.818,1.353c.053.067-.036.13-.064.186a33.9,33.9,0,0,1-3.524,4.125c-.07.063-.151.163-.258.127a5.081,5.081,0,0,1-1.634-.817c.39-.448.818-.864,1.214-1.308C70.961,27.049,72.005,25.856,73,24.626Z" transform="translate(-52.989 -19.813)"/><path class="e" d="M56.227,30.995l.016-.02a11.255,11.255,0,0,1,.8,6.6,11.178,11.178,0,0,1-10.959,9.15,11,11,0,0,1-3.247-.456,1.109,1.109,0,0,0-.187-.034l.026-.02c.508-.347,1-.721,1.48-1.1.11-.1.246-.193.275-.346.132-.926.234-1.855.359-2.781.03-.3.362-.409.563-.583a64.872,64.872,0,0,0,7.14-6.106A36.6,36.6,0,0,0,56.227,30.995Z" transform="translate(-34.835 -24.395)"/><path class="e" d="M45.815,33.748a2.068,2.068,0,0,1,.3-.276c.356.438.723.868,1.118,1.27.369.371.773.7,1.166,1.048.034.041.128.082.083.148-.658.732-1.394,1.388-2.094,2.079-1.123,1.078-2.287,2.113-3.452,3.145-.044.036-.108.108-.165.048a9.032,9.032,0,0,1-1.007-.894,9.954,9.954,0,0,1-1.009-1.1c-.047-.064.038-.118.069-.165.788-.882,1.566-1.773,2.378-2.634C44.051,35.5,44.93,34.623,45.815,33.748Z" transform="translate(-33.507 -26.137)"/><path class="e" d="M27.195,48.846a2.161,2.161,0,0,1,.341-.409c.222.4.518.766.731,1.171a2.882,2.882,0,0,1-.34.442c-1.308,1.546-2.571,3.131-3.769,4.761l-.019.022c-.108-.231-.319-.394-.422-.625.379-.706.813-1.381,1.238-2.061C25.667,51.024,26.419,49.926,27.195,48.846Z" transform="translate(-21.629 -36.576)"/><path class="e" d="M35.4,61.178c.056-.032.122-.129.192-.074a13.138,13.138,0,0,0,1.184.728c-.213.191-.456.346-.684.519q-1.44,1.052-2.949,2.007c-.72.443-1.436.9-2.187,1.283l-.061,0c-.214-.118-.382-.306-.6-.413l.023-.019C32.061,63.928,33.746,62.569,35.4,61.178Z" transform="translate(-26.219 -45.401)"/></g></g></g></g></svg>