<svg xmlns="http://www.w3.org/2000/svg" xmlns:xlink="http://www.w3.org/1999/xlink" width="66" height="66" viewBox="0 0 66 66"><defs><style>.a,.b{fill-rule:evenodd;}.a{fill:url(#a);}.b{fill:url(#b);}.c{fill:none;}.d{fill:#0699ff;}.e{fill:#fff;}.f{filter:url(#c);}</style><linearGradient id="a" x1="0.5" x2="0.5" y2="1" gradientUnits="objectBoundingBox"><stop offset="0" stop-color="#77c8ff"/><stop offset="1" stop-color="#0599ff"/></linearGradient><linearGradient id="b" x1="0.5" x2="0.5" y2="1" gradientUnits="objectBoundingBox"><stop offset="0" stop-color="#41b2ff"/><stop offset="1" stop-color="#4ab5ff"/></linearGradient><filter id="c" x="18.885" y="18.885" width="28.23" height="29.23" filterUnits="userSpaceOnUse"><feOffset dy="1" input="SourceAlpha"/><feGaussianBlur result="d"/><feFlood flood-opacity="0.161"/><feComposite operator="in" in2="d"/><feComposite in="SourceGraphic"/></filter></defs><g transform="translate(0.903 0.903)"><path class="a" d="M30.457,1h7.086c8.307,0,12.762,1.149,16.8,3.306a22.489,22.489,0,0,1,9.356,9.356C65.851,17.695,67,22.15,67,30.457v7.086c0,8.307-1.149,12.762-3.306,16.8a22.489,22.489,0,0,1-9.356,9.356C50.305,65.851,45.85,67,37.543,67H30.457c-8.307,0-12.762-1.149-16.8-3.306a22.489,22.489,0,0,1-9.356-9.356C2.149,50.305,1,45.85,1,37.543V30.457c0-8.307,1.149-12.762,3.306-16.8a22.489,22.489,0,0,1,9.356-9.356C17.695,2.149,22.15,1,30.457,1Z" transform="translate(-1.903 -1.903)"/><path class="b" d="M27.325,1h6.333c7.424,0,11.405,1.027,15.01,2.954a20.1,20.1,0,0,1,8.361,8.361c1.928,3.6,2.954,7.586,2.954,15.01v6.333c0,7.424-1.027,11.405-2.954,15.01a20.1,20.1,0,0,1-8.361,8.361c-3.6,1.928-7.586,2.954-15.01,2.954H27.325c-7.424,0-11.405-1.027-15.01-2.954a20.1,20.1,0,0,1-8.361-8.361C2.027,45.063,1,41.082,1,33.658V27.325C1,19.9,2.027,15.92,3.954,12.315a20.1,20.1,0,0,1,8.361-8.361C15.92,2.027,19.9,1,27.325,1Z" transform="translate(1.605 1.605)"/><g transform="translate(13.276 15.276)"><path class="c" d="M0,0H37.641V37.641H0Z"/><path class="d" d="M18.684,31.23V15.547H31.23V31.23ZM3,18.684V3H15.547V18.684Zm9.41-3.137V6.137H6.137v9.41ZM3,31.23V21.82H15.547v9.41Zm3.137-3.137H12.41V24.957H6.137Zm15.684,0h6.273v-9.41H21.82ZM18.684,3H31.23v9.41H18.684ZM21.82,6.137V9.273h6.273V6.137Z" transform="translate(1.705 1.705)"/></g><g transform="translate(13.276 13.276)"><path class="c" d="M0,0H37.641V37.641H0Z"/><g class="f" transform="matrix(1, 0, 0, 1, -14.18, -14.18)"><path class="e" d="M18.684,31.23V15.547H31.23V31.23ZM3,18.684V3H15.547V18.684Zm9.41-3.137V6.137H6.137v9.41ZM3,31.23V21.82H15.547v9.41Zm3.137-3.137H12.41V24.957H6.137Zm15.684,0h6.273v-9.41H21.82ZM18.684,3H31.23v9.41H18.684ZM21.82,6.137V9.273h6.273V6.137Z" transform="translate(15.88 15.88)"/></g></g></g></svg>