<svg xmlns="http://www.w3.org/2000/svg" xmlns:xlink="http://www.w3.org/1999/xlink" width="66" height="66" viewBox="0 0 66 66"><defs><style>.a,.b{fill-rule:evenodd;}.a{fill:url(#a);}.b{fill:url(#b);}.c{fill:#0599ff;}.d{fill:#fff;}.e{filter:url(#c);}</style><linearGradient id="a" x1="0.5" x2="0.5" y2="1" gradientUnits="objectBoundingBox"><stop offset="0" stop-color="#77c8ff"/><stop offset="1" stop-color="#0599ff"/></linearGradient><linearGradient id="b" x1="0.5" x2="0.5" y2="1" gradientUnits="objectBoundingBox"><stop offset="0" stop-color="#41b2ff"/><stop offset="1" stop-color="#4ab5ff"/></linearGradient><filter id="c" x="12.567" y="25.09" width="41.244" height="16.12" filterUnits="userSpaceOnUse"><feOffset dy="1" input="SourceAlpha"/><feGaussianBlur result="d"/><feFlood flood-opacity="0.161"/><feComposite operator="in" in2="d"/><feComposite in="SourceGraphic"/></filter></defs><g transform="translate(0.903 0.903)"><path class="a" d="M30.457,1h7.086c8.307,0,12.762,1.149,16.8,3.306a22.489,22.489,0,0,1,9.356,9.356C65.851,17.695,67,22.15,67,30.457v7.086c0,8.307-1.149,12.762-3.306,16.8a22.489,22.489,0,0,1-9.356,9.356C50.305,65.851,45.85,67,37.543,67H30.457c-8.307,0-12.762-1.149-16.8-3.306a22.489,22.489,0,0,1-9.356-9.356C2.149,50.305,1,45.85,1,37.543V30.457c0-8.307,1.149-12.762,3.306-16.8a22.489,22.489,0,0,1,9.356-9.356C17.695,2.149,22.15,1,30.457,1Z" transform="translate(-1.903 -1.903)"/><path class="b" d="M27.325,1h6.333c7.424,0,11.405,1.027,15.01,2.954a20.1,20.1,0,0,1,8.361,8.361c1.928,3.6,2.954,7.586,2.954,15.01v6.333c0,7.424-1.027,11.405-2.954,15.01a20.1,20.1,0,0,1-8.361,8.361c-3.6,1.928-7.586,2.954-15.01,2.954H27.325c-7.424,0-11.405-1.027-15.01-2.954a20.1,20.1,0,0,1-8.361-8.361C2.027,45.063,1,41.082,1,33.658V27.325C1,19.9,2.027,15.92,3.954,12.315a20.1,20.1,0,0,1,8.361-8.361C15.92,2.027,19.9,1,27.325,1Z" transform="translate(1.605 1.605)"/><path class="c" d="M-13.881.21A7.07,7.07,0,0,1-18.6-1.239a5.538,5.538,0,0,1-1.816-4.242q-.021-.567-.021-1.848,0-1.3.021-1.89a5.534,5.534,0,0,1,1.837-4.211,6.986,6.986,0,0,1,4.694-1.48,8.736,8.736,0,0,1,3.349.609A5.41,5.41,0,0,1-8.19-12.537a4.657,4.657,0,0,1,.9,2.73.411.411,0,0,1-.136.315.463.463,0,0,1-.326.126h-2.982a.659.659,0,0,1-.431-.115.965.965,0,0,1-.241-.431,2.494,2.494,0,0,0-.893-1.439,2.76,2.76,0,0,0-1.585-.41q-2.373,0-2.457,2.646-.021.567-.021,1.743t.021,1.785q.084,2.646,2.457,2.646A2.768,2.768,0,0,0-12.3-3.36,2.4,2.4,0,0,0-11.4-4.788a.8.8,0,0,1,.231-.431.706.706,0,0,1,.441-.115h2.982a.463.463,0,0,1,.326.126.411.411,0,0,1,.136.315,4.657,4.657,0,0,1-.9,2.73A5.41,5.41,0,0,1-10.532-.4,8.736,8.736,0,0,1-13.881.21ZM.42.21A9.1,9.1,0,0,1-3.045-.378,5.055,5.055,0,0,1-5.208-1.932a3.627,3.627,0,0,1-.777-2.1.411.411,0,0,1,.137-.315.463.463,0,0,1,.326-.126H-2.73a.869.869,0,0,1,.41.084,1.355,1.355,0,0,1,.346.294,2.113,2.113,0,0,0,.851.829A3.141,3.141,0,0,0,.42-2.94a3.571,3.571,0,0,0,1.743-.346,1.061,1.061,0,0,0,.609-.956.931.931,0,0,0-.315-.724,2.793,2.793,0,0,0-1.008-.5q-.693-.22-2-.493A8.691,8.691,0,0,1-4.347-7.5a3.579,3.579,0,0,1-1.26-2.94,3.9,3.9,0,0,1,.725-2.321,4.711,4.711,0,0,1,2.058-1.585,7.864,7.864,0,0,1,3.1-.567,7.427,7.427,0,0,1,3.2.641,5.483,5.483,0,0,1,2.079,1.6,3.384,3.384,0,0,1,.767,1.88.463.463,0,0,1-.126.325.411.411,0,0,1-.315.136H2.94a.809.809,0,0,1-.714-.378,1.3,1.3,0,0,0-.651-.745,2.56,2.56,0,0,0-1.3-.3,2.493,2.493,0,0,0-1.365.315,1.034,1.034,0,0,0-.483.924,1.058,1.058,0,0,0,.63.955,9.537,9.537,0,0,0,2.352.7,13.442,13.442,0,0,1,3.14.892A3.959,3.959,0,0,1,6.269-6.583a3.857,3.857,0,0,1,.557,2.153,3.911,3.911,0,0,1-.819,2.478A5.124,5.124,0,0,1,3.738-.347,9.21,9.21,0,0,1,.42.21Zm13.986,0a9.1,9.1,0,0,1-3.465-.588A5.055,5.055,0,0,1,8.778-1.932,3.627,3.627,0,0,1,8-4.032a.411.411,0,0,1,.136-.315.463.463,0,0,1,.326-.126h2.793a.869.869,0,0,1,.41.084,1.355,1.355,0,0,1,.346.294,2.113,2.113,0,0,0,.851.829,3.141,3.141,0,0,0,1.543.325,3.571,3.571,0,0,0,1.743-.346,1.061,1.061,0,0,0,.609-.956.931.931,0,0,0-.315-.724,2.793,2.793,0,0,0-1.008-.5q-.693-.22-1.995-.493A8.691,8.691,0,0,1,9.639-7.5a3.579,3.579,0,0,1-1.26-2.94A3.9,3.9,0,0,1,9.1-12.758a4.711,4.711,0,0,1,2.058-1.585,7.864,7.864,0,0,1,3.1-.567,7.427,7.427,0,0,1,3.2.641,5.483,5.483,0,0,1,2.079,1.6,3.384,3.384,0,0,1,.766,1.88.463.463,0,0,1-.126.325.411.411,0,0,1-.315.136h-2.94a.809.809,0,0,1-.714-.378,1.3,1.3,0,0,0-.651-.745,2.56,2.56,0,0,0-1.3-.3,2.493,2.493,0,0,0-1.365.315,1.034,1.034,0,0,0-.483.924,1.058,1.058,0,0,0,.63.955,9.537,9.537,0,0,0,2.352.7,13.442,13.442,0,0,1,3.14.892,3.959,3.959,0,0,1,1.722,1.386,3.857,3.857,0,0,1,.556,2.153,3.911,3.911,0,0,1-.819,2.478A5.124,5.124,0,0,1,17.724-.347,9.21,9.21,0,0,1,14.406.21Z" transform="translate(32.097 41.097)"/><g class="e" transform="matrix(1, 0, 0, 1, -0.9, -0.9)"><path class="d" d="M-13.881.21A7.07,7.07,0,0,1-18.6-1.239a5.538,5.538,0,0,1-1.816-4.242q-.021-.567-.021-1.848,0-1.3.021-1.89a5.534,5.534,0,0,1,1.837-4.211,6.986,6.986,0,0,1,4.694-1.48,8.736,8.736,0,0,1,3.349.609A5.41,5.41,0,0,1-8.19-12.537a4.657,4.657,0,0,1,.9,2.73.411.411,0,0,1-.136.315.463.463,0,0,1-.326.126h-2.982a.659.659,0,0,1-.431-.115.965.965,0,0,1-.241-.431,2.494,2.494,0,0,0-.893-1.439,2.76,2.76,0,0,0-1.585-.41q-2.373,0-2.457,2.646-.021.567-.021,1.743t.021,1.785q.084,2.646,2.457,2.646A2.768,2.768,0,0,0-12.3-3.36,2.4,2.4,0,0,0-11.4-4.788a.8.8,0,0,1,.231-.431.706.706,0,0,1,.441-.115h2.982a.463.463,0,0,1,.326.126.411.411,0,0,1,.136.315,4.657,4.657,0,0,1-.9,2.73A5.41,5.41,0,0,1-10.532-.4,8.736,8.736,0,0,1-13.881.21ZM.42.21A9.1,9.1,0,0,1-3.045-.378,5.055,5.055,0,0,1-5.208-1.932a3.627,3.627,0,0,1-.777-2.1.411.411,0,0,1,.137-.315.463.463,0,0,1,.326-.126H-2.73a.869.869,0,0,1,.41.084,1.355,1.355,0,0,1,.346.294,2.113,2.113,0,0,0,.851.829A3.141,3.141,0,0,0,.42-2.94a3.571,3.571,0,0,0,1.743-.346,1.061,1.061,0,0,0,.609-.956.931.931,0,0,0-.315-.724,2.793,2.793,0,0,0-1.008-.5q-.693-.22-2-.493A8.691,8.691,0,0,1-4.347-7.5a3.579,3.579,0,0,1-1.26-2.94,3.9,3.9,0,0,1,.725-2.321,4.711,4.711,0,0,1,2.058-1.585,7.864,7.864,0,0,1,3.1-.567,7.427,7.427,0,0,1,3.2.641,5.483,5.483,0,0,1,2.079,1.6,3.384,3.384,0,0,1,.767,1.88.463.463,0,0,1-.126.325.411.411,0,0,1-.315.136H2.94a.809.809,0,0,1-.714-.378,1.3,1.3,0,0,0-.651-.745,2.56,2.56,0,0,0-1.3-.3,2.493,2.493,0,0,0-1.365.315,1.034,1.034,0,0,0-.483.924,1.058,1.058,0,0,0,.63.955,9.537,9.537,0,0,0,2.352.7,13.442,13.442,0,0,1,3.14.892A3.959,3.959,0,0,1,6.269-6.583a3.857,3.857,0,0,1,.557,2.153,3.911,3.911,0,0,1-.819,2.478A5.124,5.124,0,0,1,3.738-.347,9.21,9.21,0,0,1,.42.21Zm13.986,0a9.1,9.1,0,0,1-3.465-.588A5.055,5.055,0,0,1,8.778-1.932,3.627,3.627,0,0,1,8-4.032a.411.411,0,0,1,.136-.315.463.463,0,0,1,.326-.126h2.793a.869.869,0,0,1,.41.084,1.355,1.355,0,0,1,.346.294,2.113,2.113,0,0,0,.851.829,3.141,3.141,0,0,0,1.543.325,3.571,3.571,0,0,0,1.743-.346,1.061,1.061,0,0,0,.609-.956.931.931,0,0,0-.315-.724,2.793,2.793,0,0,0-1.008-.5q-.693-.22-1.995-.493A8.691,8.691,0,0,1,9.639-7.5a3.579,3.579,0,0,1-1.26-2.94A3.9,3.9,0,0,1,9.1-12.758a4.711,4.711,0,0,1,2.058-1.585,7.864,7.864,0,0,1,3.1-.567,7.427,7.427,0,0,1,3.2.641,5.483,5.483,0,0,1,2.079,1.6,3.384,3.384,0,0,1,.766,1.88.463.463,0,0,1-.126.325.411.411,0,0,1-.315.136h-2.94a.809.809,0,0,1-.714-.378,1.3,1.3,0,0,0-.651-.745,2.56,2.56,0,0,0-1.3-.3,2.493,2.493,0,0,0-1.365.315,1.034,1.034,0,0,0-.483.924,1.058,1.058,0,0,0,.63.955,9.537,9.537,0,0,0,2.352.7,13.442,13.442,0,0,1,3.14.892,3.959,3.959,0,0,1,1.722,1.386,3.857,3.857,0,0,1,.556,2.153,3.911,3.911,0,0,1-.819,2.478A5.124,5.124,0,0,1,17.724-.347,9.21,9.21,0,0,1,14.406.21Z" transform="translate(33 40)"/></g></g></svg>