<?xml version="1.0" encoding="UTF-8"?>
<svg width="168px" height="297px" viewBox="0 0 168 297" version="1.1" xmlns="http://www.w3.org/2000/svg" xmlns:xlink="http://www.w3.org/1999/xlink">
    <!-- Generator: Sketch 51.2 (57519) - http://www.bohemiancoding.com/sketch -->
    <title>Group 6</title>
    <desc>Created with Sketch.</desc>
    <defs>
        <linearGradient x1="50%" y1="-8.92652357%" x2="50%" y2="100%" id="linearGradient-1">
            <stop stop-color="#F6F6F6" stop-opacity="0" offset="0%"></stop>
            <stop stop-color="#E9E9E9" offset="100%"></stop>
        </linearGradient>
        <linearGradient x1="9.63941069%" y1="0%" x2="100%" y2="94.1703587%" id="linearGradient-2">
            <stop stop-color="#F6F6F6" stop-opacity="0" offset="0%"></stop>
            <stop stop-color="#E9E9E9" offset="100%"></stop>
        </linearGradient>
        <linearGradient x1="110.564331%" y1="77.3467166%" x2="7.03718597%" y2="23.2143491%" id="linearGradient-3">
            <stop stop-color="#F6F6F6" stop-opacity="0" offset="0%"></stop>
            <stop stop-color="#E9E9E9" offset="100%"></stop>
        </linearGradient>
        <linearGradient x1="50%" y1="109.624876%" x2="50%" y2="0%" id="linearGradient-4">
            <stop stop-color="#F6F6F6" stop-opacity="0" offset="0%"></stop>
            <stop stop-color="#E9E9E9" offset="100%"></stop>
        </linearGradient>
        <linearGradient x1="0%" y1="26.0438603%" x2="100%" y2="42.4099793%" id="linearGradient-5">
            <stop stop-color="#F6F6F6" stop-opacity="0" offset="0%"></stop>
            <stop stop-color="#E9E9E9" offset="100%"></stop>
        </linearGradient>
    </defs>
    <g id="Page-1" stroke="none" stroke-width="1" fill="none" fill-rule="evenodd">
        <g id="02-copy" transform="translate(-398.000000, -905.000000)">
            <g id="Group-6" transform="translate(398.000000, 905.000000)">
                <g id="Group-4" transform="translate(12.000000, 0.000000)" fill-rule="nonzero">
                    <rect id="Rectangle-6" fill="url(#linearGradient-1)" x="0" y="0" width="60" height="88" rx="4"></rect>
                    <rect id="Rectangle-6-Copy" fill="url(#linearGradient-2)" x="76" y="42" width="60" height="88" rx="4"></rect>
                    <rect id="Rectangle-6-Copy-3" fill="url(#linearGradient-3)" x="76" y="146" width="60" height="88" rx="4"></rect>
                    <rect id="Rectangle-6-Copy-4" fill="url(#linearGradient-4)" x="0" y="209" width="60" height="88" rx="4"></rect>
                    <rect id="Rectangle-6-Copy-2" fill="url(#linearGradient-5)" x="0" y="105" width="60" height="88" rx="4"></rect>
                </g>
                <g id="Group-2" transform="translate(0.000000, 68.000000)" fill="#222222">
                    <path d="M11.3406467,35.2590674 L11.3406467,58 L3,58 L3,2 L12.4503464,2 C17.0800847,2 20.5762007,2.32642161 22.9387991,2.97927461 C25.3252621,3.63212762 27.4253181,4.86527591 29.23903,6.67875648 C32.4130259,9.8221228 34,13.7875408 34,18.5751295 C34,23.7012346 32.3056367,27.7633702 28.9168591,30.761658 C25.5280816,33.7599459 20.9580734,35.2590674 15.2066975,35.2590674 L11.3406467,35.2590674 Z M11.3406467,27.4248705 L14.4549654,27.4248705 C22.1155117,27.4248705 25.9457275,24.4387173 25.9457275,18.4663212 C25.9457275,12.6873632 21.9961904,9.79792746 14.0969977,9.79792746 L11.3406467,9.79792746 L11.3406467,27.4248705 Z" id="P"></path>
                    <path d="M56,29.2604622 C56,21.2512612 58.862838,14.3722961 64.5885998,8.6233604 C70.2904044,2.87442472 77.14205,0 85.1437423,0 C93.0496058,0 99.8293811,2.89899245 105.483271,8.69706433 C111.161119,14.4951362 114,21.4600884 114,29.5921299 C114,37.7733076 111.14914,44.7136921 105.447336,50.4134916 C99.721574,56.1378591 92.8100364,59 84.7125155,59 C77.549324,59 71.1169224,56.4572397 65.4151177,51.3716427 C59.1383412,45.7455476 56,38.3752278 56,29.2604622 Z M64.4448575,29.3710181 C64.4448575,35.660452 66.5051426,40.8319597 70.6257745,44.8856964 C74.7224492,48.9394331 79.4539178,50.9662711 84.8203222,50.9662711 C90.6419126,50.9662711 95.5530572,48.9025815 99.5539033,44.7751405 C103.554749,40.5985633 105.555143,35.5130427 105.555143,29.518426 C105.555143,23.450105 103.578706,18.3645843 99.6257745,14.2617114 C95.6967999,10.1342704 90.8335688,8.07058089 85.0359356,8.07058089 C79.2622594,8.07058089 74.38705,10.1342704 70.4101611,14.2617114 C66.4332721,18.3400162 64.4448575,23.3764014 64.4448575,29.3710181 Z" id="O"></path>
                    <path d="M140.88994,7.11009654 L145,12.3905068 L142.549441,12.3905068 L138.757524,7.31874497 L138.396389,7.31874497 L138.396389,12.3905068 L136.392949,12.3905068 L136.392949,0 L138.740327,0 C140.49442,0 141.761246,0.307619611 142.540843,0.922868061 C143.400692,1.60766634 143.83061,2.5118005 143.83061,3.63529767 C143.83061,4.51269546 143.561195,5.26703224 143.022356,5.89833065 C142.483517,6.52962906 141.772719,6.93354699 140.88994,7.11009654 Z M138.396389,5.68968222 L139.032674,5.68968222 C140.930075,5.68968222 141.878762,5.01291908 141.878762,3.65937249 C141.878762,2.39142568 140.955871,1.75746179 139.11006,1.75746179 L138.396389,1.75746179 L138.396389,5.68968222 Z M140.05589,24.0622084 L140.05589,34.6952534 L138.052451,34.6952534 L138.052451,24.0622084 L135,24.0622084 L135,22.3047466 L143.099742,22.3047466 L143.099742,24.0622084 L140.05589,24.0622084 Z M143.022356,46.3669549 L138.396389,46.3669549 L138.396389,49.3442076 L142.858985,49.3442076 L142.858985,51.1016693 L138.396389,51.1016693 L138.396389,57 L136.392949,57 L136.392949,44.6094932 L143.022356,44.6094932 L143.022356,46.3669549 Z" id="RTF"></path>
                    <g id="Group-3" transform="translate(0.000000, 78.000000)">
                        <path d="M0,29.2604622 C0,21.2512612 2.87358948,14.3722961 8.62085465,8.6233604 C14.3440727,2.87442472 21.22145,0 29.253193,0 C37.1887474,0 43.9939844,2.89899245 49.6691082,8.69706433 C55.3682791,14.4951362 58.2178218,21.4600884 58.2178218,29.5921299 C58.2178218,37.7733076 55.3562557,44.7136921 49.6330377,50.4134916 C43.8857725,56.1378591 36.9482782,59 28.8203467,59 C21.6302535,59 15.1736947,56.4572397 9.45047665,51.3716427 C3.15012738,45.7455476 0,38.3752278 0,29.2604622 Z M8.47657256,29.3710181 C8.47657256,35.660452 10.5445951,40.8319597 14.6807023,44.8856964 C18.7927623,48.9394331 23.5420001,50.9662711 28.9285583,50.9662711 C34.772012,50.9662711 39.7016006,48.9025815 43.7174721,44.7751405 C47.7333436,40.5985633 49.7412492,35.5130427 49.7412492,29.518426 C49.7412492,23.450105 47.7573904,18.3645843 43.7896132,14.2617114 C39.8458831,10.1342704 34.964388,8.07058089 29.1449814,8.07058089 C23.349622,8.07058089 18.4561035,10.1342704 14.4642791,14.2617114 C10.4724548,18.3400162 8.47657256,23.3764014 8.47657256,29.3710181 Z" id="O-Copy"></path>
                        <path d="M109.782178,29.2604622 C109.782178,21.2512612 112.655768,14.3722961 118.403033,8.6233604 C124.126251,2.87442472 131.003628,0 139.035371,0 C146.970926,0 153.776163,2.89899245 159.451286,8.69706433 C165.150457,14.4951362 168,21.4600884 168,29.5921299 C168,37.7733076 165.138434,44.7136921 159.415216,50.4134916 C153.667951,56.1378591 146.730456,59 138.602525,59 C131.412432,59 124.955873,56.4572397 119.232655,51.3716427 C112.932306,45.7455476 109.782178,38.3752278 109.782178,29.2604622 Z M118.258751,29.3710181 C118.258751,35.660452 120.326773,40.8319597 124.46288,44.8856964 C128.574941,48.9394331 133.324178,50.9662711 138.710737,50.9662711 C144.55419,50.9662711 149.483779,48.9025815 153.49965,44.7751405 C157.515522,40.5985633 159.523427,35.5130427 159.523427,29.518426 C159.523427,23.450105 157.539569,18.3645843 153.571791,14.2617114 C149.628061,10.1342704 144.746566,8.07058089 138.92716,8.07058089 C133.1318,8.07058089 128.238282,10.1342704 124.246457,14.2617114 C120.254633,18.3400162 118.258751,23.3764014 118.258751,29.3710181 Z" id="O-Copy-2"></path>
                        <path d="M83.2264257,0 L83.2264257,18.1273302 L89.8217822,18.1273302 L89.8217822,21.12347 L79.8415842,21.12347 L79.8415842,0 L83.2264257,0 Z M83.2264257,36.1908157 L83.2264257,57.3142857 L79.8415842,57.3142857 L79.8415842,36.1908157 L83.2264257,36.1908157 Z" id="LI"></path>
                    </g>
                </g>
            </g>
        </g>
    </g>
</svg>