<svg xmlns="http://www.w3.org/2000/svg" xmlns:xlink="http://www.w3.org/1999/xlink" width="202" height="89" viewBox="0 0 202 89"><defs><style>.a,.b{fill:#62e6ac;}.b{opacity:0.484;}.c{fill:#fff;stroke:#191919;stroke-width:3px;}.d{clip-path:url(#a);}.e,.h{fill:none;}.f{clip-path:url(#b);}.g,.i{stroke:none;}.i{fill:#191919;}</style><clipPath id="a"><rect class="a" width="199" height="86" transform="translate(596.211 382.385)"/></clipPath><clipPath id="b"><rect class="b" width="199" height="86" transform="translate(596 382)"/></clipPath></defs><g transform="translate(-859 -382)"><g transform="translate(154 -3272)"><g class="c" transform="translate(705 3654)"><rect class="g" width="202" height="89"/><rect class="h" x="1.5" y="1.5" width="199" height="86"/></g><g class="d" transform="translate(111.789 3274.615)"><path class="a" d="M106.068,0c58.58,0,106.068,46.738,106.068,104.393,0,4.795-35.013,23.129-31.128,28.669,5.44,7.76,47.95,7.989,66.232,12.863,5.537,1.476,1.019,26.781-11.521,43.309-15.064,19.854-40.409,31.117-53.149,26.434-16.719-6.145-22.661-38.834-28.641-42.805-12.883-8.555-37.7,0-45.409,0C49.941,172.862,0,162.047,0,104.393S47.488,0,106.068,0Z" transform="translate(405.338 210.728)"/><g class="e" transform="translate(382.469 195.973)"><path class="g" d="M116.912,0C181.48,0,233.824,51.516,233.824,115.065c0,5.285-38.592,25.494-34.311,31.6,6,8.553,52.852,8.805,73,14.178,6.1,1.627,1.124,29.519-12.7,47.736-16.6,21.884-44.54,34.3-58.583,29.137-18.429-6.773-24.978-42.8-31.569-47.181-14.2-9.43-41.557,0-50.051,0C55.046,190.534,0,178.614,0,115.065S52.343,0,116.912,0Z"/><path class="i" d="M 116.9118194580078 0.9999847412109375 C 109.0456390380859 0.9999847412109375 101.1847534179688 1.779891967773438 93.54747009277344 3.318023681640625 C 86.10488891601562 4.816925048828125 78.78421020507812 7.053497314453125 71.78878784179688 9.965591430664062 C 64.92034912109375 12.82481384277344 58.29579162597656 16.36373901367188 52.0989990234375 20.48406982421875 C 45.96113586425781 24.56520080566406 40.18942260742188 29.25210571289062 34.94413757324219 34.41456604003906 C 29.69914245605469 39.57670593261719 24.93739318847656 45.25685119628906 20.7911376953125 51.29713439941406 C 16.60556030273438 57.394775390625 13.01065063476562 63.91328430175781 10.10626220703125 70.67152404785156 C 7.14837646484375 77.55424499511719 4.876708984375 84.75682067871094 3.354278564453125 92.07917785644531 C 1.7921142578125 99.59284973144531 1 107.3264923095703 1 115.0652770996094 C 1 122.7470245361328 1.82781982421875 129.8937072753906 3.46044921875 136.3068237304688 C 5.027191162109375 142.4609527587891 7.3829345703125 148.1257781982422 10.46221923828125 153.1439208984375 C 13.41159057617188 157.9503479003906 17.11825561523438 162.3151245117188 21.47915649414062 166.1170349121094 C 25.64653015136719 169.7501678466797 30.54606628417969 172.9865264892578 36.041748046875 175.7362060546875 C 41.26063537597656 178.3473815917969 47.19064331054688 180.6060943603516 53.6669921875 182.4495544433594 C 59.75311279296875 184.1819152832031 66.53756713867188 185.6084594726562 73.83189392089844 186.6894836425781 C 86.7479248046875 188.6036376953125 101.7237548828125 189.5341339111328 119.6150360107422 189.5341339111328 C 121.7777557373047 189.5341339111328 125.3953247070312 188.8634643554688 129.5841064453125 188.0868835449219 C 136.1782836914062 186.8643798828125 144.3849334716797 185.3429565429688 152.2667236328125 185.3429565429688 C 155.8045959472656 185.3429565429688 159.0238189697266 185.6594543457031 161.8349304199219 186.2836303710938 C 165.0632934570312 187.0004577636719 167.8842468261719 188.1502685546875 170.2194519042969 189.7010955810547 C 171.4618530273438 190.5262145996094 172.6705017089844 192.1848754882812 174.1383666992188 195.0792388916016 C 175.3913269042969 197.5498046875 176.7279663085938 200.7283172607422 178.14306640625 204.0934143066406 C 180.7698211669922 210.3397369384766 183.7470397949219 217.4194641113281 187.5745239257812 223.5697021484375 C 191.9504699707031 230.601318359375 196.5317077636719 234.9214172363281 201.5800018310547 236.7768859863281 C 203.5704650878906 237.5084533691406 205.90625 237.8793792724609 208.5224304199219 237.8793792724609 C 212.150146484375 237.8793792724609 216.2080383300781 237.1798553466797 220.5833892822266 235.8002014160156 C 224.9847106933594 234.412353515625 229.5048828125 232.3997802734375 234.0183563232422 229.8183135986328 C 238.684326171875 227.1496734619141 243.1595306396484 223.9752807617188 247.3197174072266 220.3833160400391 C 251.7188262939453 216.5850219726562 255.6558227539062 212.4100646972656 259.0213928222656 207.9743041992188 C 261.7871704101562 204.3291625976562 264.3172607421875 200.1318817138672 266.5413208007812 195.4991302490234 C 268.562255859375 191.2894592285156 270.2496643066406 186.9010620117188 271.5567016601562 182.4558868408203 C 272.7609558105469 178.3602752685547 273.5753784179688 174.3987731933594 273.9119262695312 170.9996948242188 C 274.2373962402344 167.7124938964844 274.1084289550781 165.0978393554688 273.5389404296875 163.4384918212891 C 273.3169250488281 162.7915954589844 272.9146728515625 161.9837799072266 272.259033203125 161.8089904785156 C 264.5438232421875 159.7520599365234 252.56396484375 158.4177856445312 240.9785308837891 157.1274566650391 C 231.6712493896484 156.0908508300781 222.0470733642578 155.0189514160156 214.4291687011719 153.5626678466797 C 210.2904968261719 152.771484375 207.0631713867188 151.9332885742188 204.5628204345703 151.0001373291016 C 201.6176147460938 149.9010009765625 199.6979675292969 148.6706695556641 198.6943206787109 147.2389526367188 C 197.8616027832031 146.0514221191406 198.0358276367188 144.5401000976562 199.2120666503906 142.7469940185547 C 200.0958251953125 141.3998107910156 201.5673217773438 139.8358764648438 203.7107238769531 137.9659118652344 C 207.5809631347656 134.58935546875 212.9773254394531 130.7929229736328 218.1959533691406 127.1214904785156 C 222.1337432861328 124.3511734008789 225.8531494140625 121.7344589233398 228.6105346679688 119.5116348266602 C 230.0602111816406 118.3429946899414 231.1142120361328 117.388671875 231.8327178955078 116.5941009521484 C 232.7957763671875 115.5290985107422 232.8236083984375 115.1095962524414 232.8236083984375 115.0652770996094 C 232.8236083984375 107.3264923095703 232.031494140625 99.59284973144531 230.4693145751953 92.07917785644531 C 228.9468994140625 84.75682067871094 226.6752166748047 77.55424499511719 223.7173461914062 70.67152404785156 C 220.8129577636719 63.91328430175781 217.2180328369141 57.394775390625 213.032470703125 51.29713439941406 C 208.8862152099609 45.25685119628906 204.1244659423828 39.57670593261719 198.8794555664062 34.41456604003906 C 193.6341857910156 29.25210571289062 187.8624572753906 24.56520080566406 181.724609375 20.48406982421875 C 175.5278625488281 16.36373901367188 168.9032592773438 12.82481384277344 162.0348510742188 9.965591430664062 C 155.0393981933594 7.053497314453125 147.7187194824219 4.816925048828125 140.2761840820312 3.318023681640625 C 132.6388854980469 1.779891967773438 124.7779693603516 0.9999847412109375 116.9118194580078 0.9999847412109375 M 116.9118194580078 -1.52587890625e-05 C 181.4803924560547 -1.52587890625e-05 233.8236083984375 51.51649475097656 233.8236083984375 115.0652770996094 C 233.8236083984375 120.3503875732422 195.2315368652344 140.5588836669922 199.5130615234375 146.6648101806641 C 205.5091400146484 155.2181701660156 252.3646392822266 155.4700622558594 272.5166320800781 160.8427429199219 C 278.6193542480469 162.4696350097656 273.6402893066406 190.3617858886719 259.8180236816406 208.5787811279297 C 245.7413024902344 227.1315612792969 223.5180969238281 238.87939453125 208.5224304199219 238.87939453125 C 205.8298950195312 238.87939453125 203.3727111816406 238.5011901855469 201.2350311279297 237.7154846191406 C 182.8063201904297 230.9421997070312 176.2575073242188 194.9114990234375 169.666259765625 190.5341339111328 C 164.9333343505859 187.3909454345703 158.7374572753906 186.3429565429688 152.2667083740234 186.3429565429688 C 139.3240203857422 186.3429565429688 125.2781066894531 190.5341339111328 119.6150360107422 190.5341339111328 C 55.04643249511719 190.5341339111328 0 178.6140594482422 0 115.0652770996094 C 0 51.51649475097656 52.34321594238281 -1.52587890625e-05 116.9118194580078 -1.52587890625e-05 Z"/></g></g><g class="f" transform="translate(109 3272)"><path class="a" d="M59.164,0c32.675,0,59.164,26.017,59.164,58.112s-26.489,58.112-59.164,58.112S0,90.206,0,58.112C0,40.781,17.463,39.119,29.89,28.32,40.151,19.4,44.133,0,59.164,0Z" transform="translate(739.965 413.961)"/><g class="e" transform="translate(736.965 400.831)"><path class="g" d="M63.732,0c35.2,0,63.732,32.986,63.732,73.677S98.93,147.354,63.732,147.354,0,114.368,0,73.677C0,51.7,18.812,49.6,32.2,35.906,43.251,24.6,47.541,0,63.732,0Z"/><path class="i" d="M 63.73184204101562 1 C 61.39662170410156 1 59.27222442626953 1.5341796875 57.23728179931641 2.633026123046875 C 55.39584350585938 3.627410888671875 53.65853881835938 5.069259643554688 51.92616271972656 7.04095458984375 C 48.63362121582031 10.78829956054688 45.85190582275391 15.95169067382812 43.16175842285156 20.94507598876953 C 40.10784149169922 26.61369323730469 36.94994354248047 32.47531127929688 32.91316223144531 36.60469055175781 C 28.56016540527344 41.05695343017578 23.72203826904297 44.25325012207031 19.04322052001953 47.34431457519531 C 14.21430206298828 50.53455352783203 9.653182983398438 53.5478515625 6.348182678222656 57.54783630371094 C 2.699424743652344 61.96385192871094 1 67.08903503417969 1 73.67709350585938 C 1 83.50587463378906 2.664581298828125 93.03909301757812 5.947479248046875 102.0119552612305 C 7.524398803710938 106.3219757080078 9.475898742675781 110.478515625 11.74777984619141 114.3661117553711 C 13.99676513671875 118.2144927978516 16.57904052734375 121.8327941894531 19.42294311523438 125.1204528808594 C 22.26456451416016 128.405517578125 25.390625 131.3873748779297 28.71430206298828 133.9832000732422 C 32.06671905517578 136.6014709472656 35.64971923828125 138.8498687744141 39.36380004882812 140.6659393310547 C 47.08303833007812 144.4403991699219 55.28163909912109 146.3541870117188 63.73184204101562 146.3541870117188 C 72.18203735351562 146.3541870117188 80.38064575195312 144.4403991699219 88.09988403320312 140.6659393310547 C 91.81396484375 138.8498687744141 95.39695739746094 136.6014709472656 98.74938201904297 133.9832000732422 C 102.0730590820312 131.3873748779297 105.1991195678711 128.405517578125 108.0407409667969 125.1204528808594 C 110.8846435546875 121.8327941894531 113.4669189453125 118.2144927978516 115.7159042358398 114.3661117553711 C 117.9877853393555 110.478515625 119.9392852783203 106.3219757080078 121.5162048339844 102.0119552612305 C 124.7991027832031 93.03909301757812 126.4636840820312 83.50587463378906 126.4636840820312 73.67709350585938 C 126.4636840820312 63.84831237792969 124.7991027832031 54.31509399414062 121.5162048339844 45.34223175048828 C 119.9392852783203 41.03221130371094 117.9877853393555 36.87567138671875 115.7159042358398 32.98807525634766 C 113.4669189453125 29.13969421386719 110.8846435546875 25.52139282226562 108.0407409667969 22.23373413085938 C 105.1991195678711 18.94866943359375 102.0730590820312 15.96681213378906 98.74938201904297 13.37098693847656 C 95.39695739746094 10.75271606445312 91.81396484375 8.504318237304688 88.09988403320312 6.688247680664062 C 80.38064575195312 2.913787841796875 72.18203735351562 1 63.73184204101562 1 M 63.73184204101562 0 C 98.92996215820312 0 127.4636840820312 32.98635101318359 127.4636840820312 73.67709350585938 C 127.4636840820312 114.3678283691406 98.92996215820312 147.3541870117188 63.73184204101562 147.3541870117188 C 28.53372192382812 147.3541870117188 0 114.3678283691406 0 73.67709350585938 C 0 51.70423126220703 18.81153869628906 49.59743499755859 32.1981201171875 35.90559387207031 C 43.25074005126953 24.59949493408203 47.54058074951172 0 63.73184204101562 0 Z"/></g></g></g><path d="M.86,0H2.21A3.34,3.34,0,0,0,4.65-.77,3.175,3.175,0,0,0,5.82-3.33,3.252,3.252,0,0,0,4.68-5.89a3.627,3.627,0,0,0-2.46-.78H.86ZM1.6-5.97h.65A2.567,2.567,0,0,1,5.06-3.33a2.552,2.552,0,0,1-.9,2.03,2.85,2.85,0,0,1-1.91.6H1.6Zm8.48,4.58a1.653,1.653,0,0,1-.43.57,1.262,1.262,0,0,1-.85.3A1.329,1.329,0,0,1,7.48-1.93h3.23a2.786,2.786,0,0,0-.39-1.56,1.857,1.857,0,0,0-1.57-.76,2.012,2.012,0,0,0-2.01,2.2A1.986,1.986,0,0,0,8.79.12a2.014,2.014,0,0,0,1.38-.51,2.483,2.483,0,0,0,.51-.67ZM7.53-2.53A1.261,1.261,0,0,1,8.75-3.61,1.242,1.242,0,0,1,9.97-2.53Zm6.58-.97a1.2,1.2,0,0,0-1.14-.75,1.116,1.116,0,0,0-1.21,1.16.9.9,0,0,0,.19.61,2.707,2.707,0,0,0,1.01.61c.39.17.67.3.67.69a.644.644,0,0,1-.68.66.939.939,0,0,1-.84-.68l-.62.26A1.484,1.484,0,0,0,12.94.12a1.32,1.32,0,0,0,1.43-1.36.982.982,0,0,0-.22-.67,2.523,2.523,0,0,0-1.04-.64c-.47-.2-.67-.29-.67-.59a.459.459,0,0,1,.5-.47.636.636,0,0,1,.58.42Zm1.22-.65V0h.72V-4.15Zm-.15-1.57a.512.512,0,0,0,.51.51.512.512,0,0,0,.51-.51.512.512,0,0,0-.51-.51A.512.512,0,0,0,15.18-5.72Zm5.41,2.16a1.726,1.726,0,0,0-1.42-.69,2.046,2.046,0,0,0-1.42.56,2.177,2.177,0,0,0-.6,1.61,2.248,2.248,0,0,0,.6,1.64,1.988,1.988,0,0,0,1.42.56,1.751,1.751,0,0,0,1.42-.7v.6a1.929,1.929,0,0,1-.23,1.06,1.163,1.163,0,0,1-1.1.58,1.285,1.285,0,0,1-1-.4A1.307,1.307,0,0,1,17.94.4h-.71a1.87,1.87,0,0,0,.54,1.34,2.055,2.055,0,0,0,1.48.56,2.019,2.019,0,0,0,1.66-.77,2.611,2.611,0,0,0,.4-1.63V-4.15h-.72Zm-1.34-.05a1.331,1.331,0,0,1,.94.37,1.641,1.641,0,0,1,.44,1.17,1.682,1.682,0,0,1-.47,1.2,1.228,1.228,0,0,1-.91.35,1.256,1.256,0,0,1-.89-.34,1.6,1.6,0,0,1-.47-1.22,1.58,1.58,0,0,1,.42-1.14A1.286,1.286,0,0,1,19.25-3.61ZM22.67,0h.72V-2.17a1.748,1.748,0,0,1,.3-1.12.907.907,0,0,1,.73-.32.814.814,0,0,1,.68.3,1.22,1.22,0,0,1,.19.76V0h.72V-2.57a1.851,1.851,0,0,0-.24-1.11,1.408,1.408,0,0,0-1.19-.57,1.464,1.464,0,0,0-1.19.58v-.48h-.72ZM33.45-5.74a2.017,2.017,0,0,0-.65-.74,1.807,1.807,0,0,0-1.07-.3,1.723,1.723,0,0,0-1.87,1.72,1.385,1.385,0,0,0,.46,1.09,2.953,2.953,0,0,0,.89.55l.6.28a2.91,2.91,0,0,1,.8.46,1,1,0,0,1,.33.78A1.262,1.262,0,0,1,31.6-.58a1.275,1.275,0,0,1-.96-.37,1.574,1.574,0,0,1-.4-.85l-.72.2a2.418,2.418,0,0,0,.62,1.18,1.989,1.989,0,0,0,1.45.54A2,2,0,0,0,33.7-1.93a1.605,1.605,0,0,0-.48-1.21,3.24,3.24,0,0,0-1.03-.63l-.64-.28a2.178,2.178,0,0,1-.7-.42.7.7,0,0,1-.25-.58,1.023,1.023,0,0,1,1.12-1.03,1.2,1.2,0,0,1,.75.23,1.607,1.607,0,0,1,.39.5ZM34.87,2.3h.8l3.05-6.45h-.8L36.57-1.18,35.1-4.15h-.82L36.19-.39Zm6.81-5.8a1.2,1.2,0,0,0-1.14-.75,1.116,1.116,0,0,0-1.21,1.16.9.9,0,0,0,.19.61,2.707,2.707,0,0,0,1.01.61c.39.17.67.3.67.69a.644.644,0,0,1-.68.66.939.939,0,0,1-.84-.68l-.62.26A1.484,1.484,0,0,0,40.51.12a1.32,1.32,0,0,0,1.43-1.36.982.982,0,0,0-.22-.67,2.523,2.523,0,0,0-1.04-.64c-.47-.2-.67-.29-.67-.59a.459.459,0,0,1,.5-.47.636.636,0,0,1,.58.42Zm2.68.01v-.66h-.72v-1.5h-.72v1.5h-.44v.66h.44V0h.72V-3.49Zm3.76,2.1a1.653,1.653,0,0,1-.43.57,1.262,1.262,0,0,1-.85.3,1.329,1.329,0,0,1-1.32-1.41h3.23a2.786,2.786,0,0,0-.39-1.56,1.857,1.857,0,0,0-1.57-.76,2.012,2.012,0,0,0-2.01,2.2A1.986,1.986,0,0,0,46.83.12a2.014,2.014,0,0,0,1.38-.51,2.483,2.483,0,0,0,.51-.67ZM45.57-2.53a1.261,1.261,0,0,1,1.22-1.08,1.242,1.242,0,0,1,1.22,1.08ZM49.85,0h.72V-2.26c0-.5.09-1.35.91-1.35.76,0,.75.86.75,1.15V0h.72V-2.31c0-.5.09-1.3.92-1.3.68,0,.74.62.74,1.09V0h.72V-2.63c0-.59-.12-1.62-1.35-1.62a1.385,1.385,0,0,0-1.25.67,1.243,1.243,0,0,0-1.13-.67,1.205,1.205,0,0,0-1.03.54v-.44h-.72Z" transform="translate(946 444)"/><path d="M7.488,0a8.694,8.694,0,0,0,6.144-2.424A7.381,7.381,0,0,0,15.72-7.968,7.814,7.814,0,0,0,13.488-13.8a8.929,8.929,0,0,0-6.36-2.208H1.68V0ZM5.832-12.48H6.84a4.664,4.664,0,0,1,3.312,1.008,4.786,4.786,0,0,1,1.248,3.5A4.361,4.361,0,0,1,10.176-4.68a4.78,4.78,0,0,1-3.5,1.152h-.84Zm21.624-3.528h-9.1V0h9.1V-3.528H22.512v-2.76h4.68V-9.816h-4.68V-12.48h4.944Zm15.792,0H30.024v3.528h6.288L28.728,0h13.7V-3.528h-6.72Zm1.992,0V0h4.152V-16.008ZM56.9,0V-9.792L64.56,0h4.152V-16.008H64.56v9.792L56.9-16.008H52.752V0ZM81.168-16.008h-9.1V0h9.1V-3.528H76.224v-2.76H80.9V-9.816h-4.68V-12.48h4.944Z" transform="translate(919 431)"/><g transform="translate(2 -10)"><rect class="a" width="22" height="12" transform="translate(918 445)"/><path d="M0-4.023,2.079,0H3.06l2.1-4.023h-1.6L2.574-1.962,1.611-4.023ZM7.263,0H8.82V-6H6.408V-4.68h.855Zm4.1.171a.922.922,0,0,0,.657-.279.87.87,0,0,0,.27-.657.863.863,0,0,0-.261-.648.945.945,0,0,0-.666-.288.912.912,0,0,0-.657.279.917.917,0,0,0-.279.657.917.917,0,0,0,.279.657A.912.912,0,0,0,11.367.171Zm4.059-4.914a.733.733,0,0,1,.477.189,2.488,2.488,0,0,1,.522,1.575A2.389,2.389,0,0,1,15.9-1.422a.733.733,0,0,1-.477.189.733.733,0,0,1-.477-.189,2.418,2.418,0,0,1-.522-1.566,2.358,2.358,0,0,1,.522-1.566A.733.733,0,0,1,15.426-4.743ZM17.973-3a3.41,3.41,0,0,0-.891-2.457,2.368,2.368,0,0,0-1.656-.684,2.368,2.368,0,0,0-1.656.684A3.41,3.41,0,0,0,12.879-3,3.4,3.4,0,0,0,13.77-.549a2.368,2.368,0,0,0,1.656.684,2.368,2.368,0,0,0,1.656-.684A3.4,3.4,0,0,0,17.973-3Z" transform="translate(920 454)"/></g></g></svg>