<svg xmlns="http://www.w3.org/2000/svg" xmlns:xlink="http://www.w3.org/1999/xlink" width="48" height="48" viewBox="0 0 48 48"><defs><style>.a{fill:#fff;stroke-width:4px;}.a,.d,.e,.g,.h{stroke:#151515;}.b{fill:#f5f5f5;}.c{clip-path:url(#a);}.d,.e,.g,.h{fill:none;}.d{stroke-miterlimit:10;}.d,.e{stroke-width:0.5px;}.e,.g,.h{stroke-linecap:round;stroke-linejoin:round;}.f{fill:#151515;}.g{stroke-width:0.572px;}.h{stroke-width:0.535px;}</style><clipPath id="a"><circle class="a" cx="24" cy="24" r="24"/></clipPath></defs><g transform="translate(-3021 14104.156)"><circle class="b" cx="24" cy="24" r="24" transform="translate(3021 -14104.156)"/><g class="c" transform="translate(3021 -14104.156)"><g transform="translate(4.463 6.535)"><path class="d" d="M103.833,51.437s-.248,14.634-7.634,14.634c-7.294,0-7.817-14.763-7.817-14.763-.343-.577-1.336-8.389,7.685-8.389C105.238,42.919,104.1,50.727,103.833,51.437Z" transform="translate(-76.698 -40.355)"/><g transform="translate(26.175 13.673)"><path class="d" d="M133.432,77.278s.852-1.113,1.77-.509.518,2.651-.176,3.651-1.758,1.459-2.3.64" transform="translate(-132.73 -76.59)"/><g transform="translate(0.427 1.415)"><path class="e" d="M135.9,80.927s-1.048-.406-1.879,1.125" transform="translate(-134.024 -80.878)"/><path class="e" d="M136.669,86.944" transform="translate(-135.796 -84.942)"/><path class="e" d="M135.7,82.185" transform="translate(-135.147 -81.754)"/></g></g><g transform="translate(9.727 13.673)"><path class="d" d="M85.185,77.278s-.851-1.114-1.769-.511-.521,2.651.171,3.651,1.758,1.461,2.3.642" transform="translate(-82.878 -76.588)"/><g transform="translate(0.7 1.414)"><path class="e" d="M85,80.923s1.048-.406,1.878,1.127" transform="translate(-85 -80.874)"/><path class="e" d="M88.045,86.944" transform="translate(-87.04 -84.941)"/><path class="e" d="M89.016,82.187" transform="translate(-87.691 -81.754)"/></g></g><path class="f" d="M115.7,63.975l.456.963,4.394-1-1.042-.346a3.485,3.485,0,0,0-1.235.036Z" transform="translate(-95.144 -54.178)"/><path class="e" d="M110.917,77.732l-.4,2.927a.705.705,0,0,0,.014.265.689.689,0,0,0,.765.488l.729-.092" transform="translate(-91.669 -63.682)"/><circle class="f" cx="0.706" cy="0.706" r="0.706" transform="translate(15.569 12.792)"/><path class="f" d="M121.945,74.623a.706.706,0,1,1-.706-.706.706.706,0,0,1,.706.706Z" transform="translate(-98.381 -61.125)"/><path class="g" d="M101.283,81.711" transform="translate(-85.484 -66.348)"/><path class="g" d="M124.013,82.133" transform="translate(-100.714 -66.63)"/><path class="g" d="M119.3,78.584" transform="translate(-97.556 -64.253)"/><path class="e" d="M107.2,93.593a3.842,3.842,0,0,0,1.967.621,3.083,3.083,0,0,0,1.822-.621" transform="translate(-89.448 -74.309)"/><g transform="translate(11.685 10.72)"><circle class="e" cx="2.962" cy="2.962" r="2.962" transform="translate(0.933 0)"/><circle class="e" cx="2.962" cy="2.962" r="2.962" transform="translate(8.21 0)"/><path class="h" d="M109.6,76.025a.964.964,0,0,1,1.352,0" transform="translate(-102.742 -73.063)"/><line class="h" x1="0.937" y2="0.283" transform="translate(0 2.817)"/><line class="h" x2="1.285" y2="0.137" transform="translate(14.135 2.962)"/></g><g transform="translate(0 22.651)"><g transform="translate(9.048 0)"><path class="e" d="M86.644,104.213l.073,5.1a2.064,2.064,0,0,1-.612,1.505,12.288,12.288,0,0,1-5.284,3l11.533,3.62,10.227-3.621a22.673,22.673,0,0,1-5.494-2.471,2.5,2.5,0,0,1-.98-2l-.023-5.375" transform="translate(-80.822 -103.913)"/><path class="f" d="M98.067,104.19s1.2,3.435,3.68,4.845a4.1,4.1,0,0,0,5.346-1.045c.608-.834.548-2.39.548-4.195,0,0-1.459,2.941-4.417,3.063S98.067,104.19,98.067,104.19Z" transform="translate(-92.377 -103.796)"/></g><path class="f" d="M64.046,131.047s7.631,5.954,18.464,0a14.3,14.3,0,0,1,8.15,5.652s2.669,4.16,2.825,6.064H53.4S55.472,133.415,64.046,131.047Z" transform="translate(-53.4 -122.056)"/></g><path class="f" d="M85.981,47.254s.114-4.309,1.422-6.121,4.61-1.145,6.913-.853,4.348-.333,5.26.245c.984.624,1.588,5.508,1.556,6.463a13.616,13.616,0,0,0,.635-11.032s-1.739,1.573-7,0-7.634-.8-7.6,1.92c0,0-3.138-.784-2.776,2.727a28.936,28.936,0,0,0,1.584,6.651Z" transform="translate(-74.15 -35.149)"/><path class="f" d="M98.6,64.143l-.456.963-4.394-1,1.042-.346a3.487,3.487,0,0,1,1.235.036Z" transform="translate(-80.433 -54.29)"/></g></g></g></svg>