<svg xmlns="http://www.w3.org/2000/svg" width="60" height="60" viewBox="0 0 60 60"><path d="M0,0H60V60H0Z" fill="none"/><path d="M27,2a25,25,0,0,0-7.9,48.72c1.25.218,1.717-.532,1.717-1.19,0-.592-.032-2.56-.032-4.655-6.28,1.157-7.9-1.53-8.4-2.937-.282-.72-1.5-2.937-2.562-3.532-.875-.467-2.125-1.625-.033-1.655,1.97-.032,3.375,1.812,3.845,2.562,2.25,3.78,5.845,2.717,7.28,2.062A5.256,5.256,0,0,1,22.5,38.032c-5.562-.625-11.375-2.782-11.375-12.345a9.729,9.729,0,0,1,2.562-6.72,8.983,8.983,0,0,1,.25-6.625s2.092-.655,6.875,2.565a23.57,23.57,0,0,1,12.5,0c4.78-3.25,6.875-2.56,6.875-2.56a8.983,8.983,0,0,1,.25,6.625A9.675,9.675,0,0,1,43,25.687c0,9.595-5.842,11.72-11.4,12.345a5.921,5.921,0,0,1,1.687,4.625c0,3.342-.033,6.03-.033,6.875,0,.655.47,1.435,1.72,1.185A25.013,25.013,0,0,0,27,2Z" transform="translate(3 3)" fill="#fff"/></svg>