<svg xmlns="http://www.w3.org/2000/svg" width="60" height="60" viewBox="0 0 60 60"><path d="M0,0H60V60H0Z" fill="none"/><path d="M27,2A25,25,0,1,0,52,27,25.009,25.009,0,0,0,27,2ZM43.512,13.525A21.255,21.255,0,0,1,48.338,26.81a50.416,50.416,0,0,0-14.858-.677c-.162-.352-.3-.733-.46-1.112q-.664-1.564-1.41-3.09C39.472,18.73,43.052,14.12,43.512,13.525ZM27,5.687a21.308,21.308,0,0,1,14.155,5.37c-.38.54-3.608,4.852-11.2,7.7a115.046,115.046,0,0,0-7.972-12.5A21.715,21.715,0,0,1,27,5.688ZM17.918,7.695a134.755,134.755,0,0,1,7.917,12.337,80,80,0,0,1-19.74,2.6A21.453,21.453,0,0,1,17.918,7.695ZM5.632,27.025v-.65A78.1,78.1,0,0,0,27.57,23.337c.625,1.193,1.193,2.413,1.735,3.632-.273.083-.57.162-.84.245C17.455,30.765,11.6,40.472,11.11,41.287A21.305,21.305,0,0,1,5.635,27.025ZM27,48.368a21.2,21.2,0,0,1-13.1-4.5c.38-.788,4.72-9.14,16.757-13.343a1.272,1.272,0,0,0,.135-.055,88.273,88.273,0,0,1,4.558,16.188A21,21,0,0,1,27,48.368Zm11.9-3.662a91.508,91.508,0,0,0-4.15-15.21,31.158,31.158,0,0,1,13.288.923A21.17,21.17,0,0,1,38.9,44.705Z" transform="translate(3 3)" fill="#eb4d89"/></svg>