<svg xmlns="http://www.w3.org/2000/svg" xmlns:xlink="http://www.w3.org/1999/xlink" width="864" height="258" viewBox="0 0 864 258"><defs><style>.a{fill:#fff;stroke:#e3e3e3;stroke-width:2px;}.b{opacity:0.562;clip-path:url(#c);}.c{fill:#191919;}.d{filter:url(#a);}</style><filter id="a" x="-9" y="-6" width="882" height="276" filterUnits="userSpaceOnUse"><feOffset dy="3" input="SourceAlpha"/><feGaussianBlur stdDeviation="3" result="b"/><feFlood flood-opacity="0.051"/><feComposite operator="in" in2="b"/><feComposite in="SourceGraphic"/></filter><clipPath id="c"><g class="d" transform="matrix(1, 0, 0, 1, 0, 0)"><rect class="a" width="864" height="258" rx="12" transform="translate(532 278)"/></g></clipPath></defs><g class="b" transform="translate(-532 -278)"><g transform="translate(-4 -3)"><circle class="c" cx="0.5" cy="0.5" r="0.5" transform="translate(524 271)"/><circle class="c" cx="0.5" cy="0.5" r="0.5" transform="translate(545 271)"/><circle class="c" cx="0.5" cy="0.5" r="0.5" transform="translate(566 271)"/><circle class="c" cx="0.5" cy="0.5" r="0.5" transform="translate(587 271)"/><circle class="c" cx="0.5" cy="0.5" r="0.5" transform="translate(608 271)"/><circle class="c" cx="0.5" cy="0.5" r="0.5" transform="translate(629 271)"/><circle class="c" cx="0.5" cy="0.5" r="0.5" transform="translate(650 271)"/><circle class="c" cx="0.5" cy="0.5" r="0.5" transform="translate(671 271)"/><circle class="c" cx="0.5" cy="0.5" r="0.5" transform="translate(692 271)"/><circle class="c" cx="0.5" cy="0.5" r="0.5" transform="translate(713 271)"/><circle class="c" cx="0.5" cy="0.5" r="0.5" transform="translate(734 271)"/><circle class="c" cx="0.5" cy="0.5" r="0.5" transform="translate(755 271)"/><circle class="c" cx="0.5" cy="0.5" r="0.5" transform="translate(776 271)"/><circle class="c" cx="0.5" cy="0.5" r="0.5" transform="translate(797 271)"/><circle class="c" cx="0.5" cy="0.5" r="0.5" transform="translate(818 271)"/><circle class="c" cx="0.5" cy="0.5" r="0.5" transform="translate(839 271)"/><circle class="c" cx="0.5" cy="0.5" r="0.5" transform="translate(860 271)"/><circle class="c" cx="0.5" cy="0.5" r="0.5" transform="translate(881 271)"/><circle class="c" cx="0.5" cy="0.5" r="0.5" transform="translate(902 271)"/><circle class="c" cx="0.5" cy="0.5" r="0.5" transform="translate(923 271)"/><circle class="c" cx="0.5" cy="0.5" r="0.5" transform="translate(944 271)"/><circle class="c" cx="0.5" cy="0.5" r="0.5" transform="translate(965 271)"/><circle class="c" cx="0.5" cy="0.5" r="0.5" transform="translate(986 271)"/><circle class="c" cx="0.5" cy="0.5" r="0.5" transform="translate(1007 271)"/><circle class="c" cx="0.5" cy="0.5" r="0.5" transform="translate(1028 271)"/><circle class="c" cx="0.5" cy="0.5" r="0.5" transform="translate(1049 271)"/><circle class="c" cx="0.5" cy="0.5" r="0.5" transform="translate(1070 271)"/><circle class="c" cx="0.5" cy="0.5" r="0.5" transform="translate(1091 271)"/><circle class="c" cx="0.5" cy="0.5" r="0.5" transform="translate(1112 271)"/><circle class="c" cx="0.5" cy="0.5" r="0.5" transform="translate(1133 271)"/><circle class="c" cx="0.5" cy="0.5" r="0.5" transform="translate(1154 271)"/><circle class="c" cx="0.5" cy="0.5" r="0.5" transform="translate(1175 271)"/><circle class="c" cx="0.5" cy="0.5" r="0.5" transform="translate(1196 271)"/><circle class="c" cx="0.5" cy="0.5" r="0.5" transform="translate(1217 271)"/><circle class="c" cx="0.5" cy="0.5" r="0.5" transform="translate(1238 271)"/><circle class="c" cx="0.5" cy="0.5" r="0.5" transform="translate(1259 271)"/><circle class="c" cx="0.5" cy="0.5" r="0.5" transform="translate(1280 271)"/><circle class="c" cx="0.5" cy="0.5" r="0.5" transform="translate(1301 271)"/><circle class="c" cx="0.5" cy="0.5" r="0.5" transform="translate(1322 271)"/><circle class="c" cx="0.5" cy="0.5" r="0.5" transform="translate(1343 271)"/><circle class="c" cx="0.5" cy="0.5" r="0.5" transform="translate(1364 271)"/><circle class="c" cx="0.5" cy="0.5" r="0.5" transform="translate(1385 271)"/><circle class="c" cx="0.5" cy="0.5" r="0.5" transform="translate(524 292)"/><circle class="c" cx="0.5" cy="0.5" r="0.5" transform="translate(545 292)"/><circle class="c" cx="0.5" cy="0.5" r="0.5" transform="translate(566 292)"/><circle class="c" cx="0.5" cy="0.5" r="0.5" transform="translate(587 292)"/><circle class="c" cx="0.5" cy="0.5" r="0.5" transform="translate(608 292)"/><circle class="c" cx="0.5" cy="0.5" r="0.5" transform="translate(629 292)"/><circle class="c" cx="0.5" cy="0.5" r="0.5" transform="translate(650 292)"/><circle class="c" cx="0.5" cy="0.5" r="0.5" transform="translate(671 292)"/><circle class="c" cx="0.5" cy="0.5" r="0.5" transform="translate(692 292)"/><circle class="c" cx="0.5" cy="0.5" r="0.5" transform="translate(713 292)"/><circle class="c" cx="0.5" cy="0.5" r="0.5" transform="translate(734 292)"/><circle class="c" cx="0.5" cy="0.5" r="0.5" transform="translate(755 292)"/><circle class="c" cx="0.5" cy="0.5" r="0.5" transform="translate(776 292)"/><circle class="c" cx="0.5" cy="0.5" r="0.5" transform="translate(797 292)"/><circle class="c" cx="0.5" cy="0.5" r="0.5" transform="translate(818 292)"/><circle class="c" cx="0.5" cy="0.5" r="0.5" transform="translate(839 292)"/><circle class="c" cx="0.5" cy="0.5" r="0.5" transform="translate(860 292)"/><circle class="c" cx="0.5" cy="0.5" r="0.5" transform="translate(881 292)"/><circle class="c" cx="0.5" cy="0.5" r="0.5" transform="translate(902 292)"/><circle class="c" cx="0.5" cy="0.5" r="0.5" transform="translate(923 292)"/><circle class="c" cx="0.5" cy="0.5" r="0.5" transform="translate(944 292)"/><circle class="c" cx="0.5" cy="0.5" r="0.5" transform="translate(965 292)"/><circle class="c" cx="0.5" cy="0.5" r="0.5" transform="translate(986 292)"/><circle class="c" cx="0.5" cy="0.5" r="0.5" transform="translate(1007 292)"/><circle class="c" cx="0.5" cy="0.5" r="0.5" transform="translate(1028 292)"/><circle class="c" cx="0.5" cy="0.5" r="0.5" transform="translate(1049 292)"/><circle class="c" cx="0.5" cy="0.5" r="0.5" transform="translate(1070 292)"/><circle class="c" cx="0.5" cy="0.5" r="0.5" transform="translate(1091 292)"/><circle class="c" cx="0.5" cy="0.5" r="0.5" transform="translate(1112 292)"/><circle class="c" cx="0.5" cy="0.5" r="0.5" transform="translate(1133 292)"/><circle class="c" cx="0.5" cy="0.5" r="0.5" transform="translate(1154 292)"/><circle class="c" cx="0.5" cy="0.5" r="0.5" transform="translate(1175 292)"/><circle class="c" cx="0.5" cy="0.5" r="0.5" transform="translate(1196 292)"/><circle class="c" cx="0.5" cy="0.5" r="0.5" transform="translate(1217 292)"/><circle class="c" cx="0.5" cy="0.5" r="0.5" transform="translate(1238 292)"/><circle class="c" cx="0.5" cy="0.5" r="0.5" transform="translate(1259 292)"/><circle class="c" cx="0.5" cy="0.5" r="0.5" transform="translate(1280 292)"/><circle class="c" cx="0.5" cy="0.5" r="0.5" transform="translate(1301 292)"/><circle class="c" cx="0.5" cy="0.5" r="0.5" transform="translate(1322 292)"/><circle class="c" cx="0.5" cy="0.5" r="0.5" transform="translate(1343 292)"/><circle class="c" cx="0.5" cy="0.5" r="0.5" transform="translate(1364 292)"/><circle class="c" cx="0.5" cy="0.5" r="0.5" transform="translate(1385 292)"/><circle class="c" cx="0.5" cy="0.5" r="0.5" transform="translate(524 313)"/><circle class="c" cx="0.5" cy="0.5" r="0.5" transform="translate(545 313)"/><circle class="c" cx="0.5" cy="0.5" r="0.5" transform="translate(566 313)"/><circle class="c" cx="0.5" cy="0.5" r="0.5" transform="translate(587 313)"/><circle class="c" cx="0.5" cy="0.5" r="0.5" transform="translate(608 313)"/><circle class="c" cx="0.5" cy="0.5" r="0.5" transform="translate(629 313)"/><circle class="c" cx="0.5" cy="0.5" r="0.5" transform="translate(650 313)"/><circle class="c" cx="0.5" cy="0.5" r="0.5" transform="translate(671 313)"/><circle class="c" cx="0.5" cy="0.5" r="0.5" transform="translate(692 313)"/><circle class="c" cx="0.5" cy="0.5" r="0.5" transform="translate(713 313)"/><circle class="c" cx="0.5" cy="0.5" r="0.5" transform="translate(734 313)"/><circle class="c" cx="0.5" cy="0.5" r="0.5" transform="translate(755 313)"/><circle class="c" cx="0.5" cy="0.5" r="0.5" transform="translate(776 313)"/><circle class="c" cx="0.5" cy="0.5" r="0.5" transform="translate(797 313)"/><circle class="c" cx="0.5" cy="0.5" r="0.5" transform="translate(818 313)"/><circle class="c" cx="0.5" cy="0.5" r="0.5" transform="translate(839 313)"/><circle class="c" cx="0.5" cy="0.5" r="0.5" transform="translate(860 313)"/><circle class="c" cx="0.5" cy="0.5" r="0.5" transform="translate(881 313)"/><circle class="c" cx="0.5" cy="0.5" r="0.5" transform="translate(902 313)"/><circle class="c" cx="0.5" cy="0.5" r="0.5" transform="translate(923 313)"/><circle class="c" cx="0.5" cy="0.5" r="0.5" transform="translate(944 313)"/><circle class="c" cx="0.5" cy="0.5" r="0.5" transform="translate(965 313)"/><circle class="c" cx="0.5" cy="0.5" r="0.5" transform="translate(986 313)"/><circle class="c" cx="0.5" cy="0.5" r="0.5" transform="translate(1007 313)"/><circle class="c" cx="0.5" cy="0.5" r="0.5" transform="translate(1028 313)"/><circle class="c" cx="0.5" cy="0.5" r="0.5" transform="translate(1049 313)"/><circle class="c" cx="0.5" cy="0.5" r="0.5" transform="translate(1070 313)"/><circle class="c" cx="0.5" cy="0.5" r="0.5" transform="translate(1091 313)"/><circle class="c" cx="0.5" cy="0.5" r="0.5" transform="translate(1112 313)"/><circle class="c" cx="0.5" cy="0.5" r="0.5" transform="translate(1133 313)"/><circle class="c" cx="0.5" cy="0.5" r="0.5" transform="translate(1154 313)"/><circle class="c" cx="0.5" cy="0.5" r="0.5" transform="translate(1175 313)"/><circle class="c" cx="0.5" cy="0.5" r="0.5" transform="translate(1196 313)"/><circle class="c" cx="0.5" cy="0.5" r="0.5" transform="translate(1217 313)"/><circle class="c" cx="0.5" cy="0.5" r="0.5" transform="translate(1238 313)"/><circle class="c" cx="0.5" cy="0.5" r="0.5" transform="translate(1259 313)"/><circle class="c" cx="0.5" cy="0.5" r="0.5" transform="translate(1280 313)"/><circle class="c" cx="0.5" cy="0.5" r="0.5" transform="translate(1301 313)"/><circle class="c" cx="0.5" cy="0.5" r="0.5" transform="translate(1322 313)"/><circle class="c" cx="0.5" cy="0.5" r="0.5" transform="translate(1343 313)"/><circle class="c" cx="0.5" cy="0.5" r="0.5" transform="translate(1364 313)"/><circle class="c" cx="0.5" cy="0.5" r="0.5" transform="translate(1385 313)"/><circle class="c" cx="0.5" cy="0.5" r="0.5" transform="translate(524 334)"/><circle class="c" cx="0.5" cy="0.5" r="0.5" transform="translate(545 334)"/><circle class="c" cx="0.5" cy="0.5" r="0.5" transform="translate(566 334)"/><circle class="c" cx="0.5" cy="0.5" r="0.5" transform="translate(587 334)"/><circle class="c" cx="0.5" cy="0.5" r="0.5" transform="translate(608 334)"/><circle class="c" cx="0.5" cy="0.5" r="0.5" transform="translate(629 334)"/><circle class="c" cx="0.5" cy="0.5" r="0.5" transform="translate(650 334)"/><circle class="c" cx="0.5" cy="0.5" r="0.5" transform="translate(671 334)"/><circle class="c" cx="0.5" cy="0.5" r="0.5" transform="translate(692 334)"/><circle class="c" cx="0.5" cy="0.5" r="0.5" transform="translate(713 334)"/><circle class="c" cx="0.5" cy="0.5" r="0.5" transform="translate(734 334)"/><circle class="c" cx="0.5" cy="0.5" r="0.5" transform="translate(755 334)"/><circle class="c" cx="0.5" cy="0.5" r="0.5" transform="translate(776 334)"/><circle class="c" cx="0.5" cy="0.5" r="0.5" transform="translate(797 334)"/><circle class="c" cx="0.5" cy="0.5" r="0.5" transform="translate(818 334)"/><circle class="c" cx="0.5" cy="0.5" r="0.5" transform="translate(839 334)"/><circle class="c" cx="0.5" cy="0.5" r="0.5" transform="translate(860 334)"/><circle class="c" cx="0.5" cy="0.5" r="0.5" transform="translate(881 334)"/><circle class="c" cx="0.5" cy="0.5" r="0.5" transform="translate(902 334)"/><circle class="c" cx="0.5" cy="0.5" r="0.5" transform="translate(923 334)"/><circle class="c" cx="0.5" cy="0.5" r="0.5" transform="translate(944 334)"/><circle class="c" cx="0.5" cy="0.5" r="0.5" transform="translate(965 334)"/><circle class="c" cx="0.5" cy="0.5" r="0.5" transform="translate(986 334)"/><circle class="c" cx="0.5" cy="0.5" r="0.5" transform="translate(1007 334)"/><circle class="c" cx="0.5" cy="0.5" r="0.5" transform="translate(1028 334)"/><circle class="c" cx="0.5" cy="0.5" r="0.5" transform="translate(1049 334)"/><circle class="c" cx="0.5" cy="0.5" r="0.5" transform="translate(1070 334)"/><circle class="c" cx="0.5" cy="0.5" r="0.5" transform="translate(1091 334)"/><circle class="c" cx="0.5" cy="0.5" r="0.5" transform="translate(1112 334)"/><circle class="c" cx="0.5" cy="0.5" r="0.5" transform="translate(1133 334)"/><circle class="c" cx="0.5" cy="0.5" r="0.5" transform="translate(1154 334)"/><circle class="c" cx="0.5" cy="0.5" r="0.5" transform="translate(1175 334)"/><circle class="c" cx="0.5" cy="0.5" r="0.5" transform="translate(1196 334)"/><circle class="c" cx="0.5" cy="0.5" r="0.5" transform="translate(1217 334)"/><circle class="c" cx="0.5" cy="0.5" r="0.5" transform="translate(1238 334)"/><circle class="c" cx="0.5" cy="0.5" r="0.5" transform="translate(1259 334)"/><circle class="c" cx="0.5" cy="0.5" r="0.5" transform="translate(1280 334)"/><circle class="c" cx="0.5" cy="0.5" r="0.5" transform="translate(1301 334)"/><circle class="c" cx="0.5" cy="0.5" r="0.5" transform="translate(1322 334)"/><circle class="c" cx="0.5" cy="0.5" r="0.5" transform="translate(1343 334)"/><circle class="c" cx="0.5" cy="0.5" r="0.5" transform="translate(1364 334)"/><circle class="c" cx="0.5" cy="0.5" r="0.5" transform="translate(1385 334)"/><circle class="c" cx="0.5" cy="0.5" r="0.5" transform="translate(524 355)"/><circle class="c" cx="0.5" cy="0.5" r="0.5" transform="translate(545 355)"/><circle class="c" cx="0.5" cy="0.5" r="0.5" transform="translate(566 355)"/><circle class="c" cx="0.5" cy="0.5" r="0.5" transform="translate(587 355)"/><circle class="c" cx="0.5" cy="0.5" r="0.5" transform="translate(608 355)"/><circle class="c" cx="0.5" cy="0.5" r="0.5" transform="translate(629 355)"/><circle class="c" cx="0.5" cy="0.5" r="0.5" transform="translate(650 355)"/><circle class="c" cx="0.5" cy="0.5" r="0.5" transform="translate(671 355)"/><circle class="c" cx="0.5" cy="0.5" r="0.5" transform="translate(692 355)"/><circle class="c" cx="0.5" cy="0.5" r="0.5" transform="translate(713 355)"/><circle class="c" cx="0.5" cy="0.5" r="0.5" transform="translate(734 355)"/><circle class="c" cx="0.5" cy="0.5" r="0.5" transform="translate(755 355)"/><circle class="c" cx="0.5" cy="0.5" r="0.5" transform="translate(776 355)"/><circle class="c" cx="0.5" cy="0.5" r="0.5" transform="translate(797 355)"/><circle class="c" cx="0.5" cy="0.5" r="0.5" transform="translate(818 355)"/><circle class="c" cx="0.5" cy="0.5" r="0.5" transform="translate(839 355)"/><circle class="c" cx="0.5" cy="0.5" r="0.5" transform="translate(860 355)"/><circle class="c" cx="0.5" cy="0.5" r="0.5" transform="translate(881 355)"/><circle class="c" cx="0.5" cy="0.5" r="0.5" transform="translate(902 355)"/><circle class="c" cx="0.5" cy="0.5" r="0.5" transform="translate(923 355)"/><circle class="c" cx="0.5" cy="0.5" r="0.5" transform="translate(944 355)"/><circle class="c" cx="0.5" cy="0.5" r="0.5" transform="translate(965 355)"/><circle class="c" cx="0.5" cy="0.5" r="0.5" transform="translate(986 355)"/><circle class="c" cx="0.5" cy="0.5" r="0.5" transform="translate(1007 355)"/><circle class="c" cx="0.5" cy="0.5" r="0.5" transform="translate(1028 355)"/><circle class="c" cx="0.5" cy="0.5" r="0.5" transform="translate(1049 355)"/><circle class="c" cx="0.5" cy="0.5" r="0.5" transform="translate(1070 355)"/><circle class="c" cx="0.5" cy="0.5" r="0.5" transform="translate(1091 355)"/><circle class="c" cx="0.5" cy="0.5" r="0.5" transform="translate(1112 355)"/><circle class="c" cx="0.5" cy="0.5" r="0.5" transform="translate(1133 355)"/><circle class="c" cx="0.5" cy="0.5" r="0.5" transform="translate(1154 355)"/><circle class="c" cx="0.5" cy="0.5" r="0.5" transform="translate(1175 355)"/><circle class="c" cx="0.5" cy="0.5" r="0.5" transform="translate(1196 355)"/><circle class="c" cx="0.5" cy="0.5" r="0.5" transform="translate(1217 355)"/><circle class="c" cx="0.5" cy="0.5" r="0.5" transform="translate(1238 355)"/><circle class="c" cx="0.5" cy="0.5" r="0.5" transform="translate(1259 355)"/><circle class="c" cx="0.5" cy="0.5" r="0.5" transform="translate(1280 355)"/><circle class="c" cx="0.5" cy="0.5" r="0.5" transform="translate(1301 355)"/><circle class="c" cx="0.5" cy="0.5" r="0.5" transform="translate(1322 355)"/><circle class="c" cx="0.5" cy="0.5" r="0.5" transform="translate(1343 355)"/><circle class="c" cx="0.5" cy="0.5" r="0.5" transform="translate(1364 355)"/><circle class="c" cx="0.5" cy="0.5" r="0.5" transform="translate(1385 355)"/><circle class="c" cx="0.5" cy="0.5" r="0.5" transform="translate(524 376)"/><circle class="c" cx="0.5" cy="0.5" r="0.5" transform="translate(545 376)"/><circle class="c" cx="0.5" cy="0.5" r="0.5" transform="translate(566 376)"/><circle class="c" cx="0.5" cy="0.5" r="0.5" transform="translate(587 376)"/><circle class="c" cx="0.5" cy="0.5" r="0.5" transform="translate(608 376)"/><circle class="c" cx="0.5" cy="0.5" r="0.5" transform="translate(629 376)"/><circle class="c" cx="0.5" cy="0.5" r="0.5" transform="translate(650 376)"/><circle class="c" cx="0.5" cy="0.5" r="0.5" transform="translate(671 376)"/><circle class="c" cx="0.5" cy="0.5" r="0.5" transform="translate(692 376)"/><circle class="c" cx="0.5" cy="0.5" r="0.5" transform="translate(713 376)"/><circle class="c" cx="0.5" cy="0.5" r="0.5" transform="translate(734 376)"/><circle class="c" cx="0.5" cy="0.5" r="0.5" transform="translate(755 376)"/><circle class="c" cx="0.5" cy="0.5" r="0.5" transform="translate(776 376)"/><circle class="c" cx="0.5" cy="0.5" r="0.5" transform="translate(797 376)"/><circle class="c" cx="0.5" cy="0.5" r="0.5" transform="translate(818 376)"/><circle class="c" cx="0.5" cy="0.5" r="0.5" transform="translate(839 376)"/><circle class="c" cx="0.5" cy="0.5" r="0.5" transform="translate(860 376)"/><circle class="c" cx="0.5" cy="0.5" r="0.5" transform="translate(881 376)"/><circle class="c" cx="0.5" cy="0.5" r="0.5" transform="translate(902 376)"/><circle class="c" cx="0.5" cy="0.5" r="0.5" transform="translate(923 376)"/><circle class="c" cx="0.5" cy="0.5" r="0.5" transform="translate(944 376)"/><circle class="c" cx="0.5" cy="0.5" r="0.5" transform="translate(965 376)"/><circle class="c" cx="0.5" cy="0.5" r="0.5" transform="translate(986 376)"/><circle class="c" cx="0.5" cy="0.5" r="0.5" transform="translate(1007 376)"/><circle class="c" cx="0.5" cy="0.5" r="0.5" transform="translate(1028 376)"/><circle class="c" cx="0.5" cy="0.5" r="0.5" transform="translate(1049 376)"/><circle class="c" cx="0.5" cy="0.5" r="0.5" transform="translate(1070 376)"/><circle class="c" cx="0.5" cy="0.5" r="0.5" transform="translate(1091 376)"/><circle class="c" cx="0.5" cy="0.5" r="0.5" transform="translate(1112 376)"/><circle class="c" cx="0.5" cy="0.5" r="0.5" transform="translate(1133 376)"/><circle class="c" cx="0.5" cy="0.5" r="0.5" transform="translate(1154 376)"/><circle class="c" cx="0.5" cy="0.5" r="0.5" transform="translate(1175 376)"/><circle class="c" cx="0.5" cy="0.5" r="0.5" transform="translate(1196 376)"/><circle class="c" cx="0.5" cy="0.5" r="0.5" transform="translate(1217 376)"/><circle class="c" cx="0.5" cy="0.5" r="0.5" transform="translate(1238 376)"/><circle class="c" cx="0.5" cy="0.5" r="0.5" transform="translate(1259 376)"/><circle class="c" cx="0.5" cy="0.5" r="0.5" transform="translate(1280 376)"/><circle class="c" cx="0.5" cy="0.5" r="0.5" transform="translate(1301 376)"/><circle class="c" cx="0.5" cy="0.5" r="0.5" transform="translate(1322 376)"/><circle class="c" cx="0.5" cy="0.5" r="0.5" transform="translate(1343 376)"/><circle class="c" cx="0.5" cy="0.5" r="0.5" transform="translate(1364 376)"/><circle class="c" cx="0.5" cy="0.5" r="0.5" transform="translate(1385 376)"/><circle class="c" cx="0.5" cy="0.5" r="0.5" transform="translate(524 397)"/><circle class="c" cx="0.5" cy="0.5" r="0.5" transform="translate(545 397)"/><circle class="c" cx="0.5" cy="0.5" r="0.5" transform="translate(566 397)"/><circle class="c" cx="0.5" cy="0.5" r="0.5" transform="translate(587 397)"/><circle class="c" cx="0.5" cy="0.5" r="0.5" transform="translate(608 397)"/><circle class="c" cx="0.5" cy="0.5" r="0.5" transform="translate(629 397)"/><circle class="c" cx="0.5" cy="0.5" r="0.5" transform="translate(650 397)"/><circle class="c" cx="0.5" cy="0.5" r="0.5" transform="translate(671 397)"/><circle class="c" cx="0.5" cy="0.5" r="0.5" transform="translate(692 397)"/><circle class="c" cx="0.5" cy="0.5" r="0.5" transform="translate(713 397)"/><circle class="c" cx="0.5" cy="0.5" r="0.5" transform="translate(734 397)"/><circle class="c" cx="0.5" cy="0.5" r="0.5" transform="translate(755 397)"/><circle class="c" cx="0.5" cy="0.5" r="0.5" transform="translate(776 397)"/><circle class="c" cx="0.5" cy="0.5" r="0.5" transform="translate(797 397)"/><circle class="c" cx="0.5" cy="0.5" r="0.5" transform="translate(818 397)"/><circle class="c" cx="0.5" cy="0.5" r="0.5" transform="translate(839 397)"/><circle class="c" cx="0.5" cy="0.5" r="0.5" transform="translate(860 397)"/><circle class="c" cx="0.5" cy="0.5" r="0.5" transform="translate(881 397)"/><circle class="c" cx="0.5" cy="0.5" r="0.5" transform="translate(902 397)"/><circle class="c" cx="0.5" cy="0.5" r="0.5" transform="translate(923 397)"/><circle class="c" cx="0.5" cy="0.5" r="0.5" transform="translate(944 397)"/><circle class="c" cx="0.5" cy="0.5" r="0.5" transform="translate(965 397)"/><circle class="c" cx="0.5" cy="0.5" r="0.5" transform="translate(986 397)"/><circle class="c" cx="0.5" cy="0.5" r="0.5" transform="translate(1007 397)"/><circle class="c" cx="0.5" cy="0.5" r="0.5" transform="translate(1028 397)"/><circle class="c" cx="0.5" cy="0.5" r="0.5" transform="translate(1049 397)"/><circle class="c" cx="0.5" cy="0.5" r="0.5" transform="translate(1070 397)"/><circle class="c" cx="0.5" cy="0.5" r="0.5" transform="translate(1091 397)"/><circle class="c" cx="0.5" cy="0.5" r="0.5" transform="translate(1112 397)"/><circle class="c" cx="0.5" cy="0.5" r="0.5" transform="translate(1133 397)"/><circle class="c" cx="0.5" cy="0.5" r="0.5" transform="translate(1154 397)"/><circle class="c" cx="0.5" cy="0.5" r="0.5" transform="translate(1175 397)"/><circle class="c" cx="0.5" cy="0.5" r="0.5" transform="translate(1196 397)"/><circle class="c" cx="0.5" cy="0.5" r="0.5" transform="translate(1217 397)"/><circle class="c" cx="0.5" cy="0.5" r="0.5" transform="translate(1238 397)"/><circle class="c" cx="0.5" cy="0.5" r="0.5" transform="translate(1259 397)"/><circle class="c" cx="0.5" cy="0.5" r="0.5" transform="translate(1280 397)"/><circle class="c" cx="0.5" cy="0.5" r="0.5" transform="translate(1301 397)"/><circle class="c" cx="0.5" cy="0.5" r="0.5" transform="translate(1322 397)"/><circle class="c" cx="0.5" cy="0.5" r="0.5" transform="translate(1343 397)"/><circle class="c" cx="0.5" cy="0.5" r="0.5" transform="translate(1364 397)"/><circle class="c" cx="0.5" cy="0.5" r="0.5" transform="translate(1385 397)"/><circle class="c" cx="0.5" cy="0.5" r="0.5" transform="translate(524 418)"/><circle class="c" cx="0.5" cy="0.5" r="0.5" transform="translate(545 418)"/><circle class="c" cx="0.5" cy="0.5" r="0.5" transform="translate(566 418)"/><circle class="c" cx="0.5" cy="0.5" r="0.5" transform="translate(587 418)"/><circle class="c" cx="0.5" cy="0.5" r="0.5" transform="translate(608 418)"/><circle class="c" cx="0.5" cy="0.5" r="0.5" transform="translate(629 418)"/><circle class="c" cx="0.5" cy="0.5" r="0.5" transform="translate(650 418)"/><circle class="c" cx="0.5" cy="0.5" r="0.5" transform="translate(671 418)"/><circle class="c" cx="0.5" cy="0.5" r="0.5" transform="translate(692 418)"/><circle class="c" cx="0.5" cy="0.5" r="0.5" transform="translate(713 418)"/><circle class="c" cx="0.5" cy="0.5" r="0.5" transform="translate(734 418)"/><circle class="c" cx="0.5" cy="0.5" r="0.5" transform="translate(755 418)"/><circle class="c" cx="0.5" cy="0.5" r="0.5" transform="translate(776 418)"/><circle class="c" cx="0.5" cy="0.5" r="0.5" transform="translate(797 418)"/><circle class="c" cx="0.5" cy="0.5" r="0.5" transform="translate(818 418)"/><circle class="c" cx="0.5" cy="0.5" r="0.5" transform="translate(839 418)"/><circle class="c" cx="0.5" cy="0.5" r="0.5" transform="translate(860 418)"/><circle class="c" cx="0.5" cy="0.5" r="0.5" transform="translate(881 418)"/><circle class="c" cx="0.5" cy="0.5" r="0.5" transform="translate(902 418)"/><circle class="c" cx="0.5" cy="0.5" r="0.5" transform="translate(923 418)"/><circle class="c" cx="0.5" cy="0.5" r="0.5" transform="translate(944 418)"/><circle class="c" cx="0.5" cy="0.5" r="0.5" transform="translate(965 418)"/><circle class="c" cx="0.5" cy="0.5" r="0.5" transform="translate(986 418)"/><circle class="c" cx="0.5" cy="0.5" r="0.5" transform="translate(1007 418)"/><circle class="c" cx="0.5" cy="0.5" r="0.5" transform="translate(1028 418)"/><circle class="c" cx="0.5" cy="0.5" r="0.5" transform="translate(1049 418)"/><circle class="c" cx="0.5" cy="0.5" r="0.5" transform="translate(1070 418)"/><circle class="c" cx="0.5" cy="0.5" r="0.5" transform="translate(1091 418)"/><circle class="c" cx="0.5" cy="0.5" r="0.5" transform="translate(1112 418)"/><circle class="c" cx="0.5" cy="0.5" r="0.5" transform="translate(1133 418)"/><circle class="c" cx="0.5" cy="0.5" r="0.5" transform="translate(1154 418)"/><circle class="c" cx="0.5" cy="0.5" r="0.5" transform="translate(1175 418)"/><circle class="c" cx="0.5" cy="0.5" r="0.5" transform="translate(1196 418)"/><circle class="c" cx="0.5" cy="0.5" r="0.5" transform="translate(1217 418)"/><circle class="c" cx="0.5" cy="0.5" r="0.5" transform="translate(1238 418)"/><circle class="c" cx="0.5" cy="0.5" r="0.5" transform="translate(1259 418)"/><circle class="c" cx="0.5" cy="0.5" r="0.5" transform="translate(1280 418)"/><circle class="c" cx="0.5" cy="0.5" r="0.5" transform="translate(1301 418)"/><circle class="c" cx="0.5" cy="0.5" r="0.5" transform="translate(1322 418)"/><circle class="c" cx="0.5" cy="0.5" r="0.5" transform="translate(1343 418)"/><circle class="c" cx="0.5" cy="0.5" r="0.5" transform="translate(1364 418)"/><circle class="c" cx="0.5" cy="0.5" r="0.5" transform="translate(1385 418)"/><circle class="c" cx="0.5" cy="0.5" r="0.5" transform="translate(524 439)"/><circle class="c" cx="0.5" cy="0.5" r="0.5" transform="translate(545 439)"/><circle class="c" cx="0.5" cy="0.5" r="0.5" transform="translate(566 439)"/><circle class="c" cx="0.5" cy="0.5" r="0.5" transform="translate(587 439)"/><circle class="c" cx="0.5" cy="0.5" r="0.5" transform="translate(608 439)"/><circle class="c" cx="0.5" cy="0.5" r="0.5" transform="translate(629 439)"/><circle class="c" cx="0.5" cy="0.5" r="0.5" transform="translate(650 439)"/><circle class="c" cx="0.5" cy="0.5" r="0.5" transform="translate(671 439)"/><circle class="c" cx="0.5" cy="0.5" r="0.5" transform="translate(692 439)"/><circle class="c" cx="0.5" cy="0.5" r="0.5" transform="translate(713 439)"/><circle class="c" cx="0.5" cy="0.5" r="0.5" transform="translate(734 439)"/><circle class="c" cx="0.5" cy="0.5" r="0.5" transform="translate(755 439)"/><circle class="c" cx="0.5" cy="0.5" r="0.5" transform="translate(776 439)"/><circle class="c" cx="0.5" cy="0.5" r="0.5" transform="translate(797 439)"/><circle class="c" cx="0.5" cy="0.5" r="0.5" transform="translate(818 439)"/><circle class="c" cx="0.5" cy="0.5" r="0.5" transform="translate(839 439)"/><circle class="c" cx="0.5" cy="0.5" r="0.5" transform="translate(860 439)"/><circle class="c" cx="0.5" cy="0.5" r="0.5" transform="translate(881 439)"/><circle class="c" cx="0.5" cy="0.5" r="0.5" transform="translate(902 439)"/><circle class="c" cx="0.5" cy="0.5" r="0.5" transform="translate(923 439)"/><circle class="c" cx="0.5" cy="0.5" r="0.5" transform="translate(944 439)"/><circle class="c" cx="0.5" cy="0.5" r="0.5" transform="translate(965 439)"/><circle class="c" cx="0.5" cy="0.5" r="0.5" transform="translate(986 439)"/><circle class="c" cx="0.5" cy="0.5" r="0.5" transform="translate(1007 439)"/><circle class="c" cx="0.5" cy="0.5" r="0.5" transform="translate(1028 439)"/><circle class="c" cx="0.5" cy="0.5" r="0.5" transform="translate(1049 439)"/><circle class="c" cx="0.5" cy="0.5" r="0.5" transform="translate(1070 439)"/><circle class="c" cx="0.5" cy="0.5" r="0.5" transform="translate(1091 439)"/><circle class="c" cx="0.5" cy="0.5" r="0.5" transform="translate(1112 439)"/><circle class="c" cx="0.5" cy="0.5" r="0.5" transform="translate(1133 439)"/><circle class="c" cx="0.5" cy="0.5" r="0.5" transform="translate(1154 439)"/><circle class="c" cx="0.5" cy="0.5" r="0.5" transform="translate(1175 439)"/><circle class="c" cx="0.5" cy="0.5" r="0.5" transform="translate(1196 439)"/><circle class="c" cx="0.5" cy="0.5" r="0.5" transform="translate(1217 439)"/><circle class="c" cx="0.5" cy="0.5" r="0.5" transform="translate(1238 439)"/><circle class="c" cx="0.5" cy="0.5" r="0.5" transform="translate(1259 439)"/><circle class="c" cx="0.5" cy="0.5" r="0.5" transform="translate(1280 439)"/><circle class="c" cx="0.5" cy="0.5" r="0.5" transform="translate(1301 439)"/><circle class="c" cx="0.5" cy="0.5" r="0.5" transform="translate(1322 439)"/><circle class="c" cx="0.5" cy="0.5" r="0.5" transform="translate(1343 439)"/><circle class="c" cx="0.5" cy="0.5" r="0.5" transform="translate(1364 439)"/><circle class="c" cx="0.5" cy="0.5" r="0.5" transform="translate(1385 439)"/><circle class="c" cx="0.5" cy="0.5" r="0.5" transform="translate(524 460)"/><circle class="c" cx="0.5" cy="0.5" r="0.5" transform="translate(545 460)"/><circle class="c" cx="0.5" cy="0.5" r="0.5" transform="translate(566 460)"/><circle class="c" cx="0.5" cy="0.5" r="0.5" transform="translate(587 460)"/><circle class="c" cx="0.5" cy="0.5" r="0.5" transform="translate(608 460)"/><circle class="c" cx="0.5" cy="0.5" r="0.5" transform="translate(629 460)"/><circle class="c" cx="0.5" cy="0.5" r="0.5" transform="translate(650 460)"/><circle class="c" cx="0.5" cy="0.5" r="0.5" transform="translate(671 460)"/><circle class="c" cx="0.5" cy="0.5" r="0.5" transform="translate(692 460)"/><circle class="c" cx="0.5" cy="0.5" r="0.5" transform="translate(713 460)"/><circle class="c" cx="0.5" cy="0.5" r="0.5" transform="translate(734 460)"/><circle class="c" cx="0.5" cy="0.5" r="0.5" transform="translate(755 460)"/><circle class="c" cx="0.5" cy="0.5" r="0.5" transform="translate(776 460)"/><circle class="c" cx="0.5" cy="0.5" r="0.5" transform="translate(797 460)"/><circle class="c" cx="0.5" cy="0.5" r="0.5" transform="translate(818 460)"/><circle class="c" cx="0.5" cy="0.5" r="0.5" transform="translate(839 460)"/><circle class="c" cx="0.5" cy="0.5" r="0.5" transform="translate(860 460)"/><circle class="c" cx="0.5" cy="0.5" r="0.5" transform="translate(881 460)"/><circle class="c" cx="0.5" cy="0.5" r="0.5" transform="translate(902 460)"/><circle class="c" cx="0.5" cy="0.5" r="0.5" transform="translate(923 460)"/><circle class="c" cx="0.5" cy="0.5" r="0.5" transform="translate(944 460)"/><circle class="c" cx="0.5" cy="0.5" r="0.5" transform="translate(965 460)"/><circle class="c" cx="0.5" cy="0.5" r="0.5" transform="translate(986 460)"/><circle class="c" cx="0.5" cy="0.5" r="0.5" transform="translate(1007 460)"/><circle class="c" cx="0.5" cy="0.5" r="0.5" transform="translate(1028 460)"/><circle class="c" cx="0.5" cy="0.5" r="0.5" transform="translate(1049 460)"/><circle class="c" cx="0.5" cy="0.5" r="0.5" transform="translate(1070 460)"/><circle class="c" cx="0.5" cy="0.5" r="0.5" transform="translate(1091 460)"/><circle class="c" cx="0.5" cy="0.5" r="0.5" transform="translate(1112 460)"/><circle class="c" cx="0.5" cy="0.5" r="0.5" transform="translate(1133 460)"/><circle class="c" cx="0.5" cy="0.5" r="0.5" transform="translate(1154 460)"/><circle class="c" cx="0.5" cy="0.5" r="0.5" transform="translate(1175 460)"/><circle class="c" cx="0.5" cy="0.5" r="0.5" transform="translate(1196 460)"/><circle class="c" cx="0.5" cy="0.5" r="0.5" transform="translate(1217 460)"/><circle class="c" cx="0.5" cy="0.5" r="0.5" transform="translate(1238 460)"/><circle class="c" cx="0.5" cy="0.5" r="0.5" transform="translate(1259 460)"/><circle class="c" cx="0.5" cy="0.5" r="0.5" transform="translate(1280 460)"/><circle class="c" cx="0.5" cy="0.5" r="0.5" transform="translate(1301 460)"/><circle class="c" cx="0.5" cy="0.5" r="0.5" transform="translate(1322 460)"/><circle class="c" cx="0.5" cy="0.5" r="0.5" transform="translate(1343 460)"/><circle class="c" cx="0.5" cy="0.5" r="0.5" transform="translate(1364 460)"/><circle class="c" cx="0.5" cy="0.5" r="0.5" transform="translate(1385 460)"/><circle class="c" cx="0.5" cy="0.5" r="0.5" transform="translate(524 481)"/><circle class="c" cx="0.5" cy="0.5" r="0.5" transform="translate(545 481)"/><circle class="c" cx="0.5" cy="0.5" r="0.5" transform="translate(566 481)"/><circle class="c" cx="0.5" cy="0.5" r="0.5" transform="translate(587 481)"/><circle class="c" cx="0.5" cy="0.5" r="0.5" transform="translate(608 481)"/><circle class="c" cx="0.5" cy="0.5" r="0.5" transform="translate(629 481)"/><circle class="c" cx="0.5" cy="0.5" r="0.5" transform="translate(650 481)"/><circle class="c" cx="0.5" cy="0.5" r="0.5" transform="translate(671 481)"/><circle class="c" cx="0.5" cy="0.5" r="0.5" transform="translate(692 481)"/><circle class="c" cx="0.5" cy="0.5" r="0.5" transform="translate(713 481)"/><circle class="c" cx="0.5" cy="0.5" r="0.5" transform="translate(734 481)"/><circle class="c" cx="0.5" cy="0.5" r="0.5" transform="translate(755 481)"/><circle class="c" cx="0.5" cy="0.5" r="0.5" transform="translate(776 481)"/><circle class="c" cx="0.5" cy="0.5" r="0.5" transform="translate(797 481)"/><circle class="c" cx="0.5" cy="0.5" r="0.5" transform="translate(818 481)"/><circle class="c" cx="0.5" cy="0.5" r="0.5" transform="translate(839 481)"/><circle class="c" cx="0.5" cy="0.5" r="0.5" transform="translate(860 481)"/><circle class="c" cx="0.5" cy="0.5" r="0.5" transform="translate(881 481)"/><circle class="c" cx="0.5" cy="0.5" r="0.5" transform="translate(902 481)"/><circle class="c" cx="0.5" cy="0.5" r="0.5" transform="translate(923 481)"/><circle class="c" cx="0.5" cy="0.5" r="0.5" transform="translate(944 481)"/><circle class="c" cx="0.5" cy="0.5" r="0.5" transform="translate(965 481)"/><circle class="c" cx="0.5" cy="0.5" r="0.5" transform="translate(986 481)"/><circle class="c" cx="0.5" cy="0.5" r="0.5" transform="translate(1007 481)"/><circle class="c" cx="0.5" cy="0.5" r="0.5" transform="translate(1028 481)"/><circle class="c" cx="0.5" cy="0.5" r="0.5" transform="translate(1049 481)"/><circle class="c" cx="0.5" cy="0.5" r="0.5" transform="translate(1070 481)"/><circle class="c" cx="0.5" cy="0.5" r="0.5" transform="translate(1091 481)"/><circle class="c" cx="0.5" cy="0.5" r="0.5" transform="translate(1112 481)"/><circle class="c" cx="0.5" cy="0.5" r="0.5" transform="translate(1133 481)"/><circle class="c" cx="0.5" cy="0.5" r="0.5" transform="translate(1154 481)"/><circle class="c" cx="0.5" cy="0.5" r="0.5" transform="translate(1175 481)"/><circle class="c" cx="0.5" cy="0.5" r="0.5" transform="translate(1196 481)"/><circle class="c" cx="0.5" cy="0.5" r="0.5" transform="translate(1217 481)"/><circle class="c" cx="0.5" cy="0.5" r="0.5" transform="translate(1238 481)"/><circle class="c" cx="0.5" cy="0.5" r="0.5" transform="translate(1259 481)"/><circle class="c" cx="0.5" cy="0.5" r="0.5" transform="translate(1280 481)"/><circle class="c" cx="0.5" cy="0.5" r="0.5" transform="translate(1301 481)"/><circle class="c" cx="0.5" cy="0.5" r="0.5" transform="translate(1322 481)"/><circle class="c" cx="0.5" cy="0.5" r="0.5" transform="translate(1343 481)"/><circle class="c" cx="0.5" cy="0.5" r="0.5" transform="translate(1364 481)"/><circle class="c" cx="0.5" cy="0.5" r="0.5" transform="translate(1385 481)"/><circle class="c" cx="0.5" cy="0.5" r="0.5" transform="translate(524 502)"/><circle class="c" cx="0.5" cy="0.5" r="0.5" transform="translate(545 502)"/><circle class="c" cx="0.5" cy="0.5" r="0.5" transform="translate(566 502)"/><circle class="c" cx="0.5" cy="0.5" r="0.5" transform="translate(587 502)"/><circle class="c" cx="0.5" cy="0.5" r="0.5" transform="translate(608 502)"/><circle class="c" cx="0.5" cy="0.5" r="0.5" transform="translate(629 502)"/><circle class="c" cx="0.5" cy="0.5" r="0.5" transform="translate(650 502)"/><circle class="c" cx="0.5" cy="0.5" r="0.5" transform="translate(671 502)"/><circle class="c" cx="0.5" cy="0.5" r="0.5" transform="translate(692 502)"/><circle class="c" cx="0.5" cy="0.5" r="0.5" transform="translate(713 502)"/><circle class="c" cx="0.5" cy="0.5" r="0.5" transform="translate(734 502)"/><circle class="c" cx="0.5" cy="0.5" r="0.5" transform="translate(755 502)"/><circle class="c" cx="0.5" cy="0.5" r="0.5" transform="translate(776 502)"/><circle class="c" cx="0.5" cy="0.5" r="0.5" transform="translate(797 502)"/><circle class="c" cx="0.5" cy="0.5" r="0.5" transform="translate(818 502)"/><circle class="c" cx="0.5" cy="0.5" r="0.5" transform="translate(839 502)"/><circle class="c" cx="0.5" cy="0.5" r="0.5" transform="translate(860 502)"/><circle class="c" cx="0.5" cy="0.5" r="0.5" transform="translate(881 502)"/><circle class="c" cx="0.5" cy="0.5" r="0.5" transform="translate(902 502)"/><circle class="c" cx="0.5" cy="0.5" r="0.5" transform="translate(923 502)"/><circle class="c" cx="0.5" cy="0.5" r="0.5" transform="translate(944 502)"/><circle class="c" cx="0.5" cy="0.5" r="0.5" transform="translate(965 502)"/><circle class="c" cx="0.5" cy="0.5" r="0.5" transform="translate(986 502)"/><circle class="c" cx="0.5" cy="0.5" r="0.5" transform="translate(1007 502)"/><circle class="c" cx="0.5" cy="0.5" r="0.5" transform="translate(1028 502)"/><circle class="c" cx="0.5" cy="0.5" r="0.5" transform="translate(1049 502)"/><circle class="c" cx="0.5" cy="0.5" r="0.5" transform="translate(1070 502)"/><circle class="c" cx="0.5" cy="0.5" r="0.5" transform="translate(1091 502)"/><circle class="c" cx="0.5" cy="0.5" r="0.5" transform="translate(1112 502)"/><circle class="c" cx="0.5" cy="0.5" r="0.5" transform="translate(1133 502)"/><circle class="c" cx="0.5" cy="0.5" r="0.5" transform="translate(1154 502)"/><circle class="c" cx="0.5" cy="0.5" r="0.5" transform="translate(1175 502)"/><circle class="c" cx="0.5" cy="0.5" r="0.5" transform="translate(1196 502)"/><circle class="c" cx="0.5" cy="0.5" r="0.5" transform="translate(1217 502)"/><circle class="c" cx="0.5" cy="0.5" r="0.5" transform="translate(1238 502)"/><circle class="c" cx="0.5" cy="0.5" r="0.5" transform="translate(1259 502)"/><circle class="c" cx="0.5" cy="0.5" r="0.5" transform="translate(1280 502)"/><circle class="c" cx="0.5" cy="0.5" r="0.5" transform="translate(1301 502)"/><circle class="c" cx="0.5" cy="0.5" r="0.5" transform="translate(1322 502)"/><circle class="c" cx="0.5" cy="0.5" r="0.5" transform="translate(1343 502)"/><circle class="c" cx="0.5" cy="0.5" r="0.5" transform="translate(1364 502)"/><circle class="c" cx="0.5" cy="0.5" r="0.5" transform="translate(1385 502)"/><circle class="c" cx="0.5" cy="0.5" r="0.5" transform="translate(524 523)"/><circle class="c" cx="0.5" cy="0.5" r="0.5" transform="translate(545 523)"/><circle class="c" cx="0.5" cy="0.5" r="0.5" transform="translate(566 523)"/><circle class="c" cx="0.5" cy="0.5" r="0.5" transform="translate(587 523)"/><circle class="c" cx="0.5" cy="0.5" r="0.5" transform="translate(608 523)"/><circle class="c" cx="0.5" cy="0.5" r="0.5" transform="translate(629 523)"/><circle class="c" cx="0.5" cy="0.5" r="0.5" transform="translate(650 523)"/><circle class="c" cx="0.5" cy="0.5" r="0.5" transform="translate(671 523)"/><circle class="c" cx="0.5" cy="0.5" r="0.5" transform="translate(692 523)"/><circle class="c" cx="0.5" cy="0.5" r="0.5" transform="translate(713 523)"/><circle class="c" cx="0.5" cy="0.5" r="0.5" transform="translate(734 523)"/><circle class="c" cx="0.5" cy="0.5" r="0.5" transform="translate(755 523)"/><circle class="c" cx="0.5" cy="0.5" r="0.5" transform="translate(776 523)"/><circle class="c" cx="0.5" cy="0.5" r="0.5" transform="translate(797 523)"/><circle class="c" cx="0.5" cy="0.5" r="0.5" transform="translate(818 523)"/><circle class="c" cx="0.5" cy="0.5" r="0.5" transform="translate(839 523)"/><circle class="c" cx="0.5" cy="0.5" r="0.5" transform="translate(860 523)"/><circle class="c" cx="0.5" cy="0.5" r="0.5" transform="translate(881 523)"/><circle class="c" cx="0.5" cy="0.5" r="0.5" transform="translate(902 523)"/><circle class="c" cx="0.5" cy="0.5" r="0.5" transform="translate(923 523)"/><circle class="c" cx="0.5" cy="0.5" r="0.5" transform="translate(944 523)"/><circle class="c" cx="0.5" cy="0.5" r="0.5" transform="translate(965 523)"/><circle class="c" cx="0.5" cy="0.5" r="0.5" transform="translate(986 523)"/><circle class="c" cx="0.5" cy="0.5" r="0.5" transform="translate(1007 523)"/><circle class="c" cx="0.5" cy="0.5" r="0.5" transform="translate(1028 523)"/><circle class="c" cx="0.5" cy="0.5" r="0.5" transform="translate(1049 523)"/><circle class="c" cx="0.5" cy="0.5" r="0.5" transform="translate(1070 523)"/><circle class="c" cx="0.5" cy="0.5" r="0.5" transform="translate(1091 523)"/><circle class="c" cx="0.5" cy="0.5" r="0.5" transform="translate(1112 523)"/><circle class="c" cx="0.5" cy="0.5" r="0.5" transform="translate(1133 523)"/><circle class="c" cx="0.5" cy="0.5" r="0.5" transform="translate(1154 523)"/><circle class="c" cx="0.5" cy="0.5" r="0.5" transform="translate(1175 523)"/><circle class="c" cx="0.5" cy="0.5" r="0.5" transform="translate(1196 523)"/><circle class="c" cx="0.5" cy="0.5" r="0.5" transform="translate(1217 523)"/><circle class="c" cx="0.5" cy="0.5" r="0.5" transform="translate(1238 523)"/><circle class="c" cx="0.5" cy="0.5" r="0.5" transform="translate(1259 523)"/><circle class="c" cx="0.5" cy="0.5" r="0.5" transform="translate(1280 523)"/><circle class="c" cx="0.5" cy="0.5" r="0.5" transform="translate(1301 523)"/><circle class="c" cx="0.5" cy="0.5" r="0.5" transform="translate(1322 523)"/><circle class="c" cx="0.5" cy="0.5" r="0.5" transform="translate(1343 523)"/><circle class="c" cx="0.5" cy="0.5" r="0.5" transform="translate(1364 523)"/><circle class="c" cx="0.5" cy="0.5" r="0.5" transform="translate(1385 523)"/></g></g></svg>