<svg xmlns="http://www.w3.org/2000/svg" width="84" height="84" viewBox="0 0 84 84"><g transform="translate(-1253 -567)"><circle cx="42" cy="42" r="42" transform="translate(1253 567)" fill="#343537"/><g transform="translate(-67.188 108.76)"><path d="M798.3,708.564a3.23,3.23,0,0,0-2.455,1.343l-14.243,19.862a3.23,3.23,0,0,0,.743,4.507l13.5,9.68a3.23,3.23,0,0,0,4.507-.743L814.6,723.352a3.235,3.235,0,0,0,.485-2.756l-2.878-10.24A3.23,3.23,0,0,0,808.925,708Zm4.239,11.8a3.845,3.845,0,1,0-.884-5.366A3.845,3.845,0,0,0,802.542,720.367Z" transform="translate(562 -226)" fill="#b3b4b6" fill-rule="evenodd"/><path d="M822.438,711.932a3.23,3.23,0,0,0-2.113,1.834l-9.7,22.435a3.23,3.23,0,0,0,1.684,4.246l15.248,6.59a3.23,3.23,0,0,0,4.246-1.684l9.7-22.436a3.226,3.226,0,0,0-.112-2.8l-4.987-9.394a3.23,3.23,0,0,0-3.7-1.6Zm6.651,10.633a3.845,3.845,0,1,0-2-5.055A3.845,3.845,0,0,0,829.089,722.566Z" transform="translate(537.154 -226.858)" fill="#b3b4b6" fill-rule="evenodd" opacity="0.359"/></g></g></svg>