<svg xmlns="http://www.w3.org/2000/svg" width="84" height="84" viewBox="0 0 84 84"><g transform="translate(-1253 -567)"><circle cx="42" cy="42" r="42" transform="translate(1253 567)" fill="#343537"/><g transform="translate(64.119 142.788)"><path d="M2133,231.185a2.186,2.186,0,0,1,2.186-2.185h4.371v17.629H2133Z" transform="translate(-918 238.795)" fill="#b3b4b6" opacity="0.237"/><path d="M2139.556,320.1V315c-.538,3.8-2.184,4.725-6.556,5.1Z" transform="translate(-918 165.325)" fill="#b3b4b6"/><path d="M2180.186,100a2.186,2.186,0,0,0-2.186,2.185v34.239h23.02a2.186,2.186,0,0,0,2.186-2.185V102.185A2.186,2.186,0,0,0,2201.02,100Zm2.623,7.139a1.311,1.311,0,1,0,0,2.623H2198.4a1.311,1.311,0,1,0,0-2.623Zm-1.311,6.7a1.311,1.311,0,0,1,1.311-1.311H2198.4a1.311,1.311,0,1,1,0,2.623h-15.589A1.311,1.311,0,0,1,2181.5,113.841Zm1.311,4.08a1.311,1.311,0,1,0,0,2.623h6.7a1.311,1.311,0,1,0,0-2.623Z" transform="translate(-956.444 349)" fill="#b3b4b6" fill-rule="evenodd"/></g></g></svg>