<svg xmlns="http://www.w3.org/2000/svg" width="15.5" height="14.39" viewBox="0 0 15.5 14.39"><path d="M8.615,2.972a.741.741,0,0,1,1.361,0l1.616,3.745a.741.741,0,0,0,.624.445l4.144.32a.741.741,0,0,1,.415,1.311l-3.117,2.573a.741.741,0,0,0-.248.75l.959,3.876a.741.741,0,0,1-1.1.817l-3.6-2.121a.741.741,0,0,0-.752,0l-3.6,2.121a.741.741,0,0,1-1.1-.817l.959-3.876a.741.741,0,0,0-.248-.75L1.816,8.793a.741.741,0,0,1,.415-1.311l4.145-.32A.741.741,0,0,0,7,6.717Z" transform="translate(-1.546 -2.524)" fill="#77787a"/></svg>