<svg xmlns="http://www.w3.org/2000/svg" width="84" height="84" viewBox="0 0 84 84"><g transform="translate(-1253 -567)"><circle cx="42" cy="42" r="42" transform="translate(1253 567)" fill="#343537"/><g transform="translate(136.363 -23.056)"><path d="M1583.088,876.7l-1.731-11.175-11.447,8.317,10.093,5.1A2.144,2.144,0,0,0,1583.088,876.7Z" transform="translate(-411.365 -228.392)" fill="#b3b4b6" opacity="0.36"/><path d="M1469.86,716.413a2.6,2.6,0,0,0-4.63,0l-4.159,8.094a2.6,2.6,0,0,1-1.9,1.38l-8.984,1.453a2.6,2.6,0,0,0-1.432,4.4l6.413,6.456a2.6,2.6,0,0,1,.726,2.233l-1.393,8.992a2.6,2.6,0,0,0,3.745,2.722l8.123-4.1a2.6,2.6,0,0,1,2.347,0l-1.174-.593,11.446-8.317.2,1.3a2.6,2.6,0,0,1,.725-2.232l6.413-6.456a2.6,2.6,0,0,0-1.43-4.4l-8.984-1.453a2.6,2.6,0,0,1-1.9-1.38Z" transform="translate(-309 -102)" fill="#b3b4b6" fill-rule="evenodd"/></g></g></svg>