<svg xmlns="http://www.w3.org/2000/svg" width="20" height="20" viewBox="0 0 20 20"><defs><style>.a{fill:#191919;}</style></defs><path class="a" d="M0,3.846A3.847,3.847,0,0,1,3.846,0H16.154A3.847,3.847,0,0,1,20,3.846V16.154A3.847,3.847,0,0,1,16.154,20H3.846A3.847,3.847,0,0,1,0,16.154ZM11.768,7.467,14.305,10l-2.537,2.538a.769.769,0,0,0,1.088,1.088l3.082-3.082a.768.768,0,0,0,0-1.088L12.856,6.379a.769.769,0,0,0-1.088,1.088ZM8.241,7.458A.769.769,0,1,0,7.153,6.37L4.072,9.452a.77.77,0,0,0,0,1.088l3.082,3.082a.769.769,0,0,0,1.088-1.088L5.7,10Z"/></svg>