<svg xmlns="http://www.w3.org/2000/svg" xmlns:xlink="http://www.w3.org/1999/xlink" width="142" height="142" viewBox="0 0 142 142"><defs><style>.a,.d,.e,.g{fill:#fff;}.a{stroke:#707070;}.b{fill:#b4e0ff;}.c{clip-path:url(#a);}.d,.e,.f,.g,.i,.j,.k{stroke:#151515;}.d{stroke-miterlimit:10;}.d,.g{stroke-width:1.143px;}.e,.f,.g,.i,.j,.k{stroke-linecap:round;stroke-linejoin:round;}.e,.f{stroke-width:0.572px;}.f,.i,.j,.k{fill:none;}.h{fill:#151515;}.i{stroke-width:1.082px;}.k{stroke-width:0.535px;}.l,.m{stroke:none;}.m{fill:#191919;}</style><clipPath id="a"><circle class="a" cx="71" cy="71" r="71" transform="translate(3234 8259)"/></clipPath></defs><g transform="translate(-3349 -8258)"><g class="b" transform="translate(3349 8258)"><path class="l" d="M 71 140.5 C 61.61690139770508 140.5 52.5152587890625 138.6626434326172 43.94792175292969 135.0389556884766 C 39.830078125 133.2972564697266 35.85831832885742 131.1414337158203 32.14294052124023 128.6313781738281 C 28.46245956420898 126.1448974609375 25.0014591217041 123.2893218994141 21.8560791015625 120.1439208984375 C 18.71068000793457 116.9985427856445 15.85509967803955 113.5375366210938 13.36861991882324 109.857063293457 C 10.85855960845947 106.1416778564453 8.702739715576172 102.169921875 6.961040019989014 98.05207824707031 C 3.33735990524292 89.4847412109375 1.5 80.38310241699219 1.5 71 C 1.5 61.61690139770508 3.33735990524292 52.5152587890625 6.961040019989014 43.94792175292969 C 8.702739715576172 39.830078125 10.85855960845947 35.85831832885742 13.36861991882324 32.14294052124023 C 15.85509967803955 28.46245956420898 18.71068000793457 25.0014591217041 21.8560791015625 21.8560791015625 C 25.0014591217041 18.71068000793457 28.46245956420898 15.85509967803955 32.14294052124023 13.36861991882324 C 35.85831832885742 10.85855960845947 39.830078125 8.702739715576172 43.94792175292969 6.961040019989014 C 52.5152587890625 3.33735990524292 61.61690139770508 1.5 71 1.5 C 80.38310241699219 1.5 89.4847412109375 3.33735990524292 98.05207824707031 6.961040019989014 C 102.169921875 8.702739715576172 106.1416778564453 10.85855960845947 109.857063293457 13.36861991882324 C 113.5375366210938 15.85509967803955 116.9985427856445 18.71068000793457 120.1439208984375 21.8560791015625 C 123.2893218994141 25.0014591217041 126.1448974609375 28.46245956420898 128.6313781738281 32.14294052124023 C 131.1414337158203 35.85831832885742 133.2972564697266 39.830078125 135.0389556884766 43.94792175292969 C 138.6626434326172 52.5152587890625 140.5 61.61690139770508 140.5 71 C 140.5 80.38310241699219 138.6626434326172 89.4847412109375 135.0389556884766 98.05207824707031 C 133.2972564697266 102.169921875 131.1414337158203 106.1416778564453 128.6313781738281 109.857063293457 C 126.1448974609375 113.5375366210938 123.2893218994141 116.9985427856445 120.1439208984375 120.1439208984375 C 116.9985427856445 123.2893218994141 113.5375366210938 126.1448974609375 109.857063293457 128.6313781738281 C 106.1416778564453 131.1414337158203 102.169921875 133.2972564697266 98.05207824707031 135.0389556884766 C 89.4847412109375 138.6626434326172 80.38310241699219 140.5 71 140.5 Z"/><path class="m" d="M 71 3 C 61.81874084472656 3 52.9136962890625 4.797500610351562 44.53225708007812 8.342544555664062 C 40.50361633300781 10.04652404785156 36.61775970458984 12.15571594238281 32.98264312744141 14.61155700683594 C 29.38127899169922 17.04457855224609 25.99462127685547 19.83885955810547 22.91674041748047 22.91674041748047 C 19.83885955810547 25.99462127685547 17.04457855224609 29.38127899169922 14.61155700683594 32.98264312744141 C 12.15571594238281 36.61775970458984 10.04652404785156 40.50361633300781 8.342544555664062 44.53225708007812 C 4.797500610351562 52.9136962890625 3 61.81874084472656 3 71 C 3 80.18125915527344 4.797500610351562 89.0863037109375 8.342544555664062 97.46774291992188 C 10.04652404785156 101.4963836669922 12.15571594238281 105.3822402954102 14.61155700683594 109.0173645019531 C 17.04457855224609 112.6187210083008 19.83885955810547 116.0053787231445 22.91674041748047 119.0832595825195 C 25.99462127685547 122.1611404418945 29.38127899169922 124.9554214477539 32.98264312744141 127.3884429931641 C 36.61775970458984 129.8442840576172 40.50361633300781 131.9534759521484 44.53225708007812 133.6574554443359 C 52.9136962890625 137.2024993896484 61.81874084472656 139 71 139 C 80.18125915527344 139 89.0863037109375 137.2024993896484 97.46774291992188 133.6574554443359 C 101.4963836669922 131.9534759521484 105.3822402954102 129.8442840576172 109.0173645019531 127.3884429931641 C 112.6187210083008 124.9554214477539 116.0053787231445 122.1611404418945 119.0832595825195 119.0832595825195 C 122.1611404418945 116.0053787231445 124.9554214477539 112.6187210083008 127.3884429931641 109.0173645019531 C 129.8442840576172 105.3822402954102 131.9534759521484 101.4963836669922 133.6574554443359 97.46774291992188 C 137.2024993896484 89.0863037109375 139 80.18125915527344 139 71 C 139 61.81874084472656 137.2024993896484 52.9136962890625 133.6574554443359 44.53225708007812 C 131.9534759521484 40.50361633300781 129.8442840576172 36.61775970458984 127.3884429931641 32.98264312744141 C 124.9554214477539 29.38127899169922 122.1611404418945 25.99462127685547 119.0832595825195 22.91674041748047 C 116.0053787231445 19.83885955810547 112.6187210083008 17.04457855224609 109.0173645019531 14.61155700683594 C 105.3822402954102 12.15571594238281 101.4963836669922 10.04652404785156 97.46774291992188 8.342544555664062 C 89.0863037109375 4.797500610351562 80.18125915527344 3 71 3 M 71 0 C 110.2122192382812 0 142 31.78778076171875 142 71 C 142 110.2122192382812 110.2122192382812 142 71 142 C 31.78778076171875 142 0 110.2122192382812 0 71 C 0 31.78778076171875 31.78778076171875 0 71 0 Z"/></g><g class="c" transform="translate(115 -1)"><g transform="translate(3190.599 8240.85)"><path class="d" d="M134.857,78.677s2.582-3.374,5.364-1.543,1.57,8.036-.533,11.066-5.33,4.423-6.958,1.939"/><path class="e" d="M139.719,81.025s-3.175-1.232-5.695,3.41"/><path class="e" d="M136.669,86.944"/><path class="e" d="M135.7,82.185"/><path class="d" d="M89.867,78.679S87.289,75.3,84.5,77.13s-1.579,8.034.52,11.067,5.325,4.429,6.956,1.947"/><path class="e" d="M85,81.022s3.177-1.229,5.692,3.416"/><path class="e" d="M88.045,86.944"/><path class="e" d="M89.016,82.187"/><path class="f" d="M101.283,81.711"/><path class="f" d="M124.013,82.133"/><path class="f" d="M119.3,78.584"/><path class="g" d="M98.467,104.706l.222,15.463a6.257,6.257,0,0,1-1.854,4.562,37.24,37.24,0,0,1-16.013,9.082l34.951,10.974,30.994-10.974s-11.133-3.363-16.646-7.491a7.589,7.589,0,0,1-2.969-6.063l-.066-16.291"/><path class="h" d="M98.067,104.993s3.644,10.409,11.152,14.687a12.436,12.436,0,0,0,16.2-3.166c1.845-2.527,1.661-7.243,1.661-12.713,0,0-4.421,8.912-13.384,9.284S98.067,104.993,98.067,104.993Z"/><path class="h" d="M85.664,131.047s23.127,18.044,55.96,0c0,0,15.7,3.386,24.7,17.128,0,0,8.09,12.608,8.563,18.379H53.4S59.679,138.222,85.664,131.047Z"/><path class="d" d="M135.639,68.735s-.75,44.35-23.136,44.35c-22.106,0-23.69-44.741-23.69-44.741C87.775,66.6,84.765,42.919,112.1,42.919,139.9,42.919,136.457,66.583,135.639,68.735Z"/><path class="h" d="M115.7,64.843l1.381,2.918,13.316-3.019-3.158-1.049a10.572,10.572,0,0,0-3.743.11Z"/><path class="i" d="M111.738,77.732l-1.2,8.871a2.137,2.137,0,0,0,.044.8,2.088,2.088,0,0,0,2.313,1.478l2.208-.278"/><circle class="h" cx="2.141" cy="2.141" r="2.141" transform="translate(100.586 73.917)"/><path class="h" d="M124.815,76.057a2.141,2.141,0,1,1-2.14-2.14A2.14,2.14,0,0,1,124.815,76.057Z"/><path class="i" d="M107.2,93.593a11.644,11.644,0,0,0,5.961,1.881,9.343,9.343,0,0,0,5.522-1.881"/><circle class="j" cx="8.978" cy="8.978" r="8.978" transform="translate(91.641 67.638)"/><circle class="j" cx="8.978" cy="8.978" r="8.978" transform="translate(113.697 67.638)"/><path class="k" d="M109.6,76.616s2.127-1.985,4.1,0"/><line class="k" x1="2.84" y2="0.857" transform="translate(88.813 76.175)"/><line class="k" x2="3.893" y2="0.416" transform="translate(131.653 76.616)"/><path class="h" d="M108.445,65.009l-1.382,2.918L93.747,64.908,96.9,63.86a10.577,10.577,0,0,1,3.744.109Z"/><path class="h" d="M89.255,71.836s.347-13.06,4.308-18.55,13.973-3.471,20.952-2.584,13.177-1.01,15.942.742c2.981,1.89,4.813,16.692,4.716,19.588,0,0,9.017-15.7,1.923-33.434,0,0-5.27,4.766-21.2,0s-23.137-2.439-23.026,5.819c0,0-9.51-2.375-8.413,8.262A87.7,87.7,0,0,0,89.255,71.836Z"/></g></g></g></svg>