<svg xmlns="http://www.w3.org/2000/svg" width="78.096" height="16.728" viewBox="0 0 78.096 16.728"><path d="M7.488,0a8.694,8.694,0,0,0,6.144-2.424A7.381,7.381,0,0,0,15.72-7.968,7.814,7.814,0,0,0,13.488-13.8a8.929,8.929,0,0,0-6.36-2.208H1.68V0ZM5.832-12.48H6.84a4.664,4.664,0,0,1,3.312,1.008,4.786,4.786,0,0,1,1.248,3.5A4.361,4.361,0,0,1,10.176-4.68a4.78,4.78,0,0,1-3.5,1.152h-.84Zm21.624-3.528h-9.1V0h9.1V-3.528H22.512v-2.76h4.68V-9.816h-4.68V-12.48h4.944ZM41.592-5.352a4.7,4.7,0,0,1-3.624,1.68,4.47,4.47,0,0,1-2.976-1.1A4.417,4.417,0,0,1,33.7-7.9a4.471,4.471,0,0,1,1.392-3.288,4.054,4.054,0,0,1,2.88-1.056,4.458,4.458,0,0,1,3.624,1.752v-4.968a9.923,9.923,0,0,0-3.744-.816,8.493,8.493,0,0,0-6.048,2.5,8.572,8.572,0,0,0-2.424,5.9A8.4,8.4,0,0,0,31.8-2.04,8.706,8.706,0,0,0,37.992.36a9.884,9.884,0,0,0,3.6-.792Zm19.584-2.64a8.281,8.281,0,0,0-2.52-6,9.125,9.125,0,0,0-6.312-2.376,9.125,9.125,0,0,0-6.312,2.376,8.281,8.281,0,0,0-2.52,6,8.306,8.306,0,0,0,2.52,5.976A9.125,9.125,0,0,0,52.344.36a9.125,9.125,0,0,0,6.312-2.376A8.306,8.306,0,0,0,61.176-7.992Zm-8.832-4.344a4.792,4.792,0,0,1,3.216,1.272,4.32,4.32,0,0,1,1.3,3.072,4.408,4.408,0,0,1-1.3,3.072,4.387,4.387,0,0,1-3.216,1.248A4.542,4.542,0,0,1,49.1-4.944,4.068,4.068,0,0,1,47.832-7.92,4.388,4.388,0,0,1,49.1-11.064,4.611,4.611,0,0,1,52.344-12.336ZM67.968,0V-9.792L75.624,0h4.152V-16.008H75.624v9.792l-7.656-9.792H63.816V0Z" transform="translate(-1.68 16.368)"/></svg>