<svg xmlns="http://www.w3.org/2000/svg" width="23.5" height="26.311" viewBox="0 0 23.5 26.311"><path d="M25.3-15.142V7.133L21.263,9.151,9.874-1.3V7.133L5.837,9.151,1.8,7.133V-15.142L5.837-17.16,17.226-6.671v-8.47l4.037-2.018Zm-22.491.613.685.613,2.811-1.406-.649-.613ZM18.236-5.77l2.523,2.343V-15.79l-2.523,1.262Zm3.532-10.02v1.009l1.045-.5Zm2.523,1.262-.721-.36-1.8.9v1.3l2.523-1.262ZM4.936-12.583l2.847-1.406-.9-.829L4.035-13.412Zm.577.541.9.829,2.847-1.406-.9-.829ZM24.291,6.52,2.809-13.159V6.52L5.332,7.782V-6.852L21.443,7.926Zm0-18.382v-1.3L21.768-11.9v1.3ZM6.99-10.708l.9.829,2.847-1.406-.9-.829Zm17.3.937v-1.3L21.768-9.807v1.3ZM8.468-9.339l.9.829L12.18-9.951l-.9-.829ZM9.946-8.005l.9.829,2.811-1.406-.9-.829Zm14.345.324v-1.3L21.768-7.717v1.3Zm-12.9,1.009.937.865,2.811-1.406L14.2-8.077Zm12.9,1.081v-1.3L21.768-5.626v1.3ZM12.865-5.3l.937.829,2.775-1.406-.9-.829Zm1.478,1.334.9.829,2.811-1.406-.9-.829Zm9.948.469V-4.8L21.768-3.536v1.3Zm-16.616.18L6.341-4.545v1.874Zm8.146.721.937.829,2.775-1.406L18.632-4ZM6.341-.58,8.864-1.842V-2.2l-.649-.613-1.874.937Zm17.949-.829v-1.3L18.74.069l.9.829ZM17.3-1.265l.9.829,2.811-1.406-.9-.829ZM6.341,1.51,8.864.249v-1.3L6.341.249ZM24.291.645v-1.3L20.218,1.4l.9.829ZM6.341,3.6,8.864,2.339v-1.3L6.341,2.3Zm16.219-.036,1.73-.865V1.4L21.66,2.736ZM6.341,5.691,8.864,4.43V3.168L6.341,4.394Zm17.949-.541V3.493l-1.153.577ZM8.864,6.52v-1.3L6.341,6.484v1.3Z" transform="translate(-1.8 17.16)"/></svg>