<svg xmlns="http://www.w3.org/2000/svg" width="27.066" height="32.682" viewBox="0 0 27.066 32.682"><path d="M7.247-15.723a7.292,7.292,0,0,0-3.222.736,6.249,6.249,0,0,0-2.44,2.048,5.243,5.243,0,0,0-.967,2.923l-.092-.322a6.96,6.96,0,0,1-.046-.921,4.713,4.713,0,0,1,.967-2.9,6.626,6.626,0,0,1,2.532-2.025,7.391,7.391,0,0,1,3.176-.736,5.125,5.125,0,0,1,3.89,1.519,5.311,5.311,0,0,1,1.5,3.682A5.564,5.564,0,0,0,10.7-14.711,5.437,5.437,0,0,0,7.247-15.723Zm14.362,2.486a7.054,7.054,0,0,1-2.785-.967q-1.174-.736-1.174-1.427,0-.506.621-.76a4.554,4.554,0,0,1,1.68-.253,13.045,13.045,0,0,1,2.256.23,8.94,8.94,0,0,1,3.015.99q1.266.713,1.082,1.312-.23,1.059-2.532,1.059A11.611,11.611,0,0,1,21.608-13.238Zm5.478-.552a1.408,1.408,0,0,1,.46,1.013,2.092,2.092,0,0,1-.184.69,2.292,2.292,0,0,1-1.5,1.2,8.214,8.214,0,0,1-2.555.368,11.564,11.564,0,0,1-2.44-.23,10.283,10.283,0,0,1-3.659-1.473,2.887,2.887,0,0,1-1.5-2.394,1.514,1.514,0,0,1,.967-1.519.872.872,0,0,0-.322.69,2.657,2.657,0,0,0,1.45,2.117,9.113,9.113,0,0,0,3.429,1.335,13.244,13.244,0,0,0,2.3.23q2.578,0,3.544-1.151a.825.825,0,0,0,.138-.414A.746.746,0,0,0,27.086-13.79Zm-7.687-1.7q0,.322.736.644a7.978,7.978,0,0,0,1.7.506,11.3,11.3,0,0,0,1.473.184,2.451,2.451,0,0,0,.9-.138q.345-.138.345-.368,0-.322-.713-.621a8.372,8.372,0,0,0-1.726-.483,10.818,10.818,0,0,0-1.565-.138Q19.4-15.907,19.4-15.493ZM7.891-12.823A7.377,7.377,0,0,0,3.4-11.488,5.074,5.074,0,0,0,1.355-7.668q-.092-.23-.161-.414T1.078-8.4a4.7,4.7,0,0,1,.9-2.992,6.079,6.079,0,0,1,2.509-1.979,8.12,8.12,0,0,1,3.314-.69,5.414,5.414,0,0,1,2.762.667,4.876,4.876,0,0,1,1.749,1.634,3.967,3.967,0,0,1,.644,1.887A5.143,5.143,0,0,0,7.891-12.823Zm7.641-.184a5.115,5.115,0,0,0,2.808,2.67A10.622,10.622,0,0,0,22.9-9.325a8.113,8.113,0,0,0,2.486-.368,4.8,4.8,0,0,0,1.841-1.013,3.288,3.288,0,0,1-.46,1.243,3.339,3.339,0,0,1-1.611.967,8.214,8.214,0,0,1-2.394.322,11.586,11.586,0,0,1-4.7-.967q-2.209-.967-2.532-2.486l-.046-.69ZM8.489-10.015A7.507,7.507,0,0,0,4.37-8.888,4.5,4.5,0,0,0,2.275-5.6a3.254,3.254,0,0,1-.322-.783,4.059,4.059,0,0,1,1.979-3.59A8,8,0,0,1,8.4-11.258a7.1,7.1,0,0,1,2.946.621,3.158,3.158,0,0,1,1.8,1.726l.23,1.059A5.543,5.543,0,0,0,8.489-10.015Zm6.951-.138a5.278,5.278,0,0,0,2.831,2.232,11.443,11.443,0,0,0,4.35.852,5.389,5.389,0,0,0,3.682-1.1,5.412,5.412,0,0,1-.552,1.2,5.585,5.585,0,0,1-3.729,1.013,10.936,10.936,0,0,1-4.143-.783,3.66,3.66,0,0,1-2.348-2.071A6.838,6.838,0,0,1,15.44-10.153ZM9.916-7.069a10.713,10.713,0,0,0-3.544.644A4.752,4.752,0,0,0,3.748-4.492,2.506,2.506,0,0,0,3.38-3.249l-.368-.644v-.276A2.121,2.121,0,0,1,3.15-5a4.225,4.225,0,0,1,2.44-2.463,9.518,9.518,0,0,1,3.959-.852,8.019,8.019,0,0,1,2.463.391,2.716,2.716,0,0,1,1.634,1.128l.276,1.013A6.706,6.706,0,0,0,9.916-7.069Zm5.616-.414q.276,1.1,2.3,1.864a10.693,10.693,0,0,0,3.729.76A5.577,5.577,0,0,0,25.429-6.1a4.1,4.1,0,0,1-.69,1.151,5.654,5.654,0,0,1-3.775,1.1,8.376,8.376,0,0,1-3.245-.621A4.177,4.177,0,0,1,15.624-6.1,7.176,7.176,0,0,1,15.532-7.484ZM10.653-5.5a13.069,13.069,0,0,1,2.256.437q1.013.3,2.44.852,1.749.644,2.9.967a9.557,9.557,0,0,0,2.578.322,6.931,6.931,0,0,0,3.406-.921l-.644,1.059a5.642,5.642,0,0,1-3.038.829,11.519,11.519,0,0,1-2.739-.3q-1.22-.3-2.877-.852-1.611-.506-2.647-.76a9.594,9.594,0,0,0-2.279-.253,8.964,8.964,0,0,0-3.314.6A3.739,3.739,0,0,0,4.577-1.684a.725.725,0,0,0-.184.276l-.46-.829a1.614,1.614,0,0,1,.23-.6A5.042,5.042,0,0,1,6.556-4.814,8.306,8.306,0,0,1,9.962-5.55ZM10.469-2.65a13.274,13.274,0,0,1,2.44.207,24.423,24.423,0,0,1,2.486.621q1.243.368,2.209.575a9.875,9.875,0,0,0,2.071.207,8.306,8.306,0,0,0,3.406-.736L22.437-.625a7.037,7.037,0,0,1-2.992.6A14.661,14.661,0,0,1,16.522-.3L14.934-.625a18.334,18.334,0,0,0-4.143-.6A11.17,11.17,0,0,0,7.477-.74,3.913,3.913,0,0,0,5.313.618L4.853-.395q.23-.921,2.048-1.588A10.31,10.31,0,0,1,10.469-2.65ZM11.3.2a15.675,15.675,0,0,1,2.025.138L14.75.526A24.26,24.26,0,0,0,19.03.94a5.919,5.919,0,0,0,3.13-.69l-.552,1.289q-.322.644-3.084.644a26.8,26.8,0,0,1-3.913-.368,26.937,26.937,0,0,0-3.176-.276,18.242,18.242,0,0,0-2.9.253,8.443,8.443,0,0,0-2.209.575l-.46-.875A4.663,4.663,0,0,1,7.983.618,14,14,0,0,1,11.3.2Zm.092,2.808q1.381,0,4.143.184,1.657.138,2.946.138a4.457,4.457,0,0,0,2.854-.783l-.23,1.2q-.414.875-2.67.875-1.2,0-3.59-.092-1.473-.092-2.117-.092Q9.87,4.346,8.305,4.346a9.313,9.313,0,0,0-1.243.046l-.184-1.1a17.2,17.2,0,0,1,1.8-.184Q10.008,3.011,11.389,3.011Zm-4.235,1.8a.188.188,0,0,1-.046-.138Zm13.809-.138a.188.188,0,0,1-.046.138ZM14.059,6a42.407,42.407,0,0,0,4.442-.23q2.186-.23,2.417-.967l-.138.829q-.276.921-2.071,1.22a29.283,29.283,0,0,1-4.649.3,29.737,29.737,0,0,1-4.672-.3q-1.818-.3-2.094-1.22l-.138-.829q.23.736,2.44.967A43.068,43.068,0,0,0,14.059,6ZM7.569,7.016a.188.188,0,0,1-.046-.138Zm12.981-.138a.188.188,0,0,1-.046.138Zm-6.49,1.979a19.969,19.969,0,0,0,3.982-.437q2.14-.437,2.463-1.4l-.184.829a2.611,2.611,0,0,1-2.094,1.68,15.937,15.937,0,0,1-4.166.483A16.2,16.2,0,0,1,9.87,9.525q-1.8-.483-2.117-1.68l-.184-.829q.322.967,2.486,1.4A20.307,20.307,0,0,0,14.059,8.857Zm0,2.9a11.1,11.1,0,0,0,4.028-.736q1.91-.736,2.048-1.887l-.046.414a3.25,3.25,0,0,1-1.91,2.578,9.531,9.531,0,0,1-4.12.783,9.656,9.656,0,0,1-4.166-.783,3.25,3.25,0,0,1-1.91-2.578l-.046-.414q.138,1.151,2.048,1.887A11.225,11.225,0,0,0,14.059,11.757Zm0,2.808a8.56,8.56,0,0,0,3.659-.783Q19.4,13,19.583,11.8l-.046.276a3.836,3.836,0,0,1-1.8,2.785,6.966,6.966,0,0,1-3.682.9,7.062,7.062,0,0,1-3.729-.9,3.836,3.836,0,0,1-1.8-2.785L8.489,11.8q.184,1.2,1.864,1.979A8.668,8.668,0,0,0,14.059,14.565Z" transform="translate(-0.48 16.92)"/></svg>