<svg xmlns="http://www.w3.org/2000/svg" width="279.067" height="283.638" viewBox="0 0 279.067 283.638"><defs><style>.a{fill:#62e6ac;}</style></defs><g transform="translate(63.615 -0.001) rotate(16)"><g transform="translate(0.002 0.001)"><path class="a" d="M169.953,5.857A9.485,9.485,0,0,1,177.59.063a9.2,9.2,0,0,1,8.983,4.678c.205.3.365.919.861.709a23.828,23.828,0,0,1,11.011.046,21.722,21.722,0,0,1,10.672,6.458A22.011,22.011,0,0,1,214.8,26.476a9.783,9.783,0,0,1,6.243,2.666,9.161,9.161,0,0,1,2.036,10.169,18.836,18.836,0,0,0-1.172,2.32,22.647,22.647,0,0,1,1.553,15.249,22.064,22.064,0,0,1-3.693,7.729l.065.252a9.669,9.669,0,0,1,3.564,4.886,9.159,9.159,0,0,1-2.594,9.537,12.162,12.162,0,0,1-3.838,2.149,26.116,26.116,0,0,1,1.089,9.25,21.864,21.864,0,0,1-10.451,16.9,3.272,3.272,0,0,0,.9.928,21.886,21.886,0,0,1,7.6,11.642,23.98,23.98,0,0,1-.838,13.945,9.516,9.516,0,0,1,4.321,5.915A9.232,9.232,0,0,1,216.651,149a13.305,13.305,0,0,1-3.942,2.119,21.384,21.384,0,0,1-4.667,12.258c-.2.3-.637.642-.351,1.043a22.434,22.434,0,0,1-3.1,24.626c-.57.653-1.251,1.2-1.789,1.879a4.57,4.57,0,0,0,.755,1.3c.565.748.932,1.793,1.941,2.04a9.14,9.14,0,0,1,4.434,14.226,12.861,12.861,0,0,1-3.328,2.8,17.255,17.255,0,0,0-1.189,2.481A21.612,21.612,0,0,1,193.6,224.948a22.69,22.69,0,0,1-16.955-.3,10.836,10.836,0,0,1-3.981,4.824,9.322,9.322,0,0,1-10.409-.545,10.309,10.309,0,0,1-3.307-4.831,26.093,26.093,0,0,1-9.855,1.683,21.723,21.723,0,0,1-14.72-6.672c-.794-.785-1.431-1.706-2.17-2.539a15.545,15.545,0,0,0-1.334,1.761,21.686,21.686,0,0,1-14.658,8.609,22.294,22.294,0,0,1-14-2.781,10.676,10.676,0,0,1-5.488,2.58,9.232,9.232,0,0,1-8.7-3.9,32.98,32.98,0,0,1-5.853,3.744,22.174,22.174,0,0,1-20.043-1.1c-.861-.522-1.9-.286-2.848-.385a22.35,22.35,0,0,1-12.742-4.907c-.323-.355-.778-.145-1.131.023A22.059,22.059,0,0,1,30.8,221.89a21.67,21.67,0,0,1-13.008-8.775c-.125-.134-.365-.4-.485-.536a34.024,34.024,0,0,1-4.681-.182A15.279,15.279,0,0,1,1.49,203.961a15.622,15.622,0,0,1-.775-11.337,16.478,16.478,0,0,1,3.674-6.116c.055-.54-.312-1.029-.459-1.53a23.4,23.4,0,0,1-.951-12.763,10.117,10.117,0,0,1-2.14-6.151,9.112,9.112,0,0,1,7.423-8.9c0-1.856-.245-3.778.469-5.546.362-1.244,1.325-2.16,1.879-3.3a12.011,12.011,0,0,1-6.273-19.463,24.617,24.617,0,0,1,.718-12.447c.646-1.459.385-3.088.662-4.623a11.888,11.888,0,0,1,6.255-8.4c.745-.233.5-1.131.6-1.724a28.566,28.566,0,0,1,1.687-7.545,21.939,21.939,0,0,1-2.747-31.987c-.505-.817-1.119-1.565-1.579-2.412a9.01,9.01,0,0,1,.355-9.2,10.687,10.687,0,0,1,3.658-3.42A22.608,22.608,0,0,1,9.187,33.342a21.773,21.773,0,0,1,8.731-17.488,28.682,28.682,0,0,1,5.911-3.261A9.271,9.271,0,0,1,31.418,5.9,9.678,9.678,0,0,1,39.8,9.023c1.046-.143,2.006-.764,3.072-.923a12.152,12.152,0,0,1,10.681,2.873,23.44,23.44,0,0,1,15.337,1.142,22.385,22.385,0,0,1,7.933,6.158c.33.3.621.951,1.175.7a24.723,24.723,0,0,1,10.739-.3c.589.15,1.018-.42,1.491-.669A22.549,22.549,0,0,1,102.6,14.14a9.321,9.321,0,0,1,3.815-6.026A9.146,9.146,0,0,1,113.546,6.7c.6.062,1.3.45,1.8-.069A22.111,22.111,0,0,1,128.88,2.155a21.81,21.81,0,0,1,18.762,10.88c.18.217.339.877.734.579a24.992,24.992,0,0,1,7.349-5.844A23.131,23.131,0,0,1,169.953,5.857Zm-9.41,11.023a11.075,11.075,0,1,0,7.873,1.145A11.424,11.424,0,0,0,160.544,16.88Zm35.585,4.348a2.2,2.2,0,0,0,.053,3.979c1.394.669,2.95-.87,2.666-2.287A1.992,1.992,0,0,0,196.128,21.228Zm-76.951,3.94a2.2,2.2,0,0,0-.222,3.993,1.992,1.992,0,0,0,2.783-1.946A2.015,2.015,0,0,0,119.177,25.168ZM56.684,26.409a2.233,2.233,0,0,0-.148,3.552,1.984,1.984,0,0,0,3.16-1.516A2.021,2.021,0,0,0,56.684,26.409Zm87.962.028a1.186,1.186,0,0,0-.739,1.348,1.1,1.1,0,0,0,1.828.66C146.647,27.711,145.807,25.982,144.646,26.437ZM25.385,35.9a3.976,3.976,0,0,0-1.523,6.209,3.468,3.468,0,0,0,4.861.505,4.1,4.1,0,0,0,1.011-4.838A3.571,3.571,0,0,0,25.385,35.9Zm25.446.93A25.164,25.164,0,0,0,32.394,50.283,25.162,25.162,0,0,0,70.342,81.464,25.154,25.154,0,0,0,50.831,36.828Zm45.7,1.237a1.213,1.213,0,0,0-.053,2.276,1.117,1.117,0,0,0,1.431-.916A1.147,1.147,0,0,0,96.527,38.065Zm49.336,8.057a3.884,3.884,0,0,0,.782,7.533,3.671,3.671,0,0,0,3.748-4.076A3.621,3.621,0,0,0,145.862,46.122ZM152.583,59.5a81.689,81.689,0,0,0-16.821,12.279,176.106,176.106,0,0,0-21.637,24.975c-.279.286-.494.755-.926.805-2.74.3-5.47.69-8.2,1.043-.6.012-.845.612-1.191.992-5.05,6.559-9.728,13.571-12.583,21.391.106-.042.328-.122.434-.162,3.305-2.139,6.606-4.658,10.559-5.4-.452,1.085-1.066,2.1-1.436,3.224A793.834,793.834,0,0,0,43.8,180.286c-1.953,2.423-4.087,4.72-5.895,7.254,1.456-.956,2.7-2.193,4.074-3.268,5.08-4.2,10.1-8.473,15.094-12.779,17.185-14.935,33.99-30.343,49.7-46.827,1.136-.469,2.211-1.106,3.379-1.5-.561,2.973-2.2,5.6-3.776,8.133a18.625,18.625,0,0,0-1.779,2.913,58.069,58.069,0,0,0,12.119-6.052,79.109,79.109,0,0,0,10.121-7.309c.482-2.783.692-5.608,1.136-8.394,0-.512.45-.769.805-1.048a186.755,186.755,0,0,0,18.547-15.475c8.9-8.318,16.941-17.949,21.529-29.358,1.588-4.157,2.966-8.517,2.968-13.008C165.028,53.8,158.536,56.362,152.583,59.5Zm44.734,2.391a1.35,1.35,0,0,0-.446,1.844c.616.739,2.082.374,2.008-.679A1.1,1.1,0,0,0,197.317,61.895ZM108.2,65.082c-1.219.554-.418,2.864.939,2.176C110.465,66.709,109.569,64.431,108.2,65.082ZM92.492,77.864a3.781,3.781,0,0,0-2.548,3.6,3.614,3.614,0,1,0,7.166-.309A3.633,3.633,0,0,0,92.492,77.864ZM31.24,94.444a1.243,1.243,0,0,0,.231,2.07,1.154,1.154,0,1,0-.231-2.07Zm150.147,3.649a3.668,3.668,0,1,0,4.909,2.68A3.682,3.682,0,0,0,181.387,98.093ZM72.62,107.907a1.24,1.24,0,0,0,.231,2.1,1.145,1.145,0,0,0,1.523-1.244A1.133,1.133,0,0,0,72.62,107.907Zm83.637,3.056a2.227,2.227,0,0,0-.021,3.854,1.983,1.983,0,0,0,2.823-1.479A2.052,2.052,0,0,0,156.258,110.963ZM50.54,113.79c-1.6.646-1.595,3.4.076,3.956a2.08,2.08,0,1,0-.076-3.956ZM36.454,126.953a1.161,1.161,0,0,0-.752,1.655,1.084,1.084,0,0,0,2.033-.076A1.146,1.146,0,0,0,36.454,126.953Zm137.3,7.081a2.213,2.213,0,0,0-.526,3.907,1.972,1.972,0,0,0,2.97-1.613A2.008,2.008,0,0,0,173.757,134.034Zm18.988,9.435a1.208,1.208,0,0,0-.06,2.1,1.062,1.062,0,0,0,1.6-.979A1.074,1.074,0,0,0,192.745,143.469Zm-146.853,2.98c-1.32.492-.7,2.781.709,2.292C47.966,148.313,47.327,145.984,45.891,146.448Zm87.09.06a1.334,1.334,0,0,0-.355,1.659,1.128,1.128,0,0,0,2.029-.282A1.16,1.16,0,0,0,132.981,146.508Zm13.193,5.655a15.687,15.687,0,0,0-10.217,5.952,15.357,15.357,0,0,0-3.236,9.477,15.707,15.707,0,0,0,28.192,9.664,15.7,15.7,0,0,0,3.021-11.988,15.723,15.723,0,0,0-17.76-13.1ZM20.487,157.619c-3.141,1.11-3.067,6.245.111,7.263,2.486.949,5.1-1.53,4.72-4.037A3.644,3.644,0,0,0,20.487,157.619Zm54.231,10.356A8.694,8.694,0,0,0,72.3,184.016a8.695,8.695,0,1,0,2.421-16.041Zm17.8.259a1.23,1.23,0,0,0,.254,2.112,1.158,1.158,0,1,0-.254-2.112Zm88.86.642a3.7,3.7,0,0,0-2.35,2.668,3.811,3.811,0,0,0,2.943,4.8,3.7,3.7,0,0,0,4.076-4.161A3.619,3.619,0,0,0,181.378,168.875ZM112.154,185.19a2.194,2.194,0,0,0-.75,3.827,1.975,1.975,0,0,0,3.1-1.2A2.091,2.091,0,0,0,112.154,185.19Zm-92.62,1.154a2.233,2.233,0,0,0,.007,3.9,2,2,0,0,0,2.8-1.816A2.034,2.034,0,0,0,19.534,186.344Zm43.573,10.769a1.188,1.188,0,0,0-.549,1.851,1.059,1.059,0,0,0,1.763-.007C64.992,198.161,64.134,196.7,63.107,197.113Zm119.829-.062a1.242,1.242,0,0,0,.529,2.146,1.123,1.123,0,0,0,1.265-1.239A1.135,1.135,0,0,0,182.936,197.051Zm-25.157,1.59a2.191,2.191,0,0,0-.949,3.173,1.961,1.961,0,0,0,3.494-.316C161.088,199.968,159.433,197.91,157.779,198.641Zm-38.267,4.3c-.87.48-.591,2.19.5,2.163a1.153,1.153,0,1,0-.5-2.163Zm-27.336,1.507a3.574,3.574,0,0,0-2.34,1.953,3.924,3.924,0,0,0,2.17,5.456c2.223.833,4.664-1.235,4.6-3.513A3.67,3.67,0,0,0,92.176,204.451Z" transform="translate(-0.002 -0.001)"/></g><path class="a" d="M72.5,28.886a28.617,28.617,0,0,1,4.053-2.373,41.52,41.52,0,0,0,2.382,3.478,14.512,14.512,0,0,1-2.195,1.888q-7.848,6.2-15.106,13.114a5.039,5.039,0,0,1-1.491,1.216,14.967,14.967,0,0,1-2.308-4.651c-.231-.462.277-.775.524-1.082A90.9,90.9,0,0,1,72.5,28.886Z" transform="translate(75.566 34.678)"/><path class="a" d="M78.22,31.378c.212-.215.452-.817.84-.5,1.046.711,2.045,1.5,3.137,2.137a1.779,1.779,0,0,1-.24.845,86.1,86.1,0,0,1-13.8,17.495c-.256.2-.524.6-.9.441a15.584,15.584,0,0,1-4.637-2.361A234.03,234.03,0,0,0,78.22,31.378Z" transform="translate(81.904 40.268)"/><path class="a" d="M67.07,36.155c.279-.385.745-.127.926.205a43.737,43.737,0,0,0,6.5,6.423A221.9,221.9,0,0,1,57.972,58.33a35.483,35.483,0,0,1-5.592-5.449c-.282-.312-.429-.78-.035-1.076C57.061,46.41,61.949,41.163,67.07,36.155Z" transform="translate(68.15 47.038)"/><path class="a" d="M44.336,63.619a162.433,162.433,0,0,1,13.94-22.081c.683,1.152,1.438,2.26,2.165,3.384-.076.436-.469.729-.713,1.078C54.7,51.864,50.009,58,45.462,64.235,45.019,64.8,44.6,63.912,44.336,63.619Z" transform="translate(57.988 54.33)"/><path class="a" d="M46.2,61.65c6.633-4.925,13.239-9.913,19.5-15.318,1.2.748,2.368,1.551,3.626,2.209-2.146,1.823-4.542,3.33-6.836,4.962A131.008,131.008,0,0,1,47.547,62.25C47,62.659,46.46,62.119,46.2,61.65Z" transform="translate(60.425 60.601)"/><path class="a" d="M51.212,61.625c3.233-3.448,6.49-6.892,10.026-10.042.471.466,1.3.886,1.382,1.567-1.613,2.331-3.642,4.371-5.128,6.781C59.814,58.306,62,56.476,64.285,54.8c.669.168,1.112.833,1.493,1.382a266.325,266.325,0,0,1-32.836,28.85,7.965,7.965,0,0,1-2.061,1.339c1.95-2.915,4.2-5.625,6.347-8.4C41.689,72.357,46.342,66.89,51.212,61.625Z" transform="translate(40.389 67.469)"/></g></svg>