<svg xmlns="http://www.w3.org/2000/svg" xmlns:xlink="http://www.w3.org/1999/xlink" width="66" height="66" viewBox="0 0 66 66"><defs><style>.a,.b{fill-rule:evenodd;}.a{fill:url(#a);}.b{fill:url(#b);}.c{fill:none;}.d{fill:#09f;}.e{fill:#0080d6;}.f{fill:#fff;}</style><linearGradient id="a" x1="0.5" x2="0.5" y2="1" gradientUnits="objectBoundingBox"><stop offset="0" stop-color="#77c8ff"/><stop offset="1" stop-color="#0599ff"/></linearGradient><linearGradient id="b" x1="0.5" x2="0.5" y2="1" gradientUnits="objectBoundingBox"><stop offset="0" stop-color="#41b2ff"/><stop offset="1" stop-color="#4ab5ff"/></linearGradient></defs><g transform="translate(0.903 0.903)"><path class="a" d="M30.457,1h7.086c8.307,0,12.762,1.149,16.8,3.306a22.489,22.489,0,0,1,9.356,9.356C65.851,17.695,67,22.15,67,30.457v7.086c0,8.307-1.149,12.762-3.306,16.8a22.489,22.489,0,0,1-9.356,9.356C50.305,65.851,45.85,67,37.543,67H30.457c-8.307,0-12.762-1.149-16.8-3.306a22.489,22.489,0,0,1-9.356-9.356C2.149,50.305,1,45.85,1,37.543V30.457c0-8.307,1.149-12.762,3.306-16.8a22.489,22.489,0,0,1,9.356-9.356C17.695,2.149,22.15,1,30.457,1Z" transform="translate(-1.903 -1.903)"/><path class="b" d="M27.325,1h6.333c7.424,0,11.405,1.027,15.01,2.954a20.1,20.1,0,0,1,8.361,8.361c1.928,3.6,2.954,7.586,2.954,15.01v6.333c0,7.424-1.027,11.405-2.954,15.01a20.1,20.1,0,0,1-8.361,8.361c-3.6,1.928-7.586,2.954-15.01,2.954H27.325c-7.424,0-11.405-1.027-15.01-2.954a20.1,20.1,0,0,1-8.361-8.361C2.027,45.063,1,41.082,1,33.658V27.325C1,19.9,2.027,15.92,3.954,12.315a20.1,20.1,0,0,1,8.361-8.361C15.92,2.027,19.9,1,27.325,1Z" transform="translate(1.605 1.605)"/><g transform="translate(12.122 14.122)"><path class="c" d="M0,0H39.949V39.949H0Z"/><path class="d" d="M18.646,2A16.646,16.646,0,1,1,2,18.646,16.645,16.645,0,0,1,18.646,2Zm0,6.658a9.987,9.987,0,1,0,9.987,9.987A9.987,9.987,0,0,0,18.646,8.658Zm0,2.913a4.161,4.161,0,0,1,3.129,6.9,3.962,3.962,0,0,1,1.531,3.083,4.434,4.434,0,0,1-4.661,4.161,4.434,4.434,0,0,1-4.661-4.161,3.968,3.968,0,0,1,1.531-3.084,4.161,4.161,0,0,1,3.129-6.9Zm0,8.323a1.974,1.974,0,0,0-2.164,1.665,1.974,1.974,0,0,0,2.164,1.665,1.974,1.974,0,0,0,2.164-1.665A1.974,1.974,0,0,0,18.646,19.894Zm0-5.826a1.665,1.665,0,1,0,1.665,1.665A1.665,1.665,0,0,0,18.646,14.068Z" transform="translate(1.329 1.329)"/></g><g transform="translate(12.122 13.122)"><path class="c" d="M0,0H39.949V39.949H0Z"/><path class="e" d="M18.646,2A16.646,16.646,0,1,1,2,18.646,16.645,16.645,0,0,1,18.646,2Zm0,6.658a9.987,9.987,0,1,0,9.987,9.987A9.987,9.987,0,0,0,18.646,8.658Zm0,2.913a4.161,4.161,0,0,1,3.129,6.9,3.962,3.962,0,0,1,1.531,3.083,4.434,4.434,0,0,1-4.661,4.161,4.434,4.434,0,0,1-4.661-4.161,3.968,3.968,0,0,1,1.531-3.084,4.161,4.161,0,0,1,3.129-6.9Zm0,8.323a1.974,1.974,0,0,0-2.164,1.665,1.974,1.974,0,0,0,2.164,1.665,1.974,1.974,0,0,0,2.164-1.665A1.974,1.974,0,0,0,18.646,19.894Zm0-5.826a1.665,1.665,0,1,0,1.665,1.665A1.665,1.665,0,0,0,18.646,14.068Z" transform="translate(1.329 1.329)"/></g><g transform="translate(12.122 12.122)"><path class="c" d="M0,0H39.949V39.949H0Z"/><path class="f" d="M18.646,2A16.646,16.646,0,1,1,2,18.646,16.645,16.645,0,0,1,18.646,2Zm0,6.658a9.987,9.987,0,1,0,9.987,9.987A9.987,9.987,0,0,0,18.646,8.658Zm0,2.913a4.161,4.161,0,0,1,3.129,6.9,3.962,3.962,0,0,1,1.531,3.083,4.434,4.434,0,0,1-4.661,4.161,4.434,4.434,0,0,1-4.661-4.161,3.968,3.968,0,0,1,1.531-3.084,4.161,4.161,0,0,1,3.129-6.9Zm0,8.323a1.974,1.974,0,0,0-2.164,1.665,1.974,1.974,0,0,0,2.164,1.665,1.974,1.974,0,0,0,2.164-1.665A1.974,1.974,0,0,0,18.646,19.894Zm0-5.826a1.665,1.665,0,1,0,1.665,1.665A1.665,1.665,0,0,0,18.646,14.068Z" transform="translate(1.329 1.329)"/></g></g></svg>