<svg xmlns="http://www.w3.org/2000/svg" xmlns:xlink="http://www.w3.org/1999/xlink" width="110.326" height="23.772" viewBox="0 0 110.326 23.772"><defs><style>.a{fill:#191919;}.b{fill:#0599ff;}.c{clip-path:url(#a);}.d{fill:#fff;opacity:0.203;}</style><clipPath id="a"><path d="M1407,266.566v9.7a2.184,2.184,0,0,0,1.092,1.891l8.4,4.851a2.184,2.184,0,0,0,2.184,0l8.4-4.851a2.184,2.184,0,0,0,1.092-1.891v-9.7a2.184,2.184,0,0,0-1.092-1.891l-8.4-4.851a2.184,2.184,0,0,0-2.184,0l-8.4,4.851A2.184,2.184,0,0,0,1407,266.566Z" transform="translate(-1407 -259.531)"/></clipPath></defs><g transform="translate(-524.414 -17.583)"><path class="a" d="M11.22-14.58H8.02v6.5A3.537,3.537,0,0,0,5.36-9.24,4.571,4.571,0,0,0,2.2-8.04,4.871,4.871,0,0,0,.74-4.5,4.931,4.931,0,0,0,2.18-.94,4.281,4.281,0,0,0,5.32.3,3.279,3.279,0,0,0,8.02-.98V0h3.2ZM6.06-2.42a1.985,1.985,0,0,1-1.42-.6,2.02,2.02,0,0,1-.62-1.4,2.2,2.2,0,0,1,.62-1.52,1.958,1.958,0,0,1,1.42-.58,1.957,1.957,0,0,1,1.46.6,2.339,2.339,0,0,1,.6,1.44,2.144,2.144,0,0,1-.68,1.52A2.185,2.185,0,0,1,6.06-2.42ZM22.9-4.22a5.005,5.005,0,0,0-1.42-3.76A4.9,4.9,0,0,0,18.04-9.2a5.034,5.034,0,0,0-3.66,1.3,4.771,4.771,0,0,0-1.34,3.46,4.682,4.682,0,0,0,1.32,3.38A5.07,5.07,0,0,0,18.06.3,4.859,4.859,0,0,0,21.7-.94a4.019,4.019,0,0,0,1.08-1.84H19.72a1.489,1.489,0,0,1-.56.6,2.525,2.525,0,0,1-1.04.24,1.8,1.8,0,0,1-1.32-.44,2.258,2.258,0,0,1-.56-1.5H22.9Zm-6.56-1.5a1.825,1.825,0,0,1,.48-.96,1.719,1.719,0,0,1,1.3-.48,1.864,1.864,0,0,1,1.32.48,2.145,2.145,0,0,1,.52.96Zm17.04-3.2h-8.8v2.4h3.94L23.88,0h9.1V-2.4H28.76Zm1.56,0V0h2.88V-8.92Zm-.24-3.8a1.665,1.665,0,0,0,1.68,1.68,1.665,1.665,0,0,0,1.68-1.68,1.665,1.665,0,0,0-1.68-1.68A1.665,1.665,0,0,0,34.7-12.72ZM40.36,0h1.96V-4.04c0-2.72.9-2.84,1.78-2.84.74,0,1.54.06,1.54,2.2V0H47.6V-5.16a3.762,3.762,0,0,0-.52-2.34A2.815,2.815,0,0,0,44.6-8.64a2.9,2.9,0,0,0-2.28,1v-.78H40.36ZM55.98-2.84a3.041,3.041,0,0,1-.78.92,2.064,2.064,0,0,1-1.34.42,2,2,0,0,1-1.5-.54,2.783,2.783,0,0,1-.72-1.7h6.04v-.24A5.056,5.056,0,0,0,56.5-7.54a3.625,3.625,0,0,0-2.7-1.1A3.836,3.836,0,0,0,50.98-7.5a4.936,4.936,0,0,0-1.34,3.46A4.519,4.519,0,0,0,50.88-.82,3.734,3.734,0,0,0,53.72.26,4.632,4.632,0,0,0,56.2-.38a4.415,4.415,0,0,0,1.42-1.54Zm-4.2-2.5a2.207,2.207,0,0,1,.6-1.08,1.888,1.888,0,0,1,1.38-.54,1.88,1.88,0,0,1,1.32.48,2.036,2.036,0,0,1,.6,1.14Zm8.06-9.24V0h1.44V-14.58ZM70.16-2.78a3.307,3.307,0,0,1-.86,1.14,2.523,2.523,0,0,1-1.7.6,2.659,2.659,0,0,1-2.64-2.82h6.46a5.572,5.572,0,0,0-.78-3.12A3.713,3.713,0,0,0,67.5-8.5c-2.5,0-4.02,1.92-4.02,4.4A3.972,3.972,0,0,0,67.58.24,4.029,4.029,0,0,0,70.34-.78a4.966,4.966,0,0,0,1.02-1.34Zm-5.1-2.28A2.522,2.522,0,0,1,67.5-7.22a2.484,2.484,0,0,1,2.44,2.16Zm12.4-3.28a4.21,4.21,0,0,0-4.28,4.28A4.21,4.21,0,0,0,77.46.22a4.21,4.21,0,0,0,4.28-4.28A4.21,4.21,0,0,0,77.46-8.34Zm0,7.8a3.421,3.421,0,0,1-3.44-3.52,3.421,3.421,0,0,1,3.44-3.52A3.421,3.421,0,0,1,80.9-4.06,3.421,3.421,0,0,1,77.46-.54Z" transform="translate(553 36)"/><g transform="translate(-8502.586 467.583)"><path class="b" d="M1407,266.566v9.7a2.184,2.184,0,0,0,1.092,1.891l8.4,4.851a2.184,2.184,0,0,0,2.184,0l8.4-4.851a2.184,2.184,0,0,0,1.092-1.891v-9.7a2.184,2.184,0,0,0-1.092-1.891l-8.4-4.851a2.184,2.184,0,0,0-2.184,0l-8.4,4.851A2.184,2.184,0,0,0,1407,266.566Z" transform="translate(7620 -709.531)"/><g class="c" transform="translate(9027 -450)"><path class="d" d="M1407,266.566v9.7a2.184,2.184,0,0,0,1.092,1.891l8.4,4.851a2.184,2.184,0,0,0,2.184,0l8.4-4.851a2.184,2.184,0,0,0,1.092-1.891v-9.7a2.184,2.184,0,0,0-1.092-1.891l-8.4-4.851a2.184,2.184,0,0,0-2.184,0l-8.4,4.851A2.184,2.184,0,0,0,1407,266.566Z" transform="translate(-1396.855 -265.309)"/></g></g></g></svg>