<svg xmlns="http://www.w3.org/2000/svg" xmlns:xlink="http://www.w3.org/1999/xlink" width="142" height="142" viewBox="0 0 142 142"><defs><style>.a,.d,.e,.g{fill:#fff;}.a{stroke:#707070;}.b{fill:#b4e0ff;}.c{clip-path:url(#a);}.d,.e,.f,.g,.i,.j,.k{stroke:#151515;}.d{stroke-miterlimit:10;}.d,.g{stroke-width:1.143px;}.e,.f,.g,.i,.j,.k{stroke-linecap:round;stroke-linejoin:round;}.e,.f{stroke-width:0.572px;}.f,.i,.j,.k{fill:none;}.h{fill:#151515;}.i{stroke-width:1.082px;}.k{stroke-width:0.535px;}.l,.m{stroke:none;}.m{fill:#191919;}</style><clipPath id="a"><circle class="a" cx="71" cy="71" r="71" transform="translate(3234 8259)"/></clipPath></defs><g transform="translate(-3349 -8258)"><g class="b" transform="translate(3349 8258)"><path class="l" d="M 71 139 C 61.81874084472656 139 52.91370010375977 137.2024993896484 44.53226089477539 133.6574554443359 C 40.50362014770508 131.9534759521484 36.61775970458984 129.8442840576172 32.98263931274414 127.3884429931641 C 29.38128089904785 124.9554214477539 25.99461936950684 122.1611404418945 22.91674041748047 119.0832595825195 C 19.83885955810547 116.0053787231445 17.04458045959473 112.6187210083008 14.61155986785889 109.0173568725586 C 12.15571975708008 105.3822402954102 10.0465202331543 101.4963836669922 8.34253978729248 97.46774291992188 C 4.797500133514404 89.0863037109375 3 80.18125915527344 3 71 C 3 61.81874084472656 4.797500133514404 52.91370010375977 8.34253978729248 44.53226089477539 C 10.0465202331543 40.50362014770508 12.15571975708008 36.61775970458984 14.61155986785889 32.98263931274414 C 17.04458045959473 29.38128089904785 19.83885955810547 25.99461936950684 22.91674041748047 22.91674041748047 C 25.99461936950684 19.83885955810547 29.38128089904785 17.04458045959473 32.98263931274414 14.61155986785889 C 36.61775970458984 12.15571975708008 40.50362014770508 10.0465202331543 44.53226089477539 8.34253978729248 C 52.91370010375977 4.797500133514404 61.81874084472656 3 71 3 C 80.18125915527344 3 89.0863037109375 4.797500133514404 97.46774291992188 8.34253978729248 C 101.4963836669922 10.0465202331543 105.3822402954102 12.15571975708008 109.0173568725586 14.61155986785889 C 112.6187210083008 17.04458045959473 116.0053787231445 19.83885955810547 119.0832595825195 22.91674041748047 C 122.1611404418945 25.99461936950684 124.9554214477539 29.38128089904785 127.3884429931641 32.98263931274414 C 129.8442840576172 36.61775970458984 131.9534759521484 40.50362014770508 133.6574554443359 44.53226089477539 C 137.2024993896484 52.91370010375977 139 61.81874084472656 139 71 C 139 80.18125915527344 137.2024993896484 89.0863037109375 133.6574554443359 97.46774291992188 C 131.9534759521484 101.4963836669922 129.8442840576172 105.3822402954102 127.3884429931641 109.0173568725586 C 124.9554214477539 112.6187210083008 122.1611404418945 116.0053787231445 119.0832595825195 119.0832595825195 C 116.0053787231445 122.1611404418945 112.6187210083008 124.9554214477539 109.0173568725586 127.3884429931641 C 105.3822402954102 129.8442840576172 101.4963836669922 131.9534759521484 97.46774291992188 133.6574554443359 C 89.0863037109375 137.2024993896484 80.18125915527344 139 71 139 Z"/><path class="m" d="M 71 6 C 35.15888214111328 6 6 35.15888214111328 6 71 C 6 106.8411178588867 35.15888214111328 136 71 136 C 106.8411178588867 136 136 106.8411178588867 136 71 C 136 35.15888214111328 106.8411178588867 6 71 6 M 71 0 C 110.2122116088867 0 142 31.78778839111328 142 71 C 142 110.2122116088867 110.2122116088867 142 71 142 C 31.78778839111328 142 0 110.2122116088867 0 71 C 0 31.78778839111328 31.78778839111328 0 71 0 Z"/></g><g class="c" transform="translate(115 -1)"><g transform="translate(3190.599 8240.85)"><path class="d" d="M134.857,78.677s2.582-3.374,5.364-1.543,1.57,8.036-.533,11.066-5.33,4.423-6.958,1.939"/><path class="e" d="M139.719,81.025s-3.175-1.232-5.695,3.41"/><path class="e" d="M136.669,86.944"/><path class="e" d="M135.7,82.185"/><path class="d" d="M89.867,78.679S87.289,75.3,84.5,77.13s-1.579,8.034.52,11.067,5.325,4.429,6.956,1.947"/><path class="e" d="M85,81.022s3.177-1.229,5.692,3.416"/><path class="e" d="M88.045,86.944"/><path class="e" d="M89.016,82.187"/><path class="f" d="M101.283,81.711"/><path class="f" d="M124.013,82.133"/><path class="f" d="M119.3,78.584"/><path class="g" d="M98.467,104.706l.222,15.463a6.257,6.257,0,0,1-1.854,4.562,37.24,37.24,0,0,1-16.013,9.082l34.951,10.974,30.994-10.974s-11.133-3.363-16.646-7.491a7.589,7.589,0,0,1-2.969-6.063l-.066-16.291"/><path class="h" d="M98.067,104.993s3.644,10.409,11.152,14.687a12.436,12.436,0,0,0,16.2-3.166c1.845-2.527,1.661-7.243,1.661-12.713,0,0-4.421,8.912-13.384,9.284S98.067,104.993,98.067,104.993Z"/><path class="h" d="M85.664,131.047s23.127,18.044,55.96,0c0,0,15.7,3.386,24.7,17.128,0,0,8.09,12.608,8.563,18.379H53.4S59.679,138.222,85.664,131.047Z"/><path class="d" d="M135.639,68.735s-.75,44.35-23.136,44.35c-22.106,0-23.69-44.741-23.69-44.741C87.775,66.6,84.765,42.919,112.1,42.919,139.9,42.919,136.457,66.583,135.639,68.735Z"/><path class="h" d="M115.7,64.843l1.381,2.918,13.316-3.019-3.158-1.049a10.572,10.572,0,0,0-3.743.11Z"/><path class="i" d="M111.738,77.732l-1.2,8.871a2.137,2.137,0,0,0,.044.8,2.088,2.088,0,0,0,2.313,1.478l2.208-.278"/><circle class="h" cx="2.141" cy="2.141" r="2.141" transform="translate(100.586 73.917)"/><path class="h" d="M124.815,76.057a2.141,2.141,0,1,1-2.14-2.14A2.14,2.14,0,0,1,124.815,76.057Z"/><path class="i" d="M107.2,93.593a11.644,11.644,0,0,0,5.961,1.881,9.343,9.343,0,0,0,5.522-1.881"/><circle class="j" cx="8.978" cy="8.978" r="8.978" transform="translate(91.641 67.638)"/><circle class="j" cx="8.978" cy="8.978" r="8.978" transform="translate(113.697 67.638)"/><path class="k" d="M109.6,76.616s2.127-1.985,4.1,0"/><line class="k" x1="2.84" y2="0.857" transform="translate(88.813 76.175)"/><line class="k" x2="3.893" y2="0.416" transform="translate(131.653 76.616)"/><path class="h" d="M108.445,65.009l-1.382,2.918L93.747,64.908,96.9,63.86a10.577,10.577,0,0,1,3.744.109Z"/><path class="h" d="M89.255,71.836s.347-13.06,4.308-18.55,13.973-3.471,20.952-2.584,13.177-1.01,15.942.742c2.981,1.89,4.813,16.692,4.716,19.588,0,0,9.017-15.7,1.923-33.434,0,0-5.27,4.766-21.2,0s-23.137-2.439-23.026,5.819c0,0-9.51-2.375-8.413,8.262A87.7,87.7,0,0,0,89.255,71.836Z"/></g></g></g></svg>