<svg xmlns="http://www.w3.org/2000/svg" xmlns:xlink="http://www.w3.org/1999/xlink" width="66" height="66" viewBox="0 0 66 66"><defs><style>.a,.b{fill-rule:evenodd;}.a{fill:url(#a);}.b{fill:url(#b);}.c{fill:none;}.d{fill:#62dafb;}.e{fill:#57c1de;}.f{fill:#fff;}</style><linearGradient id="a" x1="0.5" x2="0.5" y2="1" gradientUnits="objectBoundingBox"><stop offset="0" stop-color="#a2ebff"/><stop offset="1" stop-color="#61dafb"/></linearGradient><linearGradient id="b" x1="0.5" x2="0.5" y2="1" gradientUnits="objectBoundingBox"><stop offset="0" stop-color="#61dafb"/><stop offset="1" stop-color="#a1eafe"/></linearGradient></defs><g transform="translate(0.903 0.903)"><path class="a" d="M30.457,1h7.086c8.307,0,12.762,1.149,16.8,3.306a22.489,22.489,0,0,1,9.356,9.356C65.851,17.695,67,22.15,67,30.457v7.086c0,8.307-1.149,12.762-3.306,16.8a22.489,22.489,0,0,1-9.356,9.356C50.305,65.851,45.85,67,37.543,67H30.457c-8.307,0-12.762-1.149-16.8-3.306a22.489,22.489,0,0,1-9.356-9.356C2.149,50.305,1,45.85,1,37.543V30.457c0-8.307,1.149-12.762,3.306-16.8a22.489,22.489,0,0,1,9.356-9.356C17.695,2.149,22.15,1,30.457,1Z" transform="translate(-1.903 -1.903)"/><path class="b" d="M27.325,1h6.333c7.424,0,11.405,1.027,15.01,2.954a20.1,20.1,0,0,1,8.361,8.361c1.928,3.6,2.954,7.586,2.954,15.01v6.333c0,7.424-1.027,11.405-2.954,15.01a20.1,20.1,0,0,1-8.361,8.361c-3.6,1.928-7.586,2.954-15.01,2.954H27.325c-7.424,0-11.405-1.027-15.01-2.954a20.1,20.1,0,0,1-8.361-8.361C2.027,45.063,1,41.082,1,33.658V27.325C1,19.9,2.027,15.92,3.954,12.315a20.1,20.1,0,0,1,8.361-8.361C15.92,2.027,19.9,1,27.325,1Z" transform="translate(1.605 1.605)"/><g transform="translate(11.943 13.943)"><path class="c" d="M0,0H40.307V40.307H0Z"/><path class="d" d="M23.3,25.536a36.742,36.742,0,0,1-2.934,3.653c2.808,2.726,5.421,4,6.869,3.164s1.651-3.737.7-7.531A37.323,37.323,0,0,1,23.3,25.536Zm-2.2.146q-1.91.079-3.822,0c.633.826,1.273,1.592,1.911,2.291Q20.148,26.925,21.1,25.682Zm8.464-13.258c4.476,1.283,7.4,3.416,7.4,5.991s-2.922,4.707-7.4,5.991c1.125,4.518.741,8.115-1.488,9.4s-5.539-.176-8.888-3.409c-3.349,3.233-6.657,4.7-8.888,3.409s-2.615-4.884-1.488-9.4c-4.476-1.283-7.4-3.416-7.4-5.991s2.922-4.707,7.4-5.991C7.69,7.907,8.074,4.31,10.3,3.023s5.539.176,8.888,3.409c3.349-3.233,6.657-4.7,8.888-3.409s2.615,4.884,1.488,9.4Zm-1.634-.417c.957-3.8.756-6.694-.694-7.531s-4.063.438-6.869,3.164A37.03,37.03,0,0,1,23.3,11.295,36.656,36.656,0,0,1,27.932,12.008ZM10.449,24.823c-.957,3.8-.756,6.694.694,7.531s4.063-.438,6.869-3.164a36.741,36.741,0,0,1-2.932-3.653,36.74,36.74,0,0,1-4.63-.714Zm6.83-13.674q1.91-.079,3.822,0Q20.2,9.963,19.191,8.859q-.957,1.048-1.911,2.291Zm-2.2.146a36.741,36.741,0,0,1,2.936-3.653c-2.81-2.726-5.425-4-6.871-3.164s-1.651,3.737-.7,7.531a37.323,37.323,0,0,1,4.63-.714Zm7.292,12.629a42.6,42.6,0,0,0,3.179-5.509,42.6,42.6,0,0,0-3.179-5.509,42.6,42.6,0,0,0-6.362,0,42.6,42.6,0,0,0-3.179,5.509,42.6,42.6,0,0,0,3.179,5.509,42.605,42.605,0,0,0,6.362,0Zm2.156-.22c1.033-.134,2.015-.307,2.939-.511q-.453-1.421-1.028-2.8-.887,1.693-1.911,3.309ZM13.853,13.125c-1.033.134-2.015.307-2.939.511.286.9.628,1.837,1.028,2.8q.887-1.693,1.911-3.309ZM10.914,23.192c.924.2,1.906.375,2.939.511q-1.024-1.614-1.911-3.309C11.542,21.354,11.2,22.292,10.914,23.192ZM9.272,22.78a36.952,36.952,0,0,1,1.7-4.367,36.952,36.952,0,0,1-1.7-4.367C5.506,15.117,3.1,16.741,3.1,18.414s2.41,3.3,6.175,4.367Zm18.2-9.145c-.924-.2-1.906-.375-2.939-.511q1.024,1.614,1.911,3.309C26.839,15.473,27.181,14.536,27.467,13.636Zm1.642.411a36.952,36.952,0,0,1-1.7,4.367,36.952,36.952,0,0,1,1.7,4.367c3.765-1.07,6.175-2.694,6.175-4.367s-2.41-3.3-6.175-4.367Zm-9.919,7.526a3.157,3.157,0,1,1,3.157-3.157A3.157,3.157,0,0,1,19.191,21.573Z" transform="translate(0.963 1.738)"/></g><g transform="translate(11.943 12.943)"><path class="c" d="M0,0H40.307V40.307H0Z"/><path class="e" d="M23.3,25.536a36.742,36.742,0,0,1-2.934,3.653c2.808,2.726,5.421,4,6.869,3.164s1.651-3.737.7-7.531A37.323,37.323,0,0,1,23.3,25.536Zm-2.2.146q-1.91.079-3.822,0c.633.826,1.273,1.592,1.911,2.291Q20.148,26.925,21.1,25.682Zm8.464-13.258c4.476,1.283,7.4,3.416,7.4,5.991s-2.922,4.707-7.4,5.991c1.125,4.518.741,8.115-1.488,9.4s-5.539-.176-8.888-3.409c-3.349,3.233-6.657,4.7-8.888,3.409s-2.615-4.884-1.488-9.4c-4.476-1.283-7.4-3.416-7.4-5.991s2.922-4.707,7.4-5.991C7.69,7.907,8.074,4.31,10.3,3.023s5.539.176,8.888,3.409c3.349-3.233,6.657-4.7,8.888-3.409s2.615,4.884,1.488,9.4Zm-1.634-.417c.957-3.8.756-6.694-.694-7.531s-4.063.438-6.869,3.164A37.03,37.03,0,0,1,23.3,11.295,36.656,36.656,0,0,1,27.932,12.008ZM10.449,24.823c-.957,3.8-.756,6.694.694,7.531s4.063-.438,6.869-3.164a36.741,36.741,0,0,1-2.932-3.653,36.74,36.74,0,0,1-4.63-.714Zm6.83-13.674q1.91-.079,3.822,0Q20.2,9.963,19.191,8.859q-.957,1.048-1.911,2.291Zm-2.2.146a36.741,36.741,0,0,1,2.936-3.653c-2.81-2.726-5.425-4-6.871-3.164s-1.651,3.737-.7,7.531a37.323,37.323,0,0,1,4.63-.714Zm7.292,12.629a42.6,42.6,0,0,0,3.179-5.509,42.6,42.6,0,0,0-3.179-5.509,42.6,42.6,0,0,0-6.362,0,42.6,42.6,0,0,0-3.179,5.509,42.6,42.6,0,0,0,3.179,5.509,42.605,42.605,0,0,0,6.362,0Zm2.156-.22c1.033-.134,2.015-.307,2.939-.511q-.453-1.421-1.028-2.8-.887,1.693-1.911,3.309ZM13.853,13.125c-1.033.134-2.015.307-2.939.511.286.9.628,1.837,1.028,2.8q.887-1.693,1.911-3.309ZM10.914,23.192c.924.2,1.906.375,2.939.511q-1.024-1.614-1.911-3.309C11.542,21.354,11.2,22.292,10.914,23.192ZM9.272,22.78a36.952,36.952,0,0,1,1.7-4.367,36.952,36.952,0,0,1-1.7-4.367C5.506,15.117,3.1,16.741,3.1,18.414s2.41,3.3,6.175,4.367Zm18.2-9.145c-.924-.2-1.906-.375-2.939-.511q1.024,1.614,1.911,3.309C26.839,15.473,27.181,14.536,27.467,13.636Zm1.642.411a36.952,36.952,0,0,1-1.7,4.367,36.952,36.952,0,0,1,1.7,4.367c3.765-1.07,6.175-2.694,6.175-4.367s-2.41-3.3-6.175-4.367Zm-9.919,7.526a3.157,3.157,0,1,1,3.157-3.157A3.157,3.157,0,0,1,19.191,21.573Z" transform="translate(0.963 1.738)"/></g><g transform="translate(11.943 11.943)"><path class="c" d="M0,0H40.307V40.307H0Z"/><path class="f" d="M23.3,25.536a36.742,36.742,0,0,1-2.934,3.653c2.808,2.726,5.421,4,6.869,3.164s1.651-3.737.7-7.531A37.323,37.323,0,0,1,23.3,25.536Zm-2.2.146q-1.91.079-3.822,0c.633.826,1.273,1.592,1.911,2.291Q20.148,26.925,21.1,25.682Zm8.464-13.258c4.476,1.283,7.4,3.416,7.4,5.991s-2.922,4.707-7.4,5.991c1.125,4.518.741,8.115-1.488,9.4s-5.539-.176-8.888-3.409c-3.349,3.233-6.657,4.7-8.888,3.409s-2.615-4.884-1.488-9.4c-4.476-1.283-7.4-3.416-7.4-5.991s2.922-4.707,7.4-5.991C7.69,7.907,8.074,4.31,10.3,3.023s5.539.176,8.888,3.409c3.349-3.233,6.657-4.7,8.888-3.409s2.615,4.884,1.488,9.4Zm-1.634-.417c.957-3.8.756-6.694-.694-7.531s-4.063.438-6.869,3.164A37.03,37.03,0,0,1,23.3,11.295,36.656,36.656,0,0,1,27.932,12.008ZM10.449,24.823c-.957,3.8-.756,6.694.694,7.531s4.063-.438,6.869-3.164a36.741,36.741,0,0,1-2.932-3.653,36.74,36.74,0,0,1-4.63-.714Zm6.83-13.674q1.91-.079,3.822,0Q20.2,9.963,19.191,8.859q-.957,1.048-1.911,2.291Zm-2.2.146a36.741,36.741,0,0,1,2.936-3.653c-2.81-2.726-5.425-4-6.871-3.164s-1.651,3.737-.7,7.531a37.323,37.323,0,0,1,4.63-.714Zm7.292,12.629a42.6,42.6,0,0,0,3.179-5.509,42.6,42.6,0,0,0-3.179-5.509,42.6,42.6,0,0,0-6.362,0,42.6,42.6,0,0,0-3.179,5.509,42.6,42.6,0,0,0,3.179,5.509,42.605,42.605,0,0,0,6.362,0Zm2.156-.22c1.033-.134,2.015-.307,2.939-.511q-.453-1.421-1.028-2.8-.887,1.693-1.911,3.309ZM13.853,13.125c-1.033.134-2.015.307-2.939.511.286.9.628,1.837,1.028,2.8q.887-1.693,1.911-3.309ZM10.914,23.192c.924.2,1.906.375,2.939.511q-1.024-1.614-1.911-3.309C11.542,21.354,11.2,22.292,10.914,23.192ZM9.272,22.78a36.952,36.952,0,0,1,1.7-4.367,36.952,36.952,0,0,1-1.7-4.367C5.506,15.117,3.1,16.741,3.1,18.414s2.41,3.3,6.175,4.367Zm18.2-9.145c-.924-.2-1.906-.375-2.939-.511q1.024,1.614,1.911,3.309C26.839,15.473,27.181,14.536,27.467,13.636Zm1.642.411a36.952,36.952,0,0,1-1.7,4.367,36.952,36.952,0,0,1,1.7,4.367c3.765-1.07,6.175-2.694,6.175-4.367s-2.41-3.3-6.175-4.367Zm-9.919,7.526a3.157,3.157,0,1,1,3.157-3.157A3.157,3.157,0,0,1,19.191,21.573Z" transform="translate(0.963 1.738)"/></g></g></svg>