<svg xmlns="http://www.w3.org/2000/svg" xmlns:xlink="http://www.w3.org/1999/xlink" width="66" height="66" viewBox="0 0 66 66"><defs><style>.a,.b{fill-rule:evenodd;}.a{fill:url(#a);}.b{fill:url(#b);}.c{fill:none;}.d{fill:#ea4c89;}.e{fill:#d0457a;}.f{fill:#fff;}</style><linearGradient id="a" x1="0.5" x2="0.5" y2="1" gradientUnits="objectBoundingBox"><stop offset="0" stop-color="#ea87ad"/><stop offset="1" stop-color="#ea4c89"/></linearGradient><linearGradient id="b" x1="0.5" x2="0.5" y2="1" gradientUnits="objectBoundingBox"><stop offset="0" stop-color="#ea4c89"/><stop offset="1" stop-color="#e87ea7"/></linearGradient></defs><g transform="translate(0.903 0.903)"><path class="a" d="M30.457,1h7.086c8.307,0,12.762,1.149,16.8,3.306a22.489,22.489,0,0,1,9.356,9.356C65.851,17.695,67,22.15,67,30.457v7.086c0,8.307-1.149,12.762-3.306,16.8a22.489,22.489,0,0,1-9.356,9.356C50.305,65.851,45.85,67,37.543,67H30.457c-8.307,0-12.762-1.149-16.8-3.306a22.489,22.489,0,0,1-9.356-9.356C2.149,50.305,1,45.85,1,37.543V30.457c0-8.307,1.149-12.762,3.306-16.8a22.489,22.489,0,0,1,9.356-9.356C17.695,2.149,22.15,1,30.457,1Z" transform="translate(-1.903 -1.903)"/><path class="b" d="M27.325,1h6.333c7.424,0,11.405,1.027,15.01,2.954a20.1,20.1,0,0,1,8.361,8.361c1.928,3.6,2.954,7.586,2.954,15.01v6.333c0,7.424-1.027,11.405-2.954,15.01a20.1,20.1,0,0,1-8.361,8.361c-3.6,1.928-7.586,2.954-15.01,2.954H27.325c-7.424,0-11.405-1.027-15.01-2.954a20.1,20.1,0,0,1-8.361-8.361C2.027,45.063,1,41.082,1,33.658V27.325C1,19.9,2.027,15.92,3.954,12.315a20.1,20.1,0,0,1,8.361-8.361C15.92,2.027,19.9,1,27.325,1Z" transform="translate(1.605 1.605)"/><g transform="translate(12.997 14.997)"><path class="c" d="M0,0H38.2V38.2H0Z"/><path class="d" d="M30.632,17.235a12.669,12.669,0,0,0-2.5-6.925,15.517,15.517,0,0,1-1.464,1.385,20.941,20.941,0,0,1-5.273,3.2c.266.557.509,1.1.724,1.606v0q.091.213.175.43A30.55,30.55,0,0,1,29.7,17.1c.328.045.637.092.93.14ZM15.694,5.377a73.478,73.478,0,0,1,4.285,6.8A17.676,17.676,0,0,0,24.83,9.361,12.542,12.542,0,0,0,26.1,8.16a12.682,12.682,0,0,0-8.181-2.976,12.813,12.813,0,0,0-2.222.193ZM5.586,14.728q1.626-.041,3.247-.2a50.185,50.185,0,0,0,7.739-1.308q-1.992-3.461-4.3-6.728a12.762,12.762,0,0,0-6.688,8.232Zm2.435,11.2a22.717,22.717,0,0,1,2.507-3.023,20.092,20.092,0,0,1,8.206-5.236l.1-.029c-.263-.579-.509-1.1-.758-1.584a47.888,47.888,0,0,1-9.068,1.658c-1.5.135-2.838.194-3.825.2A12.681,12.681,0,0,0,8.023,25.93ZM22.7,29.718a57.214,57.214,0,0,0-2.6-9.087A20.18,20.18,0,0,0,12.414,25.5a15.55,15.55,0,0,0-2.1,2.634A12.753,12.753,0,0,0,22.7,29.721Zm2.981-1.711a12.73,12.73,0,0,0,4.754-7.751,19.429,19.429,0,0,0-1.982-.376,19.136,19.136,0,0,0-5.061-.053,62.658,62.658,0,0,1,2.289,8.181Zm-7.764,5.825A15.916,15.916,0,1,1,33.833,17.916,15.916,15.916,0,0,1,17.916,33.833Z" transform="translate(1.183 1.183)"/></g><g transform="translate(12.997 13.997)"><path class="c" d="M0,0H38.2V38.2H0Z"/><path class="e" d="M30.632,17.235a12.669,12.669,0,0,0-2.5-6.925,15.517,15.517,0,0,1-1.464,1.385,20.941,20.941,0,0,1-5.273,3.2c.266.557.509,1.1.724,1.606v0q.091.213.175.43A30.55,30.55,0,0,1,29.7,17.1c.328.045.637.092.93.14ZM15.694,5.377a73.478,73.478,0,0,1,4.285,6.8A17.676,17.676,0,0,0,24.83,9.361,12.542,12.542,0,0,0,26.1,8.16a12.682,12.682,0,0,0-8.181-2.976,12.813,12.813,0,0,0-2.222.193ZM5.586,14.728q1.626-.041,3.247-.2a50.185,50.185,0,0,0,7.739-1.308q-1.992-3.461-4.3-6.728a12.762,12.762,0,0,0-6.688,8.232Zm2.435,11.2a22.717,22.717,0,0,1,2.507-3.023,20.092,20.092,0,0,1,8.206-5.236l.1-.029c-.263-.579-.509-1.1-.758-1.584a47.888,47.888,0,0,1-9.068,1.658c-1.5.135-2.838.194-3.825.2A12.681,12.681,0,0,0,8.023,25.93ZM22.7,29.718a57.214,57.214,0,0,0-2.6-9.087A20.18,20.18,0,0,0,12.414,25.5a15.55,15.55,0,0,0-2.1,2.634A12.753,12.753,0,0,0,22.7,29.721Zm2.981-1.711a12.73,12.73,0,0,0,4.754-7.751,19.429,19.429,0,0,0-1.982-.376,19.136,19.136,0,0,0-5.061-.053,62.658,62.658,0,0,1,2.289,8.181Zm-7.764,5.825A15.916,15.916,0,1,1,33.833,17.916,15.916,15.916,0,0,1,17.916,33.833Z" transform="translate(1.183 1.183)"/></g><g transform="translate(12.997 12.997)"><path class="c" d="M0,0H38.2V38.2H0Z"/><path class="f" d="M30.632,17.235a12.669,12.669,0,0,0-2.5-6.925,15.517,15.517,0,0,1-1.464,1.385,20.941,20.941,0,0,1-5.273,3.2c.266.557.509,1.1.724,1.606v0q.091.213.175.43A30.55,30.55,0,0,1,29.7,17.1c.328.045.637.092.93.14ZM15.694,5.377a73.478,73.478,0,0,1,4.285,6.8A17.676,17.676,0,0,0,24.83,9.361,12.542,12.542,0,0,0,26.1,8.16a12.682,12.682,0,0,0-8.181-2.976,12.813,12.813,0,0,0-2.222.193ZM5.586,14.728q1.626-.041,3.247-.2a50.185,50.185,0,0,0,7.739-1.308q-1.992-3.461-4.3-6.728a12.762,12.762,0,0,0-6.688,8.232Zm2.435,11.2a22.717,22.717,0,0,1,2.507-3.023,20.092,20.092,0,0,1,8.206-5.236l.1-.029c-.263-.579-.509-1.1-.758-1.584a47.888,47.888,0,0,1-9.068,1.658c-1.5.135-2.838.194-3.825.2A12.681,12.681,0,0,0,8.023,25.93ZM22.7,29.718a57.214,57.214,0,0,0-2.6-9.087A20.18,20.18,0,0,0,12.414,25.5a15.55,15.55,0,0,0-2.1,2.634A12.753,12.753,0,0,0,22.7,29.721Zm2.981-1.711a12.73,12.73,0,0,0,4.754-7.751,19.429,19.429,0,0,0-1.982-.376,19.136,19.136,0,0,0-5.061-.053,62.658,62.658,0,0,1,2.289,8.181Zm-7.764,5.825A15.916,15.916,0,1,1,33.833,17.916,15.916,15.916,0,0,1,17.916,33.833Z" transform="translate(1.183 1.183)"/></g></g></svg>