<svg xmlns="http://www.w3.org/2000/svg" width="153.869" height="137.031" viewBox="0 0 153.869 137.031"><defs><style>.a{fill:#e1e1e1;}.b{fill:#72d7d1;}.c{fill:#ff6a6a;}</style></defs><g transform="translate(-801.065 -4880.185)"><path class="a" d="M-14.412,0V-16.008h-3.216V-8.5a11.027,11.027,0,0,0,.24,2.16l-3.936-9.672h-3V0h3.168V-7.824a9.382,9.382,0,0,0-.168-1.824L-17.388,0ZM-4.4-5.352c0-2.664-.84-5.568-4.032-5.568-3.072,0-4.08,2.976-4.08,5.568S-11.508.216-8.436.216C-5.268.216-4.4-2.712-4.4-5.352Zm-3.024,0c0,.648-.072,2.88-1.008,2.88-.984,0-1.056-2.184-1.056-2.88s.072-2.88,1.056-2.88C-7.5-8.232-7.428-6-7.428-5.352Zm9.144-2.88v-2.5H.492v-3.048h-3v3.048H-3.54v2.5h1.032V0h3V-8.232Zm4.464-6a1.885,1.885,0,0,0-1.9-1.9,1.885,1.885,0,0,0-1.9,1.9,1.885,1.885,0,0,0,1.9,1.9A1.885,1.885,0,0,0,6.18-14.232ZM5.772,0V-10.728h-3V0Zm9.7-5.352c0-2.664-.84-5.568-4.032-5.568-3.072,0-4.08,2.976-4.08,5.568S8.364.216,11.436.216C14.6.216,15.468-2.712,15.468-5.352Zm-3.024,0c0,.648-.072,2.88-1.008,2.88-.984,0-1.056-2.184-1.056-2.88s.072-2.88,1.056-2.88C12.372-8.232,12.444-6,12.444-5.352ZM24.612,0V-7.752c0-1.44-.144-3.168-1.992-3.168a2.879,2.879,0,0,0-2.544,1.872v-1.68h-3V0h3V-6.216c0-.6-.048-1.7.816-1.7.7,0,.72.864.72,1.344V0Z" transform="translate(878 5017)"/><path class="b" d="M13.842,18,12.6,5.994H9.4l-.954,7.092L7.272,5.994H4.14L3.1,18H5.634l.378-8.64.144,1.4a15.031,15.031,0,0,0,.306,1.8L7.578,18H9.4l1.062-5.868a23.824,23.824,0,0,0,.36-2.772L11.412,18Zm6.966-4.014c0-2-.63-4.176-3.024-4.176-2.3,0-3.06,2.232-3.06,4.176s.756,4.176,3.06,4.176C20.16,18.162,20.808,15.966,20.808,13.986Zm-2.268,0c0,.486-.054,2.16-.756,2.16-.738,0-.792-1.638-.792-2.16s.054-2.16.792-2.16C18.486,11.826,18.54,13.5,18.54,13.986Zm8.136-3.492a3.386,3.386,0,0,0-2.142-.684,2.421,2.421,0,0,0-2.682,2.376c0,2.43,2.628,2.286,2.628,3.294a.667.667,0,0,1-.72.666,1.73,1.73,0,0,1-1.1-.5l-.99,1.6a3.92,3.92,0,0,0,2.448.918,2.546,2.546,0,0,0,2.538-2.79c0-2.43-2.52-2.232-2.52-3.2a.548.548,0,0,1,.576-.576,1.53,1.53,0,0,1,1.062.54ZM31.3,11.826V9.954h-.918V7.668h-2.25V9.954H27.36v1.872h.774V18h2.25V11.826Zm5.166-5.832V18h2.376V13.068c2.376.18,4.158-.99,4.158-3.51A3.571,3.571,0,0,0,41.364,6.39a3.7,3.7,0,0,0-2.016-.4Zm2.376,5.076V7.92h.414c1.062,0,1.386.666,1.386,1.62,0,1.152-.576,1.53-1.656,1.53Zm10.8,2.916c0-2-.63-4.176-3.024-4.176-2.3,0-3.06,2.232-3.06,4.176s.756,4.176,3.06,4.176C49,18.162,49.644,15.966,49.644,13.986Zm-2.268,0c0,.486-.054,2.16-.756,2.16-.738,0-.792-1.638-.792-2.16s.054-2.16.792-2.16C47.322,11.826,47.376,13.5,47.376,13.986Zm13.1-4.032H58.356c-.4,1.584-.81,3.15-1.134,4.734-.27-1.6-.666-3.168-1.026-4.734H54.27l-1.062,4.734c-.27-1.6-.7-3.168-1.1-4.734H49.932L52.2,18h1.872a40.66,40.66,0,0,0,1.116-5.04A44.669,44.669,0,0,0,56.412,18h1.854Zm4,5.274a1.926,1.926,0,0,1-.342,1.1.709.709,0,0,1-.45.144.606.606,0,0,1-.468-.216,2.385,2.385,0,0,1-.324-1.422,3.473,3.473,0,0,1,.018-.45h3.564a6.059,6.059,0,0,0,.054-.792,4.5,4.5,0,0,0-1.044-3.132,2.387,2.387,0,0,0-1.728-.648,2.482,2.482,0,0,0-1.836.738,5.236,5.236,0,0,0-1.17,3.636,4.458,4.458,0,0,0,1.1,3.258,2.483,2.483,0,0,0,1.926.72,2.253,2.253,0,0,0,1.746-.63,3.649,3.649,0,0,0,.864-2.3ZM62.946,13a2.2,2.2,0,0,1,.342-1.26.722.722,0,0,1,.5-.216.671.671,0,0,1,.414.162A2.039,2.039,0,0,1,64.566,13Zm8.874-3.33a2.47,2.47,0,0,0-1.854,1.278v-.99h-2.25V18h2.25V13.734c0-1.17.18-1.926,1.53-1.926a1.983,1.983,0,0,1,.324.036Zm4.716,2.16V9.954H75.51V7.9c0-.45.054-.99.63-.99a.791.791,0,0,1,.4.126V4.878a3,3,0,0,0-.972-.18,2.27,2.27,0,0,0-2.07,1.08,3.114,3.114,0,0,0-.234,1.458V9.954h-.828v1.872h.828V18h2.25V11.826ZM82.98,9.954H80.712v4.608c0,.432.126,1.512-.558,1.512-.54,0-.558-.774-.558-1.17V9.954h-2.25v5.562A2.47,2.47,0,0,0,77.67,16.9a2.89,2.89,0,0,0,2.466,1.26A2.941,2.941,0,0,0,82.6,16.92a2.526,2.526,0,0,0,.378-1.53ZM86.67,18V4.878H84.42V18ZM11.556,26.994V39h2.376V34.068c2.376.18,4.158-.99,4.158-3.51a3.571,3.571,0,0,0-1.638-3.168,3.7,3.7,0,0,0-2.016-.4Zm2.376,5.076V28.92h.414c1.062,0,1.386.666,1.386,1.62,0,1.152-.576,1.53-1.656,1.53Zm9.342-1.4a2.47,2.47,0,0,0-1.854,1.278v-.99H19.17V39h2.25V34.734c0-1.17.18-1.926,1.53-1.926a1.983,1.983,0,0,1,.324.036Zm6.732,4.32c0-2-.63-4.176-3.024-4.176-2.3,0-3.06,2.232-3.06,4.176s.756,4.176,3.06,4.176C29.358,39.162,30.006,36.966,30.006,34.986Zm-2.268,0c0,.486-.054,2.16-.756,2.16-.738,0-.792-1.638-.792-2.16s.054-2.16.792-2.16C27.684,32.826,27.738,34.5,27.738,34.986ZM36.9,39V25.878H34.65v6.066a1.683,1.683,0,0,0-1.512-1.134c-1.89,0-2.16,2.736-2.16,4.14,0,1.368.324,4.212,2.178,4.212a1.722,1.722,0,0,0,1.494-1.08V39Zm-2.088-4.014c0,.486-.054,2.16-.756,2.16-.756,0-.81-1.638-.81-2.16,0-.5.054-2.16.792-2.16C34.758,32.826,34.812,34.482,34.812,34.986Zm9.162-4.032H41.706v4.608c0,.432.126,1.512-.558,1.512-.54,0-.558-.774-.558-1.17v-4.95H38.34v5.562a2.47,2.47,0,0,0,.324,1.386,2.89,2.89,0,0,0,2.466,1.26A2.941,2.941,0,0,0,43.6,37.92a2.526,2.526,0,0,0,.378-1.53Zm5.418,5.868a1.151,1.151,0,0,1-.666.234c-1.1,0-1.278-1.3-1.278-2.142,0-.828.234-2.178,1.314-2.178a.844.844,0,0,1,.63.27v-1.98a2.724,2.724,0,0,0-1.134-.234c-2.34,0-3.078,2.322-3.078,4.284,0,1.818.774,4.086,2.934,4.086a2.883,2.883,0,0,0,1.278-.288Zm4.842-4V30.954h-.918V28.668h-2.25v2.286h-.774v1.872h.774V39h2.25V32.826Zm3.348-4.5a1.422,1.422,0,1,0-1.422,1.422A1.414,1.414,0,0,0,57.582,28.326ZM57.276,39V30.954h-2.25V39Zm7.362-8.046H62.3l-.828,3.564c-.072.324-.18.648-.234.99-.306-1.53-.72-3.042-1.1-4.554H57.924L60.228,39H62.3Zm3.24-2.628a1.422,1.422,0,1,0-1.422,1.422A1.414,1.414,0,0,0,67.878,28.326ZM67.572,39V30.954h-2.25V39Zm4.806-6.174V30.954H71.46V28.668H69.21v2.286h-.774v1.872h.774V39h2.25V32.826Zm7.056-1.872h-2.25l-1.062,4.59a12.919,12.919,0,0,0-.36-1.656l-.774-2.934h-2.25l2.34,7.884-1.242,3.87H76.05ZM41.958,60l-2.88-12.006H36.594L33.786,60h2.376l.432-2.016h2.394L39.438,60Zm-5-3.87a37.129,37.129,0,0,0,.792-5.04c.054.522.126,1.062.2,1.584.18,1.17.432,2.3.684,3.456Zm8.028-4.176h-2.25V63.708h2.25V59.082a1.722,1.722,0,0,0,1.494,1.08c1.854,0,2.178-2.844,2.178-4.212,0-1.4-.27-4.14-2.16-4.14a1.683,1.683,0,0,0-1.512,1.134Zm1.4,4.032c0,.5-.072,2.16-.792,2.16s-.774-1.656-.774-2.16c0-.486.054-2.16.756-2.16C46.332,53.826,46.386,55.464,46.386,55.986Zm5.724-4.032H49.86V63.708h2.25V59.082a1.722,1.722,0,0,0,1.494,1.08c1.854,0,2.178-2.844,2.178-4.212,0-1.4-.27-4.14-2.16-4.14a1.683,1.683,0,0,0-1.512,1.134Zm1.4,4.032c0,.5-.072,2.16-.792,2.16s-.774-1.656-.774-2.16c0-.486.054-2.16.756-2.16C53.46,53.826,53.514,55.464,53.514,55.986Z" transform="translate(833 4880)"/><g transform="translate(794.354 4859.538)"><path class="c" d="M81.982,21.8c2.856.7,2.007,10.5,10.576,9.22-1.317-5.812-5.335-8.707-9.229-9.387-1.886-.421-2.525-.3-1.921.331C81.886,22.24,82.084,22.183,81.982,21.8Z" transform="translate(57.887 0.572)"/><path class="c" d="M96.77,45.914C89.849,42.5,85.239,49.565,83.833,54a10.952,10.952,0,0,0,11.781-7.623c.354-.208.711.02,1.011.313-.844.153-.387,1.081.279.942C97.429,47.518,98.124,46.583,96.77,45.914Z" transform="translate(59.943 18.938)"/><path class="c" d="M85.791,55.9c3.116-5.76,1.209-10.655-2.159-13.6-1.548-1.546-2.282-1.843-2.188-.914.268.539.512.6.713.217C84.458,43.947,75.906,51.859,85.791,55.9Z" transform="translate(57.664 15.704)"/><path class="c" d="M94.44,51.723c-6.533-3.814-11.95,2.7-13.82,6.924a11.43,11.43,0,0,0,12.61-6.555c.389-.176.725.071.972.375-.85.091-.5,1.011.2.924C94.918,53.329,95.718,52.469,94.44,51.723Z" transform="translate(57.446 23.257)"/><path class="c" d="M76.576,56.578q-.92-3.191-1.632-1.9c-.068.606.117.794.578.546.858,3.235-12.455,6.126-5.03,14.653C77.04,66.165,78.133,60.862,76.576,56.578Z" transform="translate(47.817 26.162)"/><path class="c" d="M89.324,50.416a11.556,11.556,0,0,0-4.751-13.591c-1.809-1.335-2.565-1.53-2.291-.6.366.53.6.567.723.128C85.692,38.413,78.958,47.806,89.324,50.416Z" transform="translate(58.696 11.662)"/><path class="c" d="M97.55,39.2c-7.432-2.5-10.514,5.419-11,10.137,4.464-.172,9.052-3,9.963-9.494.313-.265.709-.08,1.057.176-.793.279-.156,1.161.473.921C98.535,40.754,99.009,39.7,97.55,39.2Z" transform="translate(62.053 14.051)"/><path class="c" d="M71.978,68.765c-7.283.61-19.964,9.9-20.769,19.214a3.6,3.6,0,0,0,.762,1.283,2.7,2.7,0,0,0,1.356.762,6.155,6.155,0,0,0,3.023-.211c-1.384-6.679,6.6-17.3,16.283-19.687a4.034,4.034,0,0,1,1.512.023c3.8,1.907,8.98,2.211,14.254-.876.48.044.645.43.706.839-.889-.359-1.129.654-.4.928.563.213,1.868-.156,1.1-1.473C85.844,62.793,76.483,65.861,71.978,68.765Z" transform="translate(34.586 34.853)"/><path class="c" d="M71.84,60.621c-.339-2.174-.791-2.86-1.392-2.053-.146.6.03.794.5.6C71.4,62.435,57.7,63.879,64,73.069,71.03,70.11,72.818,65.005,71.84,60.621Z" transform="translate(43.239 29.22)"/><path class="c" d="M82.4,60.917c3.752-5.376,2.408-10.29-.663-13.42-1.374-1.624-2.092-1.983-2.1-1.065.21.544.437.633.684.27C82.393,49.169,72.858,56.148,82.4,60.917Z" transform="translate(55.47 19.656)"/><path class="c" d="M87.619,42.672c3.627-.329,7.184-2.918,7.464-8.472.229-.222.558-.082.874.13-.631.268-.057.99.444.759.386-.178.716-1.084-.528-1.443C89.643,31.847,87.672,38.657,87.619,42.672Z" transform="translate(62.886 9.873)"/><path class="c" d="M91.913,21.5c.119-.323.483-.306.844-.174-.462.462.347,1,.711.61.277-.3.2-1.351-1.065-1.285-6.459.338-5.357,7.781-3.723,11.84C91.833,30.964,93.968,27.157,91.913,21.5Z" transform="translate(62.734 0)"/><path class="c" d="M85.437,32.031c-1.589-1.036-2.23-1.148-1.937-.389.352.4.537.43.6.06,2.38,1.6-2.453,9.857,6.2,11.591A10.185,10.185,0,0,0,85.437,32.031Z" transform="translate(59.631 8.164)"/><path class="c" d="M77.364,66.055C82.41,61.091,81.98,55.832,79.4,52.109c-1.132-1.895-1.809-2.373-2.017-1.445.1.606.331.732.675.4C79.721,53.932,68.24,59.571,77.364,66.055Z" transform="translate(52.146 22.974)"/><path class="c" d="M84.909,26.645,84.9,26.64c-1.781-.738-2.417-.768-1.978-.036.43.352.622.332.6-.039,2.655,1.182-.339,10.367,8.394,10.745C91.9,31.542,88.567,28.014,84.909,26.645Z" transform="translate(59.134 4.215)"/><path class="c" d="M88.473,37.637c3.464-.908,6.384-4.118,5.559-9.874.176-.272.528-.187.855-.007-.544.368.144,1.015.583.707.354-.247.487-1.242-.777-1.413C88.283,26.179,87.726,33.482,88.473,37.637Z" transform="translate(63.351 4.921)"/><path class="c" d="M75.77,62.9a12.82,12.82,0,0,0,14.638-4.728c.451-.117.743.187.956.537-.928-.041-.743.969.005.986.579.014,1.587-.736.389-1.706C85.644,53.033,78.6,58.807,75.77,62.9Z" transform="translate(53.676 27.539)"/><path class="c" d="M69.236,65.794c4.152,2.6,10.472,3.158,16.253-1.253.48-.014.695.359.807.755-.926-.254-1.02.778-.265.976.572.149,1.815-.354.88-1.594C82.132,58.338,73.29,62.419,69.236,65.794Z" transform="translate(48.598 31.639)"/><path class="c" d="M22.99,21.8c-.1.387.1.443.574.164.6-.629-.036-.752-1.921-.331-3.894.681-7.912,3.576-9.229,9.387C20.984,32.3,20.136,22.494,22.99,21.8Z" transform="translate(4.432 0.572)"/><path class="c" d="M22.169,54c-1.406-4.431-6.014-11.5-12.937-8.081-1.354.668-.659,1.6-.135,1.713.666.14,1.125-.789.279-.942.3-.293.658-.521,1.011-.313A10.952,10.952,0,0,0,22.169,54Z" transform="translate(1.348 18.938)"/><path class="c" d="M20.671,41.6c.2.386.444.322.713-.217.094-.93-.64-.634-2.188.914-3.368,2.948-5.273,7.845-2.159,13.6C26.924,51.858,18.372,43.946,20.671,41.6Z" transform="translate(6.799 15.704)"/><path class="c" d="M25.724,58.647c-1.868-4.226-7.287-10.738-13.82-6.924-1.278.746-.478,1.607.041,1.671.693.087,1.045-.834.2-.924.247-.3.583-.551.972-.375A11.432,11.432,0,0,0,25.724,58.647Z" transform="translate(3.502 23.257)"/><path class="c" d="M33.431,69.88c7.424-8.527-5.89-11.417-5.03-14.653.46.249.645.06.578-.546q-.709-1.3-1.632,1.9C25.791,60.862,26.884,66.165,33.431,69.88Z" transform="translate(15.552 26.162)"/><path class="c" d="M20.361,36.359c.123.437.357.4.723-.128.274-.935-.482-.739-2.291.6a11.555,11.555,0,0,0-4.751,13.591C24.41,47.8,17.675,38.412,20.361,36.359Z" transform="translate(5.229 11.663)"/><path class="c" d="M18.693,49.339C18.2,44.622,15.122,36.7,7.69,39.2c-1.461.492-.985,1.552-.489,1.74.629.24,1.265-.642.473-.921.347-.258.745-.443,1.057-.176C9.641,46.337,14.228,49.167,18.693,49.339Z" transform="translate(0 14.051)"/><path class="c" d="M45,68.765c-4.505-2.9-13.866-5.97-17.819.8-.768,1.317.537,1.685,1.1,1.473.725-.274.485-1.287-.4-.928.059-.407.226-.794.706-.839,5.273,3.087,10.457,2.783,14.254.876a4.111,4.111,0,0,1,1.512-.023c9.686,2.389,17.668,13.01,16.283,19.687a6.155,6.155,0,0,0,3.023.212,2.7,2.7,0,0,0,1.356-.762,3.582,3.582,0,0,0,.762-1.283C64.965,78.662,52.284,69.374,45,68.765Z" transform="translate(15.728 34.853)"/><path class="c" d="M40.261,73.069c6.3-9.19-7.4-10.633-6.953-13.9.475.2.65,0,.5-.6-.6-.807-1.052-.121-1.392,2.053C31.444,65.005,33.232,70.11,40.261,73.069Z" transform="translate(19.792 29.22)"/><path class="c" d="M20.486,60.917C30.031,56.15,20.5,49.169,22.56,46.7q.371.547.684-.27c0-.919-.72-.56-2.1,1.065C18.077,50.626,16.734,55.539,20.486,60.917Z" transform="translate(8.933 19.656)"/><path class="c" d="M7.591,35.089c.5.231,1.077-.491.444-.759.316-.21.645-.352.874-.13.281,5.554,3.839,8.143,7.464,8.472-.053-4.015-2.024-10.825-8.257-9.027C6.875,34,7.205,34.911,7.591,35.089Z" transform="translate(0.412 9.873)"/><path class="c" d="M9.943,21.326c.361-.133.723-.149.844.174-2.053,5.657.082,9.464,3.233,10.991,1.633-4.059,2.735-11.5-3.723-11.84-1.265-.066-1.342.986-1.065,1.285C9.6,22.328,10.406,21.788,9.943,21.326Z" transform="translate(1.857 0)"/><path class="c" d="M19.008,31.7c.068.37.254.338.6-.06.3-.759-.347-.645-1.937.389a10.189,10.189,0,0,0-4.866,11.262C21.462,41.558,16.63,33.3,19.008,31.7Z" transform="translate(4.547 8.163)"/><path class="c" d="M25.211,51.064c.345.332.57.206.675-.4-.21-.928-.885-.45-2.017,1.445-2.581,3.723-3.011,8.982,2.035,13.946C35.028,59.571,23.547,53.932,25.211,51.064Z" transform="translate(11.879 22.974)"/><path class="c" d="M20.463,26.566c-.02.371.174.391.6.039.439-.732-.2-.7-1.978.036l-.005.005c-3.658,1.368-6.994,4.9-7.013,10.665C20.8,36.932,17.81,27.747,20.463,26.566Z" transform="translate(4.166 4.215)"/><path class="c" d="M8.391,27.756c.325-.178.679-.265.855.007-.826,5.757,2.1,8.964,5.559,9.874.746-4.155.19-11.458-6.22-10.587-1.264.172-1.129,1.166-.777,1.413C8.247,28.772,8.935,28.124,8.391,27.756Z" transform="translate(0.664 4.921)"/><path class="c" d="M31.467,62.9c-2.829-4.1-9.874-9.871-15.988-4.909-1.2.97-.19,1.72.389,1.706.748-.018.935-1.027.005-.986.213-.35.5-.654.956-.537A12.824,12.824,0,0,0,31.467,62.9Z" transform="translate(6.379 27.539)"/><path class="c" d="M20.967,64.678c-.935,1.241.307,1.743.88,1.594.755-.2.661-1.23-.265-.976.112-.4.327-.77.807-.755,5.781,4.411,12.1,3.857,16.253,1.253C34.588,62.419,25.746,58.338,20.967,64.678Z" transform="translate(10.817 31.639)"/></g></g></svg>