<svg xmlns="http://www.w3.org/2000/svg" width="153.869" height="137.031" viewBox="0 0 153.869 137.031"><defs><style>.a{fill:#e1e1e1;}.b{fill:#72d7d1;}.c{fill:#ff6a6a;}</style></defs><g transform="translate(-801.065 -4880.185)"><path class="a" d="M-10.536,0-13.32-7.272a4.418,4.418,0,0,0,2.28-4.08,4.637,4.637,0,0,0-1.9-3.888,6.244,6.244,0,0,0-3.48-.768h-3.432V0h3.168V-7.368L-13.872,0ZM-16.68-13.512h.6c1.392,0,1.968.888,1.968,2.184A1.971,1.971,0,0,1-16.152-9.1a3.889,3.889,0,0,1-.528-.024ZM-4.536-3.7a2.568,2.568,0,0,1-.456,1.464.945.945,0,0,1-.6.192.808.808,0,0,1-.624-.288,3.181,3.181,0,0,1-.432-1.9,4.63,4.63,0,0,1,.024-.6h4.752A8.079,8.079,0,0,0-1.8-5.88a6,6,0,0,0-1.392-4.176,3.183,3.183,0,0,0-2.3-.864,3.309,3.309,0,0,0-2.448.984A6.982,6.982,0,0,0-9.5-5.088,5.944,5.944,0,0,0-8.04-.744a3.311,3.311,0,0,0,2.568.96,3,3,0,0,0,2.328-.84A4.866,4.866,0,0,0-1.992-3.7Zm-2.04-2.976a2.935,2.935,0,0,1,.456-1.68.962.962,0,0,1,.672-.288.9.9,0,0,1,.552.216,2.718,2.718,0,0,1,.48,1.752ZM7.368,0V-10.728h-3v1.32A2.245,2.245,0,0,0,2.352-10.92c-2.52,0-2.88,3.648-2.88,5.52,0,1.824.432,5.616,2.9,5.616a2.3,2.3,0,0,0,1.992-1.44V0ZM4.584-5.352c0,.648-.072,2.88-1.008,2.88-1.008,0-1.08-2.184-1.08-2.88,0-.672.072-2.88,1.056-2.88C4.512-8.232,4.584-6.024,4.584-5.352ZM14.592-2.9a1.535,1.535,0,0,1-.888.312C12.24-2.592,12-4.32,12-5.448c0-1.1.312-2.9,1.752-2.9a1.126,1.126,0,0,1,.84.36v-2.64a3.633,3.633,0,0,0-1.512-.312c-3.12,0-4.1,3.1-4.1,5.712,0,2.424,1.032,5.448,3.912,5.448a3.844,3.844,0,0,0,1.7-.384Zm6.456-5.328v-2.5H19.824v-3.048h-3v3.048H15.792v2.5h1.032V0h3V-8.232Z" transform="translate(878 5017)"/><path class="b" d="M-21.573,0l-1.242-12.006h-3.2l-.954,7.092-1.17-7.092h-3.132L-32.319,0h2.538l.378-8.64.144,1.4a15.031,15.031,0,0,0,.306,1.8L-27.837,0h1.818l1.062-5.868A23.824,23.824,0,0,0-24.6-8.64L-24,0Zm6.966-4.014c0-2-.63-4.176-3.024-4.176-2.3,0-3.06,2.232-3.06,4.176s.756,4.176,3.06,4.176C-15.255.162-14.607-2.034-14.607-4.014Zm-2.268,0c0,.486-.054,2.16-.756,2.16-.738,0-.792-1.638-.792-2.16s.054-2.16.792-2.16C-16.929-6.174-16.875-4.5-16.875-4.014Zm8.136-3.492a3.386,3.386,0,0,0-2.142-.684,2.421,2.421,0,0,0-2.682,2.376c0,2.43,2.628,2.286,2.628,3.294a.667.667,0,0,1-.72.666,1.73,1.73,0,0,1-1.1-.5l-.99,1.6A3.92,3.92,0,0,0-11.3.162a2.546,2.546,0,0,0,2.538-2.79c0-2.43-2.52-2.232-2.52-3.2a.548.548,0,0,1,.576-.576,1.53,1.53,0,0,1,1.062.54Zm4.626,1.332V-8.046h-.918v-2.286h-2.25v2.286h-.774v1.872h.774V0h2.25V-6.174ZM8.163-12.006H5.787v8.082c0,.9.036,1.962-1.17,1.962-1.224,0-1.188-1.17-1.188-2.07v-7.974H1.053V-2.88C1.053-.756,2.619.2,4.581.2A3.547,3.547,0,0,0,7.767-1.224a3.272,3.272,0,0,0,.4-1.836Zm6.318,4.5a3.386,3.386,0,0,0-2.142-.684A2.421,2.421,0,0,0,9.657-5.814c0,2.43,2.628,2.286,2.628,3.294a.667.667,0,0,1-.72.666,1.73,1.73,0,0,1-1.1-.5l-.99,1.6a3.92,3.92,0,0,0,2.448.918,2.546,2.546,0,0,0,2.538-2.79c0-2.43-2.52-2.232-2.52-3.2a.548.548,0,0,1,.576-.576,1.53,1.53,0,0,1,1.062.54Zm4.482,4.734a1.926,1.926,0,0,1-.342,1.1.709.709,0,0,1-.45.144.606.606,0,0,1-.468-.216,2.385,2.385,0,0,1-.324-1.422,3.472,3.472,0,0,1,.018-.45h3.564a6.059,6.059,0,0,0,.054-.792,4.5,4.5,0,0,0-1.044-3.132,2.387,2.387,0,0,0-1.728-.648,2.482,2.482,0,0,0-1.836.738,5.236,5.236,0,0,0-1.17,3.636,4.458,4.458,0,0,0,1.1,3.258,2.483,2.483,0,0,0,1.926.72,2.253,2.253,0,0,0,1.746-.63,3.649,3.649,0,0,0,.864-2.3ZM17.433-5a2.2,2.2,0,0,1,.342-1.26.722.722,0,0,1,.5-.216.671.671,0,0,1,.414.162A2.039,2.039,0,0,1,19.053-5ZM27.891,0V-13.122h-2.25v6.066A1.683,1.683,0,0,0,24.129-8.19c-1.89,0-2.16,2.736-2.16,4.14,0,1.368.324,4.212,2.178,4.212a1.722,1.722,0,0,0,1.494-1.08V0ZM25.8-4.014c0,.486-.054,2.16-.756,2.16-.756,0-.81-1.638-.81-2.16,0-.5.054-2.16.792-2.16C25.749-6.174,25.8-4.518,25.8-4.014Zm-51.327,15.2v-2.2h-6.084v2.2h1.854V21h2.376V11.19Zm3.762,7.038a1.926,1.926,0,0,1-.342,1.1.709.709,0,0,1-.45.144.606.606,0,0,1-.468-.216,2.385,2.385,0,0,1-.324-1.422,3.472,3.472,0,0,1,.018-.45h3.564a6.059,6.059,0,0,0,.054-.792,4.5,4.5,0,0,0-1.044-3.132,2.387,2.387,0,0,0-1.728-.648,2.482,2.482,0,0,0-1.836.738,5.236,5.236,0,0,0-1.17,3.636,4.458,4.458,0,0,0,1.1,3.258,2.483,2.483,0,0,0,1.926.72,2.253,2.253,0,0,0,1.746-.63,3.649,3.649,0,0,0,.864-2.3ZM-23.292,16a2.2,2.2,0,0,1,.342-1.26.722.722,0,0,1,.5-.216.671.671,0,0,1,.414.162A2.039,2.039,0,0,1-21.672,16Zm8.748,2.826a1.151,1.151,0,0,1-.666.234c-1.1,0-1.278-1.3-1.278-2.142,0-.828.234-2.178,1.314-2.178a.844.844,0,0,1,.63.27v-1.98a2.724,2.724,0,0,0-1.134-.234c-2.34,0-3.078,2.322-3.078,4.284,0,1.818.774,4.086,2.934,4.086a2.883,2.883,0,0,0,1.278-.288ZM-7.812,21V15.186c0-1.08-.108-2.376-1.494-2.376a2.159,2.159,0,0,0-1.908,1.4V7.878h-2.25V21h2.25V16.338c0-.45-.036-1.278.612-1.278.522,0,.54.648.54,1.008V21ZM-.72,21V15.186c0-1.08-.108-2.376-1.494-2.376a2.159,2.159,0,0,0-1.908,1.4v-1.26h-2.25V21h2.25V16.338c0-.45-.036-1.278.612-1.278.522,0,.54.648.54,1.008V21Zm7.29-4.014c0-2-.63-4.176-3.024-4.176-2.3,0-3.06,2.232-3.06,4.176s.756,4.176,3.06,4.176C5.922,21.162,6.57,18.966,6.57,16.986Zm-2.268,0c0,.486-.054,2.16-.756,2.16-.738,0-.792-1.638-.792-2.16s.054-2.16.792-2.16C4.248,14.826,4.3,16.5,4.3,16.986ZM10.026,21V7.878H7.776V21Zm7.29-4.014c0-2-.63-4.176-3.024-4.176-2.3,0-3.06,2.232-3.06,4.176s.756,4.176,3.06,4.176C16.668,21.162,17.316,18.966,17.316,16.986Zm-2.268,0c0,.486-.054,2.16-.756,2.16-.738,0-.792-1.638-.792-2.16s.054-2.16.792-2.16C14.994,14.826,15.048,16.5,15.048,16.986ZM24.3,12.954H22.032v.972a1.827,1.827,0,0,0-1.6-1.116c-1.89,0-2.16,2.862-2.16,4.248,0,1.368.432,4.1,2.25,4.1.774,0,1.152-.576,1.512-1.17V21.18c0,.612-.018,1.71-.864,1.71-.648,0-.792-.576-.828-.972H18.36c.144,1.656.9,2.79,2.826,2.79a2.923,2.923,0,0,0,2.88-1.674A3.688,3.688,0,0,0,24.3,21.5Zm-2.16,4.014c0,.486-.072,2.142-.774,2.142-.756,0-.81-1.62-.81-2.142s.054-2.142.81-2.142C22.068,14.826,22.14,16.482,22.14,16.968Zm9.522-4.014h-2.25l-1.062,4.59a12.919,12.919,0,0,0-.36-1.656l-.774-2.934h-2.25l2.34,7.884-1.242,3.87h2.214Z" transform="translate(880 4898)"/><g transform="translate(794.354 4859.538)"><path class="c" d="M81.982,21.8c2.856.7,2.007,10.5,10.576,9.22-1.317-5.812-5.335-8.707-9.229-9.387-1.886-.421-2.525-.3-1.921.331C81.886,22.24,82.084,22.183,81.982,21.8Z" transform="translate(57.887 0.572)"/><path class="c" d="M96.77,45.914C89.849,42.5,85.239,49.565,83.833,54a10.952,10.952,0,0,0,11.781-7.623c.354-.208.711.02,1.011.313-.844.153-.387,1.081.279.942C97.429,47.518,98.124,46.583,96.77,45.914Z" transform="translate(59.943 18.938)"/><path class="c" d="M85.791,55.9c3.116-5.76,1.209-10.655-2.159-13.6-1.548-1.546-2.282-1.843-2.188-.914.268.539.512.6.713.217C84.458,43.947,75.906,51.859,85.791,55.9Z" transform="translate(57.664 15.704)"/><path class="c" d="M94.44,51.723c-6.533-3.814-11.95,2.7-13.82,6.924a11.43,11.43,0,0,0,12.61-6.555c.389-.176.725.071.972.375-.85.091-.5,1.011.2.924C94.918,53.329,95.718,52.469,94.44,51.723Z" transform="translate(57.446 23.257)"/><path class="c" d="M76.576,56.578q-.92-3.191-1.632-1.9c-.068.606.117.794.578.546.858,3.235-12.455,6.126-5.03,14.653C77.04,66.165,78.133,60.862,76.576,56.578Z" transform="translate(47.817 26.162)"/><path class="c" d="M89.324,50.416a11.556,11.556,0,0,0-4.751-13.591c-1.809-1.335-2.565-1.53-2.291-.6.366.53.6.567.723.128C85.692,38.413,78.958,47.806,89.324,50.416Z" transform="translate(58.696 11.662)"/><path class="c" d="M97.55,39.2c-7.432-2.5-10.514,5.419-11,10.137,4.464-.172,9.052-3,9.963-9.494.313-.265.709-.08,1.057.176-.793.279-.156,1.161.473.921C98.535,40.754,99.009,39.7,97.55,39.2Z" transform="translate(62.053 14.051)"/><path class="c" d="M71.978,68.765c-7.283.61-19.964,9.9-20.769,19.214a3.6,3.6,0,0,0,.762,1.283,2.7,2.7,0,0,0,1.356.762,6.155,6.155,0,0,0,3.023-.211c-1.384-6.679,6.6-17.3,16.283-19.687a4.034,4.034,0,0,1,1.512.023c3.8,1.907,8.98,2.211,14.254-.876.48.044.645.43.706.839-.889-.359-1.129.654-.4.928.563.213,1.868-.156,1.1-1.473C85.844,62.793,76.483,65.861,71.978,68.765Z" transform="translate(34.586 34.853)"/><path class="c" d="M71.84,60.621c-.339-2.174-.791-2.86-1.392-2.053-.146.6.03.794.5.6C71.4,62.435,57.7,63.879,64,73.069,71.03,70.11,72.818,65.005,71.84,60.621Z" transform="translate(43.239 29.22)"/><path class="c" d="M82.4,60.917c3.752-5.376,2.408-10.29-.663-13.42-1.374-1.624-2.092-1.983-2.1-1.065.21.544.437.633.684.27C82.393,49.169,72.858,56.148,82.4,60.917Z" transform="translate(55.47 19.656)"/><path class="c" d="M87.619,42.672c3.627-.329,7.184-2.918,7.464-8.472.229-.222.558-.082.874.13-.631.268-.057.99.444.759.386-.178.716-1.084-.528-1.443C89.643,31.847,87.672,38.657,87.619,42.672Z" transform="translate(62.886 9.873)"/><path class="c" d="M91.913,21.5c.119-.323.483-.306.844-.174-.462.462.347,1,.711.61.277-.3.2-1.351-1.065-1.285-6.459.338-5.357,7.781-3.723,11.84C91.833,30.964,93.968,27.157,91.913,21.5Z" transform="translate(62.734 0)"/><path class="c" d="M85.437,32.031c-1.589-1.036-2.23-1.148-1.937-.389.352.4.537.43.6.06,2.38,1.6-2.453,9.857,6.2,11.591A10.185,10.185,0,0,0,85.437,32.031Z" transform="translate(59.631 8.164)"/><path class="c" d="M77.364,66.055C82.41,61.091,81.98,55.832,79.4,52.109c-1.132-1.895-1.809-2.373-2.017-1.445.1.606.331.732.675.4C79.721,53.932,68.24,59.571,77.364,66.055Z" transform="translate(52.146 22.974)"/><path class="c" d="M84.909,26.645,84.9,26.64c-1.781-.738-2.417-.768-1.978-.036.43.352.622.332.6-.039,2.655,1.182-.339,10.367,8.394,10.745C91.9,31.542,88.567,28.014,84.909,26.645Z" transform="translate(59.134 4.215)"/><path class="c" d="M88.473,37.637c3.464-.908,6.384-4.118,5.559-9.874.176-.272.528-.187.855-.007-.544.368.144,1.015.583.707.354-.247.487-1.242-.777-1.413C88.283,26.179,87.726,33.482,88.473,37.637Z" transform="translate(63.351 4.921)"/><path class="c" d="M75.77,62.9a12.82,12.82,0,0,0,14.638-4.728c.451-.117.743.187.956.537-.928-.041-.743.969.005.986.579.014,1.587-.736.389-1.706C85.644,53.033,78.6,58.807,75.77,62.9Z" transform="translate(53.676 27.539)"/><path class="c" d="M69.236,65.794c4.152,2.6,10.472,3.158,16.253-1.253.48-.014.695.359.807.755-.926-.254-1.02.778-.265.976.572.149,1.815-.354.88-1.594C82.132,58.338,73.29,62.419,69.236,65.794Z" transform="translate(48.598 31.639)"/><path class="c" d="M22.99,21.8c-.1.387.1.443.574.164.6-.629-.036-.752-1.921-.331-3.894.681-7.912,3.576-9.229,9.387C20.984,32.3,20.136,22.494,22.99,21.8Z" transform="translate(4.432 0.572)"/><path class="c" d="M22.169,54c-1.406-4.431-6.014-11.5-12.937-8.081-1.354.668-.659,1.6-.135,1.713.666.14,1.125-.789.279-.942.3-.293.658-.521,1.011-.313A10.952,10.952,0,0,0,22.169,54Z" transform="translate(1.348 18.938)"/><path class="c" d="M20.671,41.6c.2.386.444.322.713-.217.094-.93-.64-.634-2.188.914-3.368,2.948-5.273,7.845-2.159,13.6C26.924,51.858,18.372,43.946,20.671,41.6Z" transform="translate(6.799 15.704)"/><path class="c" d="M25.724,58.647c-1.868-4.226-7.287-10.738-13.82-6.924-1.278.746-.478,1.607.041,1.671.693.087,1.045-.834.2-.924.247-.3.583-.551.972-.375A11.432,11.432,0,0,0,25.724,58.647Z" transform="translate(3.502 23.257)"/><path class="c" d="M33.431,69.88c7.424-8.527-5.89-11.417-5.03-14.653.46.249.645.06.578-.546q-.709-1.3-1.632,1.9C25.791,60.862,26.884,66.165,33.431,69.88Z" transform="translate(15.552 26.162)"/><path class="c" d="M20.361,36.359c.123.437.357.4.723-.128.274-.935-.482-.739-2.291.6a11.555,11.555,0,0,0-4.751,13.591C24.41,47.8,17.675,38.412,20.361,36.359Z" transform="translate(5.229 11.663)"/><path class="c" d="M18.693,49.339C18.2,44.622,15.122,36.7,7.69,39.2c-1.461.492-.985,1.552-.489,1.74.629.24,1.265-.642.473-.921.347-.258.745-.443,1.057-.176C9.641,46.337,14.228,49.167,18.693,49.339Z" transform="translate(0 14.051)"/><path class="c" d="M45,68.765c-4.505-2.9-13.866-5.97-17.819.8-.768,1.317.537,1.685,1.1,1.473.725-.274.485-1.287-.4-.928.059-.407.226-.794.706-.839,5.273,3.087,10.457,2.783,14.254.876a4.111,4.111,0,0,1,1.512-.023c9.686,2.389,17.668,13.01,16.283,19.687a6.155,6.155,0,0,0,3.023.212,2.7,2.7,0,0,0,1.356-.762,3.582,3.582,0,0,0,.762-1.283C64.965,78.662,52.284,69.374,45,68.765Z" transform="translate(15.728 34.853)"/><path class="c" d="M40.261,73.069c6.3-9.19-7.4-10.633-6.953-13.9.475.2.65,0,.5-.6-.6-.807-1.052-.121-1.392,2.053C31.444,65.005,33.232,70.11,40.261,73.069Z" transform="translate(19.792 29.22)"/><path class="c" d="M20.486,60.917C30.031,56.15,20.5,49.169,22.56,46.7q.371.547.684-.27c0-.919-.72-.56-2.1,1.065C18.077,50.626,16.734,55.539,20.486,60.917Z" transform="translate(8.933 19.656)"/><path class="c" d="M7.591,35.089c.5.231,1.077-.491.444-.759.316-.21.645-.352.874-.13.281,5.554,3.839,8.143,7.464,8.472-.053-4.015-2.024-10.825-8.257-9.027C6.875,34,7.205,34.911,7.591,35.089Z" transform="translate(0.412 9.873)"/><path class="c" d="M9.943,21.326c.361-.133.723-.149.844.174-2.053,5.657.082,9.464,3.233,10.991,1.633-4.059,2.735-11.5-3.723-11.84-1.265-.066-1.342.986-1.065,1.285C9.6,22.328,10.406,21.788,9.943,21.326Z" transform="translate(1.857 0)"/><path class="c" d="M19.008,31.7c.068.37.254.338.6-.06.3-.759-.347-.645-1.937.389a10.189,10.189,0,0,0-4.866,11.262C21.462,41.558,16.63,33.3,19.008,31.7Z" transform="translate(4.547 8.163)"/><path class="c" d="M25.211,51.064c.345.332.57.206.675-.4-.21-.928-.885-.45-2.017,1.445-2.581,3.723-3.011,8.982,2.035,13.946C35.028,59.571,23.547,53.932,25.211,51.064Z" transform="translate(11.879 22.974)"/><path class="c" d="M20.463,26.566c-.02.371.174.391.6.039.439-.732-.2-.7-1.978.036l-.005.005c-3.658,1.368-6.994,4.9-7.013,10.665C20.8,36.932,17.81,27.747,20.463,26.566Z" transform="translate(4.166 4.215)"/><path class="c" d="M8.391,27.756c.325-.178.679-.265.855.007-.826,5.757,2.1,8.964,5.559,9.874.746-4.155.19-11.458-6.22-10.587-1.264.172-1.129,1.166-.777,1.413C8.247,28.772,8.935,28.124,8.391,27.756Z" transform="translate(0.664 4.921)"/><path class="c" d="M31.467,62.9c-2.829-4.1-9.874-9.871-15.988-4.909-1.2.97-.19,1.72.389,1.706.748-.018.935-1.027.005-.986.213-.35.5-.654.956-.537A12.824,12.824,0,0,0,31.467,62.9Z" transform="translate(6.379 27.539)"/><path class="c" d="M20.967,64.678c-.935,1.241.307,1.743.88,1.594.755-.2.661-1.23-.265-.976.112-.4.327-.77.807-.755,5.781,4.411,12.1,3.857,16.253,1.253C34.588,62.419,25.746,58.338,20.967,64.678Z" transform="translate(10.817 31.639)"/></g></g></svg>