<svg xmlns="http://www.w3.org/2000/svg" width="370" height="370" viewBox="0 0 370 370"><defs><style>.a,.c{fill:#222429;}.a{stroke:#ff6a6a;stroke-dasharray:3;}.b{fill:#ff6a6a;stroke:rgba(255,106,106,0.24);}.b,.d,.e{stroke-width:6px;}.d,.e{fill:#ff6966;}.d{stroke:rgba(255,105,102,0.24);}.e{stroke:rgba(255,104,98,0.24);}.f{stroke:none;}.g{fill:none;}</style></defs><g transform="translate(-12889 -2501)"><g class="a" transform="translate(12889 2501)"><circle class="f" cx="185" cy="185" r="185"/><circle class="g" cx="185" cy="185" r="184.5"/></g><g class="b" transform="translate(13018 2629)"><circle class="f" cx="57.5" cy="57.5" r="57.5"/><circle class="g" cx="57.5" cy="57.5" r="60.5"/></g><path class="c" d="M-36.876-18.676V0h3.612c5.656,0,7.56-4.2,7.56-9.24,0-3.332-.952-7.28-4.284-8.792a8.3,8.3,0,0,0-3.78-.644Zm3.7,15.26V-15.4a2.693,2.693,0,0,1,1.876.644c1.484,1.232,1.9,3.64,1.9,5.488,0,2.324-.728,5.88-3.668,5.852Zm16.016-9.548a3.843,3.843,0,0,0-2.884,1.988v-1.54h-3.5V0h3.5V-6.636c0-1.82.28-3,2.38-3a3.085,3.085,0,0,1,.5.056Zm5.432-3.64a2.2,2.2,0,0,0-2.212-2.212A2.2,2.2,0,0,0-16.156-16.6a2.2,2.2,0,0,0,2.212,2.212A2.2,2.2,0,0,0-11.732-16.6ZM-12.208,0V-12.516h-3.5V0ZM-6.5-20.412H-10V0h3.5V-1.428A2.678,2.678,0,0,0-4.172.252C-1.288.252-.784-4.172-.784-6.3c0-2.184-.42-6.44-3.36-6.44A2.619,2.619,0,0,0-6.5-10.976ZM-4.312-6.244c0,.784-.112,3.36-1.232,3.36s-1.2-2.576-1.2-3.36c0-.756.084-3.36,1.176-3.36C-4.4-9.6-4.312-7.056-4.312-6.244Zm8.9-14.168h-3.5V0h3.5V-1.428A2.678,2.678,0,0,0,6.916.252C9.8.252,10.3-4.172,10.3-6.3c0-2.184-.42-6.44-3.36-6.44a2.619,2.619,0,0,0-2.352,1.764ZM6.776-6.244c0,.784-.112,3.36-1.232,3.36s-1.2-2.576-1.2-3.36C4.34-7,4.424-9.6,5.516-9.6,6.692-9.6,6.776-7.056,6.776-6.244Zm8.9-14.168h-3.5V0h3.5V-1.428A2.678,2.678,0,0,0,18,.252c2.884,0,3.388-4.424,3.388-6.552,0-2.184-.42-6.44-3.36-6.44a2.619,2.619,0,0,0-2.352,1.764ZM17.864-6.244c0,.784-.112,3.36-1.232,3.36s-1.2-2.576-1.2-3.36c0-.756.084-3.36,1.176-3.36C17.78-9.6,17.864-7.056,17.864-6.244ZM26.768,0V-20.412h-3.5V0Zm7.644-4.312A3,3,0,0,1,33.88-2.6a1.1,1.1,0,0,1-.7.224.943.943,0,0,1-.728-.336,3.711,3.711,0,0,1-.5-2.212,5.4,5.4,0,0,1,.028-.7H37.52A9.426,9.426,0,0,0,37.6-6.86a6.994,6.994,0,0,0-1.624-4.872,3.713,3.713,0,0,0-2.688-1.008,3.861,3.861,0,0,0-2.856,1.148c-1.288,1.288-1.82,3.5-1.82,5.656A6.935,6.935,0,0,0,30.324-.868a3.863,3.863,0,0,0,3,1.12,3.5,3.5,0,0,0,2.716-.98A5.677,5.677,0,0,0,37.38-4.312Zm-2.38-3.472a3.424,3.424,0,0,1,.532-1.96,1.123,1.123,0,0,1,.784-.336,1.044,1.044,0,0,1,.644.252,3.171,3.171,0,0,1,.56,2.044Z" transform="translate(13074 2695)"/><g class="d" transform="translate(13005 2575)"><circle class="f" cx="23.5" cy="23.5" r="23.5"/><circle class="g" cx="23.5" cy="23.5" r="26.5"/></g><path class="c" d="M-4.332-8V0h1.584V-3.288c1.584.12,2.772-.66,2.772-2.34A2.38,2.38,0,0,0-1.068-7.74,2.464,2.464,0,0,0-2.412-8ZM-2.748-4.62v-2.1h.276c.708,0,.924.444.924,1.08,0,.768-.384,1.02-1.1,1.02ZM4.188-7.74a2.632,2.632,0,0,0-1.4-.384A2.139,2.139,0,0,0,.7-5.76,2.664,2.664,0,0,0,2.172-3.4a2.55,2.55,0,0,1,.852.744.957.957,0,0,1,.084.408.863.863,0,0,1-.936.888A2.106,2.106,0,0,1,1-1.788V-.276a2.447,2.447,0,0,0,1.38.408A2.258,2.258,0,0,0,4.656-2.34c0-2.232-2.4-2.208-2.4-3.588a.746.746,0,0,1,.792-.78,1.791,1.791,0,0,1,1.14.516Z" transform="translate(13029 2603)"/><g class="d" transform="translate(12940 2602)"><circle class="f" cx="27.5" cy="27.5" r="27.5"/><circle class="g" cx="27.5" cy="27.5" r="30.5"/></g><path class="c" d="M-9.084-.876a1.014,1.014,0,0,0-1.008-1.008A1.014,1.014,0,0,0-11.1-.876,1.024,1.024,0,0,0-10.092.144,1.009,1.009,0,0,0-9.084-.876Zm2.472-4.488h-1.5V2.472h1.5V-.612a1.148,1.148,0,0,0,1,.72c1.236,0,1.452-1.9,1.452-2.808,0-.936-.18-2.76-1.44-2.76A1.122,1.122,0,0,0-6.612-4.7Zm.936,2.688c0,.336-.048,1.44-.528,1.44s-.516-1.1-.516-1.44.036-1.44.5-1.44C-5.712-4.116-5.676-3.024-5.676-2.676ZM.4-5.364H-1.116v3.072c0,.288.084,1.008-.372,1.008-.36,0-.372-.516-.372-.78v-3.3h-1.5v3.708a1.647,1.647,0,0,0,.216.924A1.927,1.927,0,0,0-1.5.108,1.961,1.961,0,0,0,.144-.72,1.684,1.684,0,0,0,.4-1.74ZM2.856,0V-8.748h-1.5V0ZM6.924-5A2.257,2.257,0,0,0,5.5-5.46,1.614,1.614,0,0,0,3.708-3.876c0,1.62,1.752,1.524,1.752,2.2a.445.445,0,0,1-.48.444,1.153,1.153,0,0,1-.732-.336L3.588-.5A2.614,2.614,0,0,0,5.22.108a1.7,1.7,0,0,0,1.692-1.86c0-1.62-1.68-1.488-1.68-2.136a.365.365,0,0,1,.384-.384,1.02,1.02,0,0,1,.708.36ZM9.912-1.848a1.284,1.284,0,0,1-.228.732.472.472,0,0,1-.3.1.4.4,0,0,1-.312-.144,1.59,1.59,0,0,1-.216-.948,2.315,2.315,0,0,1,.012-.3h2.376a4.04,4.04,0,0,0,.036-.528,3,3,0,0,0-.7-2.088A1.591,1.591,0,0,0,9.432-5.46a1.655,1.655,0,0,0-1.224.492,3.491,3.491,0,0,0-.78,2.424A2.972,2.972,0,0,0,8.16-.372a1.655,1.655,0,0,0,1.284.48,1.5,1.5,0,0,0,1.164-.42,2.433,2.433,0,0,0,.576-1.536ZM8.892-3.336a1.467,1.467,0,0,1,.228-.84.481.481,0,0,1,.336-.144.447.447,0,0,1,.276.108,1.359,1.359,0,0,1,.24.876Z" transform="translate(12967 2633)"/><g class="d" transform="translate(12969 2749)"><circle class="f" cx="31.5" cy="31.5" r="31.5"/><circle class="g" cx="31.5" cy="31.5" r="34.5"/></g><path class="c" d="M1.853,0-.867-11.339H-3.213L-5.865,0h2.244l.408-1.9H-.952L-.527,0ZM-2.873-3.655a35.066,35.066,0,0,0,.748-4.76c.051.493.119,1,.187,1.5.17,1.105.408,2.176.646,3.264ZM5.032,0V-11.339H2.788V0Z" transform="translate(13000 2787)"/><g class="e" transform="translate(13047 2761)"><circle class="f" cx="39" cy="39" r="39"/><circle class="g" cx="39" cy="39" r="42"/></g><path class="c" d="M-.45,0-3.51-6.88l2.84-6.46H-3.51A20.992,20.992,0,0,0-4.97-9.42a16.963,16.963,0,0,0-1.38-3.92H-9.31l2.82,6.46L-9.31,0h2.96A27.684,27.684,0,0,0-4.97-4.12,19.072,19.072,0,0,0-3.51,0ZM.59-13.34V0H3.17c4.04,0,5.4-3,5.4-6.6,0-2.38-.68-5.2-3.06-6.28a5.93,5.93,0,0,0-2.7-.46ZM3.23-2.44V-11a1.923,1.923,0,0,1,1.34.46c1.06.88,1.36,2.6,1.36,3.92,0,1.66-.52,4.2-2.62,4.18Z" transform="translate(13086 2807)"/><g class="d" transform="translate(13130 2720)"><circle class="f" cx="31.5" cy="31.5" r="31.5"/><circle class="g" cx="31.5" cy="31.5" r="34.5"/></g><path class="c" d="M-7.871-11.339h-6.664V-9.2h3.3L-15.011,0h6.817V-2.125h-3.553Zm5.814,8.755A1.974,1.974,0,0,1-3.4-2.04a1.635,1.635,0,0,1-1.275-.544,5.062,5.062,0,0,1-.8-2.975,4.688,4.688,0,0,1,.935-3.247A1.69,1.69,0,0,1-3.3-9.316a1.8,1.8,0,0,1,1.241.493v-2.312a3.3,3.3,0,0,0-1.411-.323,3.729,3.729,0,0,0-2.72,1.139A6.823,6.823,0,0,0-7.82-5.491,6.2,6.2,0,0,0-6.29-.9,3.471,3.471,0,0,0-3.6.119,2.932,2.932,0,0,0-2.057-.238ZM4.709-3.791c0-1.887-.595-3.944-2.856-3.944-2.176,0-2.89,2.108-2.89,3.944S-.323.153,1.853.153C4.1.153,4.709-1.921,4.709-3.791Zm-2.142,0c0,.459-.051,2.04-.714,2.04-.7,0-.748-1.547-.748-2.04s.051-2.04.748-2.04C2.516-5.831,2.567-4.25,2.567-3.791Zm8.806,0c0-1.887-.6-3.944-2.856-3.944-2.176,0-2.89,2.108-2.89,3.944S6.341.153,8.517.153C10.761.153,11.373-1.921,11.373-3.791Zm-2.142,0c0,.459-.051,2.04-.714,2.04-.7,0-.748-1.547-.748-2.04s.051-2.04.748-2.04C9.18-5.831,9.231-4.25,9.231-3.791ZM14.637,0V-12.393H12.512V0Z" transform="translate(13161 2758)"/><g class="d" transform="translate(12939 2674)"><circle class="f" cx="31.5" cy="31.5" r="31.5"/><circle class="g" cx="31.5" cy="31.5" r="34.5"/></g><path class="c" d="M-11.84-10.965a3.729,3.729,0,0,0-1.989-.544c-1.921,0-2.958,1.564-2.958,3.349,0,1.649.816,2.465,2.091,3.349A3.613,3.613,0,0,1-13.49-3.757a1.355,1.355,0,0,1,.119.578A1.223,1.223,0,0,1-14.7-1.921a2.983,2.983,0,0,1-1.666-.612V-.391a3.466,3.466,0,0,0,1.955.578,3.2,3.2,0,0,0,3.23-3.5c0-3.162-3.4-3.128-3.4-5.083A1.057,1.057,0,0,1-13.455-9.5a2.537,2.537,0,0,1,1.615.731ZM-4.089,0-6.146-4.42-4.48-7.6H-6.69L-7.948-4.675v-7.718h-2.125V0h2.125V-3.927L-6.333,0ZM-.365-2.618A1.819,1.819,0,0,1-.688-1.581a.669.669,0,0,1-.425.136.572.572,0,0,1-.442-.2,2.253,2.253,0,0,1-.306-1.343,3.279,3.279,0,0,1,.017-.425H1.522a5.723,5.723,0,0,0,.051-.748A4.246,4.246,0,0,0,.587-7.123a2.254,2.254,0,0,0-1.632-.612,2.344,2.344,0,0,0-1.734.7A4.945,4.945,0,0,0-3.885-3.6,4.21,4.21,0,0,0-2.847-.527a2.345,2.345,0,0,0,1.819.68A2.128,2.128,0,0,0,.621-.442a3.447,3.447,0,0,0,.816-2.176ZM-1.81-4.726a2.079,2.079,0,0,1,.323-1.19.682.682,0,0,1,.476-.2.634.634,0,0,1,.391.153A1.925,1.925,0,0,1-.28-4.726Zm7.7-1.105V-7.6H5.023V-9.758H2.9V-7.6H2.167v1.768H2.9V0H5.023V-5.831Zm4.471,3.774a1.087,1.087,0,0,1-.629.221C8.7-1.836,8.525-3.06,8.525-3.859c0-.782.221-2.057,1.241-2.057a.8.8,0,0,1,.6.255v-1.87A2.573,2.573,0,0,0,9.29-7.752c-2.21,0-2.907,2.193-2.907,4.046,0,1.717.731,3.859,2.771,3.859a2.723,2.723,0,0,0,1.207-.272ZM16.719,0V-5.491c0-1.02-.1-2.244-1.411-2.244a2.039,2.039,0,0,0-1.8,1.326v-5.984H11.382V0h2.125V-4.4c0-.425-.034-1.207.578-1.207.493,0,.51.612.51.952V0Z" transform="translate(12970 2712)"/><g class="b" transform="translate(13143 2608)"><circle class="f" cx="27.5" cy="27.5" r="27.5"/><circle class="g" cx="27.5" cy="27.5" r="30.5"/></g><path class="c" d="M-3.8,0l-.966-9.338H-7.259L-8-3.822l-.91-5.516h-2.436L-12.159,0h1.974l.294-6.72.112,1.092a11.69,11.69,0,0,0,.238,1.4L-8.673,0h1.414l.826-4.564a18.53,18.53,0,0,0,.28-2.156L-5.691,0Zm5.25-6.258H-.315v3.584c0,.336.1,1.176-.434,1.176-.42,0-.434-.6-.434-.91v-3.85h-1.75v4.326A1.921,1.921,0,0,0-2.681-.854,2.248,2.248,0,0,0-.763.126,2.287,2.287,0,0,0,1.155-.84a1.965,1.965,0,0,0,.294-1.19Zm5.138,0H2.4V-4.8H4.179L2.191,0h4.2V-1.442H4.655ZM9.093,0V-10.206H7.343V0Zm3.136-8.3a1.1,1.1,0,0,0-1.106-1.106A1.1,1.1,0,0,0,10.017-8.3,1.1,1.1,0,0,0,11.123-7.2,1.1,1.1,0,0,0,12.229-8.3ZM11.991,0V-6.258h-1.75V0Z" transform="translate(13169 2640)"/><g class="d" transform="translate(13180 2672)"><circle class="f" cx="21" cy="21" r="21"/><circle class="g" cx="21" cy="21" r="24"/></g><path class="c" d="M-14.645-6.67V0h1.32V-2.74a1.9,1.9,0,0,0,2.31-1.95,1.984,1.984,0,0,0-.91-1.76,2.054,2.054,0,0,0-1.12-.22Zm1.32,2.82V-5.6h.23c.59,0,.77.37.77.9,0,.64-.32.85-.92.85Zm5.19-.78a1.372,1.372,0,0,0-1.03.71v-.55h-1.25V0h1.25V-2.37c0-.65.1-1.07.85-1.07a1.1,1.1,0,0,1,.18.02Zm3.74,2.4c0-1.11-.35-2.32-1.68-2.32-1.28,0-1.7,1.24-1.7,2.32s.42,2.32,1.7,2.32C-4.755.09-4.395-1.13-4.395-2.23Zm-1.26,0c0,.27-.03,1.2-.42,1.2-.41,0-.44-.91-.44-1.2s.03-1.2.44-1.2C-5.685-3.43-5.655-2.5-5.655-2.23Zm4.14,1.02a.64.64,0,0,1-.37.13c-.61,0-.71-.72-.71-1.19s.13-1.21.73-1.21a.469.469,0,0,1,.35.15v-1.1a1.514,1.514,0,0,0-.63-.13c-1.3,0-1.71,1.29-1.71,2.38,0,1.01.43,2.27,1.63,2.27a1.6,1.6,0,0,0,.71-.16Zm2.88-3.42a1.372,1.372,0,0,0-1.03.71v-.55H-.915V0H.335V-2.37c0-.65.1-1.07.85-1.07a1.1,1.1,0,0,1,.18.02Zm2.41,3.09a1.07,1.07,0,0,1-.19.61.394.394,0,0,1-.25.08.337.337,0,0,1-.26-.12,1.325,1.325,0,0,1-.18-.79,1.929,1.929,0,0,1,.01-.25h1.98a3.366,3.366,0,0,0,.03-.44,2.5,2.5,0,0,0-.58-1.74,1.326,1.326,0,0,0-.96-.36,1.379,1.379,0,0,0-1.02.41,2.909,2.909,0,0,0-.65,2.02,2.477,2.477,0,0,0,.61,1.81,1.38,1.38,0,0,0,1.07.4,1.252,1.252,0,0,0,.97-.35,2.027,2.027,0,0,0,.48-1.28Zm-.85-1.24a1.223,1.223,0,0,1,.19-.7A.4.4,0,0,1,3.4-3.6a.373.373,0,0,1,.23.09,1.133,1.133,0,0,1,.2.73ZM8.735,0V-4.47H7.485v.55a.935.935,0,0,0-.84-.63c-1.05,0-1.2,1.52-1.2,2.3,0,.76.18,2.34,1.21,2.34a.956.956,0,0,0,.83-.6V0ZM7.575-2.23c0,.27-.03,1.2-.42,1.2-.42,0-.45-.91-.45-1.2s.03-1.2.44-1.2S7.575-2.51,7.575-2.23Zm3.84-1.2V-4.47H10.9V-5.74H9.655v1.27h-.43v1.04h.43V0H10.9V-3.43Zm2.35,1.89a1.07,1.07,0,0,1-.19.61.394.394,0,0,1-.25.08.337.337,0,0,1-.26-.12,1.325,1.325,0,0,1-.18-.79,1.929,1.929,0,0,1,.01-.25h1.98a3.366,3.366,0,0,0,.03-.44,2.5,2.5,0,0,0-.58-1.74,1.326,1.326,0,0,0-.96-.36,1.379,1.379,0,0,0-1.02.41,2.909,2.909,0,0,0-.65,2.02,2.477,2.477,0,0,0,.61,1.81,1.38,1.38,0,0,0,1.07.4,1.252,1.252,0,0,0,.97-.35,2.027,2.027,0,0,0,.48-1.28Zm-.85-1.24a1.223,1.223,0,0,1,.19-.7.4.4,0,0,1,.28-.12.373.373,0,0,1,.23.09,1.133,1.133,0,0,1,.2.73Z" transform="translate(13201 2697)"/><g class="b" transform="translate(13066 2532)"><circle class="f" cx="42" cy="42" r="42"/><circle class="g" cx="42" cy="42" r="45"/></g><path class="c" d="M-25.34-13.34V0h2.8A4.341,4.341,0,0,0-19.4-1.14a3.535,3.535,0,0,0,1-2.64,3.753,3.753,0,0,0-.46-1.88A2.833,2.833,0,0,0-20.3-6.84a2.7,2.7,0,0,0,1.06-.78,2.856,2.856,0,0,0,.62-1.9,4.069,4.069,0,0,0-1.1-2.88,3.806,3.806,0,0,0-2.8-.94Zm2.64,2.18a1.565,1.565,0,0,1,1.16.4,1.637,1.637,0,0,1,.42,1.2,1.752,1.752,0,0,1-.42,1.24,1.891,1.891,0,0,1-1.16.46Zm0,5.34a1.894,1.894,0,0,1,1.18.42A1.882,1.882,0,0,1-21-4a1.771,1.771,0,0,1-.5,1.3,1.83,1.83,0,0,1-1.2.42Zm9.68,2.74a2.14,2.14,0,0,1-.38,1.22.787.787,0,0,1-.5.16.673.673,0,0,1-.52-.24,2.65,2.65,0,0,1-.36-1.58,3.858,3.858,0,0,1,.02-.5h3.96a6.732,6.732,0,0,0,.06-.88A5,5,0,0,0-11.9-8.38a2.652,2.652,0,0,0-1.92-.72,2.758,2.758,0,0,0-2.04.82,5.818,5.818,0,0,0-1.3,4.04A4.953,4.953,0,0,0-15.94-.62a2.759,2.759,0,0,0,2.14.8,2.5,2.5,0,0,0,1.94-.7,4.055,4.055,0,0,0,.96-2.56Zm-1.7-2.48a2.446,2.446,0,0,1,.38-1.4.8.8,0,0,1,.56-.24.746.746,0,0,1,.46.18,2.265,2.265,0,0,1,.4,1.46ZM-3.14,0V-6.46c0-1.2-.12-2.64-1.66-2.64A2.4,2.4,0,0,0-6.92-7.54v-7.04h-2.5V0h2.5V-5.18c0-.5-.04-1.42.68-1.42.58,0,.6.72.6,1.12V0ZM4.62,0V-8.94H2.12v1.1A1.87,1.87,0,0,0,.44-9.1c-2.1,0-2.4,3.04-2.4,4.6C-1.96-2.98-1.6.18.46.18a1.913,1.913,0,0,0,1.66-1.2V0ZM2.3-4.46c0,.54-.06,2.4-.84,2.4-.84,0-.9-1.82-.9-2.4,0-.56.06-2.4.88-2.4C2.24-6.86,2.3-5.02,2.3-4.46ZM12.5,0V-6.46c0-1.2-.12-2.64-1.66-2.64A2.4,2.4,0,0,0,8.72-7.54v-1.4H6.22V0h2.5V-5.18c0-.5-.04-1.42.68-1.42.58,0,.6.72.6,1.12V0Zm6.02-2.42a1.279,1.279,0,0,1-.74.26c-1.22,0-1.42-1.44-1.42-2.38,0-.92.26-2.42,1.46-2.42a.938.938,0,0,1,.7.3v-2.2a3.027,3.027,0,0,0-1.26-.26c-2.6,0-3.42,2.58-3.42,4.76,0,2.02.86,4.54,3.26,4.54a3.2,3.2,0,0,0,1.42-.32Zm5.06-.66a2.14,2.14,0,0,1-.38,1.22.787.787,0,0,1-.5.16.673.673,0,0,1-.52-.24,2.65,2.65,0,0,1-.36-1.58,3.858,3.858,0,0,1,.02-.5H25.8a6.732,6.732,0,0,0,.06-.88A5,5,0,0,0,24.7-8.38a2.652,2.652,0,0,0-1.92-.72,2.758,2.758,0,0,0-2.04.82,5.818,5.818,0,0,0-1.3,4.04A4.953,4.953,0,0,0,20.66-.62a2.759,2.759,0,0,0,2.14.8,2.5,2.5,0,0,0,1.94-.7,4.055,4.055,0,0,0,.96-2.56Zm-1.7-2.48a2.446,2.446,0,0,1,.38-1.4.8.8,0,0,1,.56-.24.746.746,0,0,1,.46.18,2.265,2.265,0,0,1,.4,1.46Z" transform="translate(13107 2582)"/></g></svg>