<svg xmlns="http://www.w3.org/2000/svg" width="23.322" height="17.952" viewBox="0 0 23.322 17.952"><defs><style>.a{fill:#72d7d1;}</style></defs><path class="a" d="M18.1,31.387a.621.621,0,0,0-.18.435.615.615,0,0,0,1.23,0,.615.615,0,0,0-1.049-.435Zm18.844-2.635H28.749l.992-1.8a2.25,2.25,0,0,0-.3-2.774,2.057,2.057,0,0,0-2.895-.015l-5.011,4.671c-.092.091-.173.19-.259.285H17.439a.614.614,0,0,0-.529.3,9.558,9.558,0,0,0,0,9.289.615.615,0,0,0,.529.3h3.783a7.421,7.421,0,0,0,5.57,2.516H30a2.054,2.054,0,0,0,1.852-2.95,2.053,2.053,0,0,0,1.232-3.114,2.049,2.049,0,0,0,.836-2.6h3.021a2.058,2.058,0,0,0,0-4.117Zm-16.6,9.036H17.812a8.375,8.375,0,0,1-.013-7.435h2.574a7.4,7.4,0,0,0-.032,7.435Zm16.6-6.147H29.406a.614.614,0,1,0,0,1.229H32.04a.83.83,0,1,1,0,1.659H29.067a.614.614,0,1,0,0,1.229H31.36a.83.83,0,0,1,0,1.659H28.727a.614.614,0,1,0,0,1.229H30A.83.83,0,1,1,30,40.3H26.793a6.2,6.2,0,0,1-4.775-2.246c-.007-.012-.018-.021-.027-.033a6.2,6.2,0,0,1,.41-8.318L27.4,25.051a.85.85,0,0,1,1.174,0,1.069,1.069,0,0,1,.1,1.311l-1.32,2.389h-.882a.614.614,0,1,0,0,1.229H36.94a.83.83,0,1,1,0,1.66Z" transform="translate(-15.678 -23.58)"/></svg>