<svg xmlns="http://www.w3.org/2000/svg" width="547.33" height="219.274" viewBox="0 0 547.33 219.274"><defs><style>.a{fill:#222429;}.b{fill:#2b2d34;}.c{fill:none;stroke:#4d4f4f;stroke-dasharray:2.5;}.d{fill:#e1e1e1;}.e{fill:#72d7d1;}.f{fill:#ff6a6a;}</style></defs><g transform="translate(-834.456 -4399)"><g transform="translate(56 -38)"><rect class="a" width="448" height="32" transform="translate(868 4437)"/><rect class="b" width="448" height="32" transform="translate(868 4469)"/><rect class="a" width="448" height="32" transform="translate(868 4501)"/><rect class="b" width="448" height="32" transform="translate(868 4533)"/><rect class="b" width="448" height="32" transform="translate(868 4597)"/><rect class="a" width="448" height="32" transform="translate(868 4565)"/></g><g transform="translate(0 36.257)"><line class="c" y2="171.187" transform="translate(924.5 4389.5)"/><line class="c" y2="171.187" transform="translate(1073.5 4389.5)"/><line class="c" y2="171.187" transform="translate(1222.5 4389.5)"/><line class="c" y2="171.187" transform="translate(1371.5 4389.5)"/></g><path class="d" d="M-.84-8.9A2.9,2.9,0,0,0-2.3-9.45v-1.064h-.686v1.092A2.111,2.111,0,0,0-4.69-7.182c0,2.982,3.43,2.548,3.43,4.76,0,.966-.546,1.75-1.428,1.75a2.211,2.211,0,0,1-1.358-.616l-.5.6a2.539,2.539,0,0,0,1.568.8V1.274H-2.3V.084A2.4,2.4,0,0,0-.448-2.464c0-2.884-3.43-2.3-3.43-4.774A1.331,1.331,0,0,1-2.506-8.666a2.285,2.285,0,0,1,1.232.42Zm5.5,3.92c0-1.33-.014-4.48-1.946-4.48C.63-9.464.462-5.95.462-4.466.462-3.094.6.126,2.548.126,4.62.126,4.662-3.556,4.662-4.984Zm-.84-.308a13.019,13.019,0,0,1-.42,3.92c-.14.364-.35.7-.8.7-.49,0-.728-.378-.9-.784A9.379,9.379,0,0,1,1.3-4.522c0-.9.1-4.144,1.372-4.144C3.808-8.666,3.822-6.062,3.822-5.292Z" transform="translate(924 4617)"/><path class="d" d="M-5.684-8.9A2.9,2.9,0,0,0-7.14-9.45v-1.064h-.686v1.092a2.111,2.111,0,0,0-1.708,2.24c0,2.982,3.43,2.548,3.43,4.76,0,.966-.546,1.75-1.428,1.75A2.211,2.211,0,0,1-8.89-1.288l-.5.6a2.539,2.539,0,0,0,1.568.8V1.274h.686V.084A2.4,2.4,0,0,0-5.292-2.464c0-2.884-3.43-2.3-3.43-4.774A1.331,1.331,0,0,1-7.35-8.666a2.285,2.285,0,0,1,1.232.42ZM-1.708,0V-9.338H-3.78v.812h1.2V0Zm6.09-4.984c0-1.33-.014-4.48-1.946-4.48C.35-9.464.182-5.95.182-4.466.182-3.094.322.126,2.268.126,4.34.126,4.382-3.556,4.382-4.984Zm-.84-.308a13.019,13.019,0,0,1-.42,3.92c-.14.364-.35.7-.8.7-.49,0-.728-.378-.9-.784a9.379,9.379,0,0,1-.406-3.066c0-.9.1-4.144,1.372-4.144C3.528-8.666,3.542-6.062,3.542-5.292Zm5.964.308c0-1.33-.014-4.48-1.946-4.48-2.086,0-2.254,3.514-2.254,5,0,1.372.14,4.592,2.086,4.592C9.464.126,9.506-3.556,9.506-4.984Zm-.84-.308a13.019,13.019,0,0,1-.42,3.92c-.14.364-.35.7-.8.7-.49,0-.728-.378-.9-.784a9.379,9.379,0,0,1-.406-3.066c0-.9.1-4.144,1.372-4.144C8.652-8.666,8.666-6.062,8.666-5.292Z" transform="translate(1074 4617)"/><path class="d" d="M-5.964-8.9A2.9,2.9,0,0,0-7.42-9.45v-1.064h-.686v1.092a2.111,2.111,0,0,0-1.708,2.24c0,2.982,3.43,2.548,3.43,4.76,0,.966-.546,1.75-1.428,1.75A2.211,2.211,0,0,1-9.17-1.288l-.5.6a2.539,2.539,0,0,0,1.568.8V1.274h.686V.084A2.4,2.4,0,0,0-5.572-2.464C-5.572-5.348-9-4.76-9-7.238A1.331,1.331,0,0,1-7.63-8.666a2.285,2.285,0,0,1,1.232.42Zm1.5,2.114h.854v-.168c0-.77.112-1.708,1.078-1.708.728,0,.98.644.98,1.274A8.022,8.022,0,0,1-2.688-3.948L-4.606,0H-.784V-.826H-3.332L-1.9-3.64A8.386,8.386,0,0,0-.672-7.392a1.869,1.869,0,0,0-1.9-2.072C-4.172-9.464-4.466-8.134-4.466-6.79ZM4.662-4.984c0-1.33-.014-4.48-1.946-4.48C.63-9.464.462-5.95.462-4.466.462-3.094.6.126,2.548.126,4.62.126,4.662-3.556,4.662-4.984Zm-.84-.308a13.019,13.019,0,0,1-.42,3.92c-.14.364-.35.7-.8.7-.49,0-.728-.378-.9-.784A9.379,9.379,0,0,1,1.3-4.522c0-.9.1-4.144,1.372-4.144C3.808-8.666,3.822-6.062,3.822-5.292Zm5.964.308c0-1.33-.014-4.48-1.946-4.48-2.086,0-2.254,3.514-2.254,5,0,1.372.14,4.592,2.086,4.592C9.744.126,9.786-3.556,9.786-4.984Zm-.84-.308a13.019,13.019,0,0,1-.42,3.92c-.14.364-.35.7-.8.7-.49,0-.728-.378-.9-.784a9.379,9.379,0,0,1-.406-3.066c0-.9.1-4.144,1.372-4.144C8.932-8.666,8.946-6.062,8.946-5.292Z" transform="translate(1223 4617)"/><path class="d" d="M-5.964-8.9A2.9,2.9,0,0,0-7.42-9.45v-1.064h-.686v1.092a2.111,2.111,0,0,0-1.708,2.24c0,2.982,3.43,2.548,3.43,4.76,0,.966-.546,1.75-1.428,1.75A2.211,2.211,0,0,1-9.17-1.288l-.5.6a2.539,2.539,0,0,0,1.568.8V1.274h.686V.084A2.4,2.4,0,0,0-5.572-2.464C-5.572-5.348-9-4.76-9-7.238A1.331,1.331,0,0,1-7.63-8.666a2.285,2.285,0,0,1,1.232.42Zm2.338,1.75c.014-.686.1-1.47.98-1.47.812,0,1.022.686,1.022,1.372a2.137,2.137,0,0,1-.35,1.344A1.289,1.289,0,0,1-3.122-5.5h-.364v.77h.42c1.26,0,1.568.98,1.568,2.058,0,.756-.07,1.96-1.092,1.96-1.064,0-1.092-1.05-1.092-1.848h-.854v.378c0,1.3.49,2.31,1.932,2.31,1.582,0,1.946-1.3,1.946-2.632,0-1.022-.112-2.2-1.19-2.66A2.091,2.091,0,0,0-.784-7.308c0-1.218-.532-2.156-1.862-2.156S-4.41-8.316-4.424-7.154Zm8.288,2.17c0-1.33-.014-4.48-1.946-4.48C.63-9.464.462-5.95.462-4.466.462-3.094.6.126,2.548.126,4.62.126,4.662-3.556,4.662-4.984Zm-.84-.308a13.019,13.019,0,0,1-.42,3.92c-.14.364-.35.7-.8.7-.49,0-.728-.378-.9-.784A9.379,9.379,0,0,1,1.3-4.522c0-.9.1-4.144,1.372-4.144C3.808-8.666,3.822-6.062,3.822-5.292Zm5.964.308c0-1.33-.014-4.48-1.946-4.48-2.086,0-2.254,3.514-2.254,5,0,1.372.14,4.592,2.086,4.592C9.744.126,9.786-3.556,9.786-4.984Zm-.84-.308a13.019,13.019,0,0,1-.42,3.92c-.14.364-.35.7-.8.7-.49,0-.728-.378-.9-.784a9.379,9.379,0,0,1-.406-3.066c0-.9.1-4.144,1.372-4.144C8.932-8.666,8.946-6.062,8.946-5.292Z" transform="translate(1372 4617)"/><path class="e" d="M-25.408-10.672h-1.408v7.84c0,.8.032,1.616-1.024,1.616-1.008,0-1.072-.832-1.072-1.616v-7.84H-30.32v7.888c0,1.712.48,2.928,2.432,2.928,2.08,0,2.48-1.136,2.48-2.976ZM-19.76,0V-11.664h-1.328v5.328a1.334,1.334,0,0,0-1.28-.928c-1.712,0-1.744,2.384-1.744,3.6,0,1.184.016,3.776,1.712,3.776.736,0,1.04-.416,1.312-1.024V0Zm-1.28-3.184c0,.56-.032,2.112-.848,2.112-.832,0-.864-1.44-.864-2.016v-.976c0-.576.032-2,.864-2,.816,0,.848,1.552.848,2.112Zm6.816-.128c0-1.488-.128-3.952-2.144-3.952-1.984,0-2.16,2.224-2.16,3.712,0,1.536.176,3.664,2.192,3.664A1.912,1.912,0,0,0-14.544-.976a3.4,3.4,0,0,0,.272-1.44H-15.5c0,.528-.112,1.392-.816,1.392-.912,0-.912-1.664-.912-2.288Zm-3.008-.96c.032-.544.048-1.872.832-1.872.8,0,.8,1.312.832,1.872ZM-6.032,0V-5.7A1.4,1.4,0,0,0-7.568-7.264a1.525,1.525,0,0,0-1.488.992,1.214,1.214,0,0,0-1.28-.992c-.72,0-1.056.4-1.392.992v-.88H-13.04V0h1.312V-4.7c0-.624-.032-1.36.784-1.36.784,0,.752.784.752,1.36V0H-8.88V-4.7c0-.624-.032-1.36.8-1.36.784,0,.736.784.736,1.36V0ZM-.048-7.152H-1.392L-2.624-2.16l-1.04-4.992h-1.5l1.9,6.576L-4.4,3.008h1.392Z" transform="translate(911 4450)"/><path class="e" d="M-72.7-9.456v-1.216h-3.84V0h1.44V-4.864h2.176V-6.08H-75.1V-9.456Zm3.792,2.144a1.724,1.724,0,0,0-1.552,1.056v-.9h-1.312V0h1.312V-4.336c0-.96.224-1.616,1.312-1.616a1.211,1.211,0,0,1,.24.016Zm5.136,3.744c0-1.552-.224-3.7-2.256-3.7s-2.24,2.144-2.24,3.7.224,3.68,2.24,3.68C-64,.112-63.776-2.016-63.776-3.568Zm-1.376.416c0,.576-.016,2.032-.848,2.032s-.848-1.472-.848-2.048v-.864c0-.576.016-2.032.848-2.032s.848,1.472.848,2.048ZM-58.32,0V-5.28c0-1.008-.208-1.984-1.44-1.984a1.593,1.593,0,0,0-1.472.944v-.832h-1.312V0h1.312V-4.624c0-.608,0-1.488.832-1.488.736,0,.752.784.768,1.472V0Zm3.7-6.128V-7.152h-.72V-9.184h-1.312v2.032h-.736v1.024h.736V0h1.312V-6.128ZM-49.7-3.312c0-1.488-.128-3.952-2.144-3.952C-53.824-7.264-54-5.04-54-3.552c0,1.536.176,3.664,2.192,3.664A1.912,1.912,0,0,0-50.016-.976a3.4,3.4,0,0,0,.272-1.44h-1.232c0,.528-.112,1.392-.816,1.392-.912,0-.912-1.664-.912-2.288Zm-3.008-.96c.032-.544.048-1.872.832-1.872.8,0,.8,1.312.832,1.872ZM-44.288,0V-5.28c0-1.008-.208-1.984-1.44-1.984A1.593,1.593,0,0,0-47.2-6.32v-.832h-1.312V0H-47.2V-4.624c0-.608,0-1.488.832-1.488.736,0,.752.784.768,1.472V0ZM-38.7,0V-11.664h-1.328v5.328a1.334,1.334,0,0,0-1.28-.928c-1.712,0-1.744,2.384-1.744,3.6,0,1.184.016,3.776,1.712,3.776.736,0,1.04-.416,1.312-1.024V0Zm-1.28-3.184c0,.56-.032,2.112-.848,2.112-.832,0-.864-1.44-.864-2.016v-.976c0-.576.032-2,.864-2,.816,0,.848,1.552.848,2.112ZM-26.512,0-27.5-10.672h-1.248l-.832,4.288c-.048.256-.112.5-.16.752-.064.384-.112.784-.176,1.168-.08.5-.208.992-.24,1.5-.112-.864-.24-1.728-.4-2.592-.048-.256-.128-.512-.176-.768l-.928-4.352H-32.9L-33.776,0h1.344l.416-7.344c.3,2.48.9,4.912,1.408,7.344h.96c.464-2.448.976-4.88,1.36-7.344a11.562,11.562,0,0,1,.048,1.488c.016.48.048.944.064,1.424C-28.112-2.96-28-1.472-27.9,0Zm5.184,0V-7.152h-1.328v.816a1.39,1.39,0,0,0-1.3-.928c-1.7,0-1.728,2.4-1.728,3.6,0,1.184.016,3.776,1.712,3.776.736,0,1.04-.416,1.312-1.024V0Zm-1.28-3.184c0,.56-.032,2.112-.848,2.112-.832,0-.864-1.44-.864-2.016v-.976c0-.576.032-2,.864-2,.816,0,.848,1.552.848,2.112Zm5.536-3.824a2.332,2.332,0,0,0-1.184-.3,1.848,1.848,0,0,0-1.92,1.952c0,1.952,2.24,2.1,2.24,3.392a.829.829,0,0,1-.912.9A1.722,1.722,0,0,1-19.936-1.5v1.28a1.916,1.916,0,0,0,1.168.336A1.957,1.957,0,0,0-16.72-2c0-2.032-2.208-2.16-2.208-3.328a.823.823,0,0,1,.848-.8,1.642,1.642,0,0,1,1.008.352Zm3.6.88V-7.152h-.72V-9.184H-15.5v2.032h-.736v1.024h.736V0h1.312V-6.128Zm4.928,2.816c0-1.488-.128-3.952-2.144-3.952-1.984,0-2.16,2.224-2.16,3.712,0,1.536.176,3.664,2.192,3.664A1.912,1.912,0,0,0-8.864-.976a3.4,3.4,0,0,0,.272-1.44H-9.824c0,.528-.112,1.392-.816,1.392-.912,0-.912-1.664-.912-2.288Zm-3.008-.96c.032-.544.048-1.872.832-1.872.8,0,.8,1.312.832,1.872ZM-4.5-7.312A1.724,1.724,0,0,0-6.048-6.256v-.9H-7.36V0h1.312V-4.336c0-.96.224-1.616,1.312-1.616a1.211,1.211,0,0,1,.24.016Zm3.84.3a2.332,2.332,0,0,0-1.184-.3A1.848,1.848,0,0,0-3.76-5.36c0,1.952,2.24,2.1,2.24,3.392a.829.829,0,0,1-.912.9A1.722,1.722,0,0,1-3.52-1.5v1.28A1.916,1.916,0,0,0-2.352.112,1.957,1.957,0,0,0-.3-2c0-2.032-2.208-2.16-2.208-3.328a.823.823,0,0,1,.848-.8,1.642,1.642,0,0,1,1.008.352Z" transform="translate(911 4482)"/><path class="e" d="M-64.56-5.136c0-1.312-.032-3.392-.688-4.528a2.284,2.284,0,0,0-2.1-1.136,2.184,2.184,0,0,0-2.192,1.3,9.54,9.54,0,0,0-.576,3.92c0,1.264.048,3.424.656,4.528a2.32,2.32,0,0,0,2.144,1.2c1.776,0,2.336-1.2,2.592-2.768A16.426,16.426,0,0,0-64.56-5.136Zm-1.5-.4a14.616,14.616,0,0,1-.272,3.584,1.024,1.024,0,0,1-.992.768c-.8,0-1.024-.736-1.136-1.392a21.6,21.6,0,0,1-.144-3.376,7.393,7.393,0,0,1,.432-3.1.914.914,0,0,1,.832-.448c.64,0,.928.432,1.056,1.008A13.122,13.122,0,0,1-66.064-5.536Zm4.176-1.616H-63.2V3.008h1.312V-.8a1.34,1.34,0,0,0,1.28.912c1.728,0,1.76-2.368,1.76-3.6,0-1.184-.016-3.776-1.712-3.776-.736,0-1.056.432-1.328,1.04Zm1.664,4.064c0,.576-.032,2.016-.864,2.016-.8,0-.832-1.568-.832-2.128v-.736c0-.56.032-2.128.832-2.128.832,0,.864,1.424.864,2Zm6.64-.224c0-1.488-.128-3.952-2.144-3.952-1.984,0-2.16,2.224-2.16,3.712,0,1.536.176,3.664,2.192,3.664A1.912,1.912,0,0,0-53.9-.976a3.4,3.4,0,0,0,.272-1.44h-1.232c0,.528-.112,1.392-.816,1.392-.912,0-.912-1.664-.912-2.288Zm-3.008-.96c.032-.544.048-1.872.832-1.872.8,0,.8,1.312.832,1.872ZM-48.176,0V-5.28c0-1.008-.208-1.984-1.44-1.984a1.593,1.593,0,0,0-1.472.944v-.832H-52.4V0h1.312V-4.624c0-.608,0-1.488.832-1.488.736,0,.752.784.768,1.472V0Zm9.088,0V-1.216H-41.44v-9.456h-1.44V0Zm4.912,0V-7.152H-35.5v.816a1.39,1.39,0,0,0-1.3-.928c-1.7,0-1.728,2.4-1.728,3.6,0,1.184.016,3.776,1.712,3.776.736,0,1.04-.416,1.312-1.024V0Zm-1.28-3.184c0,.56-.032,2.112-.848,2.112-.832,0-.864-1.44-.864-2.016v-.976c0-.576.032-2,.864-2,.816,0,.848,1.552.848,2.112ZM-28.448,0V-5.28c0-1.008-.208-1.984-1.44-1.984a1.593,1.593,0,0,0-1.472.944v-.832h-1.312V0h1.312V-4.624c0-.608,0-1.488.832-1.488.736,0,.752.784.768,1.472V0Zm5.6-7.152h-1.328v.864c-.3-.56-.608-.976-1.3-.976-1.728,0-1.744,2.48-1.744,3.712,0,1.2.032,3.664,1.744,3.664a1.349,1.349,0,0,0,1.3-.992V.656c0,.592-.032,1.248-.8,1.248-.7,0-.848-.56-.848-1.152H-27.1c0,.08-.016.16-.016.24a1.911,1.911,0,0,0,2.032,2.016c1.744,0,2.24-.912,2.24-2.528ZM-24.16-3.664c0,.368,0,.72-.016,1.088-.032.528-.064,1.5-.784,1.5-.88,0-.9-1.664-.9-2.256,0-.624-.1-2.736.816-2.736C-24.16-6.064-24.16-4.272-24.16-3.664ZM-17.1-7.152h-1.328v4.288c0,.672.192,1.728-.8,1.728-.768,0-.784-.64-.8-1.232,0-.16-.016-.336-.016-.5V-7.152H-21.36V-2.32a2.8,2.8,0,0,0,.4,1.728A1.954,1.954,0,0,0-19.3.128c1.712,0,2.192-.864,2.192-2.448ZM-11.536,0V-7.152h-1.328v.816a1.39,1.39,0,0,0-1.3-.928c-1.7,0-1.728,2.4-1.728,3.6,0,1.184.016,3.776,1.712,3.776.736,0,1.04-.416,1.312-1.024V0Zm-1.28-3.184c0,.56-.032,2.112-.848,2.112-.832,0-.864-1.44-.864-2.016v-.976c0-.576.032-2,.864-2,.816,0,.848,1.552.848,2.112Zm6.88-3.968H-7.264v.864c-.3-.56-.608-.976-1.3-.976-1.728,0-1.744,2.48-1.744,3.712,0,1.2.032,3.664,1.744,3.664a1.349,1.349,0,0,0,1.3-.992V.656c0,.592-.032,1.248-.8,1.248-.7,0-.848-.56-.848-1.152h-1.28c0,.08-.016.16-.016.24A1.911,1.911,0,0,0-8.176,3.008c1.744,0,2.24-.912,2.24-2.528ZM-7.248-3.664c0,.368,0,.72-.016,1.088-.032.528-.064,1.5-.784,1.5-.88,0-.9-1.664-.9-2.256,0-.624-.1-2.736.816-2.736C-7.248-6.064-7.248-4.272-7.248-3.664Zm6.816.352c0-1.488-.128-3.952-2.144-3.952-1.984,0-2.16,2.224-2.16,3.712,0,1.536.176,3.664,2.192,3.664A1.912,1.912,0,0,0-.752-.976,3.4,3.4,0,0,0-.48-2.416H-1.712c0,.528-.112,1.392-.816,1.392-.912,0-.912-1.664-.912-2.288Zm-3.008-.96c.032-.544.048-1.872.832-1.872.8,0,.8,1.312.832,1.872Z" transform="translate(911 4514)"/><path class="e" d="M-30.16-5.616h-2.608V-4.4h1.248v.784c0,.864-.032,2.416-1.232,2.416-.768,0-.976-.544-1.1-1.2a16.278,16.278,0,0,1-.192-2.928,12.288,12.288,0,0,1,.384-3.648.865.865,0,0,1,.864-.56c.9,0,1.088.752,1.232,1.472l1.344-.56c-.4-1.376-1.04-2.176-2.56-2.176a2.272,2.272,0,0,0-2.368,1.744,13.591,13.591,0,0,0-.384,3.776,17.19,17.19,0,0,0,.16,2.56c.256,1.584.832,2.864,2.656,2.864a2.154,2.154,0,0,0,2.256-1.728,13.71,13.71,0,0,0,.3-3.616ZM-24.72,0V-7.152h-1.328v.816a1.39,1.39,0,0,0-1.3-.928c-1.7,0-1.728,2.4-1.728,3.6,0,1.184.016,3.776,1.712,3.776.736,0,1.04-.416,1.312-1.024V0ZM-26-3.184c0,.56-.032,2.112-.848,2.112-.832,0-.864-1.44-.864-2.016v-.976c0-.576.032-2,.864-2,.816,0,.848,1.552.848,2.112ZM-21.9,0V-11.664h-1.312V0Zm8.864-10.448a2.785,2.785,0,0,0-1.472-.352c-1.632,0-2.416,1.2-2.416,2.72,0,2.848,2.992,3.184,2.992,5.392A1.29,1.29,0,0,1-15.2-1.232a2.279,2.279,0,0,1-1.392-.56V-.368a2.43,2.43,0,0,0,1.568.512,2.572,2.572,0,0,0,2.48-2.832c0-2.944-2.976-3.44-2.976-5.408a1.313,1.313,0,0,1,1.3-1.424,1.9,1.9,0,0,1,1.168.48ZM-7.168,0V-5.28c0-1.008-.208-1.984-1.44-1.984a1.593,1.593,0,0,0-1.472.944v-5.344h-1.312V0h1.312V-4.624c0-.608,0-1.488.832-1.488.736,0,.752.784.768,1.344V0Zm2.816-9.3a.9.9,0,0,0-.88-.9.9.9,0,0,0-.9.9.9.9,0,0,0,.9.9A.9.9,0,0,0-4.352-9.3ZM-4.528,0V-7.152H-5.84V0ZM-.16-7.312A1.724,1.724,0,0,0-1.712-6.256v-.9H-3.024V0h1.312V-4.336c0-.96.224-1.616,1.312-1.616a1.211,1.211,0,0,1,.24.016Z" transform="translate(911 4546)"/><path class="e" d="M-23.152-10.672h-1.44V-2.88c0,.72.032,1.664-.944,1.664a1.975,1.975,0,0,1-.96-.368v1.44a2.54,2.54,0,0,0,1.232.288A1.918,1.918,0,0,0-23.312-1.1a3.856,3.856,0,0,0,.16-1.28Zm5.84,3.52H-18.64v4.288c0,.672.192,1.728-.8,1.728-.768,0-.784-.64-.8-1.232,0-.16-.016-.336-.016-.5V-7.152h-1.312V-2.32a2.8,2.8,0,0,0,.4,1.728A1.954,1.954,0,0,0-19.5.128c1.712,0,2.192-.864,2.192-2.448Zm5.52,3.84c0-1.488-.128-3.952-2.144-3.952-1.984,0-2.16,2.224-2.16,3.712,0,1.536.176,3.664,2.192,3.664A1.912,1.912,0,0,0-12.112-.976a3.4,3.4,0,0,0,.272-1.44h-1.232c0,.528-.112,1.392-.816,1.392-.912,0-.912-1.664-.912-2.288Zm-3.008-.96c.032-.544.048-1.872.832-1.872.8,0,.8,1.312.832,1.872ZM-9.12-9.3a.9.9,0,0,0-.88-.9.9.9,0,0,0-.9.9.9.9,0,0,0,.9.9A.9.9,0,0,0-9.12-9.3ZM-9.3,3.008V-7.152h-1.312V3.008ZM-6.3-9.3a.9.9,0,0,0-.88-.9.9.9,0,0,0-.9.9.9.9,0,0,0,.9.9A.9.9,0,0,0-6.3-9.3ZM-6.48,0V-7.152H-7.792V0ZM-.752,0V-5.28c0-1.008-.208-1.984-1.44-1.984a1.593,1.593,0,0,0-1.472.944v-.832H-4.976V0h1.312V-4.624c0-.608,0-1.488.832-1.488.736,0,.752.784.768,1.472V0Z" transform="translate(911 4579)"/><rect class="f" width="432" height="16" transform="translate(924 4439)"/><rect class="f" width="246" height="16" transform="translate(924 4471)"/><rect class="f" width="197" height="16" transform="translate(924 4503)"/><rect class="f" width="80" height="16" transform="translate(924 4535)"/><rect class="f" width="53" height="16" transform="translate(924 4567)"/></g></svg>