<svg xmlns="http://www.w3.org/2000/svg" width="116.301" height="21.301" viewBox="0 0 116.301 21.301"><defs><style>.a{fill:#72d7d1;}</style></defs><g transform="translate(0 0)"><path class="a" d="M3.575,3.575,7.15,0H0Z" transform="matrix(0.966, 0.259, -0.259, 0.966, 9.914, 5.589)"/><path class="a" d="M0,0,3.6,3.6h7.828L7.828,0Z" transform="translate(3.419 0) rotate(7)"/><rect class="a" width="5.51" height="5.535" transform="translate(18.392 8.117) rotate(39)"/><path class="a" d="M7.355,7.355V0H0Z" transform="matrix(0.985, -0.174, 0.174, 0.985, 15.785, 1.887)"/><path class="a" d="M7.818,7.818,0,0V15.636Z" transform="translate(0 4.391) rotate(-9)"/><path class="a" d="M0,3.468,3.468,6.936V0Z" transform="matrix(0.978, 0.208, -0.208, 0.978, 21.621, 13.421)"/><path class="a" d="M16.687,170.517l-7.818,7.818H24.5Z" transform="translate(-3.782 -157.034)"/></g><path class="a" d="M-44.144-12.569q-.052.052-.078.052h-.052a.106.106,0,0,1,.026-.078,2.115,2.115,0,0,1,.182-.3,2.115,2.115,0,0,0,.182-.3,3.086,3.086,0,0,0,.234-.935l-.052.208a2.59,2.59,0,0,1-.571,1.22.14.14,0,0,1-.208.026q-.1-.078,0-.182a2.309,2.309,0,0,0,.415-.779,6.688,6.688,0,0,0,.26-1.9,6.573,6.573,0,0,0-.026-.675,6.938,6.938,0,0,0-.156-1.142l-.1-.779a.455.455,0,0,0-.052-.13q-.052-.13-.143-.325a5.089,5.089,0,0,0-.247-.454,1.343,1.343,0,0,0-.415-.545v-.052a1.154,1.154,0,0,0,.143.117.3.3,0,0,1,.117.143l.545.857a4.66,4.66,0,0,1,.26.649l.208.857.026-.026q-.026-.13-.078-.48a4.527,4.527,0,0,1-.052-.662l.052.052.078.052.026-.078a1.412,1.412,0,0,0-.13-.467,4.16,4.16,0,0,0-.221-.389A4.16,4.16,0,0,1-44.2-19.4a1.814,1.814,0,0,0-1.064-.779,3.343,3.343,0,0,0-1.428-.26q-.727-.052-1.116-.052l-1.506.026a1.72,1.72,0,0,0-.363.026,1.959,1.959,0,0,1-.363.026,3.088,3.088,0,0,1-.467-.026h-.052a.207.207,0,0,0-.234.234l.026.208-.026,1.584.026.987-.026,1.064v2.908l-.026.493.026.675v2.414l.026,1.4v.156q0,.675-.026,1.012l-.026.753q0,.26.013.623t-.013.857a2.049,2.049,0,0,0,.156.857h-.013q-.013,0-.013.026l-.1-.026.052.078a1.646,1.646,0,0,1,.273.1.7.7,0,0,0,.273.078A.85.85,0,0,0-49.985-4h.026a1.748,1.748,0,0,0,.286-.026A.326.326,0,0,1-49.44-4a1.547,1.547,0,0,1,.337-.026,1.747,1.747,0,0,1,.623.13l.1-.052.363.052v-.026l-.182-.026V-4h.182q.312-.026.935-.026.389-.026,1.116-.13a2.883,2.883,0,0,0,1.35-.389A2.732,2.732,0,0,0-43.365-5.9a5.833,5.833,0,0,0,.415-1.817,1.459,1.459,0,0,1,.052-.337v-.013q0-.013-.026-.013L-43-8v-.234a4.2,4.2,0,0,1-.026-.545V-9.22a2.928,2.928,0,0,0-.052-.649q-.026-.156-.078-.493a1.4,1.4,0,0,0-.208-.571q-.026-.052-.065-.143t-.065-.143l-.389-.623.052.026v-.026l-.441-.467v-.013q0-.013.026-.013l.1.078.467.467a2,2,0,0,1,.441.727,4.909,4.909,0,0,1,.182.545l-.026-.286a2.989,2.989,0,0,0-.493-.961,5.32,5.32,0,0,0-.493-.571.18.18,0,0,1-.052-.182Zm0,1.3q.052.052.156.169a.544.544,0,0,1,.13.221,2.423,2.423,0,0,1,.156.7q.026.234.052.584t.026.844q0,.26-.052.831,0,.052.013.195a.746.746,0,0,1-.013.247l-.052.208h-.026l-.026-.078q.052-.623.052-.961,0-.649-.052-1.947a1.769,1.769,0,0,0-.26-.8,1.018,1.018,0,0,1-.1-.234,1.486,1.486,0,0,1-.286-.26q-.026-.026-.338-.415l-.052.026h.052l.6.6Q-44.144-11.349-44.144-11.271Zm-.286-1.973q-.052.052-.13.143a.525.525,0,0,0-.1.169q0,.052-.078.052v-.1q-.026.026.363-.441.026-.078.078-.247t.078-.3q.078-.519.13-1.558A3.61,3.61,0,0,0-44.1-16.2q-.039-.389-.065-.6-.052-.675-.1-1.038a1.314,1.314,0,0,0-.208-.623l-.156-.234q.026,0,.026-.013v-.013q.052.078.117.169t.117.169a2.1,2.1,0,0,1,.169.649q.039.363.065.493a.617.617,0,0,0,.026.169.617.617,0,0,1,.026.169h.026l-.026-.286h.052a4.411,4.411,0,0,1,.1.8h-.026a.106.106,0,0,1-.026-.078v.649h.026V-16.2a1.182,1.182,0,0,1,.052.441,9.1,9.1,0,0,1-.078,1.077,4.459,4.459,0,0,1-.156.844l.026-.182h-.026l-.078.312-.156.286Zm.675,7.269a3.964,3.964,0,0,0,.286-.961,2.652,2.652,0,0,0,.1-.779,2.353,2.353,0,0,0-.026-.415q0-.1.013-.325a1.437,1.437,0,0,0-.013-.35q-.052-1.09-.1-1.662a1.839,1.839,0,0,0-.571-1.194l-.363-.389-.052-.1a.205.205,0,0,1,.13.026,4.889,4.889,0,0,1,.4.338,1.033,1.033,0,0,1,.273.389,5.8,5.8,0,0,1,.363.909A6.166,6.166,0,0,1-43.105-8.8l-.026.779a6.712,6.712,0,0,1-.156,1.194,3.494,3.494,0,0,1-.571,1.4,1.791,1.791,0,0,1-.519.467,3.562,3.562,0,0,1-.753.441,2.4,2.4,0,0,1-.675.182q-.312.052-.883.1-.935.052-1.376.052-.026.026-.1-.026l.1-.052a.053.053,0,0,1-.039-.013.053.053,0,0,0-.039-.013h.052a3.327,3.327,0,0,1,.506-.013,3.326,3.326,0,0,0,.506-.013q.052,0,.441-.078h.441q.337-.1.441-.13a2.594,2.594,0,0,0,1.272-.545,1.88,1.88,0,0,0,.519-.571,3.537,3.537,0,0,1-.623.623,3.624,3.624,0,0,1-1.454.519,6.957,6.957,0,0,0-.7.052l-.727.078a1.78,1.78,0,0,1-.363.013q-.156-.013-.26-.013h-.078v-.052h.078q.649-.026,1.311-.078a7.891,7.891,0,0,0,1.207-.182,3.051,3.051,0,0,0,1.4-.857A2.62,2.62,0,0,0-43.7-6.52l.26-.883a4.1,4.1,0,0,1-.156.87Q-43.729-6.079-43.754-5.975Zm-2.8-5.011a1.041,1.041,0,0,1,.8.325,1.017,1.017,0,0,1,.338.818q0,1.532-.052,2.285a5.5,5.5,0,0,1-.182.857l-.078.078q-.052,0-.052.026a.582.582,0,0,1-.467.182,4.588,4.588,0,0,0-.48.026,4.588,4.588,0,0,1-.48.026l-.883.052a.115.115,0,0,1-.13-.13q.026-.389.026-1.194V-10.83q-.026-.156.156-.156h1.48ZM-47.8-13.452a1.232,1.232,0,0,1-.286.026.092.092,0,0,1-.1-.1v-2.233l-.026-1.4v-.909a.205.205,0,0,1,.026-.13.205.205,0,0,1,.13-.026q.182,0,.467.013t.675.065a1.9,1.9,0,0,1,.363.078q.156.052.26.078a1.162,1.162,0,0,1,.312.363.773.773,0,0,1,.143.415q.013.234.013.312.026.208.052.493t.026.675q0,.286-.052.8-.052.363-.1.571a1.031,1.031,0,0,1-.545.6A3.585,3.585,0,0,1-47.8-13.452Zm-1.3,7.139a2.187,2.187,0,0,1-.052-.389q-.026-.363-.026-1.116V-8.934l-.026-1.869a.12.12,0,0,1,.078-.13q.078,0,.078.13a2.353,2.353,0,0,1,.026.415l-.026,2.752.026,1.038-.026.286Zm-.182-7.243-.052.052q-.052,0-.052-.026a.289.289,0,0,1-.026-.13q0-.571.026-.857V-14.7q-.052-.727-.052-1.116v-2.207a.15.15,0,0,1,.026-.1q0-.026.078-.026l.026.052v.156l.026,1.688v2.7Zm.156-4.647q.13.026.13.208v1.09l-.026.7.026.467-.026,2.077v.1l-.078.1-.078-.1.026-.156a3.123,3.123,0,0,0,.052-.467l-.026-.6V-18.2ZM-49.31-7.117a.3.3,0,0,1-.1-.26l.026-1.947-.026-1.428v-.078l.052-.078q.052.052.052.078a2.566,2.566,0,0,1,.026.441l.026,2.025q-.026.389-.026,1.116ZM-46.9-5.248q.519-.1.8-.13a2.154,2.154,0,0,0,1.168-.493,1.1,1.1,0,0,0,.337-.493q.052-.208.156-.6a4.064,4.064,0,0,0,.13-.7l.026-1.454a.362.362,0,0,1,.026-.156h.026l.026.182q0,.337-.052,1.116a5.473,5.473,0,0,1-.026.623l-.078.441a1.47,1.47,0,0,0-.078.467.814.814,0,0,1-.26.493,2.8,2.8,0,0,1-1.532.649,1.613,1.613,0,0,0-.312.026q-.13.026-.234.052h-.13Zm3.115-1.791a.115.115,0,0,0,.013.052q.013.026-.013.026a3.792,3.792,0,0,1-.338,1.038A2.071,2.071,0,0,1-45.6-4.858a14.042,14.042,0,0,1-1.662.234,3.672,3.672,0,0,1-.727.052h-.208v-.052l.078-.026a18.076,18.076,0,0,0,2.207-.208,2.978,2.978,0,0,0,1.35-.6,1.875,1.875,0,0,0,.493-.727l.234-.8.026-.052Zm-4.647-3.868.026.13v3.115l.026,1.168-.026.13h-.052v-4.543Zm3.219-.389a.968.968,0,0,1,.6.857,11.561,11.561,0,0,1,.078,1.376q0,.312-.052.935,0,.1.013.273a1.1,1.1,0,0,1-.013.3,1.036,1.036,0,0,1-.039.273.908.908,0,0,0-.039.221h-.026v-.1a3.018,3.018,0,0,0,.078-.727v-.649q0-.623-.052-1.817A.892.892,0,0,0-45-11.115Zm1.246,3.712.026-1.713a7.033,7.033,0,0,0-.052-.727v-.182h.052a1.459,1.459,0,0,1,.052.337V-7.61q0,.052-.156.883-.052.052-.052.078h-.052l.1-.389Zm-4.413-5.893H-48.4v-4.7h.052v.935Zm2.025,7.217q-1.246.156-1.739.208l-.1-.052q.078-.078.1-.078a5.486,5.486,0,0,1,.6-.052l.623-.052.415-.026h.208v.026Zm1.817-11.215q.026.1.052.221a1.415,1.415,0,0,1,.026.3q.052.935.052,1.4v.545l-.026.156-.052-.026q0-.208.013-.532t-.013-.766l-.078-1.3Zm.961,7.139q-.052-.312-.1-.519a1.65,1.65,0,0,0-.389-.623l-.467-.467-.078-.1a1.3,1.3,0,0,1,.545.467,2.158,2.158,0,0,1,.6,1.454l-.026.26-.026.026Zm-2.856,4.6a1.716,1.716,0,0,1-.61.143,6.987,6.987,0,0,1-.87.065.742.742,0,0,1-.286-.026Zm1.688-11.864a1.384,1.384,0,0,1,.026.312,4.573,4.573,0,0,1,.1.649l.052.286v.675h-.026l-.182-1.921ZM-46.818-5.975a2.128,2.128,0,0,1-.779.169q-.415.013-.545.013v-.026Zm-3.92-1.012q0,.545.052,1.584h-.052Zm5.945-7.633a2.4,2.4,0,0,1-.441,1.506,2.6,2.6,0,0,1,.143-.338,3.181,3.181,0,0,0,.169-.415,1.447,1.447,0,0,0,.078-.363Q-44.819-14.464-44.793-14.62ZM-45-16.879q.026.13.078.415a2.925,2.925,0,0,1,.052.519,1.547,1.547,0,0,1-.026.337Zm.727,2.544a3.422,3.422,0,0,1-.182.766.835.835,0,0,1-.312.454,1.894,1.894,0,0,0,.286-.519A7.2,7.2,0,0,0-44.274-14.334Zm-1.376-3.946a1.17,1.17,0,0,0-.493-.273,5.837,5.837,0,0,0-.753-.117,2.094,2.094,0,0,1,.74.078A.944.944,0,0,1-45.65-18.281Zm-2.96,11.4V-7.87h.052v.987Zm1.48,1.765.961-.156v.052l-.961.156Zm1.61-10.333-.078-1.09h.052l.052,1.09Zm1.272,4.284q-.363-.337-.623-.623a1.3,1.3,0,0,1,.363.337q.182.234.234.312l-.026.026Zm-.312-3.609a1.46,1.46,0,0,1-.052-.441,1.547,1.547,0,0,1,.026-.338h.052a.706.706,0,0,1-.026.195.706.706,0,0,0-.026.195,2.759,2.759,0,0,0,.078.363Zm-4.128,7.866v-.312l-.026-.312.026-.312h.026v.935Zm1.35-12.487.649.052-.026.052-.623-.052ZM-45.779-5.04a4.428,4.428,0,0,1-.6.1l-.026-.052.6-.078q.026,0,.026.013Zm1.194-1.61a.854.854,0,0,1-.052-.26.812.812,0,0,1,.026-.221q.026-.091.052-.169Zm-.26.883q-.026.078-.195.182a.569.569,0,0,1-.273.1Zm.623-9.268v-.623h.026v.623Zm-1.454,1.376a.522.522,0,0,1-.169.221.587.587,0,0,1-.247.117Q-46.065-13.348-45.676-13.659Zm.415-2.414a5.509,5.509,0,0,0-.052-.623h.026l.078.623Zm.13,8.827.052-.571.052.026-.078.545Zm.208-7.685V-15.4h.052l-.026.467Zm.234,8.334a.551.551,0,0,1-.13.363,2.222,2.222,0,0,0,.13-.467Zm-1.272.519q.234-.078.467-.182A.537.537,0,0,1-45.961-6.079ZM-47.026-4.91a3.116,3.116,0,0,0,.441-.052v.026l-.441.078Zm1.3-9.061q0,.13-.182.208l.182-.26Zm.493,7.347a.233.233,0,0,1-.039.117.233.233,0,0,0-.039.117h-.052l.1-.312Zm-2.908,1.48h.234v.026h-.234Zm4.024-7.373a4.179,4.179,0,0,0,.363-.389A2.365,2.365,0,0,0-43.417-14l.026-.208a5.37,5.37,0,0,0,.1-.909,4.155,4.155,0,0,0,.013-.558q-.013-.247-.013-.4a6.357,6.357,0,0,0-.1-.987q0-.026-.013-.026h-.039q.026.182.052.415a5.005,5.005,0,0,1,.026.545,2.353,2.353,0,0,1-.026.415,2.857,2.857,0,0,0-.026.441l.026.909h-.026l.026-.338q-.052.208-.1.519a2.859,2.859,0,0,1-.363,1.194l-.286.415Zm-3.609,8.593a11.826,11.826,0,0,0,2-.13l.441-.078a3.73,3.73,0,0,0,.883-.389,3.144,3.144,0,0,0,1.013-1.012,2.173,2.173,0,0,0,.273-.662q.091-.376.117-.454l.078-.415q-.182.6-.208.727a2.855,2.855,0,0,1-1.4,1.843,2.265,2.265,0,0,1-.831.338L-46.325-4ZM-43.6-14.282a7.885,7.885,0,0,0,.078-1.116,10.673,10.673,0,0,0-.078-1.272q.052.779.052,1.194Q-43.547-15.113-43.6-14.282Zm.545,4.336q.026.078.1.363h.026l-.13-.935Zm2.363-10.411a.522.522,0,0,0-.234.415q.026.415.026,1.246a.816.816,0,0,1-.013.13.45.45,0,0,0,.013.182,1.666,1.666,0,0,0,.026.3,1.525,1.525,0,0,1,.026.273l.026,2.129-.026.831q0,.779.052,2.337V-12q0,.182-.013.441a4.774,4.774,0,0,0,.013.6,3.666,3.666,0,0,0,.026.428,3.666,3.666,0,0,1,.026.428,3.925,3.925,0,0,1-.026.519l-.026.519v3.349l.026,1.662q0,.156.13.156a.91.91,0,0,1,.286-.052.323.323,0,0,1,.182,0A.888.888,0,0,1-40-3.924a.271.271,0,0,0,.169,0q.156,0,.182.078.026.1.182.1l.363.026h.286l.234-.026a.346.346,0,0,0,.234-.091.26.26,0,0,0,.1-.195l.026-.727-.026-1.272V-10.6h.7q.026,0,.078.052a4.89,4.89,0,0,0,.208.519l.415,1.4.026.052.286.649a.936.936,0,0,1,.078.273,1.89,1.89,0,0,1,.026.221q.26.857.493,1.428l.182.467.156.519.182.519q.026.052.065.156a.435.435,0,0,0,.091.156,2.114,2.114,0,0,0,.545.363l.182-.026.13-.026q.078.026.169.052a1.14,1.14,0,0,1,.195.078.85.85,0,0,0,.208.052.345.345,0,0,0,.208-.078.471.471,0,0,1,.493-.078h.182a.688.688,0,0,0,.467-.286.271.271,0,0,0,.052-.286.455.455,0,0,1-.052-.13l-.389-1.09-.909-2.518-.363-.883a2.835,2.835,0,0,1-.247-.623q-.091-.337-.117-.441l-.286-.857a.412.412,0,0,1-.026-.117q0-.039.1-.091a1.867,1.867,0,0,0,.7-.545l.286-.363a2.571,2.571,0,0,0,.571-1.22q.1-.831.13-1.272.078-.831.078-1.687a3.634,3.634,0,0,0-.13-1.324q-.052-.156-.13-.48a3.254,3.254,0,0,0-.182-.558,2.52,2.52,0,0,0-.779-.909,6.773,6.773,0,0,0-1.142-.623,1.894,1.894,0,0,0-.857-.208l-1.687-.052-1.662-.026a6.921,6.921,0,0,0-.7.026q-.286,0-.363.182Zm6.594,4.206h-.052l-.026-.8a4.527,4.527,0,0,1-.13-.545h.026a1.332,1.332,0,0,1,.1.545l.026.208ZM-34.928-5.17q-.363-1.012-.441-1.3l-.078-.1q0,.026-.013.026h-.013l.078.286-.026.026-.234-.649-.208-.675-.234-.649.052-.026.338.987h.026l-.052-.182a3.219,3.219,0,0,0-.208-.727.613.613,0,0,0-.13-.286,1.242,1.242,0,0,1-.208-.649v-.182l.026.078a2.971,2.971,0,0,0,.143.3,3.063,3.063,0,0,1,.169.376l.26.7A2.892,2.892,0,0,0-35.5-7.3l.493,1.428.312.909.026.1-.026.052a.277.277,0,0,1,.065.169.537.537,0,0,0,.039.169.477.477,0,0,1-.234-.312,1.561,1.561,0,0,1-.052-.26Zm.857-2.518a1.094,1.094,0,0,1,.247.4q.091.247.117.35l.078.312.078.13q.26.779.415,1.168l.234.623.026.1h-.013q-.013,0-.013.026l-.1-.156L-33.24-5.4l-.389-1.168v-.052a2.135,2.135,0,0,1-.182-.312l-.052-.13.026-.078a.5.5,0,0,0-.1-.234.664.664,0,0,1-.13-.312l-.467-1.142a1.61,1.61,0,0,1-.1-.363.106.106,0,0,1,.026.078q.182.415.493,1.3a.088.088,0,0,1,.026.065A.088.088,0,0,0-34.071-7.688Zm-.857-10.9-.052-.052.026-.026a1.773,1.773,0,0,1,.571.987l-.026-.078a.106.106,0,0,1-.026-.078l-.1-.078.208.493h-.026q-.026-.052-.1-.195a.615.615,0,0,1-.078-.3q-.1-.234-.13-.312a.179.179,0,0,0-.065-.117.478.478,0,0,1-.091-.117l-.026.026a.9.9,0,0,1-.182-.182ZM-35.6-6.234l-.052-.052a.106.106,0,0,1-.026-.078L-36.044-7.4q-.13-.415-.441-1.246v-.1q.182.389.35.87t.221.662a6.624,6.624,0,0,0,.312.987q.415,1.142.6,1.739h-.026l-.389-1.09-.156-.467A.445.445,0,0,0-35.6-6.234Zm.078-2.8a1.358,1.358,0,0,0,.078.221q.052.117.1.273l-.052-.026,1.4,4.024h-.026l-.1-.208-.26-.7q-.156-.441-.182-.519l-1.012-2.882-.234-.753-.208-.649h.026l.13.363.415,1.22a.15.15,0,0,0,.052.1l-.156-.467Zm1.532-7.3a4.768,4.768,0,0,1,.026.6,5.164,5.164,0,0,1-.026.6q0,.312-.052.883.052-1.35.052-2.077V-16.7l-.052-.467-.026-.156q-.078-.208-.156-.4t-.13-.35a1.173,1.173,0,0,0-.649-.753q-.467-.234-1.116-.493l-.078-.026h-2.025q-.026,0-.078-.052.052-.052.078-.052a8.362,8.362,0,0,1,1.09-.026h.389a2.151,2.151,0,0,1,.389.026,4.023,4.023,0,0,1,1.09.363,1.983,1.983,0,0,1,.727.6,1.191,1.191,0,0,1,.234.493l.13.337a2.823,2.823,0,0,1,.208.987A1.78,1.78,0,0,1-33.993-16.333Zm-3.453-1.584a1.7,1.7,0,0,1,.493-.026,3.547,3.547,0,0,1,.571.039.839.839,0,0,1,.415.195,1.1,1.1,0,0,1,.363.7l.078.987v.883a2.151,2.151,0,0,1-.026.389,5.109,5.109,0,0,1-.13.753,1.163,1.163,0,0,1-.312.519.8.8,0,0,1-.467.26q-.415.052-.974.078t-.766.026q-.078,0-.078-.052v-.078q0-.26-.013-.623t.013-.831v-3.089a.212.212,0,0,1,.026-.117.222.222,0,0,1,.13-.065,2.638,2.638,0,0,0,.415-.026,2.056,2.056,0,0,0,.338-.026,2.056,2.056,0,0,1,.337-.026,1.226,1.226,0,0,1,.3-.013,1.821,1.821,0,0,0,.195.013l.078.026v.052h-.987Zm3.635,4.024a2.58,2.58,0,0,1-.26.753,7.8,7.8,0,0,1-.493.779h-.026a4.911,4.911,0,0,1,.286-.467,2.276,2.276,0,0,0,.389-1.116q.052-.727.1-2.129a5.372,5.372,0,0,0-.13-1.376.733.733,0,0,0-.078-.221.951.951,0,0,1-.078-.169l-.182-.441a1.412,1.412,0,0,0-.8-.831l-.935-.363a1.822,1.822,0,0,0-.61-.117q-.35-.013-.506-.013-.519,0-.779.026a.455.455,0,0,1-.13-.052,1.547,1.547,0,0,0,.338-.026v-.026l-.571-.026v-.026h1.9l.312-.026a.486.486,0,0,1,.26.052q.415.156.623.26a2.589,2.589,0,0,1,.727.467,2.618,2.618,0,0,1,.467.649A5.6,5.6,0,0,1-33.6-16.8q.026.338.026,1.038,0,.493-.026.753a4.866,4.866,0,0,0-.026.571,6.512,6.512,0,0,1-.286,1.35l.156-.779Zm-.935-3.5a.461.461,0,0,1,.039.13.233.233,0,0,0,.065.13v.052l.052.415q.052.571.052.831l-.026.571q0,.519-.026.779a2.246,2.246,0,0,1-.208,1.012,1.617,1.617,0,0,1-1.09,1.012q-.467.156-.7.208a2.151,2.151,0,0,1-.389.026l-.312.026-.234-.026v-.026q.571-.052.883-.1a1.2,1.2,0,0,0,.415-.1,3.018,3.018,0,0,0,.545-.208,1.238,1.238,0,0,0,.519-.441l.026-.052a.2.2,0,0,1,.156-.208v-.13l.234-.883a5.628,5.628,0,0,0,.078-1.09v-.545q0-.286-.052-.8a1.722,1.722,0,0,0-.1-.35q-.078-.195-.1-.273a.462.462,0,0,1,.052-.312Zm-4.543,4.05a.176.176,0,0,0-.052.13,25.368,25.368,0,0,1-.1-3.531v-1.064h.182V-15.5l.052,2.285-.052.026Zm5.3,7.944q-.156-.467-.26-.7a1.015,1.015,0,0,0-.078-.208,1.015,1.015,0,0,1-.078-.208l-.441-1.324q-.363-.935-.519-1.4-.078-.208-.143-.441t-.143-.467q-.052-.13-.1-.234a1.424,1.424,0,0,1-.078-.182l-.052-.13q0-.026.013-.026h.013l.078.078q.052.1.117.26a3.072,3.072,0,0,1,.117.337,11.4,11.4,0,0,0,.545,1.506q.052.156.1.273a1.358,1.358,0,0,1,.078.221q.571,1.713.883,2.57l.26.649.156.467-.026.026-.078-.052Zm-4.673-1.506q0-.519-.026-.753a6.147,6.147,0,0,1,.026-.935l.026-.675q0-.753.026-1.116v-.1l.026-.026.026.13v4.024q-.026.493-.026,1.454a1.085,1.085,0,0,0-.052.182h-.026Zm3.946-6.49a1.511,1.511,0,0,1,.065-.234q.039-.1.065-.182l.078-1.142.078-1.194v-.013q0-.013.026-.013v.286h.052v-.649h.026q.026,0,.026.052a3.329,3.329,0,0,1,.026.493.423.423,0,0,1-.1.312.54.54,0,0,0-.026.208h.026a.088.088,0,0,0,.026-.065.088.088,0,0,1,.026-.065h.052a4.476,4.476,0,0,0-.026.571,7.075,7.075,0,0,1-.039.818,2.387,2.387,0,0,1-.169.636h-.026l.052-.389h-.026l-.156.571Zm-4.128,8.593q0-1.9.052-5.789h.026l.026.1v.623l.026.675-.026.649-.078,1.558.026.493v1.532l-.026.156Zm3.712-4.6q.753,2.129,1.688,4.7l-.052.026a.176.176,0,0,1-.052-.13l-.26-.7a4.716,4.716,0,0,0-.182-.519l-.389-1.116a.2.2,0,0,1-.039-.1.2.2,0,0,0-.039-.1.175.175,0,0,1-.078-.117.585.585,0,0,1-.026-.117q-.078-.182-.493-1.3l-.156-.519Zm-4.258,3.037a3.088,3.088,0,0,1-.026.467q-.052-1.35-.052-2.025,0-.623.026-.935h.052v2.233h.026v-.753h.052l.026,2.492h-.052l-.026-.727v-.753Zm.6-6.828-.026-.1-.026-2.622v-1.843l.026-.078h.052v4.647Zm3.92-2.311a1.023,1.023,0,0,0,.013-.286q-.013-.156-.013-.234l-.052-.883a1.934,1.934,0,0,0-.182-.571l-.078-.286h.052l.1.234a2.407,2.407,0,0,1,.234,1.168v.389a16.971,16.971,0,0,1-.078,1.921.529.529,0,0,1-.039.182.5.5,0,0,0-.039.156ZM-33.24-4.521a27.666,27.666,0,0,1-1-2.583q-.922-2.531-.922-2.661h.026l.389,1.09Q-33.578-5.4-33.24-4.521Zm-3.012-14.1q-.1,0-.1-.078l-.052-.026a7.033,7.033,0,0,0-.727-.052,2.857,2.857,0,0,0-.441.026.451.451,0,0,1-.182.013.946.946,0,0,0-.156-.013l-.13.026-.182.026q-.026,0-.026-.052l.156-.026a5.676,5.676,0,0,1,.935-.078,3.925,3.925,0,0,1,.519.026,2.815,2.815,0,0,1,1.22.363l.156.13-.831-.312Zm1.038.7a1.235,1.235,0,0,0-.506-.286q-.325-.1-.454-.156a1.772,1.772,0,0,0-.688-.13h-1.389l.026-.026q.208-.026.48-.052t.636-.026a5.509,5.509,0,0,1,.623.052,2.851,2.851,0,0,1,1.09.389A.381.381,0,0,1-35.213-17.917Zm.831,13.292q-.467-1.116-.961-2.622-.467-1.35-.727-2.025.493,1.142,1.064,2.908Zm-5.088-8.9q-.078-.8-.078-2.414l-.052-1.817h.052Zm4.31-2.285a7.544,7.544,0,0,0-.078-1.272,5.765,5.765,0,0,1,.156,1.35q0,.415-.026.714t-.052.506Zm-2.6-3.141h-.467l-.052-.026.052-.052.753-.026q.312,0,.883.052h.1v.052h-1.272Zm2.337,2.155q.052.571.052.857l-.026,1.168h-.026Zm-3.245.571v-.363l-.052-1.116.026-.156h.052v1.636Zm.363-2.856a1.3,1.3,0,0,1,.7-.1q.415,0,.675.026Zm1.921,6.984q.234-.078.4-.143t.325-.117a1.494,1.494,0,0,0,.675-.493q.026,0,.078-.052a1.5,1.5,0,0,1-.6.545A2.954,2.954,0,0,1-36.381-12.1Zm.286-6.464q.026,0,.026-.013v-.013a3.587,3.587,0,0,1,.883.389q-.026,0-.026.052Zm-1.973-.338,1.506-.026v.052h-1.506ZM-39.263-10.6h.026v1.532ZM-40.3-16.541v-1.168h.026v1.168Zm6.2,1.012-.078,1.4H-34.2l.052-1.4Zm-4.154-4.621h1.168v.026h-1.168Zm4.05,4.128v.831h-.026v-.831Zm.883,1.272q0,.234-.052.753H-33.4v-.389a2.188,2.188,0,0,0,.052-.363ZM-33.863-4.6q-.26-.623-.363-.935h.026q.1.26.195.48t.169.428h-.013Q-33.863-4.625-33.863-4.6Zm-.13-8.541a.784.784,0,0,1-.208.467h-.052l.26-.519Zm-2.129-5.712q.052-.052.078-.052a.813.813,0,0,1,.389.182Zm-2.544,3.531v-.6h.026v.6Zm0,.857-.026-.493h.052v.493Zm5.4-2.285v.7h-.052l.026-.7Zm-5.971,8.1v1.064h-.026V-8.649Zm4,4.154-.234-.623a.023.023,0,0,1,.026-.026l.234.649Zm-2.96-6.854h.6v.026h-.6Zm-1.038,5.815v.857h-.026v-.857Zm-.208-4.959.052.545h-.052l-.026-.545Zm3.089-9.268a2.353,2.353,0,0,0-.415-.026v-.026h.415Zm3.063,3.868v.753h-.026v-.753ZM-34.1-5.04l.182.441a.023.023,0,0,1-.026.026l-.182-.467Zm-.857-5.452a3.083,3.083,0,0,0-.208-.389l.052-.026.182.389Zm.7-6.361-.078-.415h.026l.078.415Zm-5.062,6.62v.363h-.026v-.363Zm4.8,3.712.13.415-.026.026-.156-.415Zm-.363,1.272-.052.078.052.13.208.182-.026-.1Zm1.038-12.384a.954.954,0,0,1-.078-.221q-.026-.117-.052-.221a1.438,1.438,0,0,0-.571-.857l-.753-.415a5.98,5.98,0,0,1-.545-.286.289.289,0,0,0-.13-.026l-.6-.052h-.078a4.427,4.427,0,0,0,.6.1q.1.026.182.052l.156.052.156.078q.182.1.389.208t.441.234a1.46,1.46,0,0,1,.649.857,4.89,4.89,0,0,0,.208.519Zm.156,1.09a.911.911,0,0,0,.026-.26.911.911,0,0,0-.13-.6Zm-.052,2.181a5.578,5.578,0,0,1,.052-.649h-.052l-.052.649Zm-.441-3.946a1.138,1.138,0,0,1-.13-.234h-.026q.026.078.052.143t.052.117Zm-5.192,3.219h.026v-.6h-.026Zm4.907.961a4.977,4.977,0,0,1,.039-.545,2.818,2.818,0,0,0,.013-.6Q-34.46-14.49-34.46-14.127Zm9.58,2.83q-.1-.1,0-.26a.406.406,0,0,0,.052-.338,1.384,1.384,0,0,1-.026-.312,3.088,3.088,0,0,1,.026-.467.254.254,0,0,0-.052-.234.3.3,0,0,1-.052-.286.15.15,0,0,0,.026-.1.184.184,0,0,0-.13-.182.115.115,0,0,1,.013-.052q.013-.026-.013-.026a.6.6,0,0,0-.13-.078.354.354,0,0,0-.234-.026q-.519.052-.8.052h-.857a6.921,6.921,0,0,1-.7-.026.205.205,0,0,1-.13-.026.205.205,0,0,1-.026-.13l.052-.337v-.727l-.026-.727v-2.207q0-.13.156-.13l.286-.026h1.09l.052.026-.1.026.052.026q.182,0,.467-.013a6.138,6.138,0,0,1,.675.013q.493,0,1.48.052.13,0,.13-.1a.115.115,0,0,0-.13-.13,6.573,6.573,0,0,1-.675-.026h-1.506l-1.765.026a.23.23,0,0,1-.1-.026.2.2,0,0,0-.078-.026q.026-.078.078-.065a.355.355,0,0,0,.078.013q1.142-.026,3.375-.026a4.476,4.476,0,0,1,.571.026.4.4,0,0,0,.286-.078l.078-.1-.13-.052a.675.675,0,0,1-.208-.026l.052-.1.208-.156a.274.274,0,0,0,.078-.363.115.115,0,0,0-.013-.052.042.042,0,0,1,.013-.052l.052-.13a.461.461,0,0,0-.052-.208.184.184,0,0,1-.026-.156l-.052-.026a.115.115,0,0,1-.026-.182.474.474,0,0,0,.026-.26l-.078.1a.077.077,0,0,1-.078.013q-.052-.013-.026-.065a.594.594,0,0,1,.182-.156l-.182-.052-.156-.1-.1-.052h-.26a1.045,1.045,0,0,0-.286-.026,5.473,5.473,0,0,0-.623.026h-.389v.026a5.164,5.164,0,0,1,.6.026q-.026,0-.026.013v.013h-1.921v-.026l.052-.026h-2.492a1.82,1.82,0,0,0-.195.013.461.461,0,0,1-.195-.013,1.085,1.085,0,0,0-.182-.052.675.675,0,0,0-.208.026l-.156.052.156.26a.023.023,0,0,0-.026.026l-.182-.078a.418.418,0,0,0-.182.052v.234l-.026.389v2a1.2,1.2,0,0,0,.026.234,1.321,1.321,0,0,1,.026.26l-.026.883-.026,1.194v2.129l.026.675q0,.208-.013.493a6.137,6.137,0,0,0,.013.675v1.662a3.431,3.431,0,0,1,.013.506q-.013.221-.013.376l.026,1.168v1.012l-.026.571.026.649v.312l.026.182q.052-.026.091.052t.065.078l-.078.078h.1l.26.26A.106.106,0,0,0-30.021-4v.013q0,.013-.026.013a.675.675,0,0,0,.208.026.237.237,0,0,0,.13.013.355.355,0,0,1,.078-.013q.234.026.753.026a7.1,7.1,0,0,0,.727.013q.312-.013.493-.013h1.506l1.9.052.7.026a.153.153,0,0,0,.13-.078.129.129,0,0,0,.026-.13.908.908,0,0,1-.078-.26q-.026-.1-.052-.286a2.4,2.4,0,0,1-.026-.337l.052-.13q.052-.13.026-.156a.63.63,0,0,0-.208-.156h-.052l-.208.026V-5.4q0-.208.156-.1.026.026.117-.013t.091-.091a1.085,1.085,0,0,0,.052-.182q0-.052-.156-.156l-.1-.078v-.026h.078l-.078-.1q.208.052.234-.1l-.182-.156-.052-.052a.3.3,0,0,0-.363.026.053.053,0,0,0-.039.013q-.013.013-.039-.013h-.286q-.13-.026-.35-.052A4.647,4.647,0,0,0-25.4-6.52q-1.142.052-1.713.1l-.623.026q-.1.026-.1-.078-.052-.987-.052-1.428-.026-.467-.013-.8t.013-.571q0-1.116-.026-1.687a.115.115,0,0,1,.13-.13,3.667,3.667,0,0,0,.493.026,4.006,4.006,0,0,1,.441.026,4.006,4.006,0,0,0,.441.026q.13,0,.389-.026t.441-.052Q-25.555-11.089-24.88-11.3Zm-2.492,5.244q.363,0,1.09-.052a.317.317,0,0,1,.234.078.077.077,0,0,0,.078.013.355.355,0,0,1,.078-.013v-.026l-.052-.026.779-.052v-.026l-2.622.078V-6.1l.1-.026,1.35-.078a.486.486,0,0,0,.26-.052h-.078l-.987-.026a.965.965,0,0,0-.234.026.965.965,0,0,1-.234.026l-.13.026-.052-.052.026-.052a.788.788,0,0,1,.234-.026l2.337-.1a5.46,5.46,0,0,1,.584.039l.584.065a.15.15,0,0,1,.1.052.7.7,0,0,1-.363.065q-.208-.013-.337-.013l.779.078V-6.1a7.943,7.943,0,0,1-1.064.026l.857.13v.026a.362.362,0,0,1-.156.026.929.929,0,0,1-.195-.026.475.475,0,0,0-.221,0l.441.078-.831-.026q-.961,0-2.778.1L-27.814-6Zm-1.4,1.947a4.311,4.311,0,0,0,.961-.078.675.675,0,0,1,.208-.026q.415,0,1.194-.052l.415.026h1.012a5.8,5.8,0,0,1,.623.13l.208.026q.026,0,.13.013t.13-.143q0-.026.13-.078a1.561,1.561,0,0,0,.052.26L-24.283-4q-.312-.026-.935-.026-.7,0-2.1.052a7.644,7.644,0,0,1-2.025-.13h.571Zm4.543-1.532q-1.35-.052-2.051-.052v.026h1.038a1.635,1.635,0,0,1,.519.078q-2.025.052-3.037.052v-.026l.1-.052.831-.026h.1v-.026l-1.038.026-.026-.026a.4.4,0,0,1,.156-.052l.8-.052q.831,0,1.246-.026a7.507,7.507,0,0,1,1.272.078l.1.052Zm.312-13.656a.493.493,0,0,1-.26.026l-1.038-.026-1.843.026h-.649a.205.205,0,0,1-.13-.026,2.236,2.236,0,0,1,.363-.026h.286a6.572,6.572,0,0,0,.675-.026h.675v-.026h-2.025v-.052h3.3A1.258,1.258,0,0,1-23.92-19.293Zm-1.765.312a2.084,2.084,0,0,1,.467,0q.286.026.467.026a3.178,3.178,0,0,0,.493-.052l.078.1H-27.84v-.078l.389-.026a.455.455,0,0,0-.13-.052q1.09-.052,1.584-.052.519,0,1.558.052v.052l-2.726-.052v.078Zm-2.8,4.543q0-.234-.013-.571t.013-.779q0-.6-.052-1.9-.052-.052,0-.13,0-.078.1-.078a.1.1,0,0,1,.1.078v.286q0,.13.013.325a2.776,2.776,0,0,1-.013.454l-.1-.8q.026.545.026,1.636,0,1.48-.026,2.233h-.026l-.026-.052Zm2.7,9.606a.571.571,0,0,0,.337-.078.205.205,0,0,1,.13-.026,4.476,4.476,0,0,1,.571.026,2.857,2.857,0,0,1,.441.026l.234.078v.039q0,.039-.026.039l-.1.052a.289.289,0,0,1-.13.026A4.231,4.231,0,0,1-24.88-4.7l-.519-.052a5.473,5.473,0,0,1-.623-.026h-.052v-.052Zm-2.129-15.291.1-.026h2.466q.312,0,.987.052a.675.675,0,0,1,.208.026h-3.764ZM-28.385-6.39a26.159,26.159,0,0,1-.078-3.141q0-.8.013-1.1t.013-.325h.052Zm.519-6.516a.425.425,0,0,1,.065-.052.126.126,0,0,1,.065-.026h.441a2.353,2.353,0,0,1,.415.026,7.851,7.851,0,0,0,1.038.052l.545-.026h.156v.052l-.13.026h-2.337a.788.788,0,0,1-.234-.026v-.013Q-27.84-12.906-27.866-12.906Zm3.816-5.5q-1.013,0-1.532.026-.389,0-.961.013t-1.324-.013v-.052l.1-.026,2.285.026h1.428ZM-28.775-16q0-.286-.052-.857l-.026-.857.026-.1a6.87,6.87,0,0,1,.1,1.272q0,.623-.026.909l-.026.935ZM-27.165-4.7h.1v.026l-1.012.052v-.026l.156-.026L-27.97-4.7v-.052a14.137,14.137,0,0,1,1.454-.078v.078l-.649.026ZM-28.2-13.685q.026-.26.026-.753,0-.571-.026-.857,0-.208-.013-.532a7.309,7.309,0,0,1,.013-.74h.052v2.882Zm.337-5.5h2.986l.026.052h-3.012Zm3.063,14.1h.208a.16.16,0,0,1,.091.026.848.848,0,0,0,.091.052V-5q0,.013-.026.013h-1.532l-.078-.026v-.052l.1-.026Zm-2.7-13.188h3.3v.026h-3.3ZM-28.152-8.1q0,.208.052.675l.026.338a.106.106,0,0,1,.026.078,4.215,4.215,0,0,0-.052.519l-.026.1h-.052l-.026-.13q0-.7.026-1.038V-8.1Zm1.636,3.738-.13.026-1.739.052h-.13v-.052l2-.078Zm-1.142-.675q.338,0,1.013-.052a.4.4,0,0,1,.156.052v.026a.023.023,0,0,1-.026.026l-.156.026h-1.116v-.052ZM-28.2-16.8q-.026-.156-.052-.35a3.482,3.482,0,0,1-.026-.454l.026-.286a.761.761,0,0,1,.065.247,2.61,2.61,0,0,1,.039.454A.772.772,0,0,1-28.2-16.8Zm.415,3.531h1.532v.026h-1.532Zm.078,8.178a.6.6,0,0,1,.3-.078,4.834,4.834,0,0,1,.506-.026.951.951,0,0,1,.441.052Zm-2.1-11.864a4.194,4.194,0,0,1-.026-.545,2.15,2.15,0,0,1,.026-.389h.052v.935Zm3.245-1.532H-27.84v-.026h1.272Zm.441,5.037h-1.636v-.026h1.636Zm2.492-5.556q.13,0,.13.286l-.338-.234ZM-27.009-20.2h.935v.026h-.935ZM-24.88-5.2h0Zm-2.986-14.98a.253.253,0,0,1,.182-.052l.415.052Zm2.1,14.72h.467v.026h-.467ZM-28.619-17.5a7.033,7.033,0,0,0,.052.727h-.052l-.026-.727Zm-.156,13.214-.571-.078v-.026l.571.052ZM-26.568-5.4h-.415V-5.43h.415Zm-1.791-12.7q-.052.052-.078.052a.042.042,0,0,1-.039-.026.042.042,0,0,0-.039-.026l.078-.078Zm1.22,13.188.467-.026v.052h-.467Zm-3.037-2.908a.023.023,0,0,1-.026.026v-.363h.026Zm5.244,3.349h-.389v-.026h.389Zm-.519-1.61a.423.423,0,0,0-.312.1h.883l-.441-.1Zm-.6.156V-6a3.186,3.186,0,0,1-.415.052V-5.9Zm.441-.312q.234,0,.26-.078l-.467.078Zm12.384,2.259q.234-.052.182-.26l-.026-.078q-.1.026-.1-.026v-.208l-.26-1.324-.312-1.35-.363-1.739-.312-1.713q-.13-.6-.337-1.739-.208-1.064-.493-2.7l-.338-1.791-.389-1.843a3.819,3.819,0,0,1-.13-.753q0-.052-.026-.389a1.174,1.174,0,0,0-.182-.571q-.182.1-.286-.026-.078-.078-.13-.052l-.286.156q-.052-.1-.078-.1a.4.4,0,0,0-.234-.026.58.58,0,0,1-.286.026q-.026-.026-.078,0a.2.2,0,0,1-.078.026.556.556,0,0,1-.13-.039.208.208,0,0,0-.208.039.023.023,0,0,1-.026.026.075.075,0,0,1-.052-.026.425.425,0,0,1-.1-.026.282.282,0,0,1-.1-.052.4.4,0,0,0-.156-.052.315.315,0,0,0-.156.078.407.407,0,0,1-.078.1.407.407,0,0,0-.078.1q-.234.8-.286,1.064l-.234,1.168-.312,1.558-.026.1a1.208,1.208,0,0,1-.052.415L-20-14.8a3.329,3.329,0,0,0-.026.493l-.13.623-.389,2.181a.639.639,0,0,1-.1.26.249.249,0,0,0-.078.182,1.161,1.161,0,0,0-.026.273,1.161,1.161,0,0,1-.026.273l-.156.831q-.1.545-.13.753l-.1.571a5.358,5.358,0,0,0-.208,1.142,6.272,6.272,0,0,1-.182.961l-.1.208a.053.053,0,0,0,.013.039q.013.013-.013.039,0,.1-.013.3a.911.911,0,0,1-.091.35l-.026.026q-.078-.026-.078.039V-5.2l-.052.467-.052.208a1.085,1.085,0,0,1-.052.182.214.214,0,0,1-.013.065.118.118,0,0,0,.013.091,1.23,1.23,0,0,1,.182.338l.052.052.078-.13.1.182q.338,0,.415-.208l.13.026a.6.6,0,0,0,.247-.052q.117-.052.169-.078.026.078.065.078a.142.142,0,0,0,.091-.052v.078l.182-.078.13.1V-3.95a.362.362,0,0,1,.156.026Q-20-3.95-19.935-4a.2.2,0,0,1,.117-.052.092.092,0,0,0,.1-.1l.078-.389q.156-.727.208-1.064l.156-.883a.115.115,0,0,1,.13-.13q.26,0,.623-.026a3.719,3.719,0,0,1,.623,0l.987.026a2.768,2.768,0,0,0,.623-.052.289.289,0,0,1,.13-.026.092.092,0,0,1,.1.1A1.42,1.42,0,0,1-16-6.286q.13.571.415,2.155l.026.1q.052-.052.078-.052l.078.156a.418.418,0,0,1,.052-.182.352.352,0,0,0,.052.117.192.192,0,0,0,.182.091.446.446,0,0,1-.026-.182l.052-.1.078.052.052.052a.188.188,0,0,0,.13.117.451.451,0,0,0,.182-.013.788.788,0,0,1-.026-.234v-.026l.156.182.052-.026.052.1a.023.023,0,0,0,.026.026.075.075,0,0,1,.052.026L-14.288-4v-.156a3.036,3.036,0,0,1,.312.26.106.106,0,0,0,.065-.039q.039-.039.065.039a.3.3,0,0,0,.052-.078.17.17,0,0,1,.078-.078.281.281,0,0,0,.13.1l.182.052.052-.078Zm-2.83-7.529q-.1-.441-.13-.6h.026a4.428,4.428,0,0,0,.1.6l.078.363.078.415.13.571h-.052l-.078-.571-.1-.312Zm.883-.6q.052.286.208.857l-.052.026-.156-.883-.156-.649h.052Q-15.223-12.335-15.171-12.1Zm-1.947-2.181q.338,1.713.519,2.83a2.51,2.51,0,0,1,.1.493h-.052l-.675-3.764a2.51,2.51,0,0,1-.1-.493h.026l.078.493Zm-2.544-.026.13-.623.13-.7q.182-.935.26-1.272.078-.389.363-1.662.078-.234.182-.7v-.013q0-.013.026-.013l-.026.078-.571,2.7-.286,1.4-.078.182-.078.623Zm1.038-.078-.026.052h-.026l.078-.545.156-.571.13-.545.156-1.142a1.161,1.161,0,0,1,.13.571,2.072,2.072,0,0,1-.078.545q.052,0,.052.026A2.279,2.279,0,0,0-18-16.333h.052a.355.355,0,0,0,.013.078.237.237,0,0,1-.013.13q-.1.623-.363,1.817l-.26,1.428q-.026.1-.065.221t-.065.221a.91.91,0,0,0-.052.286,2.306,2.306,0,0,1-.1.441,3.266,3.266,0,0,0-.1.363q-.078.26-.182.727v.363l-.1.208a.56.56,0,0,0-.052.389q.026.026,0,.1l-.026.182a.357.357,0,0,1-.078.182q-.052.052-.208.026a.123.123,0,0,1-.1-.13q.026-.13.13-.519a1.848,1.848,0,0,0,.091-.337q.039-.208.065-.312.26-.987.363-1.506.13-.571.337-1.713l.156-.649.338-1.791V-16.2a.345.345,0,0,0-.078.208l-.052.337Zm.052,5.244q-.1,0-.117-.039a.2.2,0,0,1,.013-.117,3.021,3.021,0,0,0,.078-.493l.234-1.038Q-18.079-12-18-12.335a4.259,4.259,0,0,0,.13-.649l.13-.623q.1-.519.182-.779.363,1.636.623,3.271l.363,1.947h-.156Zm.26-8.334q.156.052.078.208-.052.338-.208,1.22l-.389,2.025-.1.571q-.156.831-.208,1.142a.32.32,0,0,0-.013.156.32.32,0,0,1-.013.156l-.234,1.013v.156a.118.118,0,0,0-.013.091.118.118,0,0,1-.013.091,2.832,2.832,0,0,0-.221.753q-.065.415-.091.519-.026.13-.065.156t-.169-.026a.289.289,0,0,1,.026-.13q.286-1.4.415-1.9l.312-1.272.208-1.142.26-1.246.234-1.324q0-.026.078-.519l.052-.1.078-.363a.237.237,0,0,0,.013-.13A.427.427,0,0,1-18.312-17.476Zm1.558,4.024a.088.088,0,0,1-.026-.065.088.088,0,0,0-.026-.065h-.026l.13.727h.026l.026-.078a1.233,1.233,0,0,1,.065.234.632.632,0,0,1-.013.337v.052a.352.352,0,0,0,.1.26v.026a1.55,1.55,0,0,1,.078.493l-.026-.1h-.026l.182,1.012v-.013q0-.013.026-.013v-.13q.208.831.286,1.272a.106.106,0,0,0-.078-.026l.052.338h-.052l-.026-.078-.156-.831q-.156-.675-.208-.987l-.623-3.427q-.156-.727-.208-1.09a.78.78,0,0,0-.026-.13.1.1,0,0,1,.078-.13q.026,0,.013-.039a.214.214,0,0,1-.013-.065h.026l.467,2.518Zm.467-.935-.623-3.271h.026l.156.649a2.318,2.318,0,0,0-.065-.428,2.332,2.332,0,0,1-.065-.454,1.431,1.431,0,0,1,.052-.286l.078.571q.208.779.286,1.194a4.416,4.416,0,0,1,.1.545q.078.286.182.857l.026.156v.312l.1.727.182.909a.446.446,0,0,1-.026.182l-.779-3.946.389,2.285Zm-2.934,5.218a.289.289,0,0,0,.026-.13l.545-2.57q.1-.441.13-.6l.13-.6.389-2,.156-.727h.052v.1q-.156.649-.337,1.61-.26,1.4-.415,2.077l-.571,2.674-.052.156Zm2.207-8.074a1.6,1.6,0,0,1,.1.35,1.253,1.253,0,0,0,.13.376.248.248,0,0,0,.078.286l.013.052a.063.063,0,0,1-.039.078.1.1,0,0,0-.013.091.547.547,0,0,1,.013.091l.208.987q.1.675.363,2.077l.078.519h-.052l-.883-4.7a.146.146,0,0,1-.013-.1A.427.427,0,0,0-17.014-17.242Zm-1.013,3.609q-.026.13-.052.325a2.35,2.35,0,0,1-.1.428l-.337,1.61-.363,1.739a.177.177,0,0,0-.013.117.277.277,0,0,1-.013.143l-.052.1q-.052,0-.052-.026l1.194-5.712h.052Zm-.7,4.959a4.759,4.759,0,0,1,1.246-.078,4.676,4.676,0,0,1,1.013.052.575.575,0,0,1-.182.026h-2.077Zm-1.739,4.128a.91.91,0,0,1,.078-.441,2.925,2.925,0,0,0,.13-.623,3.9,3.9,0,0,0,.156-.857q0,.026-.052.078a.262.262,0,0,1,0-.169Q-20.129-6.6-20-6.6l-.415,2.311-.052-.026Zm-.078-1.012a1.431,1.431,0,0,1-.052-.286,2.2,2.2,0,0,1,.1-.545l.1-.182.052-.052.052.1-.078.467-.026.078a.15.15,0,0,1,.026.1.269.269,0,0,1-.078.169A.794.794,0,0,0-20.545-5.559Zm5.3,0a.15.15,0,0,0,.026.1.38.38,0,0,1,.078.234v.182l.026.338h-.026l-.052-.1-.312-1.662a.362.362,0,0,1-.026-.156q0-.026.013-.026h.013l.052.13Zm-1.116-2.466a10.213,10.213,0,0,1-1.558.052A8.115,8.115,0,0,1-18.831-8v-.026Zm.649-7.191.389,2.181h-.052l-.389-2.155Zm-3.193,7.373h2.518v.026h-2.518Zm0,.1,2.57-.052v.078h-2.57Zm3.323-3.427q-.052-.312-.208-1.194h.026q.052.234.182.883h.052l-.078-.441h.026l.13.6a.023.023,0,0,0-.026.026l-.078-.078a.575.575,0,0,1,.026.182Zm1.921,6.8a1.53,1.53,0,0,1-.169-.571q-.039-.338-.065-.519A3.02,3.02,0,0,1-13.665-4.365Zm-6.361-.363.337-1.843h.052L-20-4.729Zm2.388-3.842-.286.052a1.42,1.42,0,0,1-.312.052.575.575,0,0,1-.182-.026,1.007,1.007,0,0,1-.13-.052v-.026Zm-2.388-3.79.312-1.687h.026L-20-12.361ZM-16.6-8.908h-1.116v-.026h1.142Zm-.078-6,.26,1.428h-.026l-.26-1.428Zm2.025,8.2q.026.078.234,1.064h-.026L-14.678-6.7Zm-2.44-9.943q.078.286.182.909h-.026q-.078-.363-.182-.909Zm.623,8.178H-17.2v-.026l.727-.026Zm1.61,2.57q.13.571.182.753h-.052l-.156-.753Zm-6.335-.779-.052.26-.052.26-.052.286h-.026l.156-.8Zm4.647-8.775.156.831H-16.4q-.013,0-.013.026l-.156-.857Zm-3.583,3.712q-.026.182-.13.675h-.026l.13-.675Zm1.194-3.375.13-.649h.026l-.13.649Zm3.115-.415q-.052-.208-.1-.519h.026l.1.519ZM-19.714-4.651q.052-.312.1-.519h.026l-.1.519Zm-.441-4.6a4.427,4.427,0,0,1,.1-.6l-.078.6Zm5.348-.935a2.51,2.51,0,0,1-.1-.493h.026l.1.493Zm.623,5.763a1.547,1.547,0,0,0-.026-.338h.026l.052.338ZM-16-16.359l-.078-.415h.026l.078.415Zm-.286,3.764-.078-.441h.026l.078.441Zm.883,7.84a1.547,1.547,0,0,0,.026.338h-.052v-.338Zm-4.31-6.568-.1.389h-.026l.1-.389Zm1.61-4.336-.052-.026-.156.857h.052Zm-.415,2.388a.686.686,0,0,0-.208.545Zm.078-.857a2.374,2.374,0,0,0,.1-.389h-.026a2.374,2.374,0,0,0-.1.389Zm-.467,2.233h.026l.1-.415h-.026Zm2.8,2.077h.026l-.078-.363h-.026Zm13.37,5.608A5.394,5.394,0,0,0-3.177-5.3l-.156-.338-.623-1.558-.026-.052q-.1-.208-.195-.376t-.169-.325q-.026-.1-.052-.247a1.119,1.119,0,0,0-.1-.3L-5.15-10.1q-.052-.1-.1-.195t-.078-.143L-5.8-11.66q-.052-.052-.052-.078a.289.289,0,0,1-.026-.13l.13-.389.234-.545.545-1.687q.052-.156.312-.753l.675-2.025a10.528,10.528,0,0,1,.441-1.09,5.864,5.864,0,0,0,.519-1.584.446.446,0,0,1,.026-.182.194.194,0,0,0,0-.234l-.415.1a1.425,1.425,0,0,1-.182-.078.4.4,0,0,0-.156-.052h-.078l-.286.026.026-.13a.355.355,0,0,0-.078.013.237.237,0,0,1-.13-.013h-.078a.466.466,0,0,0-.234.078.106.106,0,0,1-.078.026.289.289,0,0,1-.13.026.285.285,0,0,1-.182-.1q-.052-.1-.156-.026l-.312.234-.182.13-.234.493q-.26.7-.337.883-.234.727-.6,1.688a1.726,1.726,0,0,1-.1.415.951.951,0,0,1-.078.169,1.786,1.786,0,0,0-.1.221q-.078.234-.143.441a4.072,4.072,0,0,1-.143.389l-.623,1.791-.545,1.454-.1.286-.026-.026v-.857q-.026-.363-.026-1.142l.026-.337-.026-1.713.026-.363v-.623l.026-.649L-8.68-18.1q0-.727.026-1.064a.834.834,0,0,0-.13-.493,1.431,1.431,0,0,1,.052.286l-.078-.052.026.338v.337q-.026-.156-.052-.519a1.386,1.386,0,0,0-.182-.623v-.13q0-.026.013-.026h.013l.13.26h.026l-.1-.312q-.052-.182-.182-.182a.106.106,0,0,1-.078-.026l-.052-.052q-.052.1-.156,0a.075.075,0,0,1-.052-.026.032.032,0,0,0-.052,0l-.078.026a.289.289,0,0,1-.13-.026l-.1-.052h-.337q-.078,0-.234.013a.623.623,0,0,1-.234-.013,1.4,1.4,0,0,0-.571-.1.251.251,0,0,0-.169.039q-.039.039-.013.169.026.052.065.156a.27.27,0,0,1,.013.182.838.838,0,0,0-.052.312v.286l.026.1h.052v-.286a.6.6,0,0,1,.1.156.15.15,0,0,1,.026.1.285.285,0,0,1-.1.182.2.2,0,0,0-.078.182l.052,1.246.026,2.752q.026.467.026,1.454l.026,1.791-.026,1.194-.026,2.337.026.883-.026.675.026,1.272q0,.545-.026.8a.126.126,0,0,0,.026.065.126.126,0,0,1,.026.065.425.425,0,0,1,.052.065.849.849,0,0,1,.052.091v.1a.286.286,0,0,0,.1-.143q.052-.117.156-.091a.767.767,0,0,1-.039.208.312.312,0,0,0,.039.26l.026-.156a.205.205,0,0,0,.026-.13h.052a.425.425,0,0,1,.052.065.16.16,0,0,1,.026.091V-4a.285.285,0,0,0,.1.182l.052-.13.052.026v.13q.078-.078.1-.078.078,0,.156.156a.379.379,0,0,0,.195-.078q.117-.078.195-.026l.052-.1q0,.052.026.052,0,.078.039.091a.2.2,0,0,0,.117-.013.258.258,0,0,1,.117-.026.4.4,0,0,0,.169-.052h.026q.156.13.286-.052l.156-.156q.078-.078.078-.1l.052-.156.052-.156q.312-.857.389-1.038.13-.363.26-.649t.208-.493l.208-.623.078-.312.234-.441.052-.234a.023.023,0,0,1,.026.026l.1.26.1.26q.338.883.6,1.428a6.448,6.448,0,0,1,.312.831,5.8,5.8,0,0,0,.493,1.22l.312.312q0-.026.013-.026h.013l-.026-.13.1.078q.026.026.1.091a.119.119,0,0,0,.156.013q.052-.052.078-.026a.15.15,0,0,1,.1.052l.026-.026q.052-.026.078.013l.026.039h.026q.026,0,.052-.078a.281.281,0,0,0,.13.1A.106.106,0,0,1-4.4-3.924l.286-.052.1.078a.788.788,0,0,0,.234-.026q-.052-.13.1-.078a1.094,1.094,0,0,1,.182.026A.449.449,0,0,0-3.229-4H-3.2a.675.675,0,0,1,.208.026.362.362,0,0,0-.026-.156.106.106,0,0,0,.078.026.2.2,0,0,0,.117-.052A.2.2,0,0,1-2.735-4.209ZM-4.89-8.467q-.052-.052-.052-.078-.13-.286-.571-1.428l-.078-.26-.363-.8q.026,0,.026-.013v-.013q.052.1.169.363a2.834,2.834,0,0,1,.169.467l.026.078.571,1.35q.026.1.052.182l.052.156.286.7.286.649a.38.38,0,0,1,.078.234l-.117-.234q-.065-.13-.117-.26l-.389-.935A.362.362,0,0,1-4.89-8.467Zm-1.35-9.528q.26-.7.493-1.3a.455.455,0,0,1,.052-.13h.026a.4.4,0,0,1-.052.156q-.389,1.038-.441,1.194l-.519,1.48-.363.883a1.61,1.61,0,0,1-.1.363l-.26.8q-.182.623-.338,1.038l-.493,1.428-.156.26a1.282,1.282,0,0,1-.13.415,2.7,2.7,0,0,0-.13.286l-.052-.026.312-.675q.1-.338.363-1.012l.8-2.44.182-.441.208-.649ZM-8.654-8.363H-8.68l.026-.13.363-.961v-.208l.052-.156.779-1.9.389-1.064a.1.1,0,0,1,.078-.1l-.6,1.739q.286-.623.312-.727l.363-1.038h.026a3.592,3.592,0,0,1-.1.415l-.623,1.636a13.065,13.065,0,0,0-.441,1.246l-.389,1.09-.156.467-.052.1h-.052l.078-.234.26-.675.13-.545-.312.8Zm2.44-2.44a.362.362,0,0,1,.026-.156q.1.208.221.493t.169.415a7.616,7.616,0,0,0,.363.935l.026-.026V-9.22l.026-.026q.312.883.571,1.506h-.026q-.1-.208-.26-.623,0,.026-.013.026h-.013v.078l.182.441a.205.205,0,0,0,.026.13,1.566,1.566,0,0,0,.182.415l.1.13A1.345,1.345,0,0,1-4.54-6.9a1.08,1.08,0,0,0,.117.273.277.277,0,0,1,.013.143.6.6,0,0,0-.013.117q-.182-.312-.208-.363l-.6-1.35Q-5.695-9.272-5.9-9.869a1.605,1.605,0,0,1-.13-.415l-.1-.26Zm-2.44,3.323-.026-.13a1.068,1.068,0,0,1,.091-.4q.091-.221.143-.325.26-.779.6-1.739L-7.2-11.79l.338-.909a6.572,6.572,0,0,1,.26-.727l1.09-3.141a14.567,14.567,0,0,1,.649-1.739l.026-.1.052.026q-.234.571-.649,1.713h.026l.389-1.038q.26-.675.415-1.012h.026l-.052.234-.415,1.168-.312.8q-.286.935-.753,2.155-.623,1.869-.961,2.8l-.7,1.791-.623,1.817a.4.4,0,0,0-.052.156,4.527,4.527,0,0,0-.13.545.289.289,0,0,0-.026.13h-.052v-.338Zm-1.765.286q.026-1.012.026-3.012,0-3.375-.13-7.581h.078l.026.675a6.573,6.573,0,0,0,.026.675v-2h.026v.13q0,.883.052,2.544l.026,1.038q.026.337.026,1.012v2.025a.854.854,0,0,0-.052.26,1.321,1.321,0,0,0,.026.26,1.2,1.2,0,0,1,.026.234q-.026.286-.026.831v.441l-.026.208V-9.4a.54.54,0,0,1,.026.208v.208a.788.788,0,0,0,.026.234.959.959,0,0,1,.039.363q-.013.208-.013.286a.126.126,0,0,1-.026.065.126.126,0,0,0-.026.065.854.854,0,0,0-.052.26l.026.182A.688.688,0,0,1-10.42-7.195Zm.234-11.6.052,2.648.1,2.1Q-10-13.4-10-12.1q0,1.765-.026,2.648,0,.182.013.454a5.434,5.434,0,0,1-.013.636,1.267,1.267,0,0,1-.026.273q-.026.117-.052.221l-.026.026h-.052v-.883q.026-.883.026-2.648v-1.09q0-1.454-.052-4.413l.026-.779q-.052-1.4-.1-2.1v-.1h.052l.052.519Zm.467,3.193.052.545v-1.947h.026l.026.234q0,1.012.026,1.506l.078,1.4q.026.234.026.753l.026.312q-.026.26-.026.831a6.124,6.124,0,0,0-.026.675q0,1.09-.026,1.636a.822.822,0,0,1-.039.234.756.756,0,0,0-.039.182h-.026Zm.337-2.544a.3.3,0,0,1,.1.26v1.168l.052,1.687q.052,2.492.052,3.764v.7a.85.85,0,0,1-.052.208q0-1.739-.078-3.453-.026-.571-.052-1.441t-.026-2.012Zm.675,7.866a2.7,2.7,0,0,1,.1-.338l.649-1.687.753-2.233q.389-1.09.727-2,.052-.182.441-1.272a1.013,1.013,0,0,1,.1-.182q-.467,1.35-.831,2.44-1.246,3.661-1.921,5.27Zm.182.675a8.673,8.673,0,0,1,.363-1.012q.363-.831.727-1.869t.493-1.428q.7-2.077.961-2.726-.8,2.466-1.35,4T-8.525-9.609Zm-1.324-5.478a36.019,36.019,0,0,1,.13,4.024,12.777,12.777,0,0,1-.1,2.44V-8.8l.026-1.428v-1.22a.49.49,0,0,0-.026-.156.49.49,0,0,1-.026-.156v-.727l.026-.312q-.026-.727-.026-2.207ZM-4.63-4.677A4.73,4.73,0,0,1-5.1-5.507l-.571-1.454-.519-1.4-.467-1.246a.289.289,0,0,0-.026-.13h.052l.286.727q.338.935.831,2.155.312.779.441,1.168a8.311,8.311,0,0,0,.363.8A.716.716,0,0,1-4.63-4.677Zm-.026-.649-.156-.389q-.208-.6-.286-.753-.26-.6-.571-1.428-.234-.545-.493-1.35l-.208-.571a1.017,1.017,0,0,1-.1-.234.289.289,0,0,1-.026-.13h.013q.013,0,.013-.026L-4.6-5.326ZM-5.435-6.1a10.12,10.12,0,0,1-.714-1.675,9.014,9.014,0,0,1-.558-1.7l.052.13q.312.935.493,1.4l.7,1.713Zm-2.1-7.814a22.289,22.289,0,0,1,.8-2.388q.8-2.207.909-2.337l-.649,1.791Zm1.246,2.051L-4.5-17.06l.052.026L-6.24-11.842Zm-.026,1.3q1.246,3.115,1.843,4.7H-4.5l-1.869-4.7Zm.857,4.777a12.96,12.96,0,0,1-.727-1.726,9.736,9.736,0,0,1-.6-1.778ZM-11.2-17.917a6.957,6.957,0,0,1-.052-.7,1.46,1.46,0,0,1,.052-.441l.026-.013a.2.2,0,0,0,.052-.039l.026.6A1.734,1.734,0,0,1-11.2-17.917Zm2.051-1.272a11.029,11.029,0,0,1,.1,1.558v1.012Zm1.48,5.634A22.024,22.024,0,0,1-8.68-10.83Zm-1.3.753v-1.454L-8.94-12.8Zm-1.662-4.959v-.961h.026v.961Zm3.868,4.05.338-1.012h.052l-.363,1.012Zm-.026,5.556A1.5,1.5,0,0,0-6.9-8.48.807.807,0,0,1-6.993-8.8l.052-.026.182.649q0,.026-.013.026Zm1.3-9.787q-.1.338-.363,1.013,0-.026-.013-.026h-.013l.363-.987ZM-5.929-6.26q0,.026-.013.026h-.013l-.389-.909h.052ZM-9.589-5.17A.353.353,0,0,1-9.537-5.4v.078l.026.234a.444.444,0,0,1-.078.208V-5.17Zm1.272-4.387q-.208.623-.337.935a.023.023,0,0,0-.026-.026l.312-.935ZM-10.5-14.412v1.038h-.026v-1.038Zm6.231,9.787a5.981,5.981,0,0,1-.286-.545A.023.023,0,0,1-4.527-5.2l.286.545q0,.026-.013.026Zm-2.362-8.983a3.633,3.633,0,0,1-.182.519q0-.026-.013-.026h-.013a4.968,4.968,0,0,1,.182-.493Zm-2.908-1.817v-.935h.026v.935ZM-5.643-5.04q0-.026.013-.026h.013l.26.545h-.026Zm1.376-12.228q0-.026-.013-.026h-.013l.182-.441H-4.1q.013,0,.013.026ZM-6.552-7.662a.248.248,0,0,1,.1.143.585.585,0,0,1,.026.117.023.023,0,0,1-.026.026l-.156-.26Zm-2.337-9.087v.441h-.026v-.441Zm2.155,8.7a.228.228,0,0,1,.1.312Zm-2.908.441.078-.286h.052l-.078.286Zm3.764-3.764q.026,0,.026-.013V-11.4l.208.467h-.026ZM-8.94-12.517v.571h-.026v-.571ZM-10.16-5.2a2.015,2.015,0,0,0,.1-.26q0,.026.013.026h.013l-.078.26Zm-.883-2.674v-.493h.026v.493Zm.987.779a.824.824,0,0,1-.052.234h-.052l.078-.26Zm.026.649a.824.824,0,0,0-.052.234l-.052-.026.052-.234Zm.987-9.294a1.384,1.384,0,0,0-.026-.312h.052v.312Zm3.037,5.5.026-.1v-.026a.176.176,0,0,0-.052-.13.15.15,0,0,0-.1-.052l.1.26Zm-4.362-5.348a3.329,3.329,0,0,1-.026-.493v.493Zm2.778,4.439q-.078.182-.143.325t-.117.247l-.182.519.208-.441ZM5.676-13.5q-.13-.026-.156-.065a.277.277,0,0,1-.026-.143v-1.428q0-.26-.026-.636a3.869,3.869,0,0,1,0-.636,4.23,4.23,0,0,0,.039-.766q-.013-.428-.013-.584a.205.205,0,0,1,.026-.13.205.205,0,0,1,.13-.026l1.038.026h.078v-.026L6.3-17.969h.727v.026a.053.053,0,0,0-.039.013l-.039.039.935-.052h.182a.3.3,0,0,0,.26-.1H8.74a.317.317,0,0,0-.234.078.362.362,0,0,0,.156.026,2.188,2.188,0,0,1,.363-.052l.286.026a.905.905,0,0,1,.156.039.312.312,0,0,0,.26-.039q0-.026.026-.013a.115.115,0,0,0,.052.013l.078-.026a.446.446,0,0,0,.026-.182l-.026-.337a.059.059,0,0,0,.013-.065.059.059,0,0,1,.013-.065.106.106,0,0,1,.039-.065.106.106,0,0,1,.065-.039q-.1,0-.052-.1v-.208l-.026-.13v-.389l-.026-.312v-.078a.352.352,0,0,0-.1-.26q-.052-.052-.052-.078.052-.1-.1-.1a1.78,1.78,0,0,0-.338-.026l-.909.052q-.571.052-.831.052-.6,0-1.843-.052-.935,0-1.4-.026a4.647,4.647,0,0,1-.532-.026q-.221-.026-.35-.052a.15.15,0,0,0-.1.026l-.26.234-.156-.026L3-19.786v.078a1.432,1.432,0,0,0-.052.286q0,.545-.026.8v3.089q.026.493.026,1.454l-.026,1.4.026,1.324v1.817l.026,2.492v2.8q0,.156.065.195t.247-.039l.052.156a.075.075,0,0,0,.026.052l.026.026A.4.4,0,0,1,3.547-3.9a.854.854,0,0,1,.26.052h.026a1.384,1.384,0,0,1,.312-.026,1.47,1.47,0,0,1,.467.078H4.69a.32.32,0,0,1,.182-.052H5a.475.475,0,0,1,.221,0,.475.475,0,0,0,.221,0A1.459,1.459,0,0,1,5.78-3.9a.675.675,0,0,1,.208.026H6.04q.312-.026.909-.026H8.818a.911.911,0,0,1,.26.026,1.085,1.085,0,0,0,.182.052l.234-.026.182.026q.1,0,.1-.026l.13-.363a1.561,1.561,0,0,0,.052-.26.115.115,0,0,1,.013-.052.042.042,0,0,0-.013-.052q-.13-.052-.13-.286L9.8-5.118a.352.352,0,0,1,.1-.26q.026,0,.026-.039v-.039a.15.15,0,0,1-.026-.1l.026-.208v-.1a.164.164,0,0,1-.052-.169.585.585,0,0,0,.026-.117A.053.053,0,0,1,9.921-6.2q.013-.013-.013-.039a1.571,1.571,0,0,0-.13-.1.281.281,0,0,0-.234-.052H9L7.961-6.416q-.935,0-1.4-.026h-.13q-.519,0-.779.026a.115.115,0,0,1-.13-.13l-.026-1.61V-9.687l-.026-1.246a.27.27,0,0,1,.026-.156.27.27,0,0,1,.156-.026.667.667,0,0,0,.221.013,1.2,1.2,0,0,1,.169-.013l-.234-.026v-.026l1.038-.026a3.329,3.329,0,0,1,.493.026v.026l-.415.026.831.026a2.857,2.857,0,0,0,.441-.026h.026a.023.023,0,0,0,.026-.026q.026-.078.078-.091a.507.507,0,0,0,.1-.039l.1-.052a.3.3,0,0,1-.156-.1q-.026-.052.078-.1,0,.026.052.078h.026l-.026-.208q-.052-.078,0-.13a.376.376,0,0,0,.078-.195.829.829,0,0,1,.052-.195.15.15,0,0,0-.026-.1q-.052-.052,0-.182a1.085,1.085,0,0,0,.052-.182.255.255,0,0,0-.13-.234l-.078-.078-.078-.1h.1l.1-.052-.052-.1a.144.144,0,0,0-.156-.091q-.1.013-.13.013H5.624l-.1-.052.1-.052H7.1l1.22-.026q.1,0,.1-.13,0-.026-.039-.052a.126.126,0,0,0-.065-.026,6.573,6.573,0,0,0-.675.026q-.493,0-.753.026H6.144a.106.106,0,0,0,.026.078ZM4.9-16.074a2.353,2.353,0,0,1,.026.415,4.767,4.767,0,0,1-.026.6l-.026.649q-.026.234-.026.727a.169.169,0,0,1-.052.143q-.052.039-.13-.013a.2.2,0,0,1-.078-.182l.026-.935v-.571q0-.208-.013-.48a5.434,5.434,0,0,1,.013-.636,8.221,8.221,0,0,0-.052-1.272v-.234a.042.042,0,0,1,.026-.039l.026-.013q.078,0,.078.052l.026.493-.026.1q.052.675.052.987l.026.467.013.013.039.039v-1.064l-.052-1.038H4.82L4.9-16.359ZM3.7-13.53a.675.675,0,0,1-.026-.208L3.7-15.555q0-.441-.052-1.324l-.026-.675v-.234a.15.15,0,0,1,.052-.1.15.15,0,0,1,.052.1,3.108,3.108,0,0,1,.078.7q.026.519.026,1.532a6.921,6.921,0,0,1-.026.7q0,.727-.026,1.09a.824.824,0,0,1-.052.234ZM3.573-17.5l.026.883-.026,1.662.026.571-.052.623-.026.13H3.47v-.13l.026-2q0-.389-.052-1.22l-.026-.623a1.232,1.232,0,0,0-.026-.286l.078.026ZM4.9-17.943A14.844,14.844,0,0,1,5-15.295a13.35,13.35,0,0,1-.052,1.739l-.052-.1.026-1.064V-16.7q0-.389-.052-1.116A.289.289,0,0,1,4.9-17.943ZM3.314-11.011a.023.023,0,0,1,.026-.026l.026.13v.987L3.34-8.13,3.262-6.7H3.236Zm4.8-1.168a1.077,1.077,0,0,1-.532.13H5.521V-12.1l.13-.026H7.26a.106.106,0,0,0,.078-.026H6.585v-.052q.13,0,.312.013a2.644,2.644,0,0,0,.441-.013A5.106,5.106,0,0,1,8.117-12.18ZM5.079-15.762a19.74,19.74,0,0,0-.1-2.155h.052a17.947,17.947,0,0,1,.1,2.025q0,1.116-.078,2.285ZM3.392-17.346l.026.467q.026.545.026,1.636,0,.519-.052,1.558v.13H3.366V-17.5Zm5.971-.883a10.764,10.764,0,0,1-2.311.1,10.259,10.259,0,0,1-1.532-.052.023.023,0,0,0-.026-.026.675.675,0,0,1,.208-.026q.883.052,1.35.052.493,0,1.428-.052l.8-.026A.106.106,0,0,1,9.363-18.229ZM3.573-10.1a1.432,1.432,0,0,1-.052.286,1.354,1.354,0,0,0-.065.273,1.82,1.82,0,0,0-.013.195v.493H3.418l-.026-.208.026-1.61a.911.911,0,0,0-.026-.26q0-.156.182-.182V-10.1Zm.389-5.608q0-.493-.052-1.428l-.026-.7A11.371,11.371,0,0,1,4.015-16q0,.519-.052,1.558l-.026.779v-1.376ZM3.651-9.687q-.026-.441-.026-1.3v-.052l.052-.078q.052.052.052.078a1.384,1.384,0,0,1,.026.312q0,.389-.052,1.168,0,.7-.026,1.038v.156H3.651ZM8.4-4.884a3.186,3.186,0,0,1-.415.052L6.455-4.858A2.776,2.776,0,0,0,6-4.871q-.195.013-.325.013a.455.455,0,0,1-.13-.052q.26-.026.779-.026L7.7-4.91a6.573,6.573,0,0,0,.675-.026ZM5.469-19.5a1.377,1.377,0,0,0,.156-.013.411.411,0,0,1,.182.013,8.39,8.39,0,0,0,1.09.052l1.09-.026q.363-.026,1.09-.026-1.35.1-2,.1A11.435,11.435,0,0,1,5.469-19.5Zm2.492,6.932a8.43,8.43,0,0,1-1.713.078,4.8,4.8,0,0,1-.753-.026l.13-.052H7.675l.286-.026Zm-2.778-4.7q.052.467.052,1.454l-.026,2.155H5.157v-.7l.026-.727v-2.181Zm2.778,5.841a.788.788,0,0,1-.234.026q-.312.026-.935.026l-1.168.026-.13-.026v-.052Zm-.156-7.451a5.509,5.509,0,0,1-.623.052,5.676,5.676,0,0,1-.935-.078q-.519-.052-.753-.052v-.026l.26-.026,1.869.078h.182ZM4.794-9.869a.375.375,0,0,1-.13-.312v-.831l.052-.1q.078.078.078.1v1.064Zm.182,1.817v-3.012H5v3.012Zm-.883-8.437q.052.571.052.831l-.026.831a9.6,9.6,0,0,0-.026,1.168H4.041ZM7.7-12.439a11.27,11.27,0,0,1-1.4.052,4.842,4.842,0,0,1-.727-.026v-.026ZM6.118-19.812a6.444,6.444,0,0,0,.961.026v.026H5.417v-.078ZM3.885-11.037q.052.571.052.831,0,.441-.052,1.324Zm.649.727q0-.1-.013-.273a2.19,2.19,0,0,1,.013-.4l.026-.1q.078.078.078.1v.182q0,.208-.052.727l-.026.026H4.534Zm3.375-2.882H5.624v-.026H7.909Zm-.519.857a4.891,4.891,0,0,1-1.038.052,3.132,3.132,0,0,1-.8-.052Zm-.156-.675a5.434,5.434,0,0,0-.636-.013q-.273.013-.454.013a4.768,4.768,0,0,1-.6-.026v-.026H7.234Zm.026-6.257q-1.194-.052-1.739-.052v-.052q.519,0,.779.026a6.516,6.516,0,0,0,.961.026ZM4.871-9.973l-.026-1.116H4.9v1.116Zm.7,5.166h.857L6.4-4.781H5.572Zm.6-13.6a.824.824,0,0,1-.234.052,1.117,1.117,0,0,1-.208-.026.416.416,0,0,0-.208,0v-.052h.13Zm0,.493a5.509,5.509,0,0,0-.623-.052v-.052l.623.026Zm1.48-.1.519-.026v.052H7.649ZM5.131-17.5a.646.646,0,0,1-.026-.415h.052v.415Zm1.558,12.7H7.6v.026H6.689ZM6.3-12.18H5.572v-.026H6.3Zm.1.883H5.572v-.026H6.4Zm-1.272,1.4v.649H5.079l.026-.649Zm-.415-3.557q.052.078.1.078l-.052.052a.106.106,0,0,1-.078.026q-.026,0-.078-.052Zm1.272.519H5.572v-.026h.415ZM9.545-4.858a.461.461,0,0,1-.208.052l-.208-.026.415-.078Zm-4.413-6.2v.753H5.105v-.753Zm4.128-8.463a1.232,1.232,0,0,0,.286-.026v.052l-.286.026ZM6.4-18.384l.363-.026v.052H6.4Zm1.662,5.348H7.571v-.026h.493Zm-1.376,1.9a2.353,2.353,0,0,1-.415.026h.415Zm5.919-9.216a2.656,2.656,0,0,0-.286-.078q-.13-.052-.13.1l-.052.208-.1.8.026.831q.026.286.026.857v.857q-.026.545-.026,1.636v.883l-.026.286v5.712l.026.727-.026,1.064V-5.4a.212.212,0,0,0,.052.156V-5.2l-.026.312.078.312a.427.427,0,0,0,.026.13.427.427,0,0,1,.026.13.334.334,0,0,0,.13.312q.052,0,.052.078.052.1.091.117a.3.3,0,0,0,.143-.013h.1q.623-.052.961-.052.987-.052,1.48-.052l1.142-.026q.286,0,.857.052l1.116.052a3.088,3.088,0,0,0,.467-.026q.026,0,.1-.078a.088.088,0,0,0,.026-.065.088.088,0,0,1,.026-.065.213.213,0,0,0,.078-.13,1.459,1.459,0,0,0,.052-.337v-.389a.042.042,0,0,1-.013-.052.115.115,0,0,0,.013-.052v-.052a1.117,1.117,0,0,1,.026-.208.416.416,0,0,0,0-.208q-.026-.026,0-.039a.042.042,0,0,0,.026-.039l-.065-.065a.3.3,0,0,1-.065-.117.816.816,0,0,0-.013-.13q-.013-.078.013-.1l.026-.1a.557.557,0,0,0-.026-.143.2.2,0,0,1,0-.143.54.54,0,0,1-.208-.026h-.182l-.493.026-.467-.026a.281.281,0,0,0,.208.078.675.675,0,0,1,.208.026h-.571q-.026,0-.078-.052l-.1-.052a.23.23,0,0,0-.1-.026H16.139q-.052.052-.078.052-.935.052-1.4.052h-.078a1.88,1.88,0,0,1,.623-.078,2.768,2.768,0,0,0,.623-.052h-.1q-.675,0-1.012.026a.2.2,0,0,1-.143-.039.2.2,0,0,1-.039-.143l.026-.441q.026-.337.026-.987L14.5-8.7a.911.911,0,0,1,.026-.26l.026-.286q.026-.337.026-1.012-.026-.727-.026-2.207v-2.674q.026-.649.026-1.947v-.649q.026-.415.026-1.22l-.026-.389v-.26a6.957,6.957,0,0,0-.052-.7.15.15,0,0,0-.052-.1.6.6,0,0,0-.117-.091.6.6,0,0,1-.117-.091q-.13-.13-.208,0a.25.25,0,0,1-.13.1.172.172,0,0,1-.156-.026.565.565,0,0,0-.467-.078q-.1.1-.13.1h-.078a.916.916,0,0,0-.363.078Zm.571,2.025a.911.911,0,0,1,.026-.26h.026l.026.467v1.35q-.026.779-.026,2.337-.052,1.35-.052,2.025l.026,1.532q0,.727-.026,1.09v3.167a.205.205,0,0,1-.026.13.15.15,0,0,1-.1.026.115.115,0,0,1-.13-.13,7.124,7.124,0,0,0-.078-1.22.512.512,0,0,1-.013-.208q.013-.13.013-.208h.052v.545q.052,0,.052.026A.4.4,0,0,0,13-7.818v-.831q.026-.441.026-1.3L13-11.608l.026-2.466q.026-.623.026-1.921l.026-2.051v-.675L13.1-18.9h.052v.571Zm.909-.441q.052.571.052.831,0,1.324-.026,1.973l-.026,2.311V-11.3q0,2.181-.026,3.3a5.21,5.21,0,0,0,.078,1.064l.052-3.453q.026-.493.013-.857t-.013-.623q-.026-.312-.026-.987,0-.649.026-.961h.026V-8q.052-1.194.052-1.739h.052v3.271l-.052.026-.026-.13a.289.289,0,0,0-.026-.13v.26h-.052l-.052-.13h-.026l-.078.13L13.984-6.6V-9.324l.026-1.869q0-.6-.026-.909l-.026-.883q0-.571.052-1.662l.026-2.077q0-1.35.026-2.025v-.026ZM13.231-6.468a.911.911,0,0,1-.026-.26v-.545q0-1.4.026-2.1l.026-.545a3.581,3.581,0,0,0,.026-.519q0-.415-.052-1.194l.026-1.558v-.7l.052-.1v2.259h.026l.078-3.323h.026v.8l-.026,2.207q0,.545.052,1.636.052.571.052.883l-.026.883q0,.234.052.8l-.026.234v1.064q0,.026-.078.1-.078-.078-.078-.1a5.473,5.473,0,0,1-.026-.623l.026-1.9-.026-.363h-.052v2.96Zm.415-3.323a.289.289,0,0,1-.026-.13q-.052-1.506-.052-2.233l.026-1.791.026-2q.026-.753.026-2.233l.026-.1.026.13v.831l.026.961-.078,3.894q0,.493.026.727l.026.779q0,.7-.026,1.038v.13Zm.727-9.684q.052,1.246.052,1.817,0,.8-.052,2.414-.052,2.077-.052,3.141l.026,1.791a.362.362,0,0,1-.026.156v-.493A6.235,6.235,0,0,1,14.3-11.3L14.27-11.5v-.519q0-.182-.013-.454a4.948,4.948,0,0,1,.013-.61q0-.779.052-2.388l.026-.8V-18.1l-.026-1.35V-19.6h.052Zm-1.921,1.61q.026.415.026,1.272l-.026,2.233Q12.4-12.855,12.4-12.1q0,.6.052,1.791H12.4v-.13q-.052-1.713-.052-2.57,0-.8.052-2.414l.026-1.194Zm1.843.883-.026,2.414-.026.545h-.026v-4.855l.052.208ZM15.723-6.234q.831,0,2.544.052l.078-.026a.15.15,0,0,0,.1-.026l.026.13q-.467,0-1.35-.052l-1.376-.026q-.389,0-1.116.052l-.052-.026v-.026l.078-.026Zm-2.129-.182-.026-.13.026-1.246V-9.246l.026-.208h.026v3.012Zm3.453.987q-.883.052-2.492.1L14.5-5.352v-.026l.1-.026,1.012-.078.545-.026a7.143,7.143,0,0,1,.753.052Zm-1.376.519q.545-.026,1.636.026.571.052.831.052v.026l-2.466-.078Zm-1.116-.078q1.09-.052,1.636-.052a6.414,6.414,0,0,1,.961.052Q17-4.988,16.775-5a3.836,3.836,0,0,0-.532.013,4.768,4.768,0,0,0-.6.026l-.623.026a3.088,3.088,0,0,1-.467.026Zm.026-.961a1.959,1.959,0,0,1,.363-.026q-.052-.052-.078-.052,1.142.052,1.739.052L14.633-5.9Zm1.61,1.428q-1.09.052-1.662.052v-.052l1.662-.052ZM12.4-17.631q0,.234-.026.558t-.052.48v-1.35h.052ZM15.568-4.91a1.526,1.526,0,0,1-.649.1.891.891,0,0,1-.363-.052Zm1.713-1.48a.317.317,0,0,1-.234.078.744.744,0,0,1-.338-.078ZM12.66-7.844v.883h-.026v-.883Zm5.686,3.012a1.384,1.384,0,0,1,.312.026v.052a1.547,1.547,0,0,0-.338-.026Q18.32-4.832,18.346-4.832Zm-2.1-1.584a1.547,1.547,0,0,1,.338.026v.052l-.338-.052Zm-3.219,0q.078-.026.091.039a.121.121,0,0,0,.065.091.289.289,0,0,1-.13-.026Q13-6.338,13.023-6.416Zm.156-10.748h.026v-.883h-.026Zm.26,9.632h.026V-9.817h-.026Zm8.386,1.817q0-.987-.052-3.063h.052q0,.493.052,1.48H21.9l.052-.156.026.363.052-.1-.1-2.388-.078-3.271v-.623q0-.208.013-.519a7.094,7.094,0,0,0-.013-.727q0-.493-.052-1.428v-.156h.052a.824.824,0,0,0,.052.234l.026.7.026,1.012-.026.415q.026.286.026.857.026.26.026.8v.8q0,.441.052,1.272l.026.623v.1a2.233,2.233,0,0,1,.052.415l.052,1.48a.15.15,0,0,0,.026.1h.026v-.363a.824.824,0,0,1,.052.234l.026,1.22q0,1.324-.026,2,0,.156-.078.182-.026,0-.026.039a.088.088,0,0,1-.026.065l.13-.026a.272.272,0,0,0,.182.169A.468.468,0,0,1,22.6-3.9q0,.026.039.013a.163.163,0,0,0,.065-.039.466.466,0,0,0,.078-.234.824.824,0,0,0-.052-.234.4.4,0,0,1-.156.052l-.156-5.582h.026q.078,1.376.182,4.128h.052q.026-.286.026-.883,0-.649-.052-2h.026q.026,0,.052.078-.052-.883-.1-2.7v-2.648h.013q.013,0,.013-.026.026.1.065.273a1.274,1.274,0,0,1,.039.273q0,2.726.1,4.881.052.935.052,1.376l.026.675q.052,1.3.052,1.9a.911.911,0,0,1-.026.26v.1a.646.646,0,0,0,.078.286.418.418,0,0,1,.052-.182.259.259,0,0,0,.065-.156q.013-.1-.013-.13a.225.225,0,0,1-.1-.182v-.13a1.666,1.666,0,0,1,.026-.3,1.667,1.667,0,0,0,.026-.3q.026-.234.026-.727L23.1-7.506,23.019-10q-.052-1.817-.052-2.752a.118.118,0,0,1-.013-.091.214.214,0,0,0,.013-.065h.026v.156l.052,1.817.1,2.96L23.2-5.3v.1h.052a.115.115,0,0,1,.013-.052.042.042,0,0,0-.013-.052V-7.351l-.026-1.9v-.935l.026-1.09a3.925,3.925,0,0,0-.026-.519.451.451,0,0,1-.013-.182.816.816,0,0,0,.013-.13h.052l.052.1a2.7,2.7,0,0,0,.1.338q.078.182.143.325t.117.247l.753,2.414.312.961.312.935a.2.2,0,0,0,.208.156l-.078-.13.052-.026.156.156a.326.326,0,0,0,.13.078.167.167,0,0,0,.13,0,1.138,1.138,0,0,0,.234-.13q.208-.156.337-.026a.326.326,0,0,0,.13.078,1.007,1.007,0,0,1,.13.052q.026.026.039.013a.053.053,0,0,1,.039-.013.361.361,0,0,1,.363-.1q.052.026.13-.052a.763.763,0,0,0,.182-.208L27.3-7.3l.234-.545.234-.779.519-1.584.338-1.012.389-1.142q0-.026.052-.078,0,.026.013.026h.013v.519l-.026.883-.026.415q.052.467.052.675l-.026.389.026,1.064v2.934l-.026,1.324v.052q.078,0,.091.091a.223.223,0,0,0,.039.117l.052-.1.078.078-.052.1H29.3l.182-.208.1.286a.6.6,0,0,0,.156-.1l-.026.1.13.078a.345.345,0,0,0,.208.078.285.285,0,0,0,.182-.1.4.4,0,0,1,.156-.052,1.138,1.138,0,0,0,.13-.234,1.547,1.547,0,0,0,.026-.337l-.026-2.129q0-.1.013-.273a1.1,1.1,0,0,0-.013-.3L30.5-8.285a5.434,5.434,0,0,1-.013-.636q.013-.273.013-.48v-.571l-.026-2.44q0-.389-.052-1.22l-.052-2.388a3.088,3.088,0,0,1,.026-.467.126.126,0,0,1,.026-.065.425.425,0,0,1,.052-.065l.052.1.026.649v1.687l.026.831q.052,1.194.052,1.791.026,1.48.026,4.413v2.155a2.252,2.252,0,0,1-.026.312.935.935,0,0,0,0,.312l.026.182a.545.545,0,0,1-.078.286v.052L30.859-4a.25.25,0,0,0-.026.182.126.126,0,0,0,.026.065.126.126,0,0,1,.026.065.176.176,0,0,0,.13-.052A.606.606,0,0,1,31.352-4a.355.355,0,0,0,.078-.013.116.116,0,0,0,.078-.065,1.884,1.884,0,0,0,.13-.727L31.586-5.3V-6.442a1,1,0,0,1-.013-.273,2,2,0,0,0,.013-.221,2.352,2.352,0,0,1-.026-.415l.026-.857-.026-.779v-.987l.026-.234-.026-.649a.205.205,0,0,1,.026-.13l.026-.234-.026-2.388v-3.349q-.026-.363-.026-1.09,0-.519.052-1.61a3.925,3.925,0,0,1,.026-.519.293.293,0,0,0-.026-.208,1.78,1.78,0,0,1-.338.026v-.026a1.007,1.007,0,0,0-.13-.052.575.575,0,0,0-.182-.026l-.519-.052h-.208l-.208.052a.99.99,0,0,1-.208.039.284.284,0,0,0-.208.117q0,.026-.052.026a.15.15,0,0,1-.026-.1l-.039.039a.053.053,0,0,0-.013.039,1.392,1.392,0,0,0-.182.493,1.383,1.383,0,0,1-.117.35,1.831,1.831,0,0,0-.117.3l-.208.623-.234.623-.208.753q-.052.13-.286.675l-.312.961-.156.493-.389,1.09a2.374,2.374,0,0,0-.1.389,1.687,1.687,0,0,1-.13.415,2.849,2.849,0,0,0-.156.363q-.052.156-.078.26l-.467,1.428-.26.6-.052-.1-.169-.506q-.091-.273-.169-.61l-.571-1.739a8.059,8.059,0,0,0-.286-.8l-.156-.6a5.221,5.221,0,0,1-.208-.649l-.286-.8a3.049,3.049,0,0,0-.13-.363,3.049,3.049,0,0,1-.13-.363q-.312-.831-.441-1.272-.026-.1-.143-.415a1.7,1.7,0,0,1-.117-.6,2.187,2.187,0,0,0-.052-.363.362.362,0,0,0-.026.156H23.1v-.493a.092.092,0,0,0-.1-.1l-.182-.286a.075.075,0,0,0-.052-.026h-.026q-.1.1-.143.039a.226.226,0,0,1-.039-.091l-.052.1-.182-.156q-.026.13-.117.117a1.11,1.11,0,0,0-.117-.013.335.335,0,0,0-.26,0,.115.115,0,0,0-.052.013.042.042,0,0,1-.052-.013.682.682,0,0,0-.247-.013.682.682,0,0,1-.247-.013l-.026.026-.156.156q-.052.1-.078.1a.106.106,0,0,1-.078-.026l-.052-.052a1.042,1.042,0,0,0-.13.6,1.547,1.547,0,0,1,.026.338l-.026.649.026,1.013a1.489,1.489,0,0,1-.013.182.925.925,0,0,0,.013.26l.026,1.584a1.892,1.892,0,0,1-.026.312,1.748,1.748,0,0,0-.026.286q.052.883.052,1.324a1.384,1.384,0,0,1-.026.312l-.026.545.026.467a5.621,5.621,0,0,1,.013.649q-.013.286-.013.493,0,.156.013.376a3.431,3.431,0,0,1-.013.506v.857l.026,1.4-.026.883q0,.753.026,1.142,0,.519.026.753v.675a1.546,1.546,0,0,0,.026.337.681.681,0,0,0,.078.117.143.143,0,0,1,.026.143q-.026.026.026.1.026-.052.052-.117a.279.279,0,0,1,.052-.091q.052-.026.052-.13l-.078-.182a1.365,1.365,0,0,1-.026-.467.605.605,0,0,1,.13.467v.052a.3.3,0,0,0,.182.26.739.739,0,0,1,.156.13.716.716,0,0,0,.143-.039.176.176,0,0,1,.195.039.224.224,0,0,0,.078-.156.306.306,0,0,0-.039-.13.346.346,0,0,1-.039-.156.824.824,0,0,0-.052.234.106.106,0,0,1-.026.078q-.026.026-.078,0l-.026-.363h-.052a1.96,1.96,0,0,1-.026.363.166.166,0,0,1-.1-.156v-.156l.052.156v-.013q0-.013.026-.013V-5.845l.026.286h.026q0-1.012-.052-2.986h.052q0,.26.052.779h.026V-8.1h.026q.052.779.1,2.388ZM28.86-17.683a6.372,6.372,0,0,1,.208-.623h.013q.013,0,.013.026-.078.26-.286.779-.26.831-.363,1.246h-.052l.156-.545.26-.7ZM26.471-9.635q0,.052-.052,0l.234-.571q.052-.182.1-.35t.078-.3q.1-.286.182-.519t.156-.441a.773.773,0,0,1,.078-.1.106.106,0,0,0-.026.078l-.519,1.506a.455.455,0,0,1-.052.13Zm.1.519a.547.547,0,0,0-.013-.091.1.1,0,0,1,.013-.091l.389-1.168.052-.208a1.609,1.609,0,0,1,.1-.312q-.052-.026-.078,0a.106.106,0,0,0-.026.078l-.208.649-.13.26a2.97,2.97,0,0,1,.208-.675q.156-.363.208-.519l.078.1.415-1.194a.053.053,0,0,0-.039.013.053.053,0,0,1-.039.013.6.6,0,0,1,.052-.247q.052-.117.078-.169h.052a.854.854,0,0,0-.052.26h.026L29.094-16.9h.052a1.232,1.232,0,0,1-.026.286L28.7-15.425q-.26.883-.831,2.648-.1.363-.363,1.09l-.182.545-.1.286a.618.618,0,0,1-.039.169.389.389,0,0,0-.013.221v.052a.489.489,0,0,1-.039.195q-.039.091-.065.169-.1.286-.195.532t-.169.454l-.052.1Zm.571-.389q.286-.831.363-1.064h.026a1.561,1.561,0,0,1-.052.26l.078-.078h.052a11.393,11.393,0,0,1-.415,1.22,7.679,7.679,0,0,0-.286.8.681.681,0,0,0-.078-.117.436.436,0,0,1-.078-.169q-.026,0-.013-.026a.115.115,0,0,0,.013-.052l.753-2.129.441-1.428q.415-1.194.519-1.532l.337-1.09a5.485,5.485,0,0,1,.208-.675l.078-.182q-.312,1.246-1.22,3.972-.519,1.506-.753,2.285Zm-2.181.987a2.621,2.621,0,0,0,.143.363,1.089,1.089,0,0,1,.117.415l-.052.026a32.377,32.377,0,0,1-1.454-4.18l.078.208.1.208q.13.415.441,1.246a9.126,9.126,0,0,0,.337.909l.363.8Zm.389-.026q-.182-.493-.8-2.285l-.078-.182a1.718,1.718,0,0,1-.078-.234.649.649,0,0,1,0-.363l.389,1.272a.16.16,0,0,0,.026.091.426.426,0,0,0,.052.065l.286.779a6.64,6.64,0,0,0,.286.727.211.211,0,0,1-.026.26Zm4.18-2.882-.078-1.4.026-.883.052-.1.026.935q.052,1.246.052,1.843,0,.545-.052,1.636h-.026v-2.025ZM22.5-4.209v-.026q-.026-.26-.091-.74a4.369,4.369,0,0,1-.039-.87,1.2,1.2,0,0,0-.013-.169.667.667,0,0,1,.013-.221,5.509,5.509,0,0,1,.052-.623V-8.1h.026l.078,3.894Zm-1.142-7.918V-14.88a.046.046,0,0,1,.052-.052q.052,3.427.052,5.166l-.026-.753Zm8.619-1.35q.052.935.052,1.4.026.519.026,1.584a.911.911,0,0,0,.026.26.911.911,0,0,1,.026.26,4.231,4.231,0,0,1-.052.545.4.4,0,0,0-.013.169.6.6,0,0,1,.013.117H30v-2.8l-.078-1.584v-1.09h.052v1.142Zm-1.765,2.155a3.767,3.767,0,0,1-.117.4,2.55,2.55,0,0,0-.117.48q-.026.1-.13.389l-.208.545a.436.436,0,0,1-.078.169.681.681,0,0,0-.078.117h-.052l.727-2.129ZM26.965-8.1a7.49,7.49,0,0,1,.376-1.272,13.5,13.5,0,0,1,.506-1.376q-.026.182-.389,1.272T26.965-8.1ZM21.175-4.7q0-.857-.052-2.518.026.156.078.545a5.355,5.355,0,0,1,.052.7A11.408,11.408,0,0,1,21.227-4.7Zm8.9-8.489a7.387,7.387,0,0,1-.052-1.246,3.865,3.865,0,0,1,.052-.909Zm-.363-5.582q.312-1.038.519-1.532h.052l-.519,1.558Zm.441,5.582q-.052-1.558-.052-2.311h.026l.052,2.311Zm-.519,9.035q-.182.052-.156-.13a3.318,3.318,0,0,0,.052-.675,6.921,6.921,0,0,0-.026-.7,3.116,3.116,0,0,1,.052-.441v.857q0,.6.026.883ZM21.046-14.386q-.026-.182-.078-.714a6,6,0,0,1-.026-.948h.052Zm5.322,4.621q.312-.987.493-1.48,0,.026.013.026h.013L26.42-9.765ZM30.21-10.8v-1.765h.026V-10.8Zm-.441,6.464V-6h.026v1.662ZM27.458-8.986q-.13.415-.26.753v-.052a1.4,1.4,0,0,1,.078-.4.6.6,0,0,1,.156-.3Zm-3.687-4.387q-.312-.987-.493-1.48l.026-.026.519,1.48ZM29.561-9.22v1.428h-.026V-9.22Zm-6.2-7.607a.023.023,0,0,0,.026-.026l.467,1.4-.026.026Zm1.713,9.45q-.26-.753-.493-1.272H24.6L25.121-7.4ZM21.591-9.038l-.026-1.012h.026l.026,1.012ZM21.02-12.8v-1.09h.026v1.09Zm9.216,2.83v1.064H30.21V-9.973Zm-8.515-4.05v1.038h-.026v-1.038ZM26.5-9.454a1.275,1.275,0,0,1,.078-.312h.052l-.078.363H26.5ZM21.409-15.4l.026.312h-.052V-15.4Zm.857,3.635v-.857h.026v.857ZM27.8-9.454a1.026,1.026,0,0,0,.039-.221.345.345,0,0,1,.091-.221h.026Zm-5.4-2.492v.753H22.37v-.753Zm.026,1.012v.727H22.4v-.727Zm7.139,4.128v.415h-.026v-.415Zm.13-7.425v.727h-.026v-.727Zm-2.6,6.023a1.232,1.232,0,0,1-.026.286q-.078-.052-.078-.1A.4.4,0,0,1,27.095-8.207Zm2.492.831-.026.208h-.052l.026-.208Zm.13-11.215a2.374,2.374,0,0,0-.1.389h-.026a1.726,1.726,0,0,1,.1-.415Zm-8.8-.441v.571H20.89v-.571ZM21.643-8.7l.026.312h-.052V-8.7Zm7.711-.883v-.545h.026v.545Zm.727,1.9v-.26h.026v.26Zm-8.2,2.882a.4.4,0,0,0-.052.156.425.425,0,0,0,.156.26,1.96,1.96,0,0,1-.026-.363h-.026a.088.088,0,0,0-.026.065.088.088,0,0,1-.026.065Z" transform="translate(84.654 23.09)"/></svg>