<svg xmlns="http://www.w3.org/2000/svg" width="28.11" height="28.04" viewBox="0 0 28.11 28.04"><defs><style>.a{fill:#72d7d1;}</style></defs><g transform="translate(-2.124 -0.05)"><g transform="translate(2.124 0.05)"><path class="a" d="M26.166,10.022a14.158,14.158,0,0,1,9.8.144,3.32,3.32,0,0,1,.577.257l-.032.024A41.569,41.569,0,0,0,31.9,14.363,77.305,77.305,0,0,0,23.679,23.9c-.192.252-.355.525-.562.765a.714.714,0,0,1-.423.161c-1.137.15-2.276.286-3.413.431-.194.012-.3.2-.411.331-.477.623-.981,1.23-1.4,1.893l-.032.035a.811.811,0,0,0-.028-.243,14.034,14.034,0,0,1,8.76-17.248Z" transform="translate(-16.816 -9.217)"/><path class="a" d="M61.343,13.017l.037-.022a2.58,2.58,0,0,0,.526.314,12.907,12.907,0,0,1,1.224.765,1.28,1.28,0,0,0,.306.163l-.03.029C62.439,15,61.528,15.813,60.6,16.6c-1.1.949-2.159,1.95-3.229,2.933a3.12,3.12,0,0,1-.459.4,6.855,6.855,0,0,1-.98-1.9c-.028-.128-.1-.283.011-.392a9.237,9.237,0,0,1,1-.993A40.205,40.205,0,0,1,61.343,13.017Z" transform="translate(-41.047 -11.561)"/><path class="a" d="M74.111,24.682c.084-.092.142-.215.255-.275.077.028.108.115.159.174a14.509,14.509,0,0,1,1.028,1.7c.066.084-.045.164-.081.234a42.571,42.571,0,0,1-4.425,5.18c-.088.079-.189.2-.324.159a6.38,6.38,0,0,1-2.052-1.026c.489-.563,1.027-1.085,1.524-1.642C71.546,27.724,72.858,26.227,74.111,24.682Z" transform="translate(-48.98 -18.639)"/><path class="a" d="M59.7,31l.02-.025a14.132,14.132,0,0,1,1,8.287A14.036,14.036,0,0,1,46.959,50.751a13.813,13.813,0,0,1-4.077-.573,1.392,1.392,0,0,0-.235-.043l.033-.025c.638-.436,1.252-.906,1.858-1.385.139-.121.309-.242.345-.435.166-1.162.294-2.329.45-3.492.038-.378.455-.513.707-.732A81.457,81.457,0,0,0,55.007,36.4,45.958,45.958,0,0,0,59.7,31Z" transform="translate(-32.838 -22.713)"/><path class="a" d="M47.112,33.819a2.6,2.6,0,0,1,.379-.347c.447.549.908,1.089,1.4,1.6.463.466.971.883,1.464,1.317.042.051.16.1.1.186-.826.92-1.751,1.743-2.629,2.611-1.41,1.353-2.872,2.653-4.335,3.949-.055.045-.135.136-.207.06a11.342,11.342,0,0,1-1.265-1.123,12.5,12.5,0,0,1-1.266-1.386c-.059-.081.047-.148.087-.207.99-1.108,1.967-2.227,2.986-3.307C44.9,36.022,46,34.917,47.112,33.819Z" transform="translate(-31.657 -24.262)"/><path class="a" d="M28.084,48.951a2.714,2.714,0,0,1,.428-.514c.278.507.65.961.918,1.47a3.619,3.619,0,0,1-.427.555c-1.642,1.941-3.228,3.931-4.733,5.979l-.024.028c-.135-.29-.4-.495-.53-.785.476-.886,1.021-1.735,1.554-2.588C26.166,51.685,27.11,50.307,28.084,48.951Z" transform="translate(-21.096 -33.544)"/><path class="a" d="M36.706,61.2c.07-.04.153-.163.242-.093a16.5,16.5,0,0,0,1.487.914c-.268.24-.573.434-.859.651q-1.808,1.321-3.7,2.52c-.9.556-1.8,1.126-2.747,1.612l-.076,0c-.269-.148-.479-.384-.755-.518l.028-.024C32.513,64.654,34.628,62.948,36.706,61.2Z" transform="translate(-25.177 -41.391)"/></g></g></svg>