<svg xmlns="http://www.w3.org/2000/svg" width="79.306" height="28" viewBox="0 0 79.306 28"><defs><style>.a{fill:#72d7d1;}.b{fill:none;}</style></defs><g transform="translate(-797 -3299.032)"><path class="a" d="M5.1-14.007H1.47V0H5.1V-5.67h5.25V0h3.654V-14.007H10.353v5.229H5.1ZM20.286,0H23.94V-6.72l5.229-7.287h-4.41l-2.541,3.822-2.646-3.822H15.225L20.286-6.72Zm16.3-5.1h2.982A2.492,2.492,0,0,1,38.7-3.549a3,3,0,0,1-2.016.651,3.313,3.313,0,0,1-2.562-1.071,4.382,4.382,0,0,1-1.113-3.024,4.724,4.724,0,0,1,1.218-3.213,3.383,3.383,0,0,1,2.394-.966,2.937,2.937,0,0,1,1.953.693,3.428,3.428,0,0,1,1.008,1.407L43.05-10.5a6.863,6.863,0,0,0-2.5-2.877,7.488,7.488,0,0,0-3.78-.945,7.494,7.494,0,0,0-5.439,2.058,7.3,7.3,0,0,0-2.1,5.25,7.059,7.059,0,0,0,2.016,5.061A7.234,7.234,0,0,0,36.624.126a6.838,6.838,0,0,0,4.935-1.764c1.68-1.554,2.247-3.528,2.247-6.3H36.582Z" transform="translate(832.5 3319.5)"/><g transform="translate(797 3299.032)"><path class="b" d="M0,0H28V28H0Z"/><path class="a" d="M3.082,14.583A7.583,7.583,0,0,1,11.73,2.636h0L6.779,7.587l1.65,1.65,4.949-4.949A7.583,7.583,0,0,1,24.1,15.012L13.791,25.323,3.067,14.6l.015-.016Z" transform="translate(0.209 0.344)"/></g></g></svg>