<svg xmlns="http://www.w3.org/2000/svg" width="98.368" height="15.095" viewBox="0 0 98.368 15.095"><defs><style>.a{fill:#37c8c8;}.b{fill:#ff6966;}</style></defs><g transform="translate(-11394.72 -674.125)"><path class="a" d="M6.54-12.9a4.387,4.387,0,0,0-2.34-.64C1.94-13.54.72-11.7.72-9.6c0,1.94.96,2.9,2.46,3.94A4.251,4.251,0,0,1,4.6-4.42a1.6,1.6,0,0,1,.14.68A1.439,1.439,0,0,1,3.18-2.26a3.509,3.509,0,0,1-1.96-.72V-.46a4.078,4.078,0,0,0,2.3.68c2.42,0,3.8-1.82,3.8-4.12,0-3.72-4-3.68-4-5.98a1.244,1.244,0,0,1,1.32-1.3,2.985,2.985,0,0,1,1.9.86Zm8.04,2v-2.44H7.82v2.44H9.88V0h2.64V-10.9ZM23.44,0l-3.2-13.34H17.48L14.36,0H17l.48-2.24h2.66L20.64,0ZM17.88-4.3a41.254,41.254,0,0,0,.88-5.6c.06.58.14,1.18.22,1.76.2,1.3.48,2.56.76,3.84Zm12.1-6.6v-2.44H23.22v2.44h2.06V0h2.64V-10.9ZM36.36,0V-2.46h-2.7v-3H36V-7.98H33.66v-2.88h2.66v-2.48h-5.3V0ZM51.84-6.66a8.6,8.6,0,0,0-1.2-5.02,4.407,4.407,0,0,0-3.48-1.86,4.352,4.352,0,0,0-3.48,1.86,8.6,8.6,0,0,0-1.2,5.02,8.535,8.535,0,0,0,1.2,5A4.427,4.427,0,0,0,47.16.22a4.4,4.4,0,0,0,3.48-1.88A8.535,8.535,0,0,0,51.84-6.66Zm-2.8-.06c0,1.22-.14,4.4-1.88,4.4s-1.88-3.18-1.88-4.4.14-4.4,1.88-4.4S49.04-7.94,49.04-6.72Zm9.9-4.16v-2.46H53.62V0h2.64V-5.5h2.42V-8.04H56.26v-2.84Zm14.2-2.46H70.18l-.92,2.88a19.416,19.416,0,0,0-.58,2c-.16-.6-.42-1.44-.6-1.98l-.98-2.9H64.2L67.4-5.7V0h2.64V-5.7Zm4.12,0H74.62V-4.1c0,.84.02,2-1.12,2a1.762,1.762,0,0,1-1.4-.74V-.2a4.125,4.125,0,0,0,1.96.42,2.979,2.979,0,0,0,2.92-2,6.738,6.738,0,0,0,.28-2.18Z" transform="translate(11394 689)"/><path class="b" d="M.572-12.25H1.6c-.012-.5-.152-1.715.642-1.715.525,0,.677.525.677.957a3.548,3.548,0,0,1-.187,1.05A19.976,19.976,0,0,1,1.563-9.3C1.19-8.528.8-7.782.467-7H3.885v-.9H1.96c.222-.467.478-.91.723-1.365a9.213,9.213,0,0,0,1.283-3.71c0-1.132-.467-1.9-1.692-1.9-1.528,0-1.7,1.05-1.7,2.322Zm7.84,1.015c0-1.225-.035-3.64-1.762-3.64-1.89,0-1.762,2.951-1.762,4.246,0,1.225.023,3.721,1.762,3.721a1.448,1.448,0,0,0,1.388-.957A9.556,9.556,0,0,0,8.411-11.235Zm-1.073.362c0,.4,0,.8-.023,1.2-.012.443-.023,1.855-.677,1.855s-.665-1.4-.677-1.855c-.023-.4-.023-.8-.023-1.2s0-.758.023-1.143c.012-.443.023-1.925.677-1.925s.665,1.47.677,1.925C7.338-11.631,7.338-11.258,7.338-10.873ZM11.211-7v-7.781H9.438v.9h.77V-7Zm3.266,0c.175-.338.338-.688.5-1.038a9,9,0,0,0,1.108-4.176c0-1.2-.117-2.66-1.668-2.66s-1.668,1.412-1.668,2.613a3.411,3.411,0,0,0,.327,1.738,1.193,1.193,0,0,0,1.027.572,1.12,1.12,0,0,0,.793-.315c-.455,1.12-1.027,2.182-1.54,3.266Zm.583-5.425c0,.467.023,1.54-.653,1.54-.642,0-.653-.98-.653-1.435s-.023-1.6.653-1.6C15.061-13.918,15.061-12.88,15.061-12.425Z" transform="translate(11477 689)"/></g></svg>