<svg xmlns="http://www.w3.org/2000/svg" width="95.738" height="21.129" viewBox="0 0 95.738 21.129"><defs><style>.a{fill:#72d7d1;}</style></defs><g transform="translate(-801.5 -2803.477)"><path class="a" d="M11.5,4.329A9.965,9.965,0,0,1,6.307,2.942,9.839,9.839,0,0,1,2.648-.879,11.121,11.121,0,0,1,1.32-6.294v-9.679a.73.73,0,0,1,.826-.826H8.461a.73.73,0,0,1,.826.826v8.263a5.536,5.536,0,0,0,1.107,3.9,5.126,5.126,0,0,0,3.792,1.151,10.563,10.563,0,0,0,3.63-.59,7.739,7.739,0,0,0,2.715-1.623.652.652,0,0,1,.3-.148q.089,0,.118.133a.972.972,0,0,1,0,.339,11.836,11.836,0,0,1-3.29,6.492A8.549,8.549,0,0,1,11.5,4.329ZM14.747-4.2a6.57,6.57,0,0,1-2.951-.59q-.148-.089-.148-.177a.328.328,0,0,1,.177-.266A3.141,3.141,0,0,0,12.9-6.737a6.438,6.438,0,0,0,.4-2.331v-6.905a.73.73,0,0,1,.826-.826h6.315a.73.73,0,0,1,.826.826v5.813a5.654,5.654,0,0,1-.841,3.04A5.908,5.908,0,0,1,18.1-4.981,7.1,7.1,0,0,1,14.747-4.2ZM11.442,2.795q4.367,0,7.023-4.4a.453.453,0,0,0,.059-.177.116.116,0,0,0-.089-.118.367.367,0,0,0-.207,0,12.6,12.6,0,0,1-4.367.767q-3.217,0-4.692-1.535T7.694-7.5v-7.348a.365.365,0,0,0-.413-.413H6.514a.365.365,0,0,0-.413.413v7.466A8.142,8.142,0,0,0,7.915-1.706,6.689,6.689,0,0,0,13.124.286,12.686,12.686,0,0,0,15.1.08q.118-.03.133.03T15.16.227A7.014,7.014,0,0,1,11.471,1.26,6.439,6.439,0,0,1,7.827.212,6.884,6.884,0,0,1,5.378-2.724a10.332,10.332,0,0,1-.871-4.367v-7.761a.365.365,0,0,0-.413-.413H3.327a.365.365,0,0,0-.413.413v8.233A10.714,10.714,0,0,0,3.991-1.735,8.114,8.114,0,0,0,7,1.6,8.271,8.271,0,0,0,11.442,2.795Zm3.925-8.528a4.076,4.076,0,0,0,2.169-.6A4.359,4.359,0,0,0,19.1-7.991a4.673,4.673,0,0,0,.575-2.287v-4.574a.365.365,0,0,0-.413-.413h-.767a.365.365,0,0,0-.413.413v4.515a3.257,3.257,0,0,1-.457,1.726A2.7,2.7,0,0,1,16.311-7.5a.122.122,0,0,1-.133-.015.122.122,0,0,1-.015-.133,7.865,7.865,0,0,0,.325-2.656v-4.545a.365.365,0,0,0-.413-.413h-.767a.365.365,0,0,0-.413.413v5.017a10.7,10.7,0,0,1-.221,2.243,4.378,4.378,0,0,1-.546,1.505q-.148.266.059.3A8.142,8.142,0,0,0,15.367-5.734Z" transform="translate(800.18 2820.277)"/><path class="a" d="M4.725-14.007v9.555a2.162,2.162,0,0,1-.378,1.407,1.046,1.046,0,0,1-.63.231,1.273,1.273,0,0,1-.693-.252,1.955,1.955,0,0,1-.5-1.113L.147-1.743A5.012,5.012,0,0,0,1.533-.315a3.7,3.7,0,0,0,2.205.63A4.525,4.525,0,0,0,7.161-1.008a4.06,4.06,0,0,0,1.2-3.36v-9.639ZM10.668-1.26A9.779,9.779,0,0,0,12.789-.147,7.487,7.487,0,0,0,15.54.315a5.43,5.43,0,0,0,4.137-1.428A4.745,4.745,0,0,0,21-4.641a3.307,3.307,0,0,0-.9-2.5,5.351,5.351,0,0,0-2.541-1.386l-1.113-.336a2.3,2.3,0,0,1-1.218-.63.937.937,0,0,1-.189-.63,1.037,1.037,0,0,1,.357-.756,1.744,1.744,0,0,1,1.2-.42,3.7,3.7,0,0,1,2.394.945l1.449-2.835a9.839,9.839,0,0,0-4.326-1.134A4.938,4.938,0,0,0,12.516-13a4.58,4.58,0,0,0-1.281,3.381,3.525,3.525,0,0,0,.8,2.478,4.575,4.575,0,0,0,2.016,1.134l.945.294a5.044,5.044,0,0,1,1.806.735,1.094,1.094,0,0,1,.4.84,1.253,1.253,0,0,1-.357.882,1.844,1.844,0,0,1-1.407.483A4.907,4.907,0,0,1,12.222-4.2ZM31.815-14.007H28.182V0h3.633V-5.67h5.25V0h3.654V-14.007H37.065v5.229h-5.25Zm11.529,4.62v5.859a3.374,3.374,0,0,0,.882,2.5C45.339.168,47.061.315,48.468.315a5.359,5.359,0,0,0,4.053-1.323,3.222,3.222,0,0,0,.9-2.52V-9.387h-3.36v5.25a1.741,1.741,0,0,1-.483,1.323,1.571,1.571,0,0,1-1.2.4,1.736,1.736,0,0,1-1.176-.357,1.8,1.8,0,0,1-.5-1.365v-5.25Zm12.39-5.922V0h3.36V-1.029A3.443,3.443,0,0,0,61.929.315a4.5,4.5,0,0,0,3.3-1.3,5.178,5.178,0,0,0,1.512-3.738,5.115,5.115,0,0,0-1.533-3.717A4.8,4.8,0,0,0,61.887-9.7a3.714,3.714,0,0,0-2.793,1.218v-6.825ZM61.152-2.541A2.294,2.294,0,0,1,59.7-3.108a2.251,2.251,0,0,1-.714-1.6,2.456,2.456,0,0,1,.63-1.512,2.055,2.055,0,0,1,1.533-.63,2.056,2.056,0,0,1,1.491.609,2.3,2.3,0,0,1,.651,1.6,2.121,2.121,0,0,1-.651,1.47A2.085,2.085,0,0,1,61.152-2.541Z" transform="translate(830.5 2820.5)"/></g></svg>