<svg xmlns="http://www.w3.org/2000/svg" width="22.966" height="27.731" viewBox="0 0 22.966 27.731"><defs><style>.a{fill:#72d7d1;}</style></defs><path class="a" d="M6.221-15.9a6.187,6.187,0,0,0-2.734.625,5.3,5.3,0,0,0-2.07,1.738,4.448,4.448,0,0,0-.82,2.48l-.078-.273a5.905,5.905,0,0,1-.039-.781,4,4,0,0,1,.82-2.461A5.622,5.622,0,0,1,3.448-16.3a6.271,6.271,0,0,1,2.695-.625,4.348,4.348,0,0,1,3.3,1.289,4.507,4.507,0,0,1,1.269,3.125,4.721,4.721,0,0,0-1.562-2.539A4.613,4.613,0,0,0,6.221-15.9ZM18.407-13.8a5.985,5.985,0,0,1-2.363-.82q-1-.625-1-1.211,0-.43.527-.644A3.864,3.864,0,0,1,17-16.686a11.069,11.069,0,0,1,1.914.2,7.586,7.586,0,0,1,2.558.84q1.074.605.918,1.113-.2.9-2.148.9A9.852,9.852,0,0,1,18.407-13.8Zm4.648-.469a1.194,1.194,0,0,1,.391.859,1.775,1.775,0,0,1-.156.586A1.945,1.945,0,0,1,22.02-11.8a6.97,6.97,0,0,1-2.168.312,9.812,9.812,0,0,1-2.07-.2,8.725,8.725,0,0,1-3.105-1.25,2.45,2.45,0,0,1-1.269-2.031,1.285,1.285,0,0,1,.82-1.289.74.74,0,0,0-.273.586,2.255,2.255,0,0,0,1.23,1.8,7.733,7.733,0,0,0,2.91,1.133,11.238,11.238,0,0,0,1.953.2,3.785,3.785,0,0,0,3.007-.976.7.7,0,0,0,.117-.352A.633.633,0,0,0,23.055-14.264Zm-6.523-1.445q0,.273.625.547a6.77,6.77,0,0,0,1.445.43,9.586,9.586,0,0,0,1.25.156,2.08,2.08,0,0,0,.762-.117q.293-.117.293-.312,0-.273-.605-.527a7.1,7.1,0,0,0-1.465-.41,9.179,9.179,0,0,0-1.328-.117Q16.533-16.061,16.533-15.709ZM6.768-13.444A6.259,6.259,0,0,0,2.96-12.311,4.305,4.305,0,0,0,1.222-9.069q-.078-.2-.137-.352t-.1-.273a3.992,3.992,0,0,1,.762-2.539,5.158,5.158,0,0,1,2.129-1.679A6.89,6.89,0,0,1,6.69-14.5a4.594,4.594,0,0,1,2.343.566,4.137,4.137,0,0,1,1.484,1.387,3.366,3.366,0,0,1,.547,1.6A4.364,4.364,0,0,0,6.768-13.444Zm6.484-.156a4.34,4.34,0,0,0,2.382,2.265,9.013,9.013,0,0,0,3.867.859,6.884,6.884,0,0,0,2.109-.312,4.072,4.072,0,0,0,1.562-.859,2.79,2.79,0,0,1-.391,1.055,2.833,2.833,0,0,1-1.367.82,6.97,6.97,0,0,1-2.031.273,9.83,9.83,0,0,1-3.984-.82,3.243,3.243,0,0,1-2.148-2.109l-.039-.586ZM7.276-11.061a6.37,6.37,0,0,0-3.5.957A3.817,3.817,0,0,0,2-7.312a2.761,2.761,0,0,1-.273-.664,3.444,3.444,0,0,1,1.679-3.046A6.791,6.791,0,0,1,7.2-12.116a6.021,6.021,0,0,1,2.5.527,2.679,2.679,0,0,1,1.523,1.465l.2.9A4.7,4.7,0,0,0,7.276-11.061Zm5.9-.117a4.479,4.479,0,0,0,2.4,1.894,9.71,9.71,0,0,0,3.691.723A4.573,4.573,0,0,0,22.391-9.5a4.592,4.592,0,0,1-.469,1.015,4.739,4.739,0,0,1-3.164.859,9.279,9.279,0,0,1-3.515-.664,3.105,3.105,0,0,1-1.992-1.758A5.8,5.8,0,0,1,13.174-11.179ZM8.487-8.562a9.09,9.09,0,0,0-3.007.547,4.032,4.032,0,0,0-2.226,1.64A2.126,2.126,0,0,0,2.941-5.32l-.312-.547V-6.1a1.8,1.8,0,0,1,.117-.7,3.585,3.585,0,0,1,2.07-2.09,8.076,8.076,0,0,1,3.359-.723,6.8,6.8,0,0,1,2.09.332,2.3,2.3,0,0,1,1.387.957l.234.859A5.69,5.69,0,0,0,8.487-8.562Zm4.765-.352q.234.937,1.953,1.582a9.073,9.073,0,0,0,3.164.644,4.732,4.732,0,0,0,3.281-1.055,3.477,3.477,0,0,1-.586.976,4.8,4.8,0,0,1-3.2.937,7.107,7.107,0,0,1-2.754-.527A3.544,3.544,0,0,1,13.33-7.742,6.089,6.089,0,0,1,13.252-8.913ZM9.112-7.234a11.089,11.089,0,0,1,1.914.371q.859.254,2.07.723,1.484.547,2.461.82a8.109,8.109,0,0,0,2.187.273,5.881,5.881,0,0,0,2.89-.781l-.547.9a4.787,4.787,0,0,1-2.578.7,9.774,9.774,0,0,1-2.324-.254Q14.15-4.734,12.744-5.2q-1.367-.43-2.246-.644a8.14,8.14,0,0,0-1.933-.215,7.606,7.606,0,0,0-2.812.508,3.172,3.172,0,0,0-1.8,1.562.615.615,0,0,0-.156.234l-.391-.7a1.369,1.369,0,0,1,.2-.508A4.278,4.278,0,0,1,5.636-6.648a7.047,7.047,0,0,1,2.89-.625ZM8.955-4.812a11.263,11.263,0,0,1,2.07.176,20.723,20.723,0,0,1,2.109.527q1.055.312,1.875.488a8.379,8.379,0,0,0,1.758.176,7.047,7.047,0,0,0,2.89-.625l-.547.976a5.971,5.971,0,0,1-2.539.508,12.44,12.44,0,0,1-2.48-.234l-1.347-.273A15.556,15.556,0,0,0,9.229-3.6a9.478,9.478,0,0,0-2.812.41A3.32,3.32,0,0,0,4.581-2.039L4.19-2.9q.2-.781,1.738-1.347A8.748,8.748,0,0,1,8.955-4.812Zm.7,2.422a13.3,13.3,0,0,1,1.719.117l1.211.156a20.585,20.585,0,0,0,3.632.352,5.022,5.022,0,0,0,2.656-.586l-.469,1.094q-.273.547-2.617.547a22.742,22.742,0,0,1-3.32-.312,22.856,22.856,0,0,0-2.695-.234,15.479,15.479,0,0,0-2.461.215A7.164,7.164,0,0,0,5.44-.555L5.05-1.3a3.956,3.956,0,0,1,1.8-.742A11.879,11.879,0,0,1,9.658-2.391ZM9.737-.008q1.172,0,3.515.156,1.406.117,2.5.117A3.782,3.782,0,0,0,18.173-.4l-.2,1.015q-.352.742-2.265.742-1.015,0-3.046-.078-1.25-.078-1.8-.078-2.422-.078-3.75-.078a7.9,7.9,0,0,0-1.055.039L5.909.226A14.594,14.594,0,0,1,7.432.07Q8.565-.008,9.737-.008ZM6.143,1.515A.159.159,0,0,1,6.1,1.4ZM17.86,1.4a.159.159,0,0,1-.039.117ZM12,2.531a35.982,35.982,0,0,0,3.769-.2q1.855-.2,2.051-.82l-.117.7Q17.47,3,15.947,3.253A24.847,24.847,0,0,1,12,3.507a25.232,25.232,0,0,1-3.964-.254Q6.495,3,6.26,2.218l-.117-.7q.2.625,2.07.82A36.543,36.543,0,0,0,12,2.531ZM6.495,3.39a.159.159,0,0,1-.039-.117Zm11.014-.117a.159.159,0,0,1-.039.117ZM12,4.952a16.944,16.944,0,0,0,3.378-.371Q17.2,4.21,17.47,3.39l-.156.7a2.215,2.215,0,0,1-1.777,1.426A13.522,13.522,0,0,1,12,5.929a13.749,13.749,0,0,1-3.554-.41q-1.523-.41-1.8-1.426l-.156-.7q.273.82,2.109,1.191A17.231,17.231,0,0,0,12,4.952Zm0,2.461a9.417,9.417,0,0,0,3.418-.625q1.621-.625,1.738-1.6l-.039.352A2.758,2.758,0,0,1,15.5,7.725a8.087,8.087,0,0,1-3.5.664,8.193,8.193,0,0,1-3.535-.664A2.758,2.758,0,0,1,6.846,5.538l-.039-.352q.117.976,1.738,1.6A9.525,9.525,0,0,0,12,7.413ZM12,9.8a7.263,7.263,0,0,0,3.105-.664q1.426-.664,1.582-1.679l-.039.234a3.255,3.255,0,0,1-1.523,2.363A5.91,5.91,0,0,1,12,10.811a5.992,5.992,0,0,1-3.164-.762A3.255,3.255,0,0,1,7.315,7.686l-.039-.234q.156,1.015,1.582,1.679A7.355,7.355,0,0,0,12,9.8Z" transform="translate(-0.48 16.92)"/></svg>