<svg xmlns="http://www.w3.org/2000/svg" width="569.5" height="162.66" viewBox="0 0 569.5 162.66"><defs><style>.a,.b,.d,.j{fill:none;}.a{stroke:#4d4f4f;stroke-dasharray:2.5;}.b{stroke:#ff6966;}.b,.d{stroke-linecap:round;stroke-width:4px;}.c,.e{fill:#222429;stroke-width:2px;}.c{stroke:#ff6a6a;}.d,.e{stroke:#72d7d1;}.f{fill:#4d4f4f;}.g{fill:#ff6966;}.h{fill:#72d7d1;}.i{stroke:none;}</style></defs><g transform="translate(-799 -2476.5)"><line class="a" y2="140" transform="translate(841.5 2476.5)"/><line class="a" y2="140" transform="translate(1001.5 2476.5)"/><line class="a" y2="140" transform="translate(1161.5 2476.5)"/><line class="a" y2="140" transform="translate(1321.5 2476.5)"/><line class="a" y2="140" transform="translate(919.5 2476.5)"/><line class="b" x2="565" transform="translate(801.5 2511.5)"/><g class="c" transform="translate(823 2493)"><circle class="i" cx="18.5" cy="18.5" r="18.5"/><circle class="j" cx="18.5" cy="18.5" r="17.5"/></g><g class="c" transform="translate(983 2493)"><circle class="i" cx="18.5" cy="18.5" r="18.5"/><circle class="j" cx="18.5" cy="18.5" r="17.5"/></g><path class="d" d="M11671,3290.7h192.3s51,2.141,80.633-25.223,59.809-33,70.328-33.395" transform="translate(-10870 -721)"/><g class="e" transform="translate(901 2551)"><circle class="i" cx="18.5" cy="18.5" r="18.5"/><circle class="j" cx="18.5" cy="18.5" r="17.5"/></g><g class="c" transform="translate(1143 2493)"><circle class="i" cx="18.5" cy="18.5" r="18.5"/><circle class="j" cx="18.5" cy="18.5" r="17.5"/></g><g class="c" transform="translate(1303 2493)"><circle class="i" cx="18.5" cy="18.5" r="18.5"/><circle class="j" cx="18.5" cy="18.5" r="17.5"/></g><path class="f" d="M-6.08,0V-10.672h-.992V0ZM.1,0V-10.672H-.768v7.2a9.049,9.049,0,0,0,.1,1.312c-.128-.416-.24-.848-.384-1.264l-2.416-7.248h-.864V0h.864V-6.864a14.784,14.784,0,0,0-.1-1.68c.128.512.272,1.008.432,1.5L-.768,0ZM2.848,0V-10.672H1.856V0ZM7.92-9.76v-.912H3.728v.912h1.6V0H6.32V-9.76Z" transform="translate(842 2639)"/><path class="f" d="M-14.144-10.672V0h.992V-5.1h.4c1.872,0,2.592-.736,2.592-2.608,0-2.016-.56-2.96-2.7-2.96Zm.992,4.656V-9.76h.48c1.28,0,1.5.736,1.5,1.856,0,1.008-.08,1.888-1.328,1.888Zm9.248.64c0-1.792-.112-5.44-2.624-5.44-2.464,0-2.624,3.728-2.624,5.488,0,1.776.144,5.472,2.64,5.472C-3.968.144-3.9-3.584-3.9-5.376Zm-1.008-.352c0,.816-.016,1.632-.1,2.432-.08.912-.3,2.48-1.5,2.48-1.648,0-1.632-3.408-1.632-4.528,0-1.136-.032-4.512,1.632-4.512C-4.928-9.856-4.912-6.816-4.912-5.728ZM.88,0V-.912h-2.3v-9.76h-.992V0Zm1.9,0V-10.672H1.792V0ZM8.1-10.24a2.726,2.726,0,0,0-1.664-.576A2.6,2.6,0,0,0,3.968-7.984c0,2.992,3.648,2.816,3.648,5.264A1.735,1.735,0,0,1,6-.816,2.419,2.419,0,0,1,4.272-1.68V-.4a2.862,2.862,0,0,0,1.68.56A2.828,2.828,0,0,0,8.624-2.848c0-2.96-3.648-2.8-3.648-5.264A1.6,1.6,0,0,1,6.512-9.856,1.981,1.981,0,0,1,8.1-8.992ZM14.16,0V-10.672h-.992v4.256H10.736v-4.256H9.744V0h.992V-5.5h2.432V0Z" transform="translate(920 2638)"/><path class="f" d="M-18.84-9.76v-.912h-4.192v.912h1.6V0h.992V-9.76ZM-13.16,0l-2.48-5.12c1.616-.128,2.112-1.216,2.112-2.688a2.65,2.65,0,0,0-1.152-2.56,3.793,3.793,0,0,0-1.84-.3h-1.344V0h1.088V-5.216L-14.3,0Zm-3.616-6V-9.76h.528c1.36,0,1.616.656,1.616,1.888C-14.632-6.752-14.84-6-16.12-6Zm9.568,6L-9.336-10.672h-.928L-12.376,0h1.056l.4-2.192h2.256L-8.264,0ZM-8.824-3.056H-10.76a59.262,59.262,0,0,0,.928-6.272,18.889,18.889,0,0,0,.3,2.512ZM-1.88,0V-10.672h-.864v7.2a9.049,9.049,0,0,0,.1,1.312c-.128-.416-.24-.848-.384-1.264l-2.416-7.248h-.864V0h.864V-6.864a14.784,14.784,0,0,0-.1-1.68c.128.512.272,1.008.432,1.5L-2.744,0ZM3.448-10.24a2.726,2.726,0,0,0-1.664-.576A2.6,2.6,0,0,0-.68-7.984c0,2.992,3.648,2.816,3.648,5.264a1.735,1.735,0,0,1-1.616,1.9A2.419,2.419,0,0,1-.376-1.68V-.4A2.862,2.862,0,0,0,1.3.16,2.828,2.828,0,0,0,3.976-2.848c0-2.96-3.648-2.8-3.648-5.264A1.6,1.6,0,0,1,1.864-9.856a1.981,1.981,0,0,1,1.584.864ZM8.392,0V-.912h-2.3v-9.76H5.1V0Zm5.792,0L12.056-10.672h-.928L9.016,0h1.056l.4-2.192h2.256L13.128,0ZM12.568-3.056H10.632a59.262,59.262,0,0,0,.928-6.272,18.889,18.889,0,0,0,.3,2.512ZM18.2-9.76v-.912H14.008v.912h1.6V0H16.6V-9.76ZM22.44,0V-.912H20.1V-5.088h2.272V-6H20.1V-9.76H22.44v-.912H19.112V0Z" transform="translate(1002 2638)"/><path class="f" d="M-10.28,0l-2.48-5.12c1.616-.128,2.112-1.216,2.112-2.688a2.65,2.65,0,0,0-1.152-2.56,3.793,3.793,0,0,0-1.84-.3h-1.344V0H-13.9V-5.216L-11.416,0ZM-13.9-6V-9.76h.528c1.36,0,1.616.656,1.616,1.888C-11.752-6.752-11.96-6-13.24-6ZM-5.7,0V-.912H-8.04V-5.088h2.272V-6H-8.04V-9.76H-5.7v-.912H-9.032V0ZM.1-10.672H-.92l-1.28,7.1c-.128.7-.208,1.408-.272,2.112-.064-.72-.112-1.44-.24-2.144l-1.344-7.072H-5.08L-2.936,0h.88ZM1.992,0V-10.672H1V0ZM7.064,0V-.912H4.728V-5.088H7V-6H4.728V-9.76H7.064v-.912H3.736V0ZM15.9-10.672H14.888l-1.04,6.7c-.1.672-.192,1.344-.272,2.016-.048-.272-.08-.528-.112-.8-.048-.384-.08-.784-.144-1.168l-.992-6.752h-.864l-1.136,6.64c-.112.688-.24,1.376-.3,2.08a6.737,6.737,0,0,1-.064-.8c-.032-.4-.064-.8-.128-1.2l-.96-6.72H7.848L9.56,0h.9l1.2-6.9A10.26,10.26,0,0,0,11.832-8.3c.016-.208.016-.4.048-.608.032.656.1,1.328.192,1.984L13.112,0h.912Z" transform="translate(1161 2639)"/><path class="f" d="M-11.816,0-14.3-5.12c1.616-.128,2.112-1.216,2.112-2.688a2.65,2.65,0,0,0-1.152-2.56,3.793,3.793,0,0,0-1.84-.3H-16.52V0h1.088V-5.216L-12.952,0Zm-3.616-6V-9.76h.528c1.36,0,1.616.656,1.616,1.888C-13.288-6.752-13.5-6-14.776-6ZM-7.24,0V-.912H-9.576V-5.088H-7.3V-6H-9.576V-9.76H-7.24v-.912h-3.328V0Zm4.784,0V-.912h-2.3v-9.76h-.992V0Zm4.24,0V-.912H-.552V-5.088H1.72V-6H-.552V-9.76H1.784v-.912H-1.544V0ZM7.576,0,5.448-10.672H4.52L2.408,0H3.464l.4-2.192H6.12L6.52,0ZM5.96-3.056H4.024a59.262,59.262,0,0,0,.928-6.272,18.889,18.889,0,0,0,.3,2.512Zm5.92-7.184a2.726,2.726,0,0,0-1.664-.576A2.6,2.6,0,0,0,7.752-7.984c0,2.992,3.648,2.816,3.648,5.264a1.735,1.735,0,0,1-1.616,1.9A2.419,2.419,0,0,1,8.056-1.68V-.4a2.862,2.862,0,0,0,1.68.56,2.828,2.828,0,0,0,2.672-3.008c0-2.96-3.648-2.8-3.648-5.264A1.6,1.6,0,0,1,10.3-9.856a1.981,1.981,0,0,1,1.584.864ZM16.856,0V-.912H14.52V-5.088h2.272V-6H14.52V-9.76h2.336v-.912H13.528V0Z" transform="translate(1321 2639)"/><path class="g" d="M1.256,0V-10.672H-1.816v1.856H-.792V0Z" transform="translate(841 2517)"/><path class="g" d="M-.792-6.96c-.016-.224-.016-.432-.016-.656,0-.576.048-1.744.864-1.744.688,0,.832.816.832,1.344A8.668,8.668,0,0,1-.408-4.56L-2.888,0h5.6V-1.84H.232L1.784-4.816a6.823,6.823,0,0,0,1.12-3.3c0-1.824-1.1-2.72-2.864-2.72-2.208,0-2.8,1.3-2.8,3.3,0,.192.016.384.032.576Z" transform="translate(1001 2517)"/><path class="h" d="M-2.536-7.664H-.712c0-.5.016-1.424.7-1.424.624,0,.736.72.736,1.2C.728-6.672.2-6.48-.9-6.48v1.792C.328-4.688.7-4.4.7-3.152c0,.608-.064,1.664-.9,1.664-.576,0-.816-.5-.816-1.008,0-.1.016-.208.016-.3H-2.984A2.643,2.643,0,0,0-.152.176,2.908,2.908,0,0,0,2.984-2.96,2.374,2.374,0,0,0,1.336-5.52,2.46,2.46,0,0,0,2.664-8.064,2.519,2.519,0,0,0-.024-10.832,2.266,2.266,0,0,0-2.248-9.584a4.3,4.3,0,0,0-.288,1.808Z" transform="translate(920 2575)"/><path class="g" d="M-2.536-7.664H-.712c0-.5.016-1.424.7-1.424.624,0,.736.72.736,1.2C.728-6.672.2-6.48-.9-6.48v1.792C.328-4.688.7-4.4.7-3.152c0,.608-.064,1.664-.9,1.664-.576,0-.816-.5-.816-1.008,0-.1.016-.208.016-.3H-2.984A2.643,2.643,0,0,0-.152.176,2.908,2.908,0,0,0,2.984-2.96,2.374,2.374,0,0,0,1.336-5.52,2.46,2.46,0,0,0,2.664-8.064,2.519,2.519,0,0,0-.024-10.832,2.266,2.266,0,0,0-2.248-9.584a4.3,4.3,0,0,0-.288,1.808Z" transform="translate(1161 2517)"/><path class="g" d="M3-2.512V-4.336H2.136v-6.336h-2.3L-3-4.16v1.648H.088V0H2.136V-2.512ZM.088-4.336H-1.48L.088-8.24Z" transform="translate(1321 2517)"/></g></svg>