<svg xmlns="http://www.w3.org/2000/svg" xmlns:xlink="http://www.w3.org/1999/xlink" width="466.711" height="318" viewBox="0 0 466.711 318"><defs><style>.a,.c,.h,.m,.n,.o,.p,.q{fill:none;}.b{fill:#fff;stroke:#707070;}.c,.h{stroke:#4d4f4f;}.c{stroke-width:1.614px;}.d,.f,.j,.k{fill:#d0d0d0;}.e{fill:#e1e1e1;}.f{font-size:14px;font-family:FuturaPTCond-Book, Futura PT Cond;}.g{clip-path:url(#a);}.i{clip-path:url(#b);}.j,.k,.m,.o,.p,.q{stroke:#222429;}.j{stroke-miterlimit:10;}.j,.q{stroke-width:1.143px;}.k,.m,.n,.o,.p,.q{stroke-linecap:round;stroke-linejoin:round;}.k,.n{stroke-width:0.572px;}.l{fill:#222429;}.m{stroke-width:1.082px;}.n{stroke:#151515;}.p{stroke-width:0.535px;}.r{fill:#6ed8d2;}.s{fill:#72d7d1;}.t{fill:#ff6a6a;}</style><clipPath id="a"><circle class="a" cx="71" cy="71" r="71" transform="translate(3349 8258)"/></clipPath><clipPath id="b"><circle class="b" cx="71" cy="71" r="71" transform="translate(3234 8259)"/></clipPath></defs><g transform="translate(-13013.192 -919.193)"><g transform="translate(0 -11)"><g transform="translate(12252 673)"><rect class="c" width="79.096" height="79.096" transform="translate(761.999 297)"/><path class="d" d="M2.044-9.338H-1.792v.812H.9L-1.736,0h.91Z" transform="translate(772.809 315)"/><path class="d" d="M-2.64,0V-.684H-4.392V-3.816h1.7V-4.5h-1.7V-7.32H-2.64V-8h-2.5V0ZM-.9,0V-8.748h-.684V0ZM5.2-4.116c0-.768-.228-1.332-1.092-1.332A1.3,1.3,0,0,0,3-4.824a1.052,1.052,0,0,0-.984-.624A1.434,1.434,0,0,0,.972-4.92v-.444H.3V0H.972V-3.324C.972-3.948,1-4.9,1.836-4.9c.528,0,.564.54.564.936V0h.684V-3.432c0-.588.036-1.464.816-1.464.552,0,.624.48.624.924V0H5.2Z" transform="translate(801.809 364)"/><path class="e" d="M1.131,0V-3.567H-2.784v-4.35H.609v-3.654H-2.784v-4.176H1.073v-3.6H-6.612V0ZM6.96,0V-21.141H3.335V0Z" transform="translate(801.809 347)"/></g><g transform="translate(11857 752)"><rect class="c" width="79.096" height="79.096" transform="translate(1156.999 297)"/><path class="d" d="M1.96-2.632A2.619,2.619,0,0,0,.9-5.166a2.083,2.083,0,0,0,.98-1.988c0-1.134-.448-2.31-1.764-2.31s-1.876,1.106-1.876,2.3a2.118,2.118,0,0,0,.98,2c-.966.392-1.19,1.582-1.19,2.506C-1.974-1.4-1.61.126-.056.126,1.54.126,1.96-1.3,1.96-2.632ZM1.036-7.1c0,.644-.154,1.54-.966,1.54-.854,0-.994-1.008-.994-1.666s.168-1.442.966-1.442C.868-8.666,1.036-7.756,1.036-7.1Zm.084,4.34c0,.784-.056,2.086-1.134,2.086-.966,0-1.106-1.274-1.106-2s.14-2.1,1.12-2.1S1.12-3.5,1.12-2.758Z" transform="translate(1167.809 315)"/><path class="d" d="M-6.114-7.68a2.044,2.044,0,0,0-1.248-.432A1.948,1.948,0,0,0-9.21-5.988c0,2.244,2.736,2.112,2.736,3.948A1.3,1.3,0,0,1-7.686-.612a1.814,1.814,0,0,1-1.3-.648V-.3a2.147,2.147,0,0,0,1.26.42,2.121,2.121,0,0,0,2-2.256c0-2.22-2.736-2.1-2.736-3.948A1.2,1.2,0,0,1-7.3-7.392a1.485,1.485,0,0,1,1.188.648Zm3.8,2.316h-.7l-.66,3.228c-.072.372-.132.756-.192,1.128-.048-.384-.108-.768-.192-1.152l-.708-3.2h-.7L-4.23,0H-3.5ZM.318-1.824c-.012.456-.1,1.272-.7,1.272-.768,0-.852-1.332-.852-1.872v-.12H1.038c0-.108.012-.228.012-.336C1.05-3.828.858-5.448-.4-5.448c-1.308,0-1.512,1.812-1.512,2.784,0,1.032.18,2.748,1.56,2.748C.7.084.966-.96,1-1.824Zm-1.536-1.3c.024-.492.132-1.7.828-1.7S.354-3.6.378-3.12ZM2.73,0V-8.748H2.046V0ZM5.706-4.74v-.624h-.9V-6.888H4.134v1.524H3.558v.624h.576V0h.672V-4.74ZM8.322-1.824c-.012.456-.1,1.272-.7,1.272-.768,0-.852-1.332-.852-1.872v-.12H9.042c0-.108.012-.228.012-.336,0-.948-.192-2.568-1.452-2.568-1.308,0-1.512,1.812-1.512,2.784,0,1.032.18,2.748,1.56,2.748C8.706.084,8.97-.96,9.006-1.824ZM6.786-3.12c.024-.492.132-1.7.828-1.7s.744,1.224.768,1.7Z" transform="translate(1196.809 364)"/><path class="e" d="M-1.493-18.7a6.361,6.361,0,0,0-3.393-.928c-3.277,0-5.046,2.668-5.046,5.713,0,2.813,1.392,4.2,3.567,5.713a6.163,6.163,0,0,1,2.059,1.8,2.312,2.312,0,0,1,.2.986A2.087,2.087,0,0,1-6.365-3.277,5.088,5.088,0,0,1-9.207-4.321V-.667A5.913,5.913,0,0,0-5.872.319c3.509,0,5.51-2.639,5.51-5.974,0-5.394-5.8-5.336-5.8-8.671a1.8,1.8,0,0,1,1.914-1.885,4.328,4.328,0,0,1,2.755,1.247Zm12.586,5.742H7.323L5.989-7.221c-.116.522-.29,1.044-.377,1.595-.493-2.465-1.16-4.9-1.769-7.337H.276L3.988,0H7.323Z" transform="translate(1196.809 347)"/></g><g transform="translate(12331.001 752.29)"><rect class="c" width="79.096" height="79.096" transform="translate(682.999 376)"/><text class="f" transform="translate(693.809 394)"><tspan x="-2.562" y="0">9</tspan></text><path class="d" d="M-4.416,0l-1.86-3.84c1.212-.1,1.584-.912,1.584-2.016a1.988,1.988,0,0,0-.864-1.92A2.845,2.845,0,0,0-6.936-8H-7.944V0h.816V-3.912L-5.268,0ZM-7.128-4.5V-7.32h.4c1.02,0,1.212.492,1.212,1.416,0,.84-.156,1.4-1.116,1.4ZM-1.74-1.824c-.012.456-.1,1.272-.7,1.272-.768,0-.852-1.332-.852-1.872v-.12H-1.02c0-.108.012-.228.012-.336,0-.948-.192-2.568-1.452-2.568-1.308,0-1.512,1.812-1.512,2.784,0,1.032.18,2.748,1.56,2.748,1.056,0,1.32-1.044,1.356-1.908Zm-1.536-1.3c.024-.492.132-1.7.828-1.7S-1.7-3.6-1.68-3.12ZM2.712,0V-5.364H2.028V-5a.987.987,0,0,0-.852-.444c-1.284,0-1.32,1.776-1.32,2.868,0,.948.036,2.664,1.26,2.664a1.057,1.057,0,0,0,.912-.516V0ZM2.1-2.712c0,.468,0,1.728-.336,2.064a.531.531,0,0,1-.432.18c-.624,0-.7-.768-.744-1.236C.552-2.136.552-2.556.552-3c0-.54.012-1.908.792-1.908C2.04-4.908,2.1-3.78,2.1-2.712Zm3.924,1.68a.915.915,0,0,1-.684.48c-.816,0-.924-1.524-.924-2.1,0-.6.084-2.172.936-2.172a.957.957,0,0,1,.672.372v-.792a1.466,1.466,0,0,0-.732-.2c-1.368,0-1.584,1.836-1.584,2.856,0,.96.288,2.676,1.548,2.676a1.306,1.306,0,0,0,.768-.276ZM8.64-4.74v-.624h-.9V-6.888H7.068v1.524H6.492v.624h.576V0H7.74V-4.74Z" transform="translate(722.809 443)"/><path class="e" d="M.725,0-2.639-8.787a5.338,5.338,0,0,0,2.755-4.93,5.6,5.6,0,0,0-2.291-4.7,7.544,7.544,0,0,0-4.2-.928h-4.147V0H-6.7V-8.9L-3.306,0ZM-6.7-16.327h.725c1.682,0,2.378,1.073,2.378,2.639a2.381,2.381,0,0,1-2.465,2.7A4.7,4.7,0,0,1-6.7-11.02ZM7.975-4.466A3.1,3.1,0,0,1,7.424-2.7a1.142,1.142,0,0,1-.725.232.976.976,0,0,1-.754-.348A3.843,3.843,0,0,1,5.423-5.1a5.594,5.594,0,0,1,.029-.725h5.742a9.762,9.762,0,0,0,.087-1.276c0-1.769-.464-3.886-1.682-5.046A3.846,3.846,0,0,0,6.815-13.2a4,4,0,0,0-2.958,1.189C2.523-10.672,1.972-8.381,1.972-6.148A7.182,7.182,0,0,0,3.741-.9a4,4,0,0,0,3.1,1.16A3.63,3.63,0,0,0,9.657-.754a5.88,5.88,0,0,0,1.392-3.712ZM5.51-8.062a3.546,3.546,0,0,1,.551-2.03,1.163,1.163,0,0,1,.812-.348,1.081,1.081,0,0,1,.667.261,3.284,3.284,0,0,1,.58,2.117Z" transform="translate(722.809 426)"/></g></g><g transform="translate(0 -10)"><g transform="translate(12875.001 752.29)"><rect class="c" width="79.096" height="79.096" transform="translate(524.999 297)"/><path class="d" d="M3.136,0V-9.338H1.064v.812h1.2V0ZM7.28,0V-9.338H5.208v.812h1.2V0Z" transform="translate(531.809 315)"/><path class="d" d="M-13.128,0l-1.6-8h-.7L-17,0h.792l.3-1.644h1.692L-13.92,0ZM-14.34-2.292h-1.452A44.447,44.447,0,0,0-15.1-7a14.167,14.167,0,0,0,.228,1.884ZM-9.756,0V-3.972c0-.732-.144-1.476-1.044-1.476a1.4,1.4,0,0,0-1.044.516v-.432h-.672V0h.672V-3.612a1.664,1.664,0,0,1,.18-.936.755.755,0,0,1,.636-.348c.588,0,.6.564.6,1V0ZM-6.78-4.74v-.624h-.9V-6.888h-.672v1.524h-.576v.624h.576V0h.672V-4.74ZM-3.312-8V0h.984A2.017,2.017,0,0,0-.636-.636c.648-.78.66-2.268.66-3.24a14.433,14.433,0,0,0-.108-2.04C-.312-7.38-.84-8-2.376-8Zm.744,7.32V-7.32h.312c1.176,0,1.368.912,1.452,1.872.06.72.06,1.4.06,2.076,0,1.08-.036,2.688-1.476,2.688Zm5.676-1.14c-.012.456-.1,1.272-.7,1.272-.768,0-.852-1.332-.852-1.872v-.12H3.828c0-.108.012-.228.012-.336,0-.948-.192-2.568-1.452-2.568C1.08-5.448.876-3.636.876-2.664c0,1.032.18,2.748,1.56,2.748,1.056,0,1.32-1.044,1.356-1.908ZM1.572-3.12c.024-.492.132-1.7.828-1.7s.744,1.224.768,1.7ZM6.864-5.1a1.6,1.6,0,0,0-.96-.348A1.3,1.3,0,0,0,4.572-4.092C4.572-2.8,6.3-2.436,6.3-1.38a.782.782,0,0,1-.78.828,1.366,1.366,0,0,1-.948-.528v.792a1.623,1.623,0,0,0,1,.372,1.446,1.446,0,0,0,1.44-1.512c0-1.452-1.728-1.644-1.728-2.688a.67.67,0,0,1,.66-.708,1.263,1.263,0,0,1,.924.552ZM8.5,0V-5.364H7.812V0Zm.156-7.044A.507.507,0,0,0,8.16-7.56a.5.5,0,0,0-.5.516.5.5,0,0,0,.5.492A.494.494,0,0,0,8.652-7.044Zm3.8,1.68h-.684v.372a1.061,1.061,0,0,0-.888-.456C9.648-5.448,9.552-3.7,9.552-2.8c0,.972.012,2.8,1.368,2.8a1.058,1.058,0,0,0,.852-.384V.48c0,.516-.024,1.044-.684,1.044s-.732-.516-.732-1.056H9.672a1.1,1.1,0,0,0-.012.2A1.309,1.309,0,0,0,11.052,2.16c1.032,0,1.4-.6,1.4-1.572ZM11.844-3c0,.432,0,.852-.036,1.3s-.12,1.152-.72,1.152c-.828,0-.84-1.416-.84-1.992,0-1.116.06-2.352.78-2.352C11.844-4.9,11.844-3.564,11.844-3Zm4.572,3V-3.972c0-.732-.144-1.476-1.044-1.476a1.4,1.4,0,0,0-1.044.516v-.432h-.672V0h.672V-3.612a1.664,1.664,0,0,1,.18-.936.755.755,0,0,1,.636-.348c.588,0,.6.564.6,1V0Z" transform="translate(564.809 364)"/><path class="e" d="M.87,0-3.77-19.343h-4L-12.3,0h3.828l.7-3.248h3.857L-3.19,0ZM-7.192-6.235a59.818,59.818,0,0,0,1.276-8.12c.087.841.2,1.711.319,2.552.29,1.885.7,3.712,1.1,5.568ZM11.223,0V-9.367c0-1.74-.174-3.828-2.407-3.828a3.479,3.479,0,0,0-3.074,2.262v-2.03H2.117V0H5.742V-7.511c0-.725-.058-2.059.986-2.059.841,0,.87,1.044.87,1.624V0Z" transform="translate(564.809 347)"/></g><rect class="c" width="79.096" height="79.096" transform="translate(13399.999 970)"/><path class="d" d="M3.136,0V-9.338H1.064v.812h1.2V0Zm6.09-4.984c0-1.33-.014-4.48-1.946-4.48-2.086,0-2.254,3.514-2.254,5,0,1.372.14,4.592,2.086,4.592C9.184.126,9.226-3.556,9.226-4.984Zm-.84-.308a13.019,13.019,0,0,1-.42,3.92c-.14.364-.35.7-.8.7-.49,0-.728-.378-.9-.784a9.379,9.379,0,0,1-.406-3.066c0-.9.1-4.144,1.372-4.144C8.372-8.666,8.386-6.062,8.386-5.292Z" transform="translate(13406.809 988)"/><path class="d" d="M-7.59,0V-8h-.648v5.4a6.787,6.787,0,0,0,.072.984c-.1-.312-.18-.636-.288-.948L-10.266-8h-.648V0h.648V-5.148a11.088,11.088,0,0,0-.072-1.26c.1.384.2.756.324,1.128L-8.238,0Zm4.128-2.652c0-1.032-.108-2.8-1.5-2.8s-1.572,1.716-1.572,2.76S-6.342.084-4.962.084-3.462-1.632-3.462-2.652Zm-.7-.036c0,.54-.024,2.136-.816,2.136-.816,0-.852-1.512-.852-2.076s.024-2.2.852-2.2C-4.182-4.824-4.158-3.228-4.158-2.688ZM.2,0V-8.748H-.474V-5a.987.987,0,0,0-.852-.444c-1.332,0-1.332,1.764-1.332,2.808,0,.936.024,2.724,1.26,2.724A1.077,1.077,0,0,0-.474-.432V0ZM-.414-2.676c0,.444,0,1.7-.324,2.028a.555.555,0,0,1-.444.18c-.624,0-.7-.768-.732-1.236C-1.95-2.136-1.95-2.556-1.95-3c0-.528.012-1.908.78-1.908C-.474-4.908-.414-3.8-.414-2.676Zm3.84.852c-.012.456-.1,1.272-.7,1.272-.768,0-.852-1.332-.852-1.872v-.12H4.146c0-.108.012-.228.012-.336,0-.948-.192-2.568-1.452-2.568-1.308,0-1.512,1.812-1.512,2.784,0,1.032.18,2.748,1.56,2.748C3.81.084,4.074-.96,4.11-1.824ZM1.89-3.12c.024-.492.132-1.7.828-1.7s.744,1.224.768,1.7ZM6.15-.456A.538.538,0,0,0,5.61-1a.538.538,0,0,0-.54.54.554.554,0,0,0,.54.54A.538.538,0,0,0,6.15-.456ZM8,2.16V-5.364H7.3V2.16Zm.156-9.2a.5.5,0,0,0-.5-.516.5.5,0,0,0-.5.516.5.5,0,0,0,.5.492A.5.5,0,0,0,8.154-7.044ZM11.214-5.1a1.6,1.6,0,0,0-.96-.348A1.3,1.3,0,0,0,8.922-4.092c0,1.3,1.728,1.656,1.728,2.712a.782.782,0,0,1-.78.828,1.366,1.366,0,0,1-.948-.528v.792a1.623,1.623,0,0,0,1,.372,1.446,1.446,0,0,0,1.44-1.512c0-1.452-1.728-1.644-1.728-2.688a.67.67,0,0,1,.66-.708,1.263,1.263,0,0,1,.924.552Z" transform="translate(13439.809 1037)"/><path class="e" d="M.3,0V-19.343H-3.582v9.077a13.324,13.324,0,0,0,.29,2.61L-8.048-19.343h-3.625V0h3.828V-9.454a11.336,11.336,0,0,0-.2-2.2L-3.292,0ZM12.4-6.467c0-3.219-1.015-6.728-4.872-6.728C3.813-13.2,2.6-9.6,2.6-6.467S3.813.261,7.525.261C11.354.261,12.4-3.277,12.4-6.467Zm-3.654,0c0,.783-.087,3.48-1.218,3.48-1.189,0-1.276-2.639-1.276-3.48s.087-3.48,1.276-3.48C8.656-9.947,8.743-7.25,8.743-6.467Z" transform="translate(13439.809 1020)"/><g transform="translate(-202 129)"><rect class="c" width="79.096" height="79.096" transform="translate(13601.999 999)"/><path class="d" d="M3.136,0V-9.338H1.064v.812h1.2V0ZM5.068-6.79h.854v-.168c0-.77.112-1.708,1.078-1.708.728,0,.98.644.98,1.274A8.022,8.022,0,0,1,6.846-3.948L4.928,0H8.75V-.826H6.2L7.63-3.64A8.386,8.386,0,0,0,8.862-7.392a1.869,1.869,0,0,0-1.9-2.072C5.362-9.464,5.068-8.134,5.068-6.79Z" transform="translate(13608.809 1017)"/><path class="d" d="M-3.828,0l-1.6-8h-.7L-7.7,0h.792l.3-1.644H-4.92L-4.62,0ZM-5.04-2.292H-6.492A44.447,44.447,0,0,0-5.8-7a14.167,14.167,0,0,0,.228,1.884ZM.42,0-1.44-3.84C-.228-3.936.144-4.752.144-5.856A1.988,1.988,0,0,0-.72-7.776,2.845,2.845,0,0,0-2.1-8H-3.108V0h.816V-3.912L-.432,0ZM-2.292-4.5V-7.32h.4c1.02,0,1.212.492,1.212,1.416,0,.84-.156,1.4-1.116,1.4ZM2.292-.456A.538.538,0,0,0,1.752-1a.538.538,0,0,0-.54.54.554.554,0,0,0,.54.54A.538.538,0,0,0,2.292-.456ZM4.14,2.16V-5.364h-.7V2.16Zm.156-9.2a.5.5,0,0,0-.5-.516.5.5,0,0,0-.5.516.5.5,0,0,0,.5.492A.5.5,0,0,0,4.3-7.044ZM7.356-5.1a1.6,1.6,0,0,0-.96-.348A1.3,1.3,0,0,0,5.064-4.092c0,1.3,1.728,1.656,1.728,2.712a.782.782,0,0,1-.78.828,1.366,1.366,0,0,1-.948-.528v.792a1.623,1.623,0,0,0,1,.372A1.446,1.446,0,0,0,7.5-1.428c0-1.452-1.728-1.644-1.728-2.688a.67.67,0,0,1,.66-.708,1.263,1.263,0,0,1,.924.552Z" transform="translate(13641.809 1066)"/><path class="e" d="M2.552,0l-4.64-19.343h-4L-10.614,0h3.828l.7-3.248h3.857L-1.508,0ZM-5.51-6.235a59.818,59.818,0,0,0,1.276-8.12c.087.841.2,1.711.319,2.552.29,1.885.7,3.712,1.1,5.568Zm15.921-7.192a3.98,3.98,0,0,0-2.987,2.059v-1.6H3.8V0H7.424V-6.873c0-1.885.29-3.1,2.465-3.1a3.2,3.2,0,0,1,.522.058Z" transform="translate(13641.809 1049)"/></g></g><rect class="c" width="79.096" height="79.096" transform="translate(13286.002 1157.289)"/><rect class="c" width="79.096" height="79.096" transform="translate(13285.999 1078.193)"/><rect class="c" width="79.096" height="79.096" transform="translate(13285.999 999.096)"/><rect class="c" width="79.096" height="79.096" transform="translate(13285.999 920)"/><rect class="c" width="79.096" height="79.096" transform="translate(13206.906 920)"/><path class="c" d="M92.807,246V87.807H251V246Z" transform="translate(13035.002 911.193)"/><rect class="c" width="79.096" height="79.096" transform="translate(13127.81 920)"/><rect class="c" width="79.096" height="79.096" transform="translate(13206.809 1157.289)"/><rect class="c" width="79.096" height="79.096" transform="translate(13127.809 1157.289)"/><circle class="a" cx="71" cy="71" r="71" transform="translate(13135.809 1007)"/><g class="g" transform="translate(9786.809 -7251)"><line class="h" x2="211" transform="matrix(0.839, -0.545, 0.545, 0.839, 3284.038, 8324.543)"/><line class="h" x2="211" transform="matrix(0.839, -0.545, 0.545, 0.839, 3286.217, 8327.897)"/><line class="h" x2="211" transform="matrix(0.839, -0.545, 0.545, 0.839, 3288.396, 8331.253)"/><line class="h" x2="211" transform="matrix(0.839, -0.545, 0.545, 0.839, 3290.574, 8334.607)"/><line class="h" x2="211" transform="matrix(0.839, -0.545, 0.545, 0.839, 3292.753, 8337.962)"/><line class="h" x2="211" transform="matrix(0.839, -0.545, 0.545, 0.839, 3294.931, 8341.316)"/><line class="h" x2="211" transform="matrix(0.839, -0.545, 0.545, 0.839, 3297.11, 8344.671)"/><line class="h" x2="211" transform="matrix(0.839, -0.545, 0.545, 0.839, 3299.288, 8348.026)"/><line class="h" x2="211" transform="matrix(0.839, -0.545, 0.545, 0.839, 3301.467, 8351.381)"/><line class="h" x2="211" transform="matrix(0.839, -0.545, 0.545, 0.839, 3303.646, 8354.735)"/><line class="h" x2="211" transform="matrix(0.839, -0.545, 0.545, 0.839, 3305.824, 8358.09)"/><line class="h" x2="211" transform="matrix(0.839, -0.545, 0.545, 0.839, 3308.002, 8361.444)"/><line class="h" x2="211" transform="matrix(0.839, -0.545, 0.545, 0.839, 3310.181, 8364.799)"/><line class="h" x2="211" transform="matrix(0.839, -0.545, 0.545, 0.839, 3312.36, 8368.154)"/><line class="h" x2="211" transform="matrix(0.839, -0.545, 0.545, 0.839, 3314.538, 8371.509)"/><line class="h" x2="211" transform="matrix(0.839, -0.545, 0.545, 0.839, 3316.717, 8374.863)"/><line class="h" x2="211" transform="matrix(0.839, -0.545, 0.545, 0.839, 3318.895, 8378.218)"/><line class="h" x2="211" transform="matrix(0.839, -0.545, 0.545, 0.839, 3321.074, 8381.572)"/><line class="h" x2="211" transform="matrix(0.839, -0.545, 0.545, 0.839, 3323.252, 8384.928)"/><line class="h" x2="211" transform="matrix(0.839, -0.545, 0.545, 0.839, 3325.431, 8388.282)"/><line class="h" x2="211" transform="matrix(0.839, -0.545, 0.545, 0.839, 3327.61, 8391.637)"/><line class="h" x2="211" transform="matrix(0.839, -0.545, 0.545, 0.839, 3329.788, 8394.991)"/><line class="h" x2="211" transform="matrix(0.839, -0.545, 0.545, 0.839, 3331.967, 8398.346)"/><line class="h" x2="211" transform="matrix(0.839, -0.545, 0.545, 0.839, 3334.145, 8401.701)"/><line class="h" x2="211" transform="matrix(0.839, -0.545, 0.545, 0.839, 3336.324, 8405.056)"/><line class="h" x2="211" transform="matrix(0.839, -0.545, 0.545, 0.839, 3338.502, 8408.41)"/><line class="h" x2="211" transform="matrix(0.839, -0.545, 0.545, 0.839, 3340.681, 8411.765)"/><line class="h" x2="211" transform="matrix(0.839, -0.545, 0.545, 0.839, 3342.859, 8415.119)"/><line class="h" x2="211" transform="matrix(0.839, -0.545, 0.545, 0.839, 3345.038, 8418.475)"/><line class="h" x2="211" transform="matrix(0.839, -0.545, 0.545, 0.839, 3347.217, 8421.829)"/><line class="h" x2="211" transform="matrix(0.839, -0.545, 0.545, 0.839, 3349.395, 8425.184)"/><line class="h" x2="211" transform="matrix(0.839, -0.545, 0.545, 0.839, 3351.574, 8428.538)"/><line class="h" x2="211" transform="matrix(0.839, -0.545, 0.545, 0.839, 3353.752, 8431.893)"/><line class="h" x2="211" transform="matrix(0.839, -0.545, 0.545, 0.839, 3355.931, 8435.248)"/><line class="h" x2="211" transform="matrix(0.839, -0.545, 0.545, 0.839, 3358.109, 8438.603)"/><line class="h" x2="211" transform="matrix(0.839, -0.545, 0.545, 0.839, 3360.288, 8441.957)"/><line class="h" x2="211" transform="matrix(0.839, -0.545, 0.545, 0.839, 3362.467, 8445.312)"/><line class="h" x2="211" transform="matrix(0.839, -0.545, 0.545, 0.839, 3364.645, 8448.666)"/><line class="h" x2="211" transform="matrix(0.839, -0.545, 0.545, 0.839, 3366.823, 8452.021)"/><line class="h" x2="211" transform="matrix(0.839, -0.545, 0.545, 0.839, 3369.002, 8455.376)"/></g><g class="i" transform="translate(9901.809 -7252)"><g transform="translate(3190.599 8247.85)"><path class="j" d="M135.639,68.735s-.75,44.35-23.136,44.35c-22.106,0-23.69-44.741-23.69-44.741C87.775,66.6,84.765,42.919,112.1,42.919,139.9,42.919,136.457,66.583,135.639,68.735Z"/><path class="j" d="M134.857,78.677s2.582-3.374,5.364-1.543,1.57,8.036-.533,11.066-5.33,4.423-6.958,1.939"/><path class="k" d="M139.719,81.025s-3.175-1.232-5.695,3.41"/><path class="k" d="M136.669,86.944"/><path class="k" d="M135.7,82.185"/><path class="j" d="M89.867,78.679S87.289,75.3,84.5,77.13s-1.579,8.034.52,11.067,5.325,4.429,6.956,1.947"/><path class="k" d="M85,81.022s3.177-1.229,5.692,3.416"/><path class="k" d="M88.045,86.944"/><path class="k" d="M89.016,82.187"/><path class="l" d="M115.7,64.843l1.381,2.918,13.316-3.019-3.158-1.049a10.572,10.572,0,0,0-3.743.11Z"/><path class="m" d="M111.738,77.732l-1.2,8.871a2.137,2.137,0,0,0,.044.8,2.088,2.088,0,0,0,2.313,1.478l2.208-.278"/><circle class="l" cx="2.141" cy="2.141" r="2.141" transform="translate(100.586 73.917)"/><path class="l" d="M124.815,76.057a2.141,2.141,0,1,1-2.14-2.14A2.14,2.14,0,0,1,124.815,76.057Z"/><path class="n" d="M101.283,81.711"/><path class="n" d="M124.013,82.133"/><path class="n" d="M119.3,78.584"/><path class="m" d="M107.2,93.593a11.644,11.644,0,0,0,5.961,1.881,9.343,9.343,0,0,0,5.522-1.881"/><circle class="o" cx="8.978" cy="8.978" r="8.978" transform="translate(91.641 67.638)"/><circle class="o" cx="8.978" cy="8.978" r="8.978" transform="translate(113.697 67.638)"/><path class="p" d="M109.6,76.616s2.127-1.985,4.1,0"/><line class="p" x1="2.84" y2="0.857" transform="translate(88.813 76.175)"/><line class="p" x2="3.893" y2="0.416" transform="translate(131.653 76.616)"/><path class="d" d="M3599.056,8352.582v15.357s2.81,1.9-11.809,11.319,23.883,16.436,36.683,11.852,21.024-8.716,19.152-10.563-13.658-7.229-14.519-9.022-1.195-13.288-1.211-15.354-4.153,10.839-9.4,8.631-12.641-3.93-13.7-5.932S3599.056,8352.582,3599.056,8352.582Z" transform="translate(-3500.599 -8246.85)"/><path class="q" d="M98.467,104.706l.222,15.463a6.257,6.257,0,0,1-1.854,4.562,37.24,37.24,0,0,1-16.013,9.082l34.951,10.974,30.994-10.974s-11.133-3.363-16.646-7.491a7.589,7.589,0,0,1-2.969-6.063l-.066-16.291"/><path class="l" d="M98.067,104.993s3.644,10.409,11.152,14.687a12.436,12.436,0,0,0,16.2-3.166c1.845-2.527,1.661-7.243,1.661-12.713,0,0-4.421,8.912-13.384,9.284S98.067,104.993,98.067,104.993Z"/><path class="l" d="M85.664,131.047s23.127,18.044,55.96,0c0,0,15.7,3.386,24.7,17.128,0,0,8.09,12.608,8.563,18.379H53.4S59.679,138.222,85.664,131.047Z"/><path class="l" d="M89.255,71.836s.347-13.06,4.308-18.55,13.973-3.471,20.952-2.584,13.177-1.01,15.942.742c2.981,1.89,4.813,16.692,4.716,19.588,0,0,9.017-15.7,1.923-33.434,0,0-5.27,4.766-21.2,0s-23.137-2.439-23.026,5.819c0,0-9.51-2.375-8.413,8.262A87.7,87.7,0,0,0,89.255,71.836Z"/><path class="l" d="M108.445,65.009l-1.382,2.918L93.747,64.908,96.9,63.86a10.577,10.577,0,0,1,3.744.109Z"/></g></g><path class="e" d="M.479-18.7a6.361,6.361,0,0,0-3.393-.928c-3.277,0-5.046,2.668-5.046,5.713,0,2.813,1.392,4.2,3.567,5.713a6.163,6.163,0,0,1,2.059,1.8,2.312,2.312,0,0,1,.2.986A2.087,2.087,0,0,1-4.393-3.277,5.088,5.088,0,0,1-7.235-4.321V-.667A5.913,5.913,0,0,0-3.9.319c3.509,0,5.51-2.639,5.51-5.974,0-5.394-5.8-5.336-5.8-8.671a1.8,1.8,0,0,1,1.914-1.885A4.328,4.328,0,0,1,.479-14.964ZM8.947-9.947v-3.016H7.468v-3.683H3.843v3.683H2.6v3.016H3.843V0H7.468V-9.947Z" transform="translate(13167.809 970)"/><path class="r" d="M6.482-19.343H2.189L.855-15.167a28.153,28.153,0,0,0-.841,2.9c-.232-.87-.609-2.088-.87-2.871l-1.421-4.2h-4.2l4.64,11.078V0H1.986V-8.265Z" transform="translate(13325.809 1048)"/><path class="r" d="M2.987-19.343H-.841v13.4c0,1.218.029,2.9-1.624,2.9a2.555,2.555,0,0,1-2.03-1.073V-.29A5.981,5.981,0,0,0-1.653.319a4.32,4.32,0,0,0,4.234-2.9,9.77,9.77,0,0,0,.406-3.161Z" transform="translate(13325.809 1127)"/><path class="d" d="M.574,0V-9.338H-1.5v.812h1.2V0Z" transform="translate(13138.809 938)"/><path class="d" d="M-1.9-6.79h.854v-.168c0-.77.112-1.708,1.078-1.708.728,0,.98.644.98,1.274A8.022,8.022,0,0,1-.126-3.948L-2.044,0H1.778V-.826H-.77L.658-3.64A8.386,8.386,0,0,0,1.89-7.392a1.869,1.869,0,0,0-1.9-2.072C-1.61-9.464-1.9-8.134-1.9-6.79Z" transform="translate(13217.809 938)"/><path class="d" d="M-1.064-7.154c.014-.686.1-1.47.98-1.47.812,0,1.022.686,1.022,1.372a2.137,2.137,0,0,1-.35,1.344A1.289,1.289,0,0,1-.56-5.5H-.924v.77H-.5c1.26,0,1.568.98,1.568,2.058,0,.756-.07,1.96-1.092,1.96-1.064,0-1.092-1.05-1.092-1.848h-.854v.378c0,1.3.49,2.31,1.932,2.31C1.54.126,1.9-1.176,1.9-2.506c0-1.022-.112-2.2-1.19-2.66A2.091,2.091,0,0,0,1.778-7.308c0-1.218-.532-2.156-1.862-2.156s-1.764,1.148-1.778,2.31Z" transform="translate(13296.809 938)"/><path class="s" d="M3.291-9.657c0-2.436-.261-5.249-1.74-7.279a6.39,6.39,0,0,0-5.046-2.7,6.31,6.31,0,0,0-5.046,2.7c-1.479,2.088-1.74,4.785-1.74,7.279,0,2.436.261,5.22,1.74,7.25A6.419,6.419,0,0,0-3.495.319,6.376,6.376,0,0,0,1.551-2.407C3.03-4.495,3.291-7.163,3.291-9.657Zm-4.06-.087c0,1.769-.2,6.38-2.726,6.38s-2.726-4.611-2.726-6.38.2-6.38,2.726-6.38S-.769-11.513-.769-9.744Zm11.977-.2v-3.016H9.556v-3.306c0-.725.087-1.6,1.015-1.6a1.274,1.274,0,0,1,.638.2v-3.48a4.827,4.827,0,0,0-1.566-.29,3.657,3.657,0,0,0-3.335,1.74,5.018,5.018,0,0,0-.377,2.349v4.379H4.6v3.016H5.931V0H9.556V-9.947Z" transform="translate(13166.809 1207)"/><path class="t" d="M-7.714-12.615c-.029-.406-.029-.783-.029-1.189,0-1.044.087-3.161,1.566-3.161,1.247,0,1.508,1.479,1.508,2.436,0,1.972-1.421,4.553-2.349,6.264L-11.513,0h10.15V-3.335H-5.858l2.813-5.394c1.044-2,2.03-3.654,2.03-5.974,0-3.306-2-4.93-5.191-4.93-4,0-5.075,2.349-5.075,5.974,0,.348.029.7.058,1.044Zm19.43,2.871c0-3.393-.783-9.889-5.336-9.889C1.711-19.633.87-13.311.87-9.8.87-6.322,1.537.319,6.235.319,10.991.319,11.716-6.206,11.716-9.744ZM8-8.7c0,1.16-.029,5.481-1.74,5.481-1.624,0-1.711-4.205-1.711-5.336v-2.03c0-1.16.029-5.626,1.711-5.626C8-16.211,8-11.629,8-10.44Z" transform="translate(13245.809 1207)"/><path class="t" d="M-3.364,0V-19.343H-8.932v3.364h1.856V0ZM2.958,0H6.641L8.352-3.6c.174-.377.406-.783.58-1.16a19.215,19.215,0,0,0,2.059-8.091c0-3.451-1.421-6.786-5.365-6.786C1.653-19.633.29-15.95.29-12.557c0,2.436.928,6.032,3.944,6.032A3.619,3.619,0,0,0,6.641-7.6ZM7.192-13.253c0,.986-.29,3.335-1.624,3.335-1.3,0-1.508-2.088-1.508-3.045,0-1.044.174-3.364,1.624-3.364C6.9-16.327,7.192-14.152,7.192-13.253Z" transform="translate(13325.809 1207)"/><path class="e" d="M3.248,0l-4.64-19.343h-4L-9.918,0H-6.09l.7-3.248h3.857L-.812,0ZM-4.814-6.235a59.818,59.818,0,0,0,1.276-8.12c.087.841.2,1.711.319,2.552.29,1.885.7,3.712,1.1,5.568ZM9.947-9.947v-3.016H8.468v-3.683H4.843v3.683H3.6v3.016H4.843V0H8.468V-9.947Z" transform="translate(13246.809 970)"/><path class="e" d="M4.1,0V-3.567H.188v-4.35H3.582v-3.654H.188v-4.176H4.045v-3.6H-3.64V0Z" transform="translate(13325.809 970)"/><path class="d" d="M1.96-2.506v-.8h-.7V-9.338H.406l-2.45,5.95v.882H.406V0H1.26V-2.506Zm-3.192-.8,1.2-3.052A13.538,13.538,0,0,0,.5-7.966C.42-7.042.392-6.118.392-5.194c0,.63.014,1.26.014,1.89Z" transform="translate(13138.809 1176)"/><path class="d" d="M-.392-8.526H1.624v-.812H-1.162L-1.708-4.7A5.116,5.116,0,0,1-.56-4.872c1.246,0,1.568,1.134,1.568,2.1,0,.812-.294,2.058-1.4,2.058a2.1,2.1,0,0,1-1.26-.476l-.238.854A2.437,2.437,0,0,0-.434.126C1.274.126,1.89-1.386,1.89-2.758c0-1.33-.546-2.954-2.128-2.954a2.9,2.9,0,0,0-.49.042Z" transform="translate(13217.809 1176)"/><path class="d" d="M1.134-9.338H.224l-1.33,3.164A12.347,12.347,0,0,0-1.68-4.606a6.772,6.772,0,0,0-.238,1.82A3.4,3.4,0,0,0-1.176-.322a1.661,1.661,0,0,0,1.2.448A1.741,1.741,0,0,0,1.274-.336,3.03,3.03,0,0,0,1.918-2.52a3.521,3.521,0,0,0-.672-2.366A1.543,1.543,0,0,0,.182-5.292a1.464,1.464,0,0,0-.91.322c.35-.924.42-.98.644-1.5ZM-1.078-2.59a2.393,2.393,0,0,1,.42-1.666A.885.885,0,0,1,0-4.55a.925.925,0,0,1,.658.28,2.42,2.42,0,0,1,.42,1.694c0,1.12-.21,1.5-.35,1.652A.931.931,0,0,1,.07-.63,1.051,1.051,0,0,1-.616-.91,2.56,2.56,0,0,1-1.078-2.59Z" transform="translate(13296.809 1176)"/></g></svg>