<svg xmlns="http://www.w3.org/2000/svg" xmlns:xlink="http://www.w3.org/1999/xlink" width="617" height="194" viewBox="0 0 617 194"><defs><style>.a{fill:#6ed8d2;}.b{fill:#d0d0d0;}.c,.e{fill:#222429;}.d{clip-path:url(#a);}.e{fill-rule:evenodd;}</style><clipPath id="a"><rect class="a" width="616" height="193" rx="12" transform="translate(780 861)"/></clipPath></defs><g transform="translate(-780 -861)"><path class="b" d="M12,0H604a12,12,0,0,1,12,12V181a12,12,0,0,1-12,12H12A12,12,0,0,1,0,181V12A12,12,0,0,1,12,0Z" transform="translate(780 861)"/><path class="c" d="M4.818,22H7.062V15.664L11.88,7.326H9.328L5.94,13.2,2.552,7.326H0l4.818,8.338ZM16.61,12.5a4.781,4.781,0,0,0-4.95,4.884,4.812,4.812,0,0,0,4.95,4.906,4.812,4.812,0,0,0,4.95-4.906A4.781,4.781,0,0,0,16.61,12.5Zm0,7.854A2.667,2.667,0,0,1,13.86,17.4a2.679,2.679,0,0,1,2.75-2.97,2.679,2.679,0,0,1,2.75,2.97A2.667,2.667,0,0,1,16.61,20.35ZM23.8,12.738v5.368a3.874,3.874,0,0,0,.99,3.036,4.069,4.069,0,0,0,2.926,1.144,4.224,4.224,0,0,0,3.014-1.144,3.874,3.874,0,0,0,.99-3.036V12.738H29.568v5.3a2.667,2.667,0,0,1-.4,1.672,1.873,1.873,0,0,1-2.816,0,2.667,2.667,0,0,1-.4-1.672v-5.3Zm22.946.418a4.972,4.972,0,0,0-2.53-.66A5.029,5.029,0,0,0,40.5,13.86a4.947,4.947,0,0,0-1.408,3.586,4.813,4.813,0,0,0,1.32,3.476,4.512,4.512,0,0,0,3.52,1.364,5.07,5.07,0,0,0,2.816-.726v-2.4a3.609,3.609,0,0,1-2.662,1.188A2.8,2.8,0,0,1,42.13,19.6a3.068,3.068,0,0,1-.836-2.222,2.961,2.961,0,0,1,.792-2.134,2.773,2.773,0,0,1,2.046-.814,3.637,3.637,0,0,1,2.618,1.144Zm8.844.66a3.377,3.377,0,0,0-2.75-1.32,4.528,4.528,0,0,0-4.51,4.862c0,2.552,1.628,4.928,4.488,4.928a3.557,3.557,0,0,0,2.772-1.254V22H57.75V12.738H55.594Zm-2.486.616c1.364,0,2.618.968,2.618,2.992a2.644,2.644,0,0,1-2.618,2.926A2.7,2.7,0,0,1,50.534,17.4,2.7,2.7,0,0,1,53.108,14.432ZM60.456,22h2.156V17.556c0-2.992.99-3.124,1.958-3.124.814,0,1.694.066,1.694,2.42V22H68.42V16.324a4.138,4.138,0,0,0-.572-2.574A3.1,3.1,0,0,0,65.12,12.5a3.19,3.19,0,0,0-2.508,1.1v-.858H60.456Zm10.428-9.834,1.452.594,2.728-5.434-1.936-.748ZM81.4,14.718v-1.98H79.75V9.35H77.594v3.388h-.9v1.98h.9V22H79.75V14.718Zm13.75-1.562a4.972,4.972,0,0,0-2.53-.66A5.029,5.029,0,0,0,88.9,13.86a4.947,4.947,0,0,0-1.408,3.586,4.813,4.813,0,0,0,1.32,3.476,4.512,4.512,0,0,0,3.52,1.364,5.07,5.07,0,0,0,2.816-.726v-2.4a3.609,3.609,0,0,1-2.662,1.188A2.8,2.8,0,0,1,90.53,19.6a3.068,3.068,0,0,1-.836-2.222,2.961,2.961,0,0,1,.792-2.134,2.772,2.772,0,0,1,2.046-.814,3.637,3.637,0,0,1,2.618,1.144Zm6.534-.66a4.781,4.781,0,0,0-4.95,4.884,4.95,4.95,0,0,0,9.9,0A4.781,4.781,0,0,0,101.684,12.5Zm0,7.854a2.667,2.667,0,0,1-2.75-2.948,2.758,2.758,0,1,1,5.5,0A2.667,2.667,0,0,1,101.684,20.35ZM108.856,22h2.156V17.556c0-2.992.99-3.124,1.958-3.124.814,0,1.694.066,1.694,2.42V22h2.156V16.324a4.138,4.138,0,0,0-.572-2.574A3.1,3.1,0,0,0,113.52,12.5a3.19,3.19,0,0,0-2.508,1.1v-.858h-2.156Zm10.67,0h2.156V17.556c0-2.992.99-3.124,1.958-3.124.814,0,1.694.066,1.694,2.42V22h2.156V16.324a4.138,4.138,0,0,0-.572-2.574A3.1,3.1,0,0,0,124.19,12.5a3.19,3.19,0,0,0-2.508,1.1v-.858h-2.156Zm17.182-3.124a3.346,3.346,0,0,1-.858,1.012,2.27,2.27,0,0,1-1.474.462,2.2,2.2,0,0,1-1.65-.594,3.061,3.061,0,0,1-.792-1.87h6.644v-.264a5.562,5.562,0,0,0-1.3-3.916,3.988,3.988,0,0,0-2.97-1.21,4.219,4.219,0,0,0-3.1,1.254,5.429,5.429,0,0,0-1.474,3.806A4.971,4.971,0,0,0,131.1,21.1a4.107,4.107,0,0,0,3.124,1.188,5.1,5.1,0,0,0,2.728-.7,4.856,4.856,0,0,0,1.562-1.694Zm-4.62-2.75a2.427,2.427,0,0,1,.66-1.188,2.248,2.248,0,0,1,2.97-.066,2.24,2.24,0,0,1,.66,1.254Zm15.906-2.97a4.972,4.972,0,0,0-2.53-.66,5.029,5.029,0,0,0-3.718,1.364,4.947,4.947,0,0,0-1.408,3.586,4.813,4.813,0,0,0,1.32,3.476,4.512,4.512,0,0,0,3.52,1.364,5.07,5.07,0,0,0,2.816-.726v-2.4a3.609,3.609,0,0,1-2.662,1.188,2.8,2.8,0,0,1-1.958-.748,3.068,3.068,0,0,1-.836-2.222,2.961,2.961,0,0,1,.792-2.134,2.773,2.773,0,0,1,2.046-.814,3.637,3.637,0,0,1,2.618,1.144Zm5.94,1.562v-1.98h-1.65V9.35h-2.156v3.388h-.9v1.98h.9V22h2.156V14.718Zm10.45,0v-1.98h-1.65V9.35h-2.156v3.388h-.9v1.98h.9V22h2.156V14.718ZM165.836,22h2.156V17.534a4.149,4.149,0,0,1,.44-2.332,1.913,1.913,0,0,1,1.584-.77,1.625,1.625,0,0,1,1.21.484,2.231,2.231,0,0,1,.418,1.606V22H173.8V16.324a4.558,4.558,0,0,0-.594-2.574,3.15,3.15,0,0,0-2.728-1.254,3.329,3.329,0,0,0-2.486,1.034V5.962h-2.156Zm16.94-3.124a3.346,3.346,0,0,1-.858,1.012,2.27,2.27,0,0,1-1.474.462,2.2,2.2,0,0,1-1.65-.594,3.061,3.061,0,0,1-.792-1.87h6.644v-.264a5.562,5.562,0,0,0-1.3-3.916,3.988,3.988,0,0,0-2.97-1.21,4.219,4.219,0,0,0-3.1,1.254,5.429,5.429,0,0,0-1.474,3.806,4.971,4.971,0,0,0,1.364,3.542,4.107,4.107,0,0,0,3.124,1.188,5.1,5.1,0,0,0,2.728-.7,4.856,4.856,0,0,0,1.562-1.694Zm-4.62-2.75a2.427,2.427,0,0,1,.66-1.188,2.248,2.248,0,0,1,2.97-.066,2.24,2.24,0,0,1,.66,1.254Zm20.636-2.31a3.377,3.377,0,0,0-2.75-1.32,4.528,4.528,0,0,0-4.51,4.862c0,2.552,1.628,4.928,4.488,4.928a3.557,3.557,0,0,0,2.772-1.254V22h2.156V5.962h-2.156Zm-2.486.616c1.364,0,2.618.968,2.618,2.992a2.644,2.644,0,0,1-2.618,2.926,2.7,2.7,0,0,1-2.574-2.948A2.7,2.7,0,0,1,196.306,14.432ZM208.142,12.5a4.781,4.781,0,0,0-4.95,4.884,4.95,4.95,0,0,0,9.9,0A4.781,4.781,0,0,0,208.142,12.5Zm0,7.854a2.667,2.667,0,0,1-2.75-2.948,2.758,2.758,0,1,1,5.5,0A2.667,2.667,0,0,1,208.142,20.35Zm11.066-5.632v-1.98h-1.65V9.35H215.4v3.388h-.9v1.98h.9V22h2.156V14.718Zm7.106-.594a3.181,3.181,0,0,0-1.056-1.144,2.9,2.9,0,0,0-1.716-.484,2.985,2.985,0,0,0-2.266.88,2.892,2.892,0,0,0-.77,1.98,2.019,2.019,0,0,0,.66,1.562,4.569,4.569,0,0,0,1.276.792l.792.374a2.841,2.841,0,0,1,.924.572,1,1,0,0,1,.286.7,1.092,1.092,0,0,1-.308.726,1.3,1.3,0,0,1-.88.308,1.321,1.321,0,0,1-.946-.352,2.438,2.438,0,0,1-.506-.88l-1.76.836a3.609,3.609,0,0,0,1.188,1.694,3.188,3.188,0,0,0,2,.594,3.307,3.307,0,0,0,2.6-1.034,3.076,3.076,0,0,0,.814-2.112,2.286,2.286,0,0,0-.682-1.716,4.445,4.445,0,0,0-1.3-.858l-1.1-.55c-.462-.242-.594-.286-.726-.374a.592.592,0,0,1-.308-.528.7.7,0,0,1,.2-.484.914.914,0,0,1,.66-.242,1.551,1.551,0,0,1,1.32.792Zm7.392-8.162V22h2.156V5.962Zm9.35,6.534a4.781,4.781,0,0,0-4.95,4.884,4.95,4.95,0,0,0,9.9,0A4.781,4.781,0,0,0,243.056,12.5Zm0,7.854a2.667,2.667,0,0,1-2.75-2.948,2.758,2.758,0,1,1,5.5,0A2.667,2.667,0,0,1,243.056,20.35Zm11.66-7.854a4.781,4.781,0,0,0-4.95,4.884,4.95,4.95,0,0,0,9.9,0A4.781,4.781,0,0,0,254.716,12.5Zm0,7.854a2.667,2.667,0,0,1-2.75-2.948,2.758,2.758,0,1,1,5.5,0A2.667,2.667,0,0,1,254.716,20.35ZM261.91,5.962V22h2.156V18.436l.4-.4L267.5,22h2.728l-4.268-5.412,3.982-3.85h-2.86l-3.014,3.1V5.962Zm9.724,6.776V22h2.156V12.738Zm-.308-3.828a1.386,1.386,0,1,0,1.386-1.386A1.353,1.353,0,0,0,271.326,8.91ZM276.5,22h2.156V17.556c0-2.992.99-3.124,1.958-3.124.814,0,1.694.066,1.694,2.42V22h2.156V16.324a4.138,4.138,0,0,0-.572-2.574A3.1,3.1,0,0,0,281.16,12.5a3.19,3.19,0,0,0-2.508,1.1v-.858H276.5Zm17.468-8.25a3.484,3.484,0,0,0-2.75-1.254,4.213,4.213,0,0,0-3.146,1.276,4.919,4.919,0,0,0-1.364,3.586,5.236,5.236,0,0,0,1.386,3.674,3.929,3.929,0,0,0,3.058,1.254,3.354,3.354,0,0,0,2.816-1.32v1.21a3.051,3.051,0,0,1-.7,2.332,2.314,2.314,0,0,1-1.694.616,2.2,2.2,0,0,1-1.672-.638,3.067,3.067,0,0,1-.682-1.452h-2.09a5.209,5.209,0,0,0,1.364,2.882,4.092,4.092,0,0,0,3.036,1.144,4.7,4.7,0,0,0,3.08-.99c1.276-1.078,1.518-2.64,1.518-4.818V12.738h-2.156Zm-2.486.682a2.29,2.29,0,0,1,1.738.66,3.1,3.1,0,0,1,.88,2.332,3.079,3.079,0,0,1-.814,2.178,2.347,2.347,0,0,1-1.8.748,2.522,2.522,0,0,1-1.65-.616A3.179,3.179,0,0,1,288.9,17.4a3.22,3.22,0,0,1,.946-2.354A2.231,2.231,0,0,1,291.478,14.432Zm17.2.286v-1.98H306.35V9.24a1.529,1.529,0,0,1,.352-1.1,1.251,1.251,0,0,1,.946-.352,1.861,1.861,0,0,1,1.034.33V5.984A3.447,3.447,0,0,0,307.3,5.72a2.9,2.9,0,0,0-2.2.9,4.1,4.1,0,0,0-.9,2.9v3.212h-.924v1.98h.924V22h2.156V14.718Zm5.7-2.222a4.781,4.781,0,0,0-4.95,4.884,4.95,4.95,0,0,0,9.9,0A4.781,4.781,0,0,0,314.38,12.5Zm0,7.854a2.667,2.667,0,0,1-2.75-2.948,2.758,2.758,0,1,1,5.5,0A2.667,2.667,0,0,1,314.38,20.35ZM321.574,22h2.156V17.2a2.984,2.984,0,0,1,.594-2.134,1.68,1.68,0,0,1,1.342-.506,1.952,1.952,0,0,1,1.1.33l.88-1.958a3.2,3.2,0,0,0-1.694-.44,2.49,2.49,0,0,0-1.32.308,3.729,3.729,0,0,0-.9.77v-.836h-2.156Zm6.534-9.262,4.818,9.922,2.6-5.918,2.6,5.918,4.818-9.922h-2.42l-2.4,5.3-2.6-6.094-2.6,6.094-2.4-5.3Zm22.66,1.078a3.377,3.377,0,0,0-2.75-1.32,4.528,4.528,0,0,0-4.51,4.862c0,2.552,1.628,4.928,4.488,4.928a3.557,3.557,0,0,0,2.772-1.254V22h2.156V12.738h-2.156Zm-2.486.616c1.364,0,2.618.968,2.618,2.992a2.644,2.644,0,0,1-2.618,2.926,2.7,2.7,0,0,1-2.574-2.948A2.7,2.7,0,0,1,348.282,14.432ZM355.652,22h2.156V17.2a2.984,2.984,0,0,1,.594-2.134,1.68,1.68,0,0,1,1.342-.506,1.952,1.952,0,0,1,1.1.33l.88-1.958a3.2,3.2,0,0,0-1.694-.44,2.49,2.49,0,0,0-1.32.308,3.729,3.729,0,0,0-.9.77v-.836h-2.156Zm13.4-8.184a3.377,3.377,0,0,0-2.75-1.32,4.528,4.528,0,0,0-4.51,4.862c0,2.552,1.628,4.928,4.488,4.928a3.557,3.557,0,0,0,2.772-1.254V22h2.156V5.962H369.05Zm-2.486.616c1.364,0,2.618.968,2.618,2.992a2.644,2.644,0,0,1-2.618,2.926A2.7,2.7,0,0,1,363.99,17.4,2.7,2.7,0,0,1,366.564,14.432Zm6.226,10.406,1.452.594L376.97,20l-1.936-.748Zm12.628,2.2h2.42l7.37-14.3h-2.42L390.1,18.15l-2.64-5.412h-2.6l3.96,7.81ZM400.708,12.5a4.781,4.781,0,0,0-4.95,4.884,4.95,4.95,0,0,0,9.9,0A4.781,4.781,0,0,0,400.708,12.5Zm0,7.854a2.667,2.667,0,0,1-2.75-2.948,2.758,2.758,0,1,1,5.5,0A2.667,2.667,0,0,1,400.708,20.35Zm7.194-7.612v5.368a3.874,3.874,0,0,0,.99,3.036,4.069,4.069,0,0,0,2.926,1.144,4.224,4.224,0,0,0,3.014-1.144,3.874,3.874,0,0,0,.99-3.036V12.738h-2.156v5.3a2.667,2.667,0,0,1-.4,1.672,1.873,1.873,0,0,1-2.816,0,2.667,2.667,0,0,1-.4-1.672v-5.3ZM8.536,42.156a4.972,4.972,0,0,0-2.53-.66A5.029,5.029,0,0,0,2.288,42.86,4.947,4.947,0,0,0,.88,46.446,4.813,4.813,0,0,0,2.2,49.922a4.512,4.512,0,0,0,3.52,1.364,5.07,5.07,0,0,0,2.816-.726v-2.4A3.609,3.609,0,0,1,5.874,49.35,2.8,2.8,0,0,1,3.916,48.6,3.068,3.068,0,0,1,3.08,46.38a2.961,2.961,0,0,1,.792-2.134,2.773,2.773,0,0,1,2.046-.814,3.637,3.637,0,0,1,2.618,1.144Zm8.844.66a3.377,3.377,0,0,0-2.75-1.32,4.528,4.528,0,0,0-4.51,4.862c0,2.552,1.628,4.928,4.488,4.928a3.557,3.557,0,0,0,2.772-1.254V51h2.156V41.738H17.38Zm-2.486.616c1.364,0,2.618.968,2.618,2.992a2.644,2.644,0,0,1-2.618,2.926A2.7,2.7,0,0,1,12.32,46.4,2.7,2.7,0,0,1,14.894,43.432ZM22.242,51H24.4V46.556c0-2.992.99-3.124,1.958-3.124.814,0,1.694.066,1.694,2.42V51h2.156V45.324a4.138,4.138,0,0,0-.572-2.574A3.1,3.1,0,0,0,26.906,41.5,3.19,3.19,0,0,0,24.4,42.6v-.858H22.242Zm20.284-9.5a4.9,4.9,0,1,0,4.95,4.884A4.781,4.781,0,0,0,42.526,41.5Zm0,7.854a2.667,2.667,0,0,1-2.75-2.948,2.758,2.758,0,1,1,5.5,0A2.667,2.667,0,0,1,42.526,49.35ZM49.7,51h2.156V46.556c0-2.992.99-3.124,1.958-3.124.814,0,1.694.066,1.694,2.42V51h2.156V45.324a4.138,4.138,0,0,0-.572-2.574A3.1,3.1,0,0,0,54.362,41.5a3.19,3.19,0,0,0-2.508,1.1v-.858H49.7ZM60.39,34.962V51h2.156V34.962Zm4.2,21.076h2.42l7.37-14.3h-2.42L69.278,47.15l-2.64-5.412h-2.6L68,49.548ZM88.176,42.156a4.972,4.972,0,0,0-2.53-.66,5.029,5.029,0,0,0-3.718,1.364,4.947,4.947,0,0,0-1.408,3.586,4.813,4.813,0,0,0,1.32,3.476,4.512,4.512,0,0,0,3.52,1.364,5.07,5.07,0,0,0,2.816-.726v-2.4a3.609,3.609,0,0,1-2.662,1.188,2.8,2.8,0,0,1-1.958-.748,3.068,3.068,0,0,1-.836-2.222,2.961,2.961,0,0,1,.792-2.134,2.772,2.772,0,0,1,2.046-.814,3.637,3.637,0,0,1,2.618,1.144Zm6.534-.66a4.9,4.9,0,1,0,4.95,4.884A4.781,4.781,0,0,0,94.71,41.5Zm0,7.854A2.667,2.667,0,0,1,91.96,46.4a2.758,2.758,0,1,1,5.5,0A2.667,2.667,0,0,1,94.71,49.35ZM101.882,51h2.156V46.556c0-2.992.99-3.124,1.958-3.124.814,0,1.694.066,1.694,2.42V51h2.156V45.324a4.138,4.138,0,0,0-.572-2.574,3.1,3.1,0,0,0-2.728-1.254,3.19,3.19,0,0,0-2.508,1.1v-.858h-2.156Zm10.67,0h2.156V46.556c0-2.992.99-3.124,1.958-3.124.814,0,1.694.066,1.694,2.42V51h2.156V45.324a4.138,4.138,0,0,0-.572-2.574,3.1,3.1,0,0,0-2.728-1.254,3.19,3.19,0,0,0-2.508,1.1v-.858h-2.156Zm17.182-3.124a3.345,3.345,0,0,1-.858,1.012,2.27,2.27,0,0,1-1.474.462,2.2,2.2,0,0,1-1.65-.594,3.061,3.061,0,0,1-.792-1.87H131.6v-.264a5.562,5.562,0,0,0-1.3-3.916,3.988,3.988,0,0,0-2.97-1.21,4.219,4.219,0,0,0-3.1,1.254,5.429,5.429,0,0,0-1.474,3.806,4.971,4.971,0,0,0,1.364,3.542,4.107,4.107,0,0,0,3.124,1.188,5.1,5.1,0,0,0,2.728-.7,4.856,4.856,0,0,0,1.562-1.694Zm-4.62-2.75a2.427,2.427,0,0,1,.66-1.188,2.248,2.248,0,0,1,2.97-.066,2.24,2.24,0,0,1,.66,1.254Zm15.906-2.97a4.972,4.972,0,0,0-2.53-.66,5.029,5.029,0,0,0-3.718,1.364,4.947,4.947,0,0,0-1.408,3.586,4.813,4.813,0,0,0,1.32,3.476,4.512,4.512,0,0,0,3.52,1.364,5.07,5.07,0,0,0,2.816-.726v-2.4a3.609,3.609,0,0,1-2.662,1.188A2.8,2.8,0,0,1,136.4,48.6a3.068,3.068,0,0,1-.836-2.222,2.961,2.961,0,0,1,.792-2.134,2.773,2.773,0,0,1,2.046-.814,3.637,3.637,0,0,1,2.618,1.144Zm5.94,1.562v-1.98h-1.65V38.35h-2.156v3.388h-.9v1.98h.9V51h2.156V43.718Zm10.45,0v-1.98h-1.65V38.35H153.6v3.388h-.9v1.98h.9V51h2.156V43.718ZM158.862,51h2.156V46.534a4.149,4.149,0,0,1,.44-2.332,1.913,1.913,0,0,1,1.584-.77,1.625,1.625,0,0,1,1.21.484,2.231,2.231,0,0,1,.418,1.606V51h2.156V45.324a4.558,4.558,0,0,0-.594-2.574A3.15,3.15,0,0,0,163.5,41.5a3.329,3.329,0,0,0-2.486,1.034V34.962h-2.156Zm16.94-3.124a3.346,3.346,0,0,1-.858,1.012,2.27,2.27,0,0,1-1.474.462,2.2,2.2,0,0,1-1.65-.594,3.061,3.061,0,0,1-.792-1.87h6.644v-.264a5.562,5.562,0,0,0-1.3-3.916,3.988,3.988,0,0,0-2.97-1.21,4.219,4.219,0,0,0-3.1,1.254,5.429,5.429,0,0,0-1.474,3.806,4.971,4.971,0,0,0,1.364,3.542,4.107,4.107,0,0,0,3.124,1.188,5.1,5.1,0,0,0,2.728-.7,4.856,4.856,0,0,0,1.562-1.694Zm-4.62-2.75a2.427,2.427,0,0,1,.66-1.188,2.248,2.248,0,0,1,2.97-.066,2.24,2.24,0,0,1,.66,1.254ZM179.916,51h2.156V46.226a3.759,3.759,0,0,1,.418-2.112,1.593,1.593,0,0,1,1.276-.682,1.221,1.221,0,0,1,1.232.814,4.3,4.3,0,0,1,.2,1.65V51h2.156V46.226a3.759,3.759,0,0,1,.418-2.112,1.593,1.593,0,0,1,1.276-.682,1.221,1.221,0,0,1,1.232.814,4.3,4.3,0,0,1,.2,1.65V51h2.156V45.28a4.563,4.563,0,0,0-.484-2.332,2.966,2.966,0,0,0-2.64-1.452,3.281,3.281,0,0,0-2.75,1.364,2.72,2.72,0,0,0-2.4-1.364,2.854,2.854,0,0,0-2.288,1.1v-.858h-2.156Zm20.57-16.038V51h2.156V34.962Zm9.35,6.534a4.9,4.9,0,1,0,4.95,4.884A4.781,4.781,0,0,0,209.836,41.5Zm0,7.854a2.667,2.667,0,0,1-2.75-2.948,2.758,2.758,0,1,1,5.5,0A2.667,2.667,0,0,1,209.836,49.35ZM221.5,41.5a4.9,4.9,0,1,0,4.95,4.884A4.781,4.781,0,0,0,221.5,41.5Zm0,7.854a2.667,2.667,0,0,1-2.75-2.948,2.758,2.758,0,1,1,5.5,0A2.667,2.667,0,0,1,221.5,49.35Zm7.194-14.388V51h2.156V47.436l.4-.4L234.278,51h2.728l-4.268-5.412,3.982-3.85h-2.86l-3.014,3.1V34.962Zm9.724,6.776V51h2.156V41.738Zm-.308-3.828a1.386,1.386,0,1,0,1.386-1.386A1.353,1.353,0,0,0,238.106,37.91ZM243.276,51h2.156V46.556c0-2.992.99-3.124,1.958-3.124.814,0,1.694.066,1.694,2.42V51h2.156V45.324a4.138,4.138,0,0,0-.572-2.574A3.1,3.1,0,0,0,247.94,41.5a3.19,3.19,0,0,0-2.508,1.1v-.858h-2.156Zm17.468-8.25a3.484,3.484,0,0,0-2.75-1.254,4.213,4.213,0,0,0-3.146,1.276,4.919,4.919,0,0,0-1.364,3.586,5.236,5.236,0,0,0,1.386,3.674,3.928,3.928,0,0,0,3.058,1.254,3.354,3.354,0,0,0,2.816-1.32v1.21a3.051,3.051,0,0,1-.7,2.332,2.314,2.314,0,0,1-1.694.616,2.2,2.2,0,0,1-1.672-.638,3.067,3.067,0,0,1-.682-1.452H253.9a5.209,5.209,0,0,0,1.364,2.882A4.092,4.092,0,0,0,258.3,56.06a4.7,4.7,0,0,0,3.08-.99c1.276-1.078,1.518-2.64,1.518-4.818V41.738h-2.156Zm-2.486.682a2.29,2.29,0,0,1,1.738.66,3.426,3.426,0,0,1,.066,4.51,2.347,2.347,0,0,1-1.8.748,2.522,2.522,0,0,1-1.65-.616,3.179,3.179,0,0,1-.924-2.332,3.22,3.22,0,0,1,.946-2.354A2.231,2.231,0,0,1,258.258,43.432Zm14.652-8.47h-2.156V51h2.156v-.968a3.557,3.557,0,0,0,2.772,1.254c2.86,0,4.488-2.376,4.488-4.928a4.528,4.528,0,0,0-4.51-4.862,3.377,3.377,0,0,0-2.75,1.32Zm2.486,8.47a2.7,2.7,0,0,1,2.574,2.97A2.7,2.7,0,0,1,275.4,49.35a2.644,2.644,0,0,1-2.618-2.926C272.778,44.4,274.032,43.432,275.4,43.432Zm13.794-.616a3.377,3.377,0,0,0-2.75-1.32,4.528,4.528,0,0,0-4.51,4.862c0,2.552,1.628,4.928,4.488,4.928a3.557,3.557,0,0,0,2.772-1.254V51h2.156V41.738H289.19Zm-2.486.616c1.364,0,2.618.968,2.618,2.992A2.644,2.644,0,0,1,286.7,49.35,2.7,2.7,0,0,1,284.13,46.4,2.7,2.7,0,0,1,286.7,43.432Zm14.542-1.276a4.972,4.972,0,0,0-2.53-.66A5.029,5.029,0,0,0,295,42.86a4.947,4.947,0,0,0-1.408,3.586,4.813,4.813,0,0,0,1.32,3.476,4.512,4.512,0,0,0,3.52,1.364,5.071,5.071,0,0,0,2.816-.726v-2.4a3.609,3.609,0,0,1-2.662,1.188,2.8,2.8,0,0,1-1.958-.748,3.068,3.068,0,0,1-.836-2.222,2.961,2.961,0,0,1,.792-2.134,2.772,2.772,0,0,1,2.046-.814,3.637,3.637,0,0,1,2.618,1.144Zm2.068-7.194V51h2.156V47.436l.4-.4L308.9,51h2.728l-4.268-5.412,3.982-3.85h-2.86l-3.014,3.1V34.962Zm8.492,6.776,4.818,9.922,2.6-5.918,2.6,5.918,4.818-9.922h-2.42l-2.4,5.3-2.6-6.094-2.6,6.094-2.4-5.3Zm22.66,1.078a3.377,3.377,0,0,0-2.75-1.32,4.528,4.528,0,0,0-4.51,4.862c0,2.552,1.628,4.928,4.488,4.928a3.557,3.557,0,0,0,2.772-1.254V51h2.156V41.738h-2.156Zm-2.486.616c1.364,0,2.618.968,2.618,2.992a2.644,2.644,0,0,1-2.618,2.926,2.7,2.7,0,0,1-2.574-2.948A2.7,2.7,0,0,1,331.98,43.432ZM339.35,51h2.156V46.2a2.984,2.984,0,0,1,.594-2.134,1.68,1.68,0,0,1,1.342-.506,1.952,1.952,0,0,1,1.1.33l.88-1.958a3.2,3.2,0,0,0-1.694-.44,2.49,2.49,0,0,0-1.32.308,3.729,3.729,0,0,0-.9.77v-.836H339.35Zm13.4-8.184A3.377,3.377,0,0,0,350,41.5a4.528,4.528,0,0,0-4.51,4.862c0,2.552,1.628,4.928,4.488,4.928a3.557,3.557,0,0,0,2.772-1.254V51H354.9V34.962h-2.156Zm-2.486.616c1.364,0,2.618.968,2.618,2.992a2.644,2.644,0,0,1-2.618,2.926,2.7,2.7,0,0,1-2.574-2.948A2.7,2.7,0,0,1,350.262,43.432Zm13.024-.308a3.181,3.181,0,0,0-1.056-1.144,2.9,2.9,0,0,0-1.716-.484,2.985,2.985,0,0,0-2.266.88,2.892,2.892,0,0,0-.77,1.98,2.019,2.019,0,0,0,.66,1.562,4.569,4.569,0,0,0,1.276.792l.792.374a2.841,2.841,0,0,1,.924.572,1,1,0,0,1,.286.7,1.092,1.092,0,0,1-.308.726,1.3,1.3,0,0,1-.88.308,1.32,1.32,0,0,1-.946-.352,2.438,2.438,0,0,1-.506-.88l-1.76.836a3.609,3.609,0,0,0,1.188,1.694,3.188,3.188,0,0,0,2,.594,3.307,3.307,0,0,0,2.6-1.034,3.075,3.075,0,0,0,.814-2.112,2.286,2.286,0,0,0-.682-1.716,4.445,4.445,0,0,0-1.3-.858l-1.1-.55c-.462-.242-.594-.286-.726-.374a.592.592,0,0,1-.308-.528.7.7,0,0,1,.2-.484.914.914,0,0,1,.66-.242,1.551,1.551,0,0,1,1.32.792Zm2.354,6.82a1.32,1.32,0,1,0,1.32-1.32A1.324,1.324,0,0,0,365.64,49.944Z" transform="translate(824 907)"/><path class="c" d="M1.26-3.258H13.14V-4.41H1.26Zm25.308-7.074a3.631,3.631,0,0,0-1.17-1.332,3.253,3.253,0,0,0-1.926-.54,3.1,3.1,0,0,0-3.366,3.1,2.493,2.493,0,0,0,.828,1.962,5.315,5.315,0,0,0,1.6.99l1.08.5a5.238,5.238,0,0,1,1.44.828,1.791,1.791,0,0,1,.594,1.4,2.272,2.272,0,0,1-2.412,2.376A2.3,2.3,0,0,1,21.51-1.71a2.833,2.833,0,0,1-.72-1.53l-1.3.36A4.352,4.352,0,0,0,20.61-.756a3.58,3.58,0,0,0,2.61.972,3.6,3.6,0,0,0,3.8-3.69,2.889,2.889,0,0,0-.864-2.178A5.832,5.832,0,0,0,24.3-6.786l-1.152-.5a3.92,3.92,0,0,1-1.26-.756,1.259,1.259,0,0,1-.45-1.044,1.842,1.842,0,0,1,2.016-1.854,2.16,2.16,0,0,1,1.35.414,2.893,2.893,0,0,1,.7.9Zm5.2,4.05V-7.47h-1.3v-2.7h-1.3v2.7h-.792v1.188h.792V0h1.3V-6.282ZM38.538-2.5a2.976,2.976,0,0,1-.774,1.026,2.271,2.271,0,0,1-1.53.54,2.393,2.393,0,0,1-2.376-2.538h5.814a5.015,5.015,0,0,0-.7-2.808A3.342,3.342,0,0,0,36.144-7.65c-2.25,0-3.618,1.728-3.618,3.96A3.575,3.575,0,0,0,36.216.216,3.626,3.626,0,0,0,38.7-.7a4.469,4.469,0,0,0,.918-1.206Zm-4.59-2.052a2.27,2.27,0,0,1,2.2-1.944,2.236,2.236,0,0,1,2.2,1.944ZM40.572-7.47,44.244.486,47.916-7.47h-1.44L44.244-2.43,42.012-7.47ZM54.828-2.5a2.976,2.976,0,0,1-.774,1.026,2.271,2.271,0,0,1-1.53.54,2.393,2.393,0,0,1-2.376-2.538h5.814a5.015,5.015,0,0,0-.7-2.808A3.342,3.342,0,0,0,52.434-7.65c-2.25,0-3.618,1.728-3.618,3.96A3.575,3.575,0,0,0,52.506.216,3.626,3.626,0,0,0,54.99-.7a4.469,4.469,0,0,0,.918-1.206Zm-4.59-2.052a2.27,2.27,0,0,1,2.2-1.944,2.236,2.236,0,0,1,2.2,1.944Zm13.3-7.452V-3.33a2.72,2.72,0,0,1-.45,1.944,1.266,1.266,0,0,1-.9.342,1.942,1.942,0,0,1-1.368-.666L60.084-.666a2.723,2.723,0,0,0,2.142.882A2.466,2.466,0,0,0,64.134-.54a3.926,3.926,0,0,0,.738-2.826v-8.64ZM71.136.216A3.831,3.831,0,0,0,75.1-3.708a3.836,3.836,0,0,0-3.96-3.942,3.836,3.836,0,0,0-3.96,3.942A3.831,3.831,0,0,0,71.136.216Zm0-6.714a2.586,2.586,0,0,1,2.628,2.79A2.59,2.59,0,0,1,71.136-.936a2.589,2.589,0,0,1-2.628-2.772A2.6,2.6,0,0,1,71.136-6.5Zm7.236,5.454a3.172,3.172,0,0,0,2.61,1.26A3.635,3.635,0,0,0,84.564-3.69a3.7,3.7,0,0,0-3.636-3.96,3.212,3.212,0,0,0-2.556,1.224v-6.7h-1.3V0h1.3Zm2.43.108a2.555,2.555,0,0,1-2.5-2.772A2.592,2.592,0,0,1,80.784-6.5,2.562,2.562,0,0,1,83.232-3.69,2.516,2.516,0,0,1,80.8-.936ZM90.684-6.3a2.155,2.155,0,0,0-2.052-1.35,2.008,2.008,0,0,0-2.178,2.088,1.622,1.622,0,0,0,.342,1.1,4.873,4.873,0,0,0,1.818,1.1c.7.306,1.206.54,1.206,1.242A1.159,1.159,0,0,1,88.6-.936,1.69,1.69,0,0,1,87.084-2.16l-1.116.468A2.671,2.671,0,0,0,88.578.216a2.376,2.376,0,0,0,2.574-2.448,1.768,1.768,0,0,0-.4-1.206A4.542,4.542,0,0,0,88.884-4.59c-.846-.36-1.206-.522-1.206-1.062a.825.825,0,0,1,.9-.846,1.145,1.145,0,0,1,1.044.756Z" transform="translate(824 995)"/><g class="d" transform="translate(1 1)"><path class="e" d="M98.421,73.99c.578,1.337,2.138,1.693,2.189,3.557C99.5,77.466,98.55,75.854,98.421,73.99Zm14.5,1.641h1.094c-.166-.564.441-1.9-.547-1.641C113.158,74.564,113.639,75.057,112.926,75.631Zm-.822.547c-.076-.715-.092-1.369.822-1.094.192-.679-1.17-1.16-1.369-.547C112.234,74.433,111.477,77.136,112.1,76.178Zm-7.389,16.147c1.11.16.869-1.126.274-1.369C104.636,91.6,105.025,91.466,104.715,92.325Zm4.926.821c.817-.188,1.676-.331,1.916-1.094A2.734,2.734,0,0,0,109.641,93.146ZM108,96.431c-.142-.782-.4.442-.548.547,1.14-.055,2.525-1.295,1.916-2.19C109.108,95.935,108.434,95.25,108,96.431Zm1.368,3.01h1.095a1.532,1.532,0,0,1,.274-1.094C109.933,98.365,109.72,98.972,109.368,99.441Zm11.768,1.369c.991.262.279-1.182.821-1.369C121.1,99.316,121.082,100.025,121.136,100.81Zm-9.578,4.926c1.03.141,1.247.345,1.642-.548C112.824,104.809,111.549,104.927,111.557,105.736ZM122.5,145.691c.378.378.141-1.426.274-1.641.639-1.038,2.812-4.049,5.747-3.285C126.577,138.157,120.59,143.778,122.5,145.691Zm9.031,7.116c.517.061.6-.308,1.1-.274.046-.685-.421-.856-.821-1.094A1.778,1.778,0,0,1,131.535,152.807Zm-5.2,9.578c.784.054,1.494.034,1.369-.82C127.066,161.656,126.524,161.845,126.335,162.385ZM139.2,182.91c-.325-1.323-2.352-2.385-2.189-3.283.979.294,2.842-.036,3.284-1.1-1.8.513-1.612-1.078-2.737.274.15-.4-.32-1.414.274-1.369,1.018-.462.537.058,1.1.547.5-.665.837-3.115.274-3.557.115,1.924-1.455,1.742-2.463,1.916a9.64,9.64,0,0,1,.274-2.737c-1.164-.252-.018,1.807-1.094,1.643.138-1.048.248-2.123,1.368-2.19.733,1.153.076,2.068.274,2.737,1.556-.206.593-1.56,1.916-1.643.646-.8-.526-1.016,0-1.367.947.951.62-.769,1.369-.822,0,.274.221.326.274.547a.963.963,0,0,0-.548,1.369c-.1-.867,1.5-1.225,1.642-.274-.255.293-1.01.085-.821.822,1.112.109.842-1.165,1.641-1.369-.056.947-.389,1.291.274,1.916.665-.544-.461-1.168.548-1.369.368,1.119.915.154,1.641,0,.045.705-1.392,1.316-.821,1.643.952-.5,2.719-1.364,3.558-1.1.036-2.152,2.108-2.27,3.557-3.011-.348.839-1.567.8-1.916,1.643,1.305.21,1.215-.975,2.463-.822.022.77-1.877,1.018-1.094,1.641.237-.6,1.772-1.307,2.189-.82-.75.445-2.9.919-2.463,1.641.037-.451,1.879-.451,1.915,0-.454.206-2.058.649-1.368,1.094,1.524-.391,2.241-1.59,3.832-1.916-.65.412-.274,1.153-.548,1.369-1.068.209-2.569.388-1.368,1.094a.755.755,0,0,0-.821.548c1.341.156.847-1.524,2.189-1.367-.4.97-1.259,1.477-1.915,2.189.68.357,1.136-.8,1.368,0-.508.6-2.97.665-2.463,1.369.689.159,2.025-1.2,3.01-.547a2.723,2.723,0,0,0-1.641.822c1.464.268,2.071-1.748,3.284-.822a5.37,5.37,0,0,0-3.01,1.916c2.473.55,4.545-2.407,5.473-.822a14.7,14.7,0,0,0-3.557,1.094c2.04.038,3.239-1.094,4.652-1.094-.775.694-2.237.9-1.917,1.369.082-.075,1.152-.391,1.369,0-.568.834-1.326-.107-1.916.822.6.173.871-.776.821.273.993.067,1.7-1.566,2.189-1.094-.331.057-.168.3,0,.547-.659-.391-1.655.773-2.189,1.369,1.7.234,2.515-1.856,3.558-1.369-.944.333-1.447,1.107-2.189,1.641h.548a17.322,17.322,0,0,0,3.557-2.736c-.1,1.812-2.231,1.6-3.01,2.736h70.06v-45.7c-3.745-2.544-7.441-2.692-11.493-3.557a98.429,98.429,0,0,1-23.81-8.758c-4.546-2.338-8.13-4.9-13.136-5.2a13.251,13.251,0,0,0-9.031-3.283c-2.271-.753-2.88-2.538-4.379-3.832-.484-.419-1.494-.4-1.915-.822-4.776-4.826-1.249-8.312,0-15.325.533-3,.491-6.748,1.094-8.758a6.233,6.233,0,0,0,1.642-.547c1.523-3.55,3.61-9.323,3.832-15.052.035-.894-.357-1.916-.274-2.737.376-3.722,3.928-13.647-2.737-11.493-.074-1.481.581-.815,1.095-1.916-2.136-4.174-.853-8.545-1.916-12.589.471-.108.7.407.821,0-1.572-4.542-5.117-7.94-6.021-12.315-.624.077-1.028-.065-1.094-.547-5.4-10.745-16.762-16.686-30.1-18.609q.19,1.285-1.1,1.094c.024-.431.7-.215.547-.82-1.951.147-2.622,1.574-4.105,2.189a1.3,1.3,0,0,1,.274-.822c-1.359,1.131-2.634.5-4.652,1.094-2.093.62-5.887,3.812-7.115,3.285-2.156,2.982-6.149,3.759-8.484,6.569-.742.893-.9,2.439-1.642,3.558-2.211,3.333-4.93,6.084-6.294,9.852,0,.544.747.348.547,1.094-4.435,3.509.89,10.89-2.463,16.694.687.483.193.452.548,1.1-5.506,1.069-2.534,9.512-1.915,13.682q-.075-.9.821-.82a8.968,8.968,0,0,0,2.463,6.295c1.225-.555,1.793.962,1.642,2.189.843.2.526-.751,1.368-.547.116-.937-.819-.823-1.095-1.369.184-.475.807-1.9.548-1.916-.587-.237-.545-1.144-1.094-2.463.864.728.318-1.707,1.915-1.094a5.628,5.628,0,0,0-.821,1.643c.772.367.686-1.451,1.1-.548a2.607,2.607,0,0,0-.821,2.19c.363.669,1.018-.3,1.094.273-.715.379-.775,1.414-1.094,2.19.83-.1.567.891.821,1.369-.469.472-1.076-.4-1.1.82.153.793.427-.419.821-.273-.281,1.522.426.548.821,1.095-.121.517.373,1.65-.547,1.368.039-.324.487-.621,0-.821-.321,1.046-1,3.11-.274,3.832-.053-.783-.033-1.494.821-1.369-.312.827-.995,2.447,0,3.01a2.6,2.6,0,0,1,.821-2.189c-.2,2.428-.751,5.237-1.642,5.474.214.059.319.229.274.547,1.93-1.171,1.156-5.047,3.01-6.295-.485,3.177-1,4.515-1.368,7.389-.072-.948,1.062-.331,1.094-.273a.877.877,0,0,0,.274,1.369c-.034-.685-.522-.857.274-1.1a4.663,4.663,0,0,0,.821,1.1c.68-.324.274-1.732,1.094-1.916-.087.336.044,1.69.274.82.134-.863-.493-.967-.274-1.916.775.486.4-1.994,1.916-2.189-.25-.481-.094-1.366-.547-1.642a5.008,5.008,0,0,1-1.1,2.736,20.615,20.615,0,0,0-1.368-3.557c-.081.243-.741,1.2-.821.547.376-.371,1.289-1.606.547-2.19-.23.87-.36-.485-.274-.82-.972-.425-.165.93-.821.82.094-1.123.36-1.791,0-2.462-.441.847-.237,1.062-.547,1.642.01-.894-.545-1.908.273-2.463H105.81c.794-1.009-.411-.533-.548-.822.778-1.785-.271-4.1-.274-6.02.47-.108.7.406.821,0-.221-.352-.984-1.537-.548-1.643.362,0,.25.481.548.549.152-1.878.181-2.541.822-3.559,1.64,1.664,1.916,6.083,3.831,6.569-.268-2.381-2.492-4.256-2.463-6.022.066.3.451.658.548.274-2.884-2.716.22-5.64-.821-8.758.35.016.379.351.821.274-.566-1.02,1.719-2.28.547-3.832-.854.83-1.192,2.585-1.916,1.369-.169,1.472-.507,2.776-1.642,3.283,1-1.4,2.8-5.662,1.642-6.567,1.542-1.1,1.812-3.671,2.189-5.2-.322-.043-.777.047-.821-.273.549-3.212.533-6.1,1.094-10.126.365-.671.826.493,1.095-.273-.611-1.482.448-.585,0-2.737,1.693-.4,1.116-1.641,1.642-2.463.03.218.905.83.821.274-.562-.077-.546-.732-.821-1.1,1.095-1.626,3.24-2.452,4.1-3.558.427.485.367,1.459,1.642,1.095.132-.861-.84-.62-.547-1.641.518.115,1.383,2.2,1.094,1.368.356-.679-.8-1.137,0-1.368.274,0,.326-.222.548-.274a1.2,1.2,0,0,0,.547,1.094c.456-.543-.024-.347,0-1.094.518.061.6-.308,1.1-.273.075.479-.77,1.365,0,1.642-.077-.624.066-1.029.547-1.094.158.48-.33,1.607.274,1.641.044-.321-.047-.776.274-.822.058.331.3.169.547,0V30.2c1.022.291.434-1.026,1.369-.82-.315.411-.96,1.153,0,1.369-.22-1.509.42-.881,1.369-.822.356-.679-.8-1.135,0-1.369.445.526.472,2.293-.274,2.463.545.456.349-.024,1.1,0,.3-.7-.831-1.3,0-1.641.616.114-.041,1.5.822,1.369-.111-1.673.927-.179,1.368,0-.655-1.094.4-1.189.821-1.917-.207,1.61.69.53,1.1,1.643.047-.409-.1-1.01.274-1.094.18.394.784,1.736,1.094,1.094-.52-.362.264-1.725.548-2.189.488,1.245,2.034,1.431,2.737,2.463.026-.431-.037-.949.547-.822,0,.274-.222.326-.274.547,2.721.2,3.622,3.673,5.2,4.1-.234-1.152-1.5-2.135-2.189-3.558,2.657.776,1.882,3.415,3.832,4.653.033-.959-1.737-1.529-.821-2.463.443.833.775,1.778,1.641,2.189-.05-.718-1.588-1.138-.274-1.641.105.554.8,1.907,1.1,1.367-.89-1.036-.2-1.268-.274-2.189.79.122.648,1.178,1.369,1.369.382-.787-.745-1.39,0-1.643.042.871.62,1.205.548,2.19.974-.692.625-.145,1.641.273.237-1.239-1.367-.64-1.369-1.642,1.01.1,1.313.61,1.916.822a1.286,1.286,0,0,0,.274.82c-.448-.2-1.191.544-.548.548.051-.407.662-.252,1.1-.274.7,1.062.435,1.719,1.368,2.189-.39.108-.461.33-.821,0-.288,1.019.923.537,1.094,1.1-.333.031-.647.081-.547.547.517.061.6-.308,1.1-.274-1.156,1.937.481,4.505-.274,6.842-1.677.31-.776,2.522-1.1,4.106,1-1.045,2.137-.061,3.01.547-1.379.686.686,3.009,1.1,2.189.135.866-1.358.1-1.1,1.094a1.282,1.282,0,0,0,.821-.273c.083,2.207,2.045,1.926.274,3.832,1.841,1.248,1.684,1.887,2.737,4.1-1.047.418-3.681,2.319-4.379,2.463-.631.084-.3-.79-.821-.82-.28.632-1.259.565-2.189.547-.386,1.207,1.638,0,1.642.82-4.215-1.924-9.336,3.515-10.4,3.557.078,0-.1-1.062-.274-.82-1.033,1.477-.105,3.36,0,4.1-.146,1.131-2.631-.077-2.463,1.369,1.1-.008,2.111.079,2.463.822a7.658,7.658,0,0,1-.821,3.01c.9.873.489,3.991,0,6.021.569.6.884-.241,1.368.274-1.887,3.647,1.5,10.034-3.831,11.221.523.115,1.178.1,1.094.82-1.457-.62-1.651.589-2.463-.273-.118.885.36,2.367-.547,2.463.39-1.207-.125-1.715,0-3.285-1.211-.391-.716.927-1.642.822.065-.391.451-.462.547-.822a1.028,1.028,0,0,0-1.094,1.095c.5,1.311,1.078,1.656,1.641,3.01-.631-.543-.3.07-.821.274a1.93,1.93,0,0,0-.547-.821c.077,1.111-.1.618-.822.547-.264.969,1.412,2.385,0,2.737a3.032,3.032,0,0,0-.821-2.737c-.061.213-.007.54-.274.548.036-.361.041-1.981-.274-1.1a12.533,12.533,0,0,0-.821,4.106c-.816.327-.351-1.978-.822-1.1-.046.411.1,1.01-.274,1.1-2.005-.23.593-2.489-.821-3.285-.676,1.205-.518,2.171-.821,3.285-.455-.548.023-2.03-.547-2.463-.15,1.045-1.057,2.762-1.642,2.463.731-2.27,3.061-4.715.274-2.737V97.8c-2.329,1.04-1.73,3.226-3.285,4.106-.237,1.059.459,1.184.821,1.641a2.453,2.453,0,0,1,.548-1.916c-.122,2.831-.451,3.762-1.916,5.2.038-1.239,1.122-1.433,1.094-2.737-1.356.833-1.2,3.181-2.736,3.832-.831-.487,1.011-1.071,0-1.641-.2.782-.83,1.484-1.368.547.4-.635.867.534.821-.547-1.536-.07-2.521-.2-3.831,1.641a2.677,2.677,0,0,0-2.737.822c.659.112.6-.5,1.369-.274-.082.539.37.543.547.822-.167.379-1.053.041-1.094.547.946.4,1.29-.305,1.915.274-1.179.148-.887.726-2.189.273,1.238,4.076,1.068,7.241,1.095,12.315-2.376,2.277-6.451,2.854-8.484,5.475-7.441,2.471-13.866,7.693-21.072,11.493-9.386,4.948-19.323,9.46-26,16.693C51.7,163.4,47.84,172.042,44.781,182.91Zm8.484-10.125c-.238-.809-.41.634-1.1.273.763-.97,2.237-1.228,3.284-1.916-1.313.968-1.988,2.574-3.831,3.011C146.439,173.548,147.505,173.611,147.682,172.785Zm-9.306,0c.278.178.283.63.822.547-.379.442-.969.674-.822,1.641-.589,1,.1-1.53-.547-1.369C138.119,173.165,138.914,174.051,138.377,172.785ZM124.419,98.894c.048,1.052-.945,1.06-1.094,1.916C122.618,100.173,123.8,99.107,124.419,98.894Zm5.2,1.367a1.784,1.784,0,0,1,1.368-.273c-.007.266-.335.212-.547.273a4.675,4.675,0,0,0,.821,1.1C130.671,102.1,129.325,101.3,129.62,100.261ZM106.358,51c.207.385.968,3.589-.548,4.652.225-1.052.969-2.521,0-2.736A4.492,4.492,0,0,0,106.358,51Zm-.548,4.926c.683.23.667,1.544.274,2.463C105.734,57.836,106.037,57.266,105.81,55.927Zm-6.294,7.116c-.593.045-.124-.972-.274-1.369,1.072-.161.7,1.126,1.368,1.369C100.372,64.062,99.4,61.574,99.516,63.043Zm.548,1.094h1.094c-.062.393-.817.1-.821.547.4.81,1.067-.361,1.916,0,.136.919,1.049,2.035.547,2.736C101.366,66.32,100.651,66.14,100.063,64.138Zm59.66,5.473a11.92,11.92,0,0,0-9.578-3.832c-3.219.308-5.131,2.248-6.843,3.285C146.169,64.305,157.48,64.321,159.723,69.611ZM146.587,82.747c.568-.071.074-1.2.547-1.368-.243-.579-.833-.809-.821-1.642.9.2.419-.544,0-.548.03-.516.9-.189.821-.82-.605-.489-.74-1.449-1.094-2.19.733.472,1.04-.192,1.642.547.189-.836-1.419-2.224-2.463-2.736.117-.431.86-.235.546-1.1a.747.747,0,0,0,1.1,0c.035-.49-.335-.577-.274-1.094.545.4.958-.284,1.369.548.771-.88-1.045-1.5-1.642-1.917.238-.4.41-.867,1.094-.82.1,1.364,1.953.966,1.916,2.463.921-.34.821.574,2.463-.274,1.2.789-1.286.142-.821,1.094,1.109.887,2.412.787,4.1.549-.479.969.182.672.274,1.641a1.381,1.381,0,0,0-.822.822c.686,1.14,3.359.416,3.832-.822,1.148.9,1.966,1.626.547,3.284.067.3.544.185.548.548.8-.564.918-1.819,1.368-2.737,0,3.928-3.611,6.606-7.389,7.663,1.1-.4.806,2.241,1.916,1.915-1.238.262-.014,1.559-1.369,1.369.483.458-.243.917,0,1.916a1.384,1.384,0,0,1-.821-.822c-.767.147-.506,1.319-.822,1.916a1.7,1.7,0,0,0-1.368,0c-.046.593.971.124,1.368.273.772-.048.342-1.3,1.369-1.094.421.145.017.285-.274.274-.3.151-.05,1.058-.548,1.641-.968.093-1.41.016-1.642.274-.455-.458-.716-1.108-1.642-1.1.1-1.353-1.072-1.787,0-2.736-.044-.321-.5-.232-.821-.274.057-1.19,1.065-1.731.547-2.736-.885-.338-.209.885-1.094.547.908.674.253,1.515-.274,2.189.254-1.032-.849-3.2.547-3.283a15.331,15.331,0,0,1-6.021-4.653C143.489,79.828,145.06,81.99,146.587,82.747ZM102.8,69.883c.769.439-.593,1.023-.547,1.643C101.457,71.061,102.5,70.154,102.8,69.883Zm38.315,3.01c1.194-.02-.331,1.074,0,1.917C140.377,74.487,141.115,73.383,141.114,72.894Zm17.788,1.1c.25-.744.959.278,1.369.273-.238.4-.41.868-1.095.822C159.154,74.65,159.308,74.041,158.9,73.99Zm-16.42,0c.961.216.316.956,0,1.368C141.522,75.142,142.166,74.4,142.482,73.99ZM109.094,87.4c.772.969-.351,2.376-.547,3.285C108.02,89.58,108.563,88.579,109.094,87.4Zm41.325,6.569c1.006-.631,2.09,1,2.463,1.916C151.86,95.446,151.665,94.181,150.419,93.968Zm-9.031,12.588c.052.222.274.273.274.548-.35.523-.6-.611-.274-1.095-1.322.49-2.118-1.047-3.285.274.758.8.922-.37.274,1.369-.6-1.153-1.673-.137-2.189-1.369-1.008.594.819.608.547,1.369-.679-.041-1.328-.051-1.369.547-.05.232.107.257.274.273-.4.645-.831-.97-.821-1.641-.969.239-.673.034-1.642.273.853.932.206.933-.547,1.1.052.31.274.151.274,0,.5.806-1.46,2.254-.547,3.557,1.361-.829,3.2-1.174,3.558-3.01.593-.047.123.971.274,1.369-.795.391-1.715.656-1.916,1.641.772.051.685-1.077,1.094,0,.321-.044.231-.5.274-.822.365-.04.826,1.113,1.1.274.5.773,1.894,1.6,2.463.273.218.752,1.926,2.2,2.189,4.106-.751-1.059-1.775-.432-1.369-1.916-.794.341-.4,1.278-.547,2.737-.745-.583-.594-1.021-.821-1.643-.845.991.685,1.313,0,2.463-.372-.085-.227-.685-.274-1.094a3.3,3.3,0,0,0-1.368,1.641c-.765-.351.335-1.091.547-1.367-.085-.911-.95,1.17-.821-.274-.762-.124.214,1.492-.547,1.369.066.845,1.362.462,1.094,1.641a1.931,1.931,0,0,0,.547-.822c.525.648-.541,1.284,1.1.822.945,1.063.009,4,1.094,4.926-1.333-.131-2.69-2.6-4.926-2.736,1.556-1.9.621-3.32.822-6.022-.678,1.616-.673,3.394-1.642,5.2-.165-.859.3-1.615-.274-3.01-.96,1.107-.445,2.092-1.094,3.283-.96-1.156.456-2.27.274-3.557-.548.364-.61,1.215-.821,1.916-.35-.451-.709-1.485-.274-1.916h-.548c-.767.269.4.73-.274,1.094-.48-.663-1.467.462-.821-.547-.823.363-1,1.374-1.369,2.19.279-.179.283-.63.822-.547-.514.483.326.8-.274,1.367-.466.1-.517-.213-.548-.547a25.908,25.908,0,0,0-.821,2.737c-1.387.371-1.275-1.342-.547-1.641-.052-.222-.274-.274-.274-.549-.452.951-1.066,1.13-1.095,1.916-.232.051-.258-.107-.274-.273h-.547c.452-.735,1.16-1.212,1.642-1.916-.565-.074-1.625,1.13-2.19,1.369.3-.428-.574-1.474.274-1.643-.111-.681-1.061-.015-.822.547-.786-.456.3-1.316.547-1.641-.007-.266-.334-.212-.547-.273.4,1.157-3.431,1.33-3.01,0,.267.007.212.334.274.547,1.028.271.6-1.344,1.369-.547-.19-.859-.73-.357-1.369-.274.122-.243.241-.49.547-.547-.232-.8-.88.163-1.368,0,1.2-.625,2-1.649,3.284-2.19.4-.334.416-1.043.821-1.369-.406.324-1.222.237-1.094,1.1-1.121-.664-1.442.372-2.463.547a.753.753,0,0,1,.821-.547c-.57-.816-1.114.688-1.915.547a9.348,9.348,0,0,1,3.01-2.463c-.275-.667-1.21.536-1.1-.822-.441-.077-.471.259-.821.274-.6.517.569-1.158,1.369-.274a1.385,1.385,0,0,0-.822-.821c-2.456.848-3.908,2.278-6.841,1.917.306-.338.238-.563-.274-.549a.755.755,0,0,1,.82-.547c-.416-.408-1.7.327-1.641-1.094.572.6.781-.137,1.641,0,.284.721,1.086.922,1.369,1.641.929-.53,2.246-.672,3.01-1.368-1.112-.061.194-.8,1.369-.82-.03.517-.9.189-.821.82,1.666-.027.249-1.437,1.641-1.642-.232-.406-.88-.4-1.368-.547a1.7,1.7,0,0,1-2.463.822c-.2-.746.544-.552.547-1.1.322.045.231.5.274.821a21.02,21.02,0,0,1,3.01-1.641c-.205-1.33-1.77,1.062-1.094-.822-.747-.086-1.442,1.267-1.1,1.369-.037.452-1.141-.287-1.915,0,.967.5.01.682-.274,1.369-.162-1.164-.444-.031-1.1-.822.327-.819,1.51.054,1.642-1.369.365.671.826-.493,1.094.274.456-.365.426-1.218.822-1.643.544.456.348-.024,1.094,0-.456.544.025.349,0,1.1.487-.243.7-.765,1.642-.547-.008-.267-.335-.213-.548-.274,1.723-1.631,1.58-5.273,4.926-4.653.685.047.857-.419,1.095-.82,2.858,1.174,6.442-.123,9.3,1.369.116-.995,1.84-.186,1.916-.548.838.269-.122.924-.274,1.1-.084.854.791-.7.821.273.656.108-.152-1.246.822-.82-.93,1.391,1.24,1.307,1.915,1.094.164,1.35-.711,1.66-.547,3.01C141.5,106.86,142.775,105.988,141.388,106.555ZM118.4,111.209c-.363,1.252-1.318.286-2.189.82C115.833,111.723,117.635,111.28,118.4,111.209Zm3.831,12.315c-.334,1.083,1.605,1.472,2.189,2.463-.193-1.5-3.119-3.015-2.463-3.557.414,1.137,1.867,1.233,2.189,2.463.491.034.578-.336,1.1-.274-1.053,1.268.225.163.547,1.1.189.909-.566.441-.822.273.633,1.043,1.633.928,3.011,1.641-.3-2.688,1.118-4.046,2.189-6.02,7.318-1.589,10.479,5.276,15.325,7.936-.015,1.9.7,1.459,1.369,3.285-.841-.071-1.231-.594-1.916-.822-.513.89,1.426,1.669,1.1,3.285-.572-.117-.725.188-1.1.274.856,1.826-2.207,3.4-1.368,5.2-.031.517-.905.19-.822.822a.277.277,0,0,0,.547,0c.84.268-.314.73-.274,1.094-1,.18-1.05-.593-1.915-.547-.05.6.224.87.821.822a1.4,1.4,0,0,1-1.916.547c-.8.4.655,1.5-.821,1.369.321-.529-.251-1.387.547-1.915-1.114-.36-1.136-1.082-.821-1.916-1.78-.412-2.18.557-1.916,2.189-.659-.111-.595.5-1.369.274a6.47,6.47,0,0,1-1.368,4.926c.82-.637,1.121,1.505.821,3.011.523-.115,1.178-.1,1.1-.822,1.323,1.009-1.427,2.056-2.464,2.463a1.283,1.283,0,0,0,.274-.82,6.24,6.24,0,0,1-2.463,1.367c.292.7,1.577.149,1.642-.273.636.319-.491,1.965,1.369,1.641-1.182,1.61-.119.716-1.094,2.737-1.636.581-1.3-1.6-2.19-.274-.05-1.042-.374-.721-.821-1.369h1.369c-.686-.6-1.3-2.706-2.189-2.189-.546-.878.483-1.68.547-2.737-.608.119-1.484.63-1.642-.273-1.052.446.033,1.607-.547,2.189.085.372.685.227,1.094.274-.114,1.162-.342,2.213-1.368,2.463-.077-.442.259-.472.274-.821-.573.158-.781.679-1.642.547,2.684-.048-1.322,2.085-1.916,1.1-1.175.033.461,1.167-.821,1.094.075.645,1.02-.026,1.1-.274,1.149,1.08-1.71.465-1.642,1.368.517.931.959-.467,1.642-.274-.2.857-1.3,1.784-2.19,1.1-.221.051-.273.274-.547.273-.1.466.214.517.547.548.089.482-1.533.488-1.094-.274-.482.687-.452.192-1.094.547-.087.726,1.533-.256,1.094.822-.836.2-1-.28-1.642-.274a3.486,3.486,0,0,1,1.916-1.915c-.41-.9-.668.568-1.368.274-.2-.9-1.268-.921-1.369-1.916-.988,1.692,1.426,3.845-.821,1.094-.227-.773.385-.709.274-1.368-.153-.085-.353.452-.274.548-2.339-2.827-.261-12.723,3.557-12.589.323.407.237,1.222,1.1,1.095-1.813-3.053.267-7.948,3.831-8.211-2.511-3.341-.679-10.307,4.105-8.758.148-.614-1.457-1.819-1.916-2.736,0,2.133-1.322.622-3.284.547.034,1.782,1.636.492,1.915,2.189-3.026-1.261-4.756-3.819-6.568-6.295-1.022.026-.78.307-1.642,0-.329-.359-.107-.43,0-.82-.1-.384-.482-.024-.548.273-.865.135-.1-1.357-1.094-1.094.019-1.278.626.32,1.094.274.383-.1.024-.482-.274-.547.448-.954,1.409,1.283,1.916.273C120.149,122.041,120.827,124.052,122.23,123.524Zm-4.378-3.01c.08-.57.74.407.821-.547-.232-.407-.881-.4-1.368-.547.69-1.118.888.284,2.189,0C119.468,120.309,118.388,120.968,117.852,120.514Zm32.841-10.4c.052-.311.274-.152.274,0a.278.278,0,0,0,0-.548c.747-.55,1.213,1.513,1.642,2.19C151.8,111.378,151.5,110.492,150.693,110.115ZM113.2,111.482c.17-.644,1.247-.361,2.19-.82-.168.243-.331.489,0,.547C115.384,111.314,113.407,111.75,113.2,111.482Zm37.767.547c.6-.963,2.586,1.215.821,1.1C152.281,112.655,151.7,112.049,150.966,112.029Zm.547,1.1a2.889,2.889,0,0,1-1.368-1.369C150.6,111.146,151.37,112.521,151.513,113.125Zm-4.926-.822c.792-.416,2.116.978,3.01,1.369.91-.085-1.171-.951.274-.822.32.864-.17,1.2.274,2.19C148.957,114.13,148.113,112.876,146.587,112.3Zm.547,1.643c.278-.179.283-.63.822-.549-.393.8-.211.308.547.274a2.536,2.536,0,0,0,1.094,1.641c-.833.188-2.222-1.421-3.557-1.641-.259-.206,1.144-.649-.274-1.094C146.144,112.04,147.088,113.244,147.134,113.946Zm1.916,2.189c-.685.045-.856-.421-1.094-.822-.752.421.012,1.6.547,1.641-.405.652-1.872-1.384-1.369-1.641.108-.655-1.246.152-.821-.822-.763.708,1.209,2.091.547,2.737-.707-1.026-2.35-1.115-2.463-2.737.778.228.429,1.579,1.642,1.369-.628-.888-.186-1.147-.821-1.914C145.013,114.141,148.42,114.541,149.05,116.135Zm-7.936-3.01c.6.287.909-.01,1.641.547C142.4,113.881,141.112,114.3,141.114,113.125Zm-22.442,1.094c.576.246,1.634.008,1.368,1.094C119.648,114.885,118.614,115.1,118.673,114.219Zm-.274,1.916c.519-1.332.649.5,1.094.82-.07.641-1.2.159-1.368,0C117.983,116.415,119.739,116.226,118.4,116.135Zm4.652-.274a3.052,3.052,0,0,1-2.189,1.369c.168-.243.33-.489,0-.547C121.457,116.274,122.58,116.393,123.051,115.86Zm21.894,1.094c.274-.844.451.594.821.549-1.126.372.056,1.629-.546,2.189-.763-.651-.424-1.681,0-2.463C145.269,117,145.112,116.972,144.945,116.955Zm-.274,1.918c-.8.958-.962-1.028-.821-1.918C144.872,116.847,143.966,118.665,144.671,118.872Zm-1.642-1.1c.723.741-.542,1.816-.274,3.01C141.978,119.991,142.739,118.413,143.029,117.776Zm-12.041,2.19c-.035-.492.335-.577.274-1.094a3.6,3.6,0,0,1,.548,1.914C131.266,121.824,131.98,119.378,130.988,119.967Zm-11.221,4.1c.961.8,2.674,1.782,3.285,2.737-.232.8-.881-.163-1.369,0C122.549,125.371,119.652,125.638,119.767,124.071Zm-.274,1.369a19.206,19.206,0,0,0,2.189.821C121.43,126.886,119.887,126.55,119.493,125.44Zm19.431,20.525c1.047.236.276,1.424,0,1.916-.747.2-.551-.544-1.1-.547C138.387,146.707,138.218,146.69,138.925,145.965Zm-1.642,6.842c-.044-.321-.5-.232-.821-.274.394-.426,1.1-.54.821-1.641.233-.052.258.106.274.273h.547c-.315.412-.96,1.152,0,1.369-.993,1.333-2.861,2.149-3.284,3.284-.332-.158.178-1.033-.274-1.641.572.6.781-.138,1.642,0C134.99,152.6,136.826,153.815,137.282,152.807Zm1.094-.547c-.57-.414,1.143-.847,1.642-1.1C140.137,152.432,138.424,151.868,138.377,152.26Zm2.189-.821c.506.523-1.2,1.163-1.368,1.916-.359-.1-.431-.482-.822-.548C139.17,152.413,140.246,152.3,140.566,151.438Zm1.1,4.1c.819.181-.262.585,0,1.1a1.686,1.686,0,0,0-1.916.82C139.4,156.309,141.181,156.549,141.661,155.543Zm1.094.821c.629-.543.032,1.652-1.094,1.095C141.236,156.3,143.181,157.518,142.755,156.364Zm-12.589,1.369c.495.482-.94,1.662-1.642,1.094C129.008,158.4,129.684,158.162,130.167,157.733Zm1.368.274c.311.051.152.274,0,.273-.168.88.985.375.274,1.095-.279-.178-.283-.63-.822-.548a1.533,1.533,0,0,0,0,1.643c-1.122-.438-1.686,1.189-2.189,2.189-.644-.232.228-1.2.274-1.641-.8.2-1.153.853-1.094,1.916-.989,0-2.513-.689-2.737-.548-.521-1.056,1.269-.479,1.916-1.095a.826.826,0,0,1-.274-1.368c-1.035-.4-.526.752-1.369.548.2-.991,1.45-.922,2.189-1.369.2.746-.544.55-.547,1.094.007.266.335.212.547.274C128.173,158.893,130.565,159.6,131.535,158.007Zm.548,1.094c.527.111.216,1.06,1.094.82-.43.209-.408.868-1.094.821.467-.858.663-1.163-.548-.821C131.632,159.562,132.018,159.491,132.083,159.1Zm6.294,1.094c1.169-.133-.95,1.582.822,1.642-.085.37-.685.227-1.1.274.392-.4.4-1.06-.547-.822C137.667,160.763,138.617,161.074,138.377,160.2Zm-8.21,1.094c-.767-.644,2.113.631,2.463-.273.969.03-.582.9.274.82a1.2,1.2,0,0,1-1.094.547c-.235-.22-.163-.749-.548-.82-.855-.084.7.79-.274.82-.937.061.038-1.011-1.094-.273C128.977,162.781,130.948,161.292,130.167,161.29Zm3.285.822c-.3.608-1.083.742-1.369,1.369-.721.082-.9-.379-.822-1.1C132.307,163.346,132.215,162.288,133.451,162.112Zm-12.316,1.369c2.595-.419,3.216,3.854,4.379,4.379C123.993,167.552,123.146,164.208,121.136,163.48Zm7.663.273c-.222-.052-.273-.274-.547-.273-.17.658-.166.416-1.368.273C127.107,163.466,128.862,162.6,128.8,163.754Zm12.589,5.473c.794-.675-.411-1.219-.547-.273-.54-.648,1.127-1.415,1.641-1.916.742.247-.23,1.008-.547,1.094.062.348.816.359.821,0C143.5,168.634,141.834,169.013,141.388,169.226Zm1.094.822c-.25-.743-.509.729-1.368.273.58,1.107-.858,1.4-1.642,1.917.737-2.455,2.3-2.432,4.379-3.832-.11.711-.817.824-.822,1.641.1.384.482.024.548-.273.8.845-1.478,1.359-1.642,1.367C141.033,170.734,142.4,170.37,142.482,170.048Zm-3.01.547c.383.253-.425,2.671-1.369,1.643A2.51,2.51,0,0,0,139.472,170.595Zm4.926-3.01c-.823-.53.938.479.822-.547.742.249-.279.959-.274,1.369.966.55-.965-.121,0-.274C144.878,167.835,144.4,167.947,144.4,167.585ZM157.26,174.7c.326.792-1.653,1.623-2.189,2.463-.845-.276.785-.259.548-.822-.238-.809-.41.635-1.1.273C154.856,174.934,156.588,176.185,157.26,174.7ZM108.547,56.474c-.117-1.029.856-.968,1.094-1.641C109.094,54.134,107.855,55.985,108.547,56.474Zm-.274-3.557c.887.473-.711.716-.274,1.641.664-.348,2.262-2.345,1.368-2.463C109.484,53.453,108.548,52.25,108.273,52.917Zm5.474,53.639c1.059.118.974.3,1.642-.273-.081.559-.741.536-.822,1.094,1.526-1.121,3.239-2.289,2.737-3.285C116.442,105.238,114.823,105.625,113.747,106.555Zm.821-44.061c-.681.289-.953,1.154-1.368.274.423,2.4,3.242,2.413,4.653,3.832,5.508-2.953,12.13,1.774,13.409,3.83.2-.841-.751-.524-.547-1.367,1.331-.894,1.042-.448,1.642-1.916-3.3.811-7.645-3.272-13.136-2.19a1.337,1.337,0,0,0-.548-1.367C116.9,63.757,115,63.65,114.567,62.494Zm16.967,12.316c-.5-.527-.926.233-1.368.547.686.952,1.507-1.017,1.916-.274.075.48-.77,1.366,0,1.641a3.7,3.7,0,0,0,.274-3.01c.406-.506,1.414-.409,1.368-1.367-.981-.07-1,.822-1.915.82,0-.152-.222-.31-.274,0C132.366,73.5,131.239,74.109,131.535,74.811Zm24.357,6.841a2.19,2.19,0,0,0,1.642-1.367C156.794,81.111,155.845,80.037,155.892,81.651ZM101.7,84.389c-.993-.292-1.178-2.824-1.641-2.737C100.09,82.91,100.986,84.731,101.7,84.389Zm7.663,8.757c.389-1.426,2.257-2.716,1.916-3.284C110.518,90.654,108.95,92.082,109.368,93.146Zm.274,5.2c-.517-.061-.6.308-1.094.273-.041-.364,1.113-.826.274-1.095-.03.969-.9-.581-.821.273.733.32-.713.716-.821,1.1,2.878,1.228,3.833-3.027,3.832-4.653C110.908,95.963,109.369,96.249,109.641,98.347Zm-.547,2.736c.322.042.777-.047.821.274-.167.38-1.053.041-1.094.547,1.182.365,1.82-.02,1.915-1.369-.322-.042-.777.047-.821-.274.152,0,.311-.221,0-.273C110,100.707,108.853,100.2,109.094,101.083Zm4.379,3.284c.489-.978,2.275-2.095,1.916-3.01C114.8,102.238,113.281,103.618,113.473,104.367Zm21.62,13.137c-.654-.762.474-2.051,0-2.463C134.824,115.406,133.857,117.387,135.093,117.5ZM111.01,104.914c-.046-.594.97-.123,1.368-.273-.108-.472.406-.7,0-.822C112.436,104.673,110.175,103.781,111.01,104.914Zm15.052,15.052c-.239-.748-.916.831,0,0,.061.212.007.54.274.547-.109-.857,1.384-1.512.822-1.916A12.218,12.218,0,0,1,126.062,119.967Zm9.853,14.778c-1.541-1.653-2.836-3.55-4.653-4.926A19,19,0,0,0,135.914,134.745Zm-4.105,20.525c.061-.213.007-.54.274-.547.061.212.007.54.274.547,0-.544.746-.348.547-1.094C132.1,153.942,131.125,154.916,131.809,155.27Zm8.757,26.82c.927-1.463.076-.6-.547-.822.409-.5,1.142-.682,1.369-1.369-.878.264-1.836,1.67-1.916,0-1.163-.25-1.169.657-1.1,1.643a21.31,21.31,0,0,0,2.464,1.094c.544-.117,1.57-1.138,1.094-1.369C141.746,181.809,141.2,182,140.566,182.09Zm5.474-6.295c.483-.885,2.594-.144,2.737-1.369C147.65,174.809,146.034,174.907,146.04,175.8Zm1.642.547a25.378,25.378,0,0,1,3.557-1.641A4.628,4.628,0,0,0,147.682,176.343Zm2.737,2.189c.318-.867,1.8-.574,2.189-1.367C151.844,177.416,149.755,177.761,150.419,178.531Zm3.831,2.737c.167.016.324.041.274.274-.152,0-.311.22,0,.273.443-.662,3.1-.534,2.463-1.369C156.623,181.27,154.817,180.651,154.25,181.269ZM118.4,67.148c.885.118,2.367-.361,2.463.547a9.641,9.641,0,0,0-5.473,1.094c.276,1.327-.978,1.532-.274,2.737.565-.894,1.7-1.217,3.284-1.1-.052-1.238.811-1.559,1.916-1.641-.07,3.759,4.274,2.729,6.02,1.369-.142.4-.4.689-.547,1.094,1.111-.077.618.1.547.822.98-.075,2.127-.958,3.011-.274.131-.86-.39-1.069-.548-1.641.638.084,1.18.584,1.369-.274C128.425,67.048,122.525,64.983,118.4,67.148Zm3.01,1.369H122.5C122.823,69.466,120.975,69.788,121.409,68.517Z" transform="translate(1175.219 878.358)"/></g></g></svg>